<svg xmlns="http://www.w3.org/2000/svg" xmlns:xlink="http://www.w3.org/1999/xlink" width="1080" zoomAndPan="magnify" viewBox="0 0 810 1012.49997" height="1350" preserveAspectRatio="xMidYMid meet" version="1.0"><defs><g/><clipPath id="26ae6172a1"><path d="M 0.199219 0 L 809.800781 0 L 809.800781 1012 L 0.199219 1012 Z M 0.199219 0 " clip-rule="nonzero"/></clipPath><clipPath id="b888fe2c3e"><path d="M 115.902344 616.75 L 694.476562 616.75 L 694.476562 720.035156 L 115.902344 720.035156 Z M 115.902344 616.75 " clip-rule="nonzero"/></clipPath><clipPath id="9ec08d8445"><path d="M 122.652344 616.75 L 687.347656 616.75 C 691.074219 616.75 694.097656 619.769531 694.097656 623.496094 L 694.097656 713.289062 C 694.097656 717.015625 691.074219 720.035156 687.347656 720.035156 L 122.652344 720.035156 C 118.925781 720.035156 115.902344 717.015625 115.902344 713.289062 L 115.902344 623.496094 C 115.902344 619.769531 118.925781 616.75 122.652344 616.75 Z M 122.652344 616.75 " clip-rule="nonzero"/></clipPath><clipPath id="9f9e581957"><path d="M 0.902344 0.75 L 579.175781 0.75 L 579.175781 104.035156 L 0.902344 104.035156 Z M 0.902344 0.75 " clip-rule="nonzero"/></clipPath><clipPath id="42ab670327"><path d="M 7.652344 0.75 L 572.347656 0.75 C 576.074219 0.75 579.097656 3.769531 579.097656 7.496094 L 579.097656 97.289062 C 579.097656 101.015625 576.074219 104.035156 572.347656 104.035156 L 7.652344 104.035156 C 3.925781 104.035156 0.902344 101.015625 0.902344 97.289062 L 0.902344 7.496094 C 0.902344 3.769531 3.925781 0.75 7.652344 0.75 Z M 7.652344 0.75 " clip-rule="nonzero"/></clipPath><clipPath id="3f847922c5"><rect x="0" width="580" y="0" height="105"/></clipPath><clipPath id="8f56c33dc5"><path d="M 115.902344 748.523438 L 694.171875 748.523438 L 694.171875 856.1875 L 115.902344 856.1875 Z M 115.902344 748.523438 " clip-rule="nonzero"/></clipPath><clipPath id="dd0b5f4e2e"><path d="M 122.652344 748.523438 L 687.347656 748.523438 C 691.074219 748.523438 694.097656 751.542969 694.097656 755.269531 L 694.097656 849.4375 C 694.097656 853.164062 691.074219 856.1875 687.347656 856.1875 L 122.652344 856.1875 C 118.925781 856.1875 115.902344 853.164062 115.902344 849.4375 L 115.902344 755.269531 C 115.902344 751.542969 118.925781 748.523438 122.652344 748.523438 Z M 122.652344 748.523438 " clip-rule="nonzero"/></clipPath><clipPath id="76e370e6c7"><path d="M 0.902344 0.523438 L 579.171875 0.523438 L 579.171875 108.1875 L 0.902344 108.1875 Z M 0.902344 0.523438 " clip-rule="nonzero"/></clipPath><clipPath id="377f882ebd"><path d="M 7.652344 0.523438 L 572.347656 0.523438 C 576.074219 0.523438 579.097656 3.542969 579.097656 7.269531 L 579.097656 101.4375 C 579.097656 105.164062 576.074219 108.1875 572.347656 108.1875 L 7.652344 108.1875 C 3.925781 108.1875 0.902344 105.164062 0.902344 101.4375 L 0.902344 7.269531 C 0.902344 3.542969 3.925781 0.523438 7.652344 0.523438 Z M 7.652344 0.523438 " clip-rule="nonzero"/></clipPath><clipPath id="3648b2f4d9"><rect x="0" width="580" y="0" height="109"/></clipPath><clipPath id="d8bb6cd204"><path d="M 115.902344 164.09375 L 694.476562 164.09375 L 694.476562 267.382812 L 115.902344 267.382812 Z M 115.902344 164.09375 " clip-rule="nonzero"/></clipPath><clipPath id="e31161df02"><path d="M 122.652344 164.09375 L 687.347656 164.09375 C 691.074219 164.09375 694.097656 167.117188 694.097656 170.839844 L 694.097656 260.636719 C 694.097656 264.363281 691.074219 267.382812 687.347656 267.382812 L 122.652344 267.382812 C 118.925781 267.382812 115.902344 264.363281 115.902344 260.636719 L 115.902344 170.839844 C 115.902344 167.117188 118.925781 164.09375 122.652344 164.09375 Z M 122.652344 164.09375 " clip-rule="nonzero"/></clipPath><clipPath id="9ecac06c6f"><path d="M 0.902344 0.09375 L 579.175781 0.09375 L 579.175781 103.382812 L 0.902344 103.382812 Z M 0.902344 0.09375 " clip-rule="nonzero"/></clipPath><clipPath id="0b144549a6"><path d="M 7.652344 0.09375 L 572.347656 0.09375 C 576.074219 0.09375 579.097656 3.117188 579.097656 6.839844 L 579.097656 96.636719 C 579.097656 100.363281 576.074219 103.382812 572.347656 103.382812 L 7.652344 103.382812 C 3.925781 103.382812 0.902344 100.363281 0.902344 96.636719 L 0.902344 6.839844 C 0.902344 3.117188 3.925781 0.09375 7.652344 0.09375 Z M 7.652344 0.09375 " clip-rule="nonzero"/></clipPath><clipPath id="c39b8dcecd"><rect x="0" width="580" y="0" height="104"/></clipPath><clipPath id="bdc93515bb"><path d="M 0.199219 564 L 809.800781 564 L 809.800781 571 L 0.199219 571 Z M 0.199219 564 " clip-rule="nonzero"/></clipPath><clipPath id="59400ae713"><path d="M 115.902344 410.410156 L 694.171875 410.410156 L 694.171875 518.074219 L 115.902344 518.074219 Z M 115.902344 410.410156 " clip-rule="nonzero"/></clipPath><clipPath id="e4c6e8e9e5"><path d="M 122.652344 410.410156 L 687.347656 410.410156 C 691.074219 410.410156 694.097656 413.429688 694.097656 417.15625 L 694.097656 511.328125 C 694.097656 515.050781 691.074219 518.074219 687.347656 518.074219 L 122.652344 518.074219 C 118.925781 518.074219 115.902344 515.050781 115.902344 511.328125 L 115.902344 417.15625 C 115.902344 413.429688 118.925781 410.410156 122.652344 410.410156 Z M 122.652344 410.410156 " clip-rule="nonzero"/></clipPath><clipPath id="561f1554ff"><path d="M 0.902344 0.410156 L 579.171875 0.410156 L 579.171875 108.074219 L 0.902344 108.074219 Z M 0.902344 0.410156 " clip-rule="nonzero"/></clipPath><clipPath id="68626633db"><path d="M 7.652344 0.410156 L 572.347656 0.410156 C 576.074219 0.410156 579.097656 3.429688 579.097656 7.15625 L 579.097656 101.328125 C 579.097656 105.050781 576.074219 108.074219 572.347656 108.074219 L 7.652344 108.074219 C 3.925781 108.074219 0.902344 105.050781 0.902344 101.328125 L 0.902344 7.15625 C 0.902344 3.429688 3.925781 0.410156 7.652344 0.410156 Z M 7.652344 0.410156 " clip-rule="nonzero"/></clipPath><clipPath id="12909656eb"><rect x="0" width="580" y="0" height="109"/></clipPath><clipPath id="bf034e3078"><path d="M 115.902344 287.253906 L 694.476562 287.253906 L 694.476562 390.539062 L 115.902344 390.539062 Z M 115.902344 287.253906 " clip-rule="nonzero"/></clipPath><clipPath id="936c6dbf6c"><path d="M 122.652344 287.253906 L 687.347656 287.253906 C 691.074219 287.253906 694.097656 290.273438 694.097656 294 L 694.097656 383.792969 C 694.097656 387.519531 691.074219 390.539062 687.347656 390.539062 L 122.652344 390.539062 C 118.925781 390.539062 115.902344 387.519531 115.902344 383.792969 L 115.902344 294 C 115.902344 290.273438 118.925781 287.253906 122.652344 287.253906 Z M 122.652344 287.253906 " clip-rule="nonzero"/></clipPath><clipPath id="fff2c74b8a"><path d="M 0.902344 0.253906 L 579.175781 0.253906 L 579.175781 103.539062 L 0.902344 103.539062 Z M 0.902344 0.253906 " clip-rule="nonzero"/></clipPath><clipPath id="af3ca1426e"><path d="M 7.652344 0.253906 L 572.347656 0.253906 C 576.074219 0.253906 579.097656 3.273438 579.097656 7 L 579.097656 96.792969 C 579.097656 100.519531 576.074219 103.539062 572.347656 103.539062 L 7.652344 103.539062 C 3.925781 103.539062 0.902344 100.519531 0.902344 96.792969 L 0.902344 7 C 0.902344 3.273438 3.925781 0.253906 7.652344 0.253906 Z M 7.652344 0.253906 " clip-rule="nonzero"/></clipPath><clipPath id="c202c37c06"><rect x="0" width="580" y="0" height="104"/></clipPath></defs><g clip-path="url(#26ae6172a1)"><path fill="#ffffff" d="M 0.199219 0 L 809.800781 0 L 809.800781 1012 L 0.199219 1012 Z M 0.199219 0 " fill-opacity="1" fill-rule="nonzero"/><path fill="#242424" d="M 0.199219 0 L 809.800781 0 L 809.800781 1012 L 0.199219 1012 Z M 0.199219 0 " fill-opacity="1" fill-rule="nonzero"/></g><g fill="#ffffff" fill-opacity="1"><g transform="translate(262.582041, 123.106171)"><g><path d="M 39.609375 0 L 31.546875 0 L 16.3125 -24.4375 L 16.3125 0 L 4.515625 0 L 4.515625 -42.140625 L 17.765625 -42.140625 L 35.578125 -13.25 L 53.40625 -42.140625 L 66.640625 -42.140625 L 66.640625 0 L 54.84375 0 L 54.84375 -24.4375 Z M 39.609375 0 "/></g></g></g><g fill="#ffffff" fill-opacity="1"><g transform="translate(333.730182, 123.106171)"><g><path d="M 26.3125 -42.140625 L 38.53125 -42.140625 L 65.015625 0 L 51.171875 0 L 46.421875 -7.828125 L 18.359375 -7.828125 L 13.671875 0 L -0.1875 0 Z M 40.875 -17.03125 L 32.390625 -31.125 L 23.90625 -17.03125 Z M 40.875 -17.03125 "/></g></g></g><g fill="#ffffff" fill-opacity="1"><g transform="translate(398.558057, 123.106171)"><g><path d="M 16.3125 0 L 4.515625 0 L 4.515625 -42.140625 L 45.390625 -42.140625 C 49.523438 -42.140625 52.9375 -40.835938 55.625 -38.234375 C 58.3125 -35.660156 59.65625 -32.347656 59.65625 -28.296875 L 59.65625 -27.15625 C 59.65625 -24.019531 58.691406 -21.269531 56.765625 -18.90625 C 54.835938 -16.539062 52.289062 -14.894531 49.125 -13.96875 L 60.390625 0 L 47.015625 0 L 36.65625 -13.3125 L 16.3125 -13.3125 Z M 43.890625 -31.734375 L 16.3125 -31.734375 L 16.3125 -23.359375 L 43.953125 -23.359375 C 45.148438 -23.359375 46.097656 -23.6875 46.796875 -24.34375 C 47.503906 -25.007812 47.859375 -25.90625 47.859375 -27.03125 L 47.859375 -28.046875 C 47.859375 -29.171875 47.492188 -30.066406 46.765625 -30.734375 C 46.046875 -31.398438 45.085938 -31.734375 43.890625 -31.734375 Z M 43.890625 -31.734375 "/></g></g></g><g fill="#ffffff" fill-opacity="1"><g transform="translate(460.496673, 123.106171)"><g><path d="M 49.78125 0 L 4.515625 0 L 4.515625 -42.140625 L 49.78125 -42.140625 C 53.59375 -42.140625 56.664062 -40.992188 59 -38.703125 C 61.40625 -36.421875 62.609375 -33.492188 62.609375 -29.921875 L 62.609375 -12.21875 C 62.609375 -8.644531 61.40625 -5.71875 59 -3.4375 C 56.664062 -1.144531 53.59375 0 49.78125 0 Z M 47.203125 -31.734375 L 16.3125 -31.734375 L 16.3125 -10.421875 L 47.203125 -10.421875 C 48.242188 -10.421875 49.101562 -10.75 49.78125 -11.40625 C 50.46875 -12.070312 50.8125 -12.925781 50.8125 -13.96875 L 50.8125 -28.171875 C 50.8125 -29.210938 50.46875 -30.066406 49.78125 -30.734375 C 49.101562 -31.398438 48.242188 -31.734375 47.203125 -31.734375 Z M 47.203125 -31.734375 "/></g></g></g><g fill="#ffffff" fill-opacity="1"><g transform="translate(526.588611, 123.106171)"><g><path d="M 4.515625 -42.140625 L 16.3125 -42.140625 L 16.3125 0 L 4.515625 0 Z M 4.515625 -42.140625 "/></g></g></g><g clip-path="url(#b888fe2c3e)"><g clip-path="url(#9ec08d8445)"><g transform="matrix(1, 0, 0, 1, 115, 616)"><g clip-path="url(#3f847922c5)"><g clip-path="url(#9f9e581957)"><g clip-path="url(#42ab670327)"><path fill="#9ccbd5" d="M 0.902344 0.75 L 579.074219 0.75 L 579.074219 104.035156 L 0.902344 104.035156 Z M 0.902344 0.75 " fill-opacity="1" fill-rule="nonzero"/></g></g></g></g></g></g><g fill="#000000" fill-opacity="1"><g transform="translate(264.681921, 663.409503)"><g><path d="M 16.875 -27.03125 L 24.703125 -27.03125 L 41.703125 0 L 32.8125 0 L 29.765625 -5.015625 L 11.78125 -5.015625 L 8.765625 0 L -0.109375 0 Z M 26.21875 -10.921875 L 20.765625 -19.96875 L 15.328125 -10.921875 Z M 26.21875 -10.921875 "/></g></g></g><g fill="#000000" fill-opacity="1"><g transform="translate(305.063797, 663.409503)"><g><path d="M 40.265625 -19.1875 L 40.265625 -7.84375 C 40.265625 -5.550781 39.492188 -3.671875 37.953125 -2.203125 L 43.09375 2.703125 L 34.78125 2.703125 L 32 0 L 10.5 0 C 8.082031 0 6.101562 -0.734375 4.5625 -2.203125 C 3.007812 -3.671875 2.234375 -5.550781 2.234375 -7.84375 L 2.234375 -19.1875 C 2.234375 -21.476562 3.007812 -23.359375 4.5625 -24.828125 C 6.101562 -26.296875 8.082031 -27.03125 10.5 -27.03125 L 32.046875 -27.03125 C 34.492188 -27.03125 36.460938 -26.296875 37.953125 -24.828125 C 39.492188 -23.359375 40.265625 -21.476562 40.265625 -19.1875 Z M 25.171875 -6.71875 L 20.65625 -11.15625 L 28.609375 -11.15625 L 32.28125 -7.640625 C 32.5625 -8.003906 32.703125 -8.457031 32.703125 -9 L 32.703125 -18.03125 C 32.703125 -18.695312 32.484375 -19.242188 32.046875 -19.671875 C 31.609375 -20.097656 31.054688 -20.3125 30.390625 -20.3125 L 12.078125 -20.3125 C 11.441406 -20.3125 10.90625 -20.09375 10.46875 -19.65625 C 10.03125 -19.21875 9.8125 -18.675781 9.8125 -18.03125 L 9.8125 -9 C 9.8125 -8.351562 10.03125 -7.8125 10.46875 -7.375 C 10.90625 -6.9375 11.441406 -6.71875 12.078125 -6.71875 Z M 25.171875 -6.71875 "/></g></g></g><g fill="#000000" fill-opacity="1"><g transform="translate(347.646213, 663.409503)"><g><path d="M 30.390625 -27.03125 L 37.953125 -27.03125 L 37.953125 -7.84375 C 37.953125 -5.550781 37.179688 -3.671875 35.640625 -2.203125 C 34.140625 -0.734375 32.171875 0 29.734375 0 L 10.96875 0 C 8.539062 0 6.554688 -0.734375 5.015625 -2.203125 C 3.472656 -3.671875 2.703125 -5.550781 2.703125 -7.84375 L 2.703125 -27.03125 L 10.265625 -27.03125 L 10.265625 -8.953125 C 10.265625 -8.285156 10.484375 -7.738281 10.921875 -7.3125 C 11.359375 -6.882812 11.898438 -6.671875 12.546875 -6.671875 L 28.0625 -6.671875 C 28.738281 -6.671875 29.296875 -6.882812 29.734375 -7.3125 C 30.171875 -7.738281 30.390625 -8.285156 30.390625 -8.953125 Z M 30.390625 -27.03125 "/></g></g></g><g fill="#000000" fill-opacity="1"><g transform="translate(387.024332, 663.409503)"><g><path d="M 16.875 -27.03125 L 24.703125 -27.03125 L 41.703125 0 L 32.8125 0 L 29.765625 -5.015625 L 11.78125 -5.015625 L 8.765625 0 L -0.109375 0 Z M 26.21875 -10.921875 L 20.765625 -19.96875 L 15.328125 -10.921875 Z M 26.21875 -10.921875 "/></g></g></g><g fill="#000000" fill-opacity="1"><g transform="translate(427.406208, 663.409503)"><g/></g></g><g fill="#000000" fill-opacity="1"><g transform="translate(447.674351, 663.409503)"><g><path d="M 25.40625 0 L 20.234375 0 L 10.46875 -15.671875 L 10.46875 0 L 2.890625 0 L 2.890625 -27.03125 L 11.390625 -27.03125 L 22.8125 -8.5 L 34.25 -27.03125 L 42.734375 -27.03125 L 42.734375 0 L 35.171875 0 L 35.171875 -15.671875 Z M 25.40625 0 "/></g></g></g><g fill="#000000" fill-opacity="1"><g transform="translate(493.306644, 663.409503)"><g><path d="M 2.890625 -27.03125 L 10.46875 -27.03125 L 10.46875 0 L 2.890625 0 Z M 2.890625 -27.03125 "/></g></g></g><g fill="#000000" fill-opacity="1"><g transform="translate(506.66432, 663.409503)"><g><path d="M 14.171875 -13.75 L -0.1875 -27.03125 L 10.3125 -27.03125 L 19.296875 -18.375 L 28.375 -27.03125 L 38.796875 -27.03125 L 24.484375 -13.75 L 39.34375 0 L 29 0 L 19.34375 -8.875 L 9.609375 0 L -0.6875 0 Z M 14.171875 -13.75 "/></g></g></g><g fill="#000000" fill-opacity="1"><g transform="translate(260.676086, 704.63914)"><g><path d="M 5.8125 -19.09375 L 9.109375 -19.09375 L 9.109375 0 L 3.765625 0 L 3.765625 -13.78125 L 0.8125 -12.984375 L 0.8125 -17.734375 Z M 5.8125 -19.09375 "/></g></g></g><g fill="#000000" fill-opacity="1"><g transform="translate(271.883163, 704.63914)"><g><path d="M 20.140625 0 L 6.515625 0 C 4.992188 0 3.757812 -0.414062 2.8125 -1.25 C 1.863281 -2.09375 1.390625 -3.175781 1.390625 -4.5 L 1.390625 -6.359375 C 1.390625 -7.878906 2.195312 -9.015625 3.8125 -9.765625 C 2.613281 -10.453125 2.015625 -11.390625 2.015625 -12.578125 L 2.015625 -14.875 C 2.015625 -16.050781 2.5 -17.050781 3.46875 -17.875 C 4.445312 -18.6875 5.632812 -19.09375 7.03125 -19.09375 L 19.609375 -19.09375 C 21.035156 -19.09375 22.21875 -18.6875 23.15625 -17.875 C 24.144531 -17.050781 24.640625 -16.050781 24.640625 -14.875 L 24.640625 -12.578125 C 24.640625 -11.378906 24.03125 -10.441406 22.8125 -9.765625 C 24.445312 -8.984375 25.265625 -7.847656 25.265625 -6.359375 L 25.265625 -4.5 C 25.265625 -3.1875 24.78125 -2.101562 23.8125 -1.25 C 22.863281 -0.414062 21.640625 0 20.140625 0 Z M 19.28125 -7.75 L 7.359375 -7.75 C 7.179688 -7.75 7.03125 -7.691406 6.90625 -7.578125 C 6.789062 -7.472656 6.734375 -7.328125 6.734375 -7.140625 L 6.734375 -5.3125 C 6.734375 -5.132812 6.789062 -4.988281 6.90625 -4.875 C 7.03125 -4.769531 7.179688 -4.71875 7.359375 -4.71875 L 19.28125 -4.71875 C 19.46875 -4.71875 19.617188 -4.769531 19.734375 -4.875 C 19.859375 -4.988281 19.921875 -5.132812 19.921875 -5.3125 L 19.921875 -7.140625 C 19.921875 -7.328125 19.859375 -7.472656 19.734375 -7.578125 C 19.617188 -7.691406 19.46875 -7.75 19.28125 -7.75 Z M 18.65625 -14.375 L 8 -14.375 C 7.8125 -14.375 7.65625 -14.316406 7.53125 -14.203125 C 7.414062 -14.097656 7.359375 -13.957031 7.359375 -13.78125 L 7.359375 -12.0625 C 7.359375 -11.875 7.414062 -11.722656 7.53125 -11.609375 C 7.65625 -11.503906 7.8125 -11.453125 8 -11.453125 L 18.65625 -11.453125 C 18.84375 -11.453125 18.992188 -11.503906 19.109375 -11.609375 C 19.222656 -11.722656 19.28125 -11.875 19.28125 -12.0625 L 19.28125 -13.78125 C 19.28125 -13.957031 19.222656 -14.097656 19.109375 -14.203125 C 18.992188 -14.316406 18.84375 -14.375 18.65625 -14.375 Z M 18.65625 -14.375 "/></g></g></g><g fill="#000000" fill-opacity="1"><g transform="translate(298.523822, 704.63914)"><g><path d="M 2.046875 -19.09375 L 7.390625 -19.09375 L 7.390625 -11.671875 L 21.609375 -11.671875 L 21.609375 -19.09375 L 26.953125 -19.09375 L 26.953125 0 L 21.609375 0 L 21.609375 -6.953125 L 7.390625 -6.953125 L 7.390625 0 L 2.046875 0 Z M 2.046875 -19.09375 "/></g></g></g><g fill="#000000" fill-opacity="1"><g transform="translate(327.50951, 704.63914)"><g><path d="M 21.71875 -6.328125 L 21.71875 -12.765625 C 21.71875 -13.242188 21.5625 -13.628906 21.25 -13.921875 C 20.9375 -14.222656 20.546875 -14.375 20.078125 -14.375 L 8.671875 -14.375 C 8.203125 -14.375 7.816406 -14.222656 7.515625 -13.921875 C 7.210938 -13.628906 7.0625 -13.242188 7.0625 -12.765625 L 7.0625 -6.328125 C 7.0625 -5.859375 7.210938 -5.472656 7.515625 -5.171875 C 7.816406 -4.867188 8.203125 -4.71875 8.671875 -4.71875 L 20.078125 -4.71875 C 20.546875 -4.71875 20.9375 -4.867188 21.25 -5.171875 C 21.5625 -5.472656 21.71875 -5.859375 21.71875 -6.328125 Z M 27.0625 -13.5625 L 27.0625 -5.53125 C 27.0625 -3.914062 26.515625 -2.59375 25.421875 -1.5625 C 24.367188 -0.519531 22.976562 0 21.25 0 L 7.5625 0 C 5.851562 0 4.453125 -0.519531 3.359375 -1.5625 C 2.265625 -2.59375 1.71875 -3.914062 1.71875 -5.53125 L 1.71875 -13.5625 C 1.71875 -15.175781 2.265625 -16.503906 3.359375 -17.546875 C 4.453125 -18.578125 5.851562 -19.09375 7.5625 -19.09375 L 21.25 -19.09375 C 22.976562 -19.09375 24.367188 -18.578125 25.421875 -17.546875 C 26.515625 -16.503906 27.0625 -15.175781 27.0625 -13.5625 Z M 27.0625 -13.5625 "/></g></g></g><g fill="#000000" fill-opacity="1"><g transform="translate(356.277055, 704.63914)"><g><path d="M 21.71875 -6.328125 L 21.71875 -12.765625 C 21.71875 -13.242188 21.5625 -13.628906 21.25 -13.921875 C 20.9375 -14.222656 20.546875 -14.375 20.078125 -14.375 L 8.671875 -14.375 C 8.203125 -14.375 7.816406 -14.222656 7.515625 -13.921875 C 7.210938 -13.628906 7.0625 -13.242188 7.0625 -12.765625 L 7.0625 -6.328125 C 7.0625 -5.859375 7.210938 -5.472656 7.515625 -5.171875 C 7.816406 -4.867188 8.203125 -4.71875 8.671875 -4.71875 L 20.078125 -4.71875 C 20.546875 -4.71875 20.9375 -4.867188 21.25 -5.171875 C 21.5625 -5.472656 21.71875 -5.859375 21.71875 -6.328125 Z M 27.0625 -13.5625 L 27.0625 -5.53125 C 27.0625 -3.914062 26.515625 -2.59375 25.421875 -1.5625 C 24.367188 -0.519531 22.976562 0 21.25 0 L 7.5625 0 C 5.851562 0 4.453125 -0.519531 3.359375 -1.5625 C 2.265625 -2.59375 1.71875 -3.914062 1.71875 -5.53125 L 1.71875 -13.5625 C 1.71875 -15.175781 2.265625 -16.503906 3.359375 -17.546875 C 4.453125 -18.578125 5.851562 -19.09375 7.5625 -19.09375 L 21.25 -19.09375 C 22.976562 -19.09375 24.367188 -18.578125 25.421875 -17.546875 C 26.515625 -16.503906 27.0625 -15.175781 27.0625 -13.5625 Z M 27.0625 -13.5625 "/></g></g></g><g fill="#000000" fill-opacity="1"><g transform="translate(385.0446, 704.63914)"><g/></g></g><g fill="#000000" fill-opacity="1"><g transform="translate(399.360199, 704.63914)"><g><path d="M 15.828125 -11.453125 L 15.828125 -8.234375 L 1.6875 -8.234375 L 1.6875 -11.453125 Z M 15.828125 -11.453125 "/></g></g></g><g fill="#000000" fill-opacity="1"><g transform="translate(416.866141, 704.63914)"><g/></g></g><g fill="#000000" fill-opacity="1"><g transform="translate(431.18174, 704.63914)"><g><path d="M 5.8125 -19.09375 L 9.109375 -19.09375 L 9.109375 0 L 3.765625 0 L 3.765625 -13.78125 L 0.8125 -12.984375 L 0.8125 -17.734375 Z M 5.8125 -19.09375 "/></g></g></g><g fill="#000000" fill-opacity="1"><g transform="translate(442.388817, 704.63914)"><g><path d="M 20.140625 0 L 6.515625 0 C 4.992188 0 3.757812 -0.414062 2.8125 -1.25 C 1.863281 -2.09375 1.390625 -3.175781 1.390625 -4.5 L 1.390625 -6.359375 C 1.390625 -7.878906 2.195312 -9.015625 3.8125 -9.765625 C 2.613281 -10.453125 2.015625 -11.390625 2.015625 -12.578125 L 2.015625 -14.875 C 2.015625 -16.050781 2.5 -17.050781 3.46875 -17.875 C 4.445312 -18.6875 5.632812 -19.09375 7.03125 -19.09375 L 19.609375 -19.09375 C 21.035156 -19.09375 22.21875 -18.6875 23.15625 -17.875 C 24.144531 -17.050781 24.640625 -16.050781 24.640625 -14.875 L 24.640625 -12.578125 C 24.640625 -11.378906 24.03125 -10.441406 22.8125 -9.765625 C 24.445312 -8.984375 25.265625 -7.847656 25.265625 -6.359375 L 25.265625 -4.5 C 25.265625 -3.1875 24.78125 -2.101562 23.8125 -1.25 C 22.863281 -0.414062 21.640625 0 20.140625 0 Z M 19.28125 -7.75 L 7.359375 -7.75 C 7.179688 -7.75 7.03125 -7.691406 6.90625 -7.578125 C 6.789062 -7.472656 6.734375 -7.328125 6.734375 -7.140625 L 6.734375 -5.3125 C 6.734375 -5.132812 6.789062 -4.988281 6.90625 -4.875 C 7.03125 -4.769531 7.179688 -4.71875 7.359375 -4.71875 L 19.28125 -4.71875 C 19.46875 -4.71875 19.617188 -4.769531 19.734375 -4.875 C 19.859375 -4.988281 19.921875 -5.132812 19.921875 -5.3125 L 19.921875 -7.140625 C 19.921875 -7.328125 19.859375 -7.472656 19.734375 -7.578125 C 19.617188 -7.691406 19.46875 -7.75 19.28125 -7.75 Z M 18.65625 -14.375 L 8 -14.375 C 7.8125 -14.375 7.65625 -14.316406 7.53125 -14.203125 C 7.414062 -14.097656 7.359375 -13.957031 7.359375 -13.78125 L 7.359375 -12.0625 C 7.359375 -11.875 7.414062 -11.722656 7.53125 -11.609375 C 7.65625 -11.503906 7.8125 -11.453125 8 -11.453125 L 18.65625 -11.453125 C 18.84375 -11.453125 18.992188 -11.503906 19.109375 -11.609375 C 19.222656 -11.722656 19.28125 -11.875 19.28125 -12.0625 L 19.28125 -13.78125 C 19.28125 -13.957031 19.222656 -14.097656 19.109375 -14.203125 C 18.992188 -14.316406 18.84375 -14.375 18.65625 -14.375 Z M 18.65625 -14.375 "/></g></g></g><g fill="#000000" fill-opacity="1"><g transform="translate(469.029464, 704.63914)"><g><path d="M 2.046875 -19.09375 L 7.390625 -19.09375 L 7.390625 -11.671875 L 21.609375 -11.671875 L 21.609375 -19.09375 L 26.953125 -19.09375 L 26.953125 0 L 21.609375 0 L 21.609375 -6.953125 L 7.390625 -6.953125 L 7.390625 0 L 2.046875 0 Z M 2.046875 -19.09375 "/></g></g></g><g fill="#000000" fill-opacity="1"><g transform="translate(498.015163, 704.63914)"><g><path d="M 0.90625 -3.171875 L 0.90625 -9.71875 L 15.328125 -19.09375 L 22.421875 -19.09375 L 22.421875 -7.53125 L 24.859375 -7.53125 L 24.859375 -3.171875 L 22.421875 -3.171875 L 22.421875 0 L 17.078125 0 L 17.078125 -3.171875 Z M 5.953125 -7.6875 L 5.953125 -7.53125 L 17.078125 -7.53125 L 17.078125 -14.375 L 16.859375 -14.375 Z M 5.953125 -7.6875 "/></g></g></g><g fill="#000000" fill-opacity="1"><g transform="translate(523.755982, 704.63914)"><g><path d="M 18.609375 0 L 1.796875 0 L 1.796875 -4.71875 L 18.390625 -4.71875 C 18.566406 -4.71875 18.710938 -4.769531 18.828125 -4.875 C 18.953125 -4.988281 19.015625 -5.132812 19.015625 -5.3125 L 19.015625 -6.875 C 19.015625 -7.050781 18.953125 -7.191406 18.828125 -7.296875 C 18.710938 -7.410156 18.566406 -7.46875 18.390625 -7.46875 L 1.875 -7.46875 L 1.875 -19.09375 L 23.15625 -19.09375 L 23.15625 -14.375 L 7.234375 -14.375 L 7.234375 -11.96875 L 18.609375 -11.96875 C 20.421875 -11.96875 21.832031 -11.539062 22.84375 -10.6875 C 23.851562 -9.832031 24.359375 -8.625 24.359375 -7.0625 L 24.359375 -4.78125 C 24.359375 -3.226562 23.867188 -2.039062 22.890625 -1.21875 C 21.910156 -0.40625 20.484375 0 18.609375 0 Z M 18.609375 0 "/></g></g></g><g clip-path="url(#8f56c33dc5)"><g clip-path="url(#dd0b5f4e2e)"><g transform="matrix(1, 0, 0, 1, 115, 748)"><g clip-path="url(#3648b2f4d9)"><g clip-path="url(#76e370e6c7)"><g clip-path="url(#377f882ebd)"><path fill="#9ccbd5" d="M 0.902344 0.523438 L 579.171875 0.523438 L 579.171875 108.1875 L 0.902344 108.1875 Z M 0.902344 0.523438 " fill-opacity="1" fill-rule="nonzero"/></g></g></g></g></g></g><g fill="#000000" fill-opacity="1"><g transform="translate(247.569282, 797.433661)"><g><path d="M 16.859375 -27 L 24.6875 -27 L 41.671875 0 L 32.796875 0 L 29.75 -5.015625 L 11.765625 -5.015625 L 8.75 0 L -0.109375 0 Z M 26.1875 -10.921875 L 20.75 -19.9375 L 15.3125 -10.921875 Z M 26.1875 -10.921875 "/></g></g></g><g fill="#000000" fill-opacity="1"><g transform="translate(287.914167, 797.433661)"><g><path d="M 40.234375 -19.171875 L 40.234375 -7.828125 C 40.234375 -5.535156 39.460938 -3.660156 37.921875 -2.203125 L 43.046875 2.703125 L 34.765625 2.703125 L 31.984375 0 L 10.5 0 C 8.070312 0 6.085938 -0.734375 4.546875 -2.203125 C 3.003906 -3.660156 2.234375 -5.535156 2.234375 -7.828125 L 2.234375 -19.171875 C 2.234375 -21.460938 3.003906 -23.34375 4.546875 -24.8125 C 6.085938 -26.269531 8.070312 -27 10.5 -27 L 32.015625 -27 C 34.460938 -27 36.429688 -26.269531 37.921875 -24.8125 C 39.460938 -23.34375 40.234375 -21.460938 40.234375 -19.171875 Z M 25.15625 -6.71875 L 20.640625 -11.15625 L 28.59375 -11.15625 L 32.25 -7.640625 C 32.53125 -7.992188 32.671875 -8.441406 32.671875 -8.984375 L 32.671875 -18.015625 C 32.671875 -18.679688 32.453125 -19.226562 32.015625 -19.65625 C 31.578125 -20.082031 31.023438 -20.296875 30.359375 -20.296875 L 12.078125 -20.296875 C 11.429688 -20.296875 10.890625 -20.078125 10.453125 -19.640625 C 10.015625 -19.203125 9.796875 -18.660156 9.796875 -18.015625 L 9.796875 -8.984375 C 9.796875 -8.347656 10.015625 -7.8125 10.453125 -7.375 C 10.890625 -6.9375 11.429688 -6.71875 12.078125 -6.71875 Z M 25.15625 -6.71875 "/></g></g></g><g fill="#000000" fill-opacity="1"><g transform="translate(330.457738, 797.433661)"><g><path d="M 30.359375 -27 L 37.921875 -27 L 37.921875 -7.828125 C 37.921875 -5.535156 37.148438 -3.660156 35.609375 -2.203125 C 34.117188 -0.734375 32.148438 0 29.703125 0 L 10.953125 0 C 8.535156 0 6.554688 -0.734375 5.015625 -2.203125 C 3.472656 -3.660156 2.703125 -5.535156 2.703125 -7.828125 L 2.703125 -27 L 10.265625 -27 L 10.265625 -8.953125 C 10.265625 -8.285156 10.484375 -7.738281 10.921875 -7.3125 C 11.359375 -6.882812 11.894531 -6.671875 12.53125 -6.671875 L 28.046875 -6.671875 C 28.710938 -6.671875 29.265625 -6.882812 29.703125 -7.3125 C 30.140625 -7.738281 30.359375 -8.285156 30.359375 -8.953125 Z M 30.359375 -27 "/></g></g></g><g fill="#000000" fill-opacity="1"><g transform="translate(369.799768, 797.433661)"><g><path d="M 16.859375 -27 L 24.6875 -27 L 41.671875 0 L 32.796875 0 L 29.75 -5.015625 L 11.765625 -5.015625 L 8.75 0 L -0.109375 0 Z M 26.1875 -10.921875 L 20.75 -19.9375 L 15.3125 -10.921875 Z M 26.1875 -10.921875 "/></g></g></g><g fill="#000000" fill-opacity="1"><g transform="translate(410.144653, 797.433661)"><g/></g></g><g fill="#000000" fill-opacity="1"><g transform="translate(430.39431, 797.433661)"><g><path d="M 2.890625 0 L 2.890625 -27 L 29.46875 -27 C 32.039062 -27 34.113281 -26.34375 35.6875 -25.03125 C 37.25 -23.769531 38.03125 -22.0625 38.03125 -19.90625 L 38.03125 -19.21875 C 38.03125 -17.207031 37.03125 -15.5625 35.03125 -14.28125 C 36.34375 -13.65625 37.367188 -12.804688 38.109375 -11.734375 C 38.859375 -10.671875 39.234375 -9.472656 39.234375 -8.140625 L 39.234375 -7.484375 C 39.234375 -5.242188 38.421875 -3.429688 36.796875 -2.046875 C 35.203125 -0.679688 33.082031 0 30.4375 0 Z M 29.46875 -10.765625 L 10.453125 -10.765625 L 10.453125 -6.671875 L 29.46875 -6.671875 C 30.164062 -6.671875 30.707031 -6.820312 31.09375 -7.125 C 31.476562 -7.4375 31.671875 -7.863281 31.671875 -8.40625 L 31.671875 -9.0625 C 31.671875 -10.195312 30.9375 -10.765625 29.46875 -10.765625 Z M 28.46875 -20.328125 L 10.453125 -20.328125 L 10.453125 -16.390625 L 28.46875 -16.390625 C 29.8125 -16.390625 30.484375 -16.929688 30.484375 -18.015625 L 30.484375 -18.75 C 30.484375 -19.800781 29.8125 -20.328125 28.46875 -20.328125 Z M 28.46875 -20.328125 "/></g></g></g><g fill="#000000" fill-opacity="1"><g transform="translate(471.12506, 797.433661)"><g><path d="M 2.890625 -27 L 10.453125 -27 L 10.453125 0 L 2.890625 0 Z M 2.890625 -27 "/></g></g></g><g fill="#000000" fill-opacity="1"><g transform="translate(484.470542, 797.433661)"><g><path d="M 2.890625 -27 L 10.453125 -27 L 10.453125 -16.46875 L 17.859375 -16.46875 L 28.96875 -27 L 39.578125 -27 L 24.8125 -13.234375 L 40 0 L 29.390625 0 L 17.984375 -10.03125 L 10.453125 -10.03125 L 10.453125 0 L 2.890625 0 Z M 2.890625 -27 "/></g></g></g><g fill="#000000" fill-opacity="1"><g transform="translate(523.812744, 797.433661)"><g><path d="M 35.453125 -16.75 L 35.453125 -10.296875 L 10.453125 -10.296875 L 10.453125 -6.671875 L 36.453125 -6.671875 L 36.453125 0 L 2.890625 0 L 2.890625 -27 L 36.375 -27 L 36.375 -20.328125 L 10.453125 -20.328125 L 10.453125 -16.75 Z M 35.453125 -16.75 "/></g></g></g><g fill="#000000" fill-opacity="1"><g transform="translate(261.168031, 838.663297)"><g><path d="M 5.8125 -19.09375 L 9.109375 -19.09375 L 9.109375 0 L 3.765625 0 L 3.765625 -13.78125 L 0.8125 -12.984375 L 0.8125 -17.734375 Z M 5.8125 -19.09375 "/></g></g></g><g fill="#000000" fill-opacity="1"><g transform="translate(272.375108, 838.663297)"><g><path d="M 6.515625 -19.09375 L 18.609375 -19.09375 C 20.316406 -19.09375 21.71875 -18.578125 22.8125 -17.546875 C 23.894531 -16.503906 24.4375 -15.175781 24.4375 -13.5625 L 24.4375 -5.53125 C 24.4375 -3.914062 23.894531 -2.59375 22.8125 -1.5625 C 21.71875 -0.519531 20.316406 0 18.609375 0 L 2.203125 0 L 2.203125 -4.71875 L 17.484375 -4.71875 C 17.941406 -4.71875 18.320312 -4.867188 18.625 -5.171875 C 18.9375 -5.472656 19.09375 -5.859375 19.09375 -6.328125 L 19.09375 -7.421875 L 6.546875 -7.421875 C 4.796875 -7.421875 3.46875 -7.820312 2.5625 -8.625 C 1.65625 -9.425781 1.203125 -10.597656 1.203125 -12.140625 L 1.203125 -13.71875 C 1.203125 -15.375 1.675781 -16.679688 2.625 -17.640625 C 3.582031 -18.609375 4.878906 -19.09375 6.515625 -19.09375 Z M 6.546875 -13.78125 L 6.546875 -12.109375 C 6.546875 -11.929688 6.601562 -11.785156 6.71875 -11.671875 C 6.84375 -11.566406 6.992188 -11.515625 7.171875 -11.515625 L 19.09375 -11.515625 L 19.09375 -13.78125 C 19.09375 -13.957031 19.035156 -14.097656 18.921875 -14.203125 C 18.804688 -14.316406 18.65625 -14.375 18.46875 -14.375 L 7.171875 -14.375 C 6.992188 -14.375 6.84375 -14.316406 6.71875 -14.203125 C 6.601562 -14.097656 6.546875 -13.957031 6.546875 -13.78125 Z M 6.546875 -13.78125 "/></g></g></g><g fill="#000000" fill-opacity="1"><g transform="translate(298.524943, 838.663297)"><g><path d="M 2.046875 -19.09375 L 7.390625 -19.09375 L 7.390625 -11.671875 L 21.609375 -11.671875 L 21.609375 -19.09375 L 26.953125 -19.09375 L 26.953125 0 L 21.609375 0 L 21.609375 -6.953125 L 7.390625 -6.953125 L 7.390625 0 L 2.046875 0 Z M 2.046875 -19.09375 "/></g></g></g><g fill="#000000" fill-opacity="1"><g transform="translate(327.510631, 838.663297)"><g><path d="M 21.71875 -6.328125 L 21.71875 -12.765625 C 21.71875 -13.242188 21.5625 -13.628906 21.25 -13.921875 C 20.9375 -14.222656 20.546875 -14.375 20.078125 -14.375 L 8.671875 -14.375 C 8.203125 -14.375 7.816406 -14.222656 7.515625 -13.921875 C 7.210938 -13.628906 7.0625 -13.242188 7.0625 -12.765625 L 7.0625 -6.328125 C 7.0625 -5.859375 7.210938 -5.472656 7.515625 -5.171875 C 7.816406 -4.867188 8.203125 -4.71875 8.671875 -4.71875 L 20.078125 -4.71875 C 20.546875 -4.71875 20.9375 -4.867188 21.25 -5.171875 C 21.5625 -5.472656 21.71875 -5.859375 21.71875 -6.328125 Z M 27.0625 -13.5625 L 27.0625 -5.53125 C 27.0625 -3.914062 26.515625 -2.59375 25.421875 -1.5625 C 24.367188 -0.519531 22.976562 0 21.25 0 L 7.5625 0 C 5.851562 0 4.453125 -0.519531 3.359375 -1.5625 C 2.265625 -2.59375 1.71875 -3.914062 1.71875 -5.53125 L 1.71875 -13.5625 C 1.71875 -15.175781 2.265625 -16.503906 3.359375 -17.546875 C 4.453125 -18.578125 5.851562 -19.09375 7.5625 -19.09375 L 21.25 -19.09375 C 22.976562 -19.09375 24.367188 -18.578125 25.421875 -17.546875 C 26.515625 -16.503906 27.0625 -15.175781 27.0625 -13.5625 Z M 27.0625 -13.5625 "/></g></g></g><g fill="#000000" fill-opacity="1"><g transform="translate(356.278176, 838.663297)"><g><path d="M 21.71875 -6.328125 L 21.71875 -12.765625 C 21.71875 -13.242188 21.5625 -13.628906 21.25 -13.921875 C 20.9375 -14.222656 20.546875 -14.375 20.078125 -14.375 L 8.671875 -14.375 C 8.203125 -14.375 7.816406 -14.222656 7.515625 -13.921875 C 7.210938 -13.628906 7.0625 -13.242188 7.0625 -12.765625 L 7.0625 -6.328125 C 7.0625 -5.859375 7.210938 -5.472656 7.515625 -5.171875 C 7.816406 -4.867188 8.203125 -4.71875 8.671875 -4.71875 L 20.078125 -4.71875 C 20.546875 -4.71875 20.9375 -4.867188 21.25 -5.171875 C 21.5625 -5.472656 21.71875 -5.859375 21.71875 -6.328125 Z M 27.0625 -13.5625 L 27.0625 -5.53125 C 27.0625 -3.914062 26.515625 -2.59375 25.421875 -1.5625 C 24.367188 -0.519531 22.976562 0 21.25 0 L 7.5625 0 C 5.851562 0 4.453125 -0.519531 3.359375 -1.5625 C 2.265625 -2.59375 1.71875 -3.914062 1.71875 -5.53125 L 1.71875 -13.5625 C 1.71875 -15.175781 2.265625 -16.503906 3.359375 -17.546875 C 4.453125 -18.578125 5.851562 -19.09375 7.5625 -19.09375 L 21.25 -19.09375 C 22.976562 -19.09375 24.367188 -18.578125 25.421875 -17.546875 C 26.515625 -16.503906 27.0625 -15.175781 27.0625 -13.5625 Z M 27.0625 -13.5625 "/></g></g></g><g fill="#000000" fill-opacity="1"><g transform="translate(385.045721, 838.663297)"><g/></g></g><g fill="#000000" fill-opacity="1"><g transform="translate(399.36132, 838.663297)"><g><path d="M 15.828125 -11.453125 L 15.828125 -8.234375 L 1.6875 -8.234375 L 1.6875 -11.453125 Z M 15.828125 -11.453125 "/></g></g></g><g fill="#000000" fill-opacity="1"><g transform="translate(416.867261, 838.663297)"><g/></g></g><g fill="#000000" fill-opacity="1"><g transform="translate(431.182861, 838.663297)"><g><path d="M 5.8125 -19.09375 L 9.109375 -19.09375 L 9.109375 0 L 3.765625 0 L 3.765625 -13.78125 L 0.8125 -12.984375 L 0.8125 -17.734375 Z M 5.8125 -19.09375 "/></g></g></g><g fill="#000000" fill-opacity="1"><g transform="translate(442.389938, 838.663297)"><g><path d="M 6.515625 -19.09375 L 18.609375 -19.09375 C 20.316406 -19.09375 21.71875 -18.578125 22.8125 -17.546875 C 23.894531 -16.503906 24.4375 -15.175781 24.4375 -13.5625 L 24.4375 -5.53125 C 24.4375 -3.914062 23.894531 -2.59375 22.8125 -1.5625 C 21.71875 -0.519531 20.316406 0 18.609375 0 L 2.203125 0 L 2.203125 -4.71875 L 17.484375 -4.71875 C 17.941406 -4.71875 18.320312 -4.867188 18.625 -5.171875 C 18.9375 -5.472656 19.09375 -5.859375 19.09375 -6.328125 L 19.09375 -7.421875 L 6.546875 -7.421875 C 4.796875 -7.421875 3.46875 -7.820312 2.5625 -8.625 C 1.65625 -9.425781 1.203125 -10.597656 1.203125 -12.140625 L 1.203125 -13.71875 C 1.203125 -15.375 1.675781 -16.679688 2.625 -17.640625 C 3.582031 -18.609375 4.878906 -19.09375 6.515625 -19.09375 Z M 6.546875 -13.78125 L 6.546875 -12.109375 C 6.546875 -11.929688 6.601562 -11.785156 6.71875 -11.671875 C 6.84375 -11.566406 6.992188 -11.515625 7.171875 -11.515625 L 19.09375 -11.515625 L 19.09375 -13.78125 C 19.09375 -13.957031 19.035156 -14.097656 18.921875 -14.203125 C 18.804688 -14.316406 18.65625 -14.375 18.46875 -14.375 L 7.171875 -14.375 C 6.992188 -14.375 6.84375 -14.316406 6.71875 -14.203125 C 6.601562 -14.097656 6.546875 -13.957031 6.546875 -13.78125 Z M 6.546875 -13.78125 "/></g></g></g><g fill="#000000" fill-opacity="1"><g transform="translate(468.539761, 838.663297)"><g><path d="M 2.046875 -19.09375 L 7.390625 -19.09375 L 7.390625 -11.671875 L 21.609375 -11.671875 L 21.609375 -19.09375 L 26.953125 -19.09375 L 26.953125 0 L 21.609375 0 L 21.609375 -6.953125 L 7.390625 -6.953125 L 7.390625 0 L 2.046875 0 Z M 2.046875 -19.09375 "/></g></g></g><g fill="#000000" fill-opacity="1"><g transform="translate(497.52546, 838.663297)"><g><path d="M 0.90625 -3.171875 L 0.90625 -9.71875 L 15.328125 -19.09375 L 22.421875 -19.09375 L 22.421875 -7.53125 L 24.859375 -7.53125 L 24.859375 -3.171875 L 22.421875 -3.171875 L 22.421875 0 L 17.078125 0 L 17.078125 -3.171875 Z M 5.953125 -7.6875 L 5.953125 -7.53125 L 17.078125 -7.53125 L 17.078125 -14.375 L 16.859375 -14.375 Z M 5.953125 -7.6875 "/></g></g></g><g fill="#000000" fill-opacity="1"><g transform="translate(523.266279, 838.663297)"><g><path d="M 18.609375 0 L 1.796875 0 L 1.796875 -4.71875 L 18.390625 -4.71875 C 18.566406 -4.71875 18.710938 -4.769531 18.828125 -4.875 C 18.953125 -4.988281 19.015625 -5.132812 19.015625 -5.3125 L 19.015625 -6.875 C 19.015625 -7.050781 18.953125 -7.191406 18.828125 -7.296875 C 18.710938 -7.410156 18.566406 -7.46875 18.390625 -7.46875 L 1.875 -7.46875 L 1.875 -19.09375 L 23.15625 -19.09375 L 23.15625 -14.375 L 7.234375 -14.375 L 7.234375 -11.96875 L 18.609375 -11.96875 C 20.421875 -11.96875 21.832031 -11.539062 22.84375 -10.6875 C 23.851562 -9.832031 24.359375 -8.625 24.359375 -7.0625 L 24.359375 -4.78125 C 24.359375 -3.226562 23.867188 -2.039062 22.890625 -1.21875 C 21.910156 -0.40625 20.484375 0 18.609375 0 Z M 18.609375 0 "/></g></g></g><g clip-path="url(#d8bb6cd204)"><g clip-path="url(#e31161df02)"><g transform="matrix(1, 0, 0, 1, 115, 164)"><g clip-path="url(#c39b8dcecd)"><g clip-path="url(#9ecac06c6f)"><g clip-path="url(#0b144549a6)"><path fill="#9ccbd5" d="M 0.902344 0.09375 L 579.074219 0.09375 L 579.074219 103.382812 L 0.902344 103.382812 Z M 0.902344 0.09375 " fill-opacity="1" fill-rule="nonzero"/></g></g></g></g></g></g><g fill="#000000" fill-opacity="1"><g transform="translate(249.408214, 210.755742)"><g><path d="M 16.875 -27.03125 L 24.703125 -27.03125 L 41.703125 0 L 32.8125 0 L 29.765625 -5.015625 L 11.78125 -5.015625 L 8.765625 0 L -0.109375 0 Z M 26.21875 -10.921875 L 20.765625 -19.96875 L 15.328125 -10.921875 Z M 26.21875 -10.921875 "/></g></g></g><g fill="#000000" fill-opacity="1"><g transform="translate(289.790091, 210.755742)"><g><path d="M 40.265625 -19.1875 L 40.265625 -7.84375 C 40.265625 -5.550781 39.492188 -3.671875 37.953125 -2.203125 L 43.09375 2.703125 L 34.78125 2.703125 L 32 0 L 10.5 0 C 8.082031 0 6.101562 -0.734375 4.5625 -2.203125 C 3.007812 -3.671875 2.234375 -5.550781 2.234375 -7.84375 L 2.234375 -19.1875 C 2.234375 -21.476562 3.007812 -23.359375 4.5625 -24.828125 C 6.101562 -26.296875 8.082031 -27.03125 10.5 -27.03125 L 32.046875 -27.03125 C 34.492188 -27.03125 36.460938 -26.296875 37.953125 -24.828125 C 39.492188 -23.359375 40.265625 -21.476562 40.265625 -19.1875 Z M 25.171875 -6.71875 L 20.65625 -11.15625 L 28.609375 -11.15625 L 32.28125 -7.640625 C 32.5625 -8.003906 32.703125 -8.457031 32.703125 -9 L 32.703125 -18.03125 C 32.703125 -18.695312 32.484375 -19.242188 32.046875 -19.671875 C 31.609375 -20.097656 31.054688 -20.3125 30.390625 -20.3125 L 12.078125 -20.3125 C 11.441406 -20.3125 10.90625 -20.09375 10.46875 -19.65625 C 10.03125 -19.21875 9.8125 -18.675781 9.8125 -18.03125 L 9.8125 -9 C 9.8125 -8.351562 10.03125 -7.8125 10.46875 -7.375 C 10.90625 -6.9375 11.441406 -6.71875 12.078125 -6.71875 Z M 25.171875 -6.71875 "/></g></g></g><g fill="#000000" fill-opacity="1"><g transform="translate(332.372506, 210.755742)"><g><path d="M 30.390625 -27.03125 L 37.953125 -27.03125 L 37.953125 -7.84375 C 37.953125 -5.550781 37.179688 -3.671875 35.640625 -2.203125 C 34.140625 -0.734375 32.171875 0 29.734375 0 L 10.96875 0 C 8.539062 0 6.554688 -0.734375 5.015625 -2.203125 C 3.472656 -3.671875 2.703125 -5.550781 2.703125 -7.84375 L 2.703125 -27.03125 L 10.265625 -27.03125 L 10.265625 -8.953125 C 10.265625 -8.285156 10.484375 -7.738281 10.921875 -7.3125 C 11.359375 -6.882812 11.898438 -6.671875 12.546875 -6.671875 L 28.0625 -6.671875 C 28.738281 -6.671875 29.296875 -6.882812 29.734375 -7.3125 C 30.171875 -7.738281 30.390625 -8.285156 30.390625 -8.953125 Z M 30.390625 -27.03125 "/></g></g></g><g fill="#000000" fill-opacity="1"><g transform="translate(371.750625, 210.755742)"><g><path d="M 16.875 -27.03125 L 24.703125 -27.03125 L 41.703125 0 L 32.8125 0 L 29.765625 -5.015625 L 11.78125 -5.015625 L 8.765625 0 L -0.109375 0 Z M 26.21875 -10.921875 L 20.765625 -19.96875 L 15.328125 -10.921875 Z M 26.21875 -10.921875 "/></g></g></g><g fill="#000000" fill-opacity="1"><g transform="translate(412.132502, 210.755742)"><g/></g></g><g fill="#000000" fill-opacity="1"><g transform="translate(432.400644, 210.755742)"><g><path d="M 32.234375 -1.078125 L 30.3125 0 L 10.5 0 C 8.082031 0 6.101562 -0.734375 4.5625 -2.203125 C 3.007812 -3.671875 2.234375 -5.550781 2.234375 -7.84375 L 2.234375 -19.1875 C 2.234375 -21.476562 3.007812 -23.359375 4.5625 -24.828125 C 6.101562 -26.296875 8.082031 -27.03125 10.5 -27.03125 L 38.796875 -27.03125 L 38.796875 -20.34375 L 12.078125 -20.34375 C 11.441406 -20.34375 10.90625 -20.128906 10.46875 -19.703125 C 10.03125 -19.285156 9.8125 -18.738281 9.8125 -18.0625 L 9.8125 -8.953125 C 9.8125 -8.285156 10.03125 -7.738281 10.46875 -7.3125 C 10.90625 -6.882812 11.441406 -6.671875 12.078125 -6.671875 L 32.203125 -6.671875 L 32.203125 -10.46875 L 13.46875 -10.46875 L 13.46875 -16.53125 L 39.421875 -16.53125 L 39.421875 0 L 33.015625 0 Z M 32.234375 -1.078125 "/></g></g></g><g fill="#000000" fill-opacity="1"><g transform="translate(473.709069, 210.755742)"><g><path d="M 16.828125 -8.953125 L 0.265625 -27.03125 L 9.96875 -27.03125 L 20.625 -14.984375 L 31.28125 -27.03125 L 40.96875 -27.03125 L 24.40625 -8.953125 L 24.40625 0 L 16.828125 0 Z M 16.828125 -8.953125 "/></g></g></g><g fill="#000000" fill-opacity="1"><g transform="translate(514.940262, 210.755742)"><g><path d="M 25.40625 0 L 20.234375 0 L 10.46875 -15.671875 L 10.46875 0 L 2.890625 0 L 2.890625 -27.03125 L 11.390625 -27.03125 L 22.8125 -8.5 L 34.25 -27.03125 L 42.734375 -27.03125 L 42.734375 0 L 35.171875 0 L 35.171875 -15.671875 Z M 25.40625 0 "/></g></g></g><g fill="#000000" fill-opacity="1"><g transform="translate(243.6103, 251.985378)"><g><path d="M 21.71875 -6.328125 L 21.71875 -12.765625 C 21.71875 -13.242188 21.5625 -13.628906 21.25 -13.921875 C 20.9375 -14.222656 20.546875 -14.375 20.078125 -14.375 L 8.671875 -14.375 C 8.203125 -14.375 7.816406 -14.222656 7.515625 -13.921875 C 7.210938 -13.628906 7.0625 -13.242188 7.0625 -12.765625 L 7.0625 -6.328125 C 7.0625 -5.859375 7.210938 -5.472656 7.515625 -5.171875 C 7.816406 -4.867188 8.203125 -4.71875 8.671875 -4.71875 L 20.078125 -4.71875 C 20.546875 -4.71875 20.9375 -4.867188 21.25 -5.171875 C 21.5625 -5.472656 21.71875 -5.859375 21.71875 -6.328125 Z M 27.0625 -13.5625 L 27.0625 -5.53125 C 27.0625 -3.914062 26.515625 -2.59375 25.421875 -1.5625 C 24.367188 -0.519531 22.976562 0 21.25 0 L 7.5625 0 C 5.851562 0 4.453125 -0.519531 3.359375 -1.5625 C 2.265625 -2.59375 1.71875 -3.914062 1.71875 -5.53125 L 1.71875 -13.5625 C 1.71875 -15.175781 2.265625 -16.503906 3.359375 -17.546875 C 4.453125 -18.578125 5.851562 -19.09375 7.5625 -19.09375 L 21.25 -19.09375 C 22.976562 -19.09375 24.367188 -18.578125 25.421875 -17.546875 C 26.515625 -16.503906 27.0625 -15.175781 27.0625 -13.5625 Z M 27.0625 -13.5625 "/></g></g></g><g fill="#000000" fill-opacity="1"><g transform="translate(272.377845, 251.985378)"><g><path d="M 6.515625 -19.09375 L 18.609375 -19.09375 C 20.316406 -19.09375 21.71875 -18.578125 22.8125 -17.546875 C 23.894531 -16.503906 24.4375 -15.175781 24.4375 -13.5625 L 24.4375 -5.53125 C 24.4375 -3.914062 23.894531 -2.59375 22.8125 -1.5625 C 21.71875 -0.519531 20.316406 0 18.609375 0 L 2.203125 0 L 2.203125 -4.71875 L 17.484375 -4.71875 C 17.941406 -4.71875 18.320312 -4.867188 18.625 -5.171875 C 18.9375 -5.472656 19.09375 -5.859375 19.09375 -6.328125 L 19.09375 -7.421875 L 6.546875 -7.421875 C 4.796875 -7.421875 3.46875 -7.820312 2.5625 -8.625 C 1.65625 -9.425781 1.203125 -10.597656 1.203125 -12.140625 L 1.203125 -13.71875 C 1.203125 -15.375 1.675781 -16.679688 2.625 -17.640625 C 3.582031 -18.609375 4.878906 -19.09375 6.515625 -19.09375 Z M 6.546875 -13.78125 L 6.546875 -12.109375 C 6.546875 -11.929688 6.601562 -11.785156 6.71875 -11.671875 C 6.84375 -11.566406 6.992188 -11.515625 7.171875 -11.515625 L 19.09375 -11.515625 L 19.09375 -13.78125 C 19.09375 -13.957031 19.035156 -14.097656 18.921875 -14.203125 C 18.804688 -14.316406 18.65625 -14.375 18.46875 -14.375 L 7.171875 -14.375 C 6.992188 -14.375 6.84375 -14.316406 6.71875 -14.203125 C 6.601562 -14.097656 6.546875 -13.957031 6.546875 -13.78125 Z M 6.546875 -13.78125 "/></g></g></g><g fill="#000000" fill-opacity="1"><g transform="translate(298.52768, 251.985378)"><g><path d="M 2.046875 -19.09375 L 7.390625 -19.09375 L 7.390625 -11.671875 L 21.609375 -11.671875 L 21.609375 -19.09375 L 26.953125 -19.09375 L 26.953125 0 L 21.609375 0 L 21.609375 -6.953125 L 7.390625 -6.953125 L 7.390625 0 L 2.046875 0 Z M 2.046875 -19.09375 "/></g></g></g><g fill="#000000" fill-opacity="1"><g transform="translate(327.513368, 251.985378)"><g><path d="M 21.71875 -6.328125 L 21.71875 -12.765625 C 21.71875 -13.242188 21.5625 -13.628906 21.25 -13.921875 C 20.9375 -14.222656 20.546875 -14.375 20.078125 -14.375 L 8.671875 -14.375 C 8.203125 -14.375 7.816406 -14.222656 7.515625 -13.921875 C 7.210938 -13.628906 7.0625 -13.242188 7.0625 -12.765625 L 7.0625 -6.328125 C 7.0625 -5.859375 7.210938 -5.472656 7.515625 -5.171875 C 7.816406 -4.867188 8.203125 -4.71875 8.671875 -4.71875 L 20.078125 -4.71875 C 20.546875 -4.71875 20.9375 -4.867188 21.25 -5.171875 C 21.5625 -5.472656 21.71875 -5.859375 21.71875 -6.328125 Z M 27.0625 -13.5625 L 27.0625 -5.53125 C 27.0625 -3.914062 26.515625 -2.59375 25.421875 -1.5625 C 24.367188 -0.519531 22.976562 0 21.25 0 L 7.5625 0 C 5.851562 0 4.453125 -0.519531 3.359375 -1.5625 C 2.265625 -2.59375 1.71875 -3.914062 1.71875 -5.53125 L 1.71875 -13.5625 C 1.71875 -15.175781 2.265625 -16.503906 3.359375 -17.546875 C 4.453125 -18.578125 5.851562 -19.09375 7.5625 -19.09375 L 21.25 -19.09375 C 22.976562 -19.09375 24.367188 -18.578125 25.421875 -17.546875 C 26.515625 -16.503906 27.0625 -15.175781 27.0625 -13.5625 Z M 27.0625 -13.5625 "/></g></g></g><g fill="#000000" fill-opacity="1"><g transform="translate(356.280913, 251.985378)"><g><path d="M 21.71875 -6.328125 L 21.71875 -12.765625 C 21.71875 -13.242188 21.5625 -13.628906 21.25 -13.921875 C 20.9375 -14.222656 20.546875 -14.375 20.078125 -14.375 L 8.671875 -14.375 C 8.203125 -14.375 7.816406 -14.222656 7.515625 -13.921875 C 7.210938 -13.628906 7.0625 -13.242188 7.0625 -12.765625 L 7.0625 -6.328125 C 7.0625 -5.859375 7.210938 -5.472656 7.515625 -5.171875 C 7.816406 -4.867188 8.203125 -4.71875 8.671875 -4.71875 L 20.078125 -4.71875 C 20.546875 -4.71875 20.9375 -4.867188 21.25 -5.171875 C 21.5625 -5.472656 21.71875 -5.859375 21.71875 -6.328125 Z M 27.0625 -13.5625 L 27.0625 -5.53125 C 27.0625 -3.914062 26.515625 -2.59375 25.421875 -1.5625 C 24.367188 -0.519531 22.976562 0 21.25 0 L 7.5625 0 C 5.851562 0 4.453125 -0.519531 3.359375 -1.5625 C 2.265625 -2.59375 1.71875 -3.914062 1.71875 -5.53125 L 1.71875 -13.5625 C 1.71875 -15.175781 2.265625 -16.503906 3.359375 -17.546875 C 4.453125 -18.578125 5.851562 -19.09375 7.5625 -19.09375 L 21.25 -19.09375 C 22.976562 -19.09375 24.367188 -18.578125 25.421875 -17.546875 C 26.515625 -16.503906 27.0625 -15.175781 27.0625 -13.5625 Z M 27.0625 -13.5625 "/></g></g></g><g fill="#000000" fill-opacity="1"><g transform="translate(385.048458, 251.985378)"><g/></g></g><g fill="#000000" fill-opacity="1"><g transform="translate(399.364057, 251.985378)"><g><path d="M 15.828125 -11.453125 L 15.828125 -8.234375 L 1.6875 -8.234375 L 1.6875 -11.453125 Z M 15.828125 -11.453125 "/></g></g></g><g fill="#000000" fill-opacity="1"><g transform="translate(416.869999, 251.985378)"><g/></g></g><g fill="#000000" fill-opacity="1"><g transform="translate(431.185598, 251.985378)"><g><path d="M 21.71875 -6.328125 L 21.71875 -12.765625 C 21.71875 -13.242188 21.5625 -13.628906 21.25 -13.921875 C 20.9375 -14.222656 20.546875 -14.375 20.078125 -14.375 L 8.671875 -14.375 C 8.203125 -14.375 7.816406 -14.222656 7.515625 -13.921875 C 7.210938 -13.628906 7.0625 -13.242188 7.0625 -12.765625 L 7.0625 -6.328125 C 7.0625 -5.859375 7.210938 -5.472656 7.515625 -5.171875 C 7.816406 -4.867188 8.203125 -4.71875 8.671875 -4.71875 L 20.078125 -4.71875 C 20.546875 -4.71875 20.9375 -4.867188 21.25 -5.171875 C 21.5625 -5.472656 21.71875 -5.859375 21.71875 -6.328125 Z M 27.0625 -13.5625 L 27.0625 -5.53125 C 27.0625 -3.914062 26.515625 -2.59375 25.421875 -1.5625 C 24.367188 -0.519531 22.976562 0 21.25 0 L 7.5625 0 C 5.851562 0 4.453125 -0.519531 3.359375 -1.5625 C 2.265625 -2.59375 1.71875 -3.914062 1.71875 -5.53125 L 1.71875 -13.5625 C 1.71875 -15.175781 2.265625 -16.503906 3.359375 -17.546875 C 4.453125 -18.578125 5.851562 -19.09375 7.5625 -19.09375 L 21.25 -19.09375 C 22.976562 -19.09375 24.367188 -18.578125 25.421875 -17.546875 C 26.515625 -16.503906 27.0625 -15.175781 27.0625 -13.5625 Z M 27.0625 -13.5625 "/></g></g></g><g fill="#000000" fill-opacity="1"><g transform="translate(459.953155, 251.985378)"><g><path d="M 6.515625 -19.09375 L 18.609375 -19.09375 C 20.316406 -19.09375 21.71875 -18.578125 22.8125 -17.546875 C 23.894531 -16.503906 24.4375 -15.175781 24.4375 -13.5625 L 24.4375 -5.53125 C 24.4375 -3.914062 23.894531 -2.59375 22.8125 -1.5625 C 21.71875 -0.519531 20.316406 0 18.609375 0 L 2.203125 0 L 2.203125 -4.71875 L 17.484375 -4.71875 C 17.941406 -4.71875 18.320312 -4.867188 18.625 -5.171875 C 18.9375 -5.472656 19.09375 -5.859375 19.09375 -6.328125 L 19.09375 -7.421875 L 6.546875 -7.421875 C 4.796875 -7.421875 3.46875 -7.820312 2.5625 -8.625 C 1.65625 -9.425781 1.203125 -10.597656 1.203125 -12.140625 L 1.203125 -13.71875 C 1.203125 -15.375 1.675781 -16.679688 2.625 -17.640625 C 3.582031 -18.609375 4.878906 -19.09375 6.515625 -19.09375 Z M 6.546875 -13.78125 L 6.546875 -12.109375 C 6.546875 -11.929688 6.601562 -11.785156 6.71875 -11.671875 C 6.84375 -11.566406 6.992188 -11.515625 7.171875 -11.515625 L 19.09375 -11.515625 L 19.09375 -13.78125 C 19.09375 -13.957031 19.035156 -14.097656 18.921875 -14.203125 C 18.804688 -14.316406 18.65625 -14.375 18.46875 -14.375 L 7.171875 -14.375 C 6.992188 -14.375 6.84375 -14.316406 6.71875 -14.203125 C 6.601562 -14.097656 6.546875 -13.957031 6.546875 -13.78125 Z M 6.546875 -13.78125 "/></g></g></g><g fill="#000000" fill-opacity="1"><g transform="translate(486.10299, 251.985378)"><g><path d="M 2.046875 -19.09375 L 7.390625 -19.09375 L 7.390625 -11.671875 L 21.609375 -11.671875 L 21.609375 -19.09375 L 26.953125 -19.09375 L 26.953125 0 L 21.609375 0 L 21.609375 -6.953125 L 7.390625 -6.953125 L 7.390625 0 L 2.046875 0 Z M 2.046875 -19.09375 "/></g></g></g><g fill="#000000" fill-opacity="1"><g transform="translate(515.088666, 251.985378)"><g><path d="M 0.90625 -3.171875 L 0.90625 -9.71875 L 15.328125 -19.09375 L 22.421875 -19.09375 L 22.421875 -7.53125 L 24.859375 -7.53125 L 24.859375 -3.171875 L 22.421875 -3.171875 L 22.421875 0 L 17.078125 0 L 17.078125 -3.171875 Z M 5.953125 -7.6875 L 5.953125 -7.53125 L 17.078125 -7.53125 L 17.078125 -14.375 L 16.859375 -14.375 Z M 5.953125 -7.6875 "/></g></g></g><g fill="#000000" fill-opacity="1"><g transform="translate(540.829485, 251.985378)"><g><path d="M 18.609375 0 L 1.796875 0 L 1.796875 -4.71875 L 18.390625 -4.71875 C 18.566406 -4.71875 18.710938 -4.769531 18.828125 -4.875 C 18.953125 -4.988281 19.015625 -5.132812 19.015625 -5.3125 L 19.015625 -6.875 C 19.015625 -7.050781 18.953125 -7.191406 18.828125 -7.296875 C 18.710938 -7.410156 18.566406 -7.46875 18.390625 -7.46875 L 1.875 -7.46875 L 1.875 -19.09375 L 23.15625 -19.09375 L 23.15625 -14.375 L 7.234375 -14.375 L 7.234375 -11.96875 L 18.609375 -11.96875 C 20.421875 -11.96875 21.832031 -11.539062 22.84375 -10.6875 C 23.851562 -9.832031 24.359375 -8.625 24.359375 -7.0625 L 24.359375 -4.78125 C 24.359375 -3.226562 23.867188 -2.039062 22.890625 -1.21875 C 21.910156 -0.40625 20.484375 0 18.609375 0 Z M 18.609375 0 "/></g></g></g><g clip-path="url(#bdc93515bb)"><path stroke-linecap="butt" transform="matrix(0.74963, 0, 0, 0.74963, -63.080801, 564.787228)" fill="none" stroke-linejoin="miter" d="M -0.00164078 3.498964 L 1248.833603 3.498964 " stroke="#ffffff" stroke-width="7" stroke-opacity="1" stroke-miterlimit="4"/></g><g clip-path="url(#59400ae713)"><g clip-path="url(#e4c6e8e9e5)"><g transform="matrix(1, 0, 0, 1, 115, 410)"><g clip-path="url(#12909656eb)"><g clip-path="url(#561f1554ff)"><g clip-path="url(#68626633db)"><path fill="#9ccbd5" d="M 0.902344 0.410156 L 579.171875 0.410156 L 579.171875 108.074219 L 0.902344 108.074219 Z M 0.902344 0.410156 " fill-opacity="1" fill-rule="nonzero"/></g></g></g></g></g></g><g fill="#000000" fill-opacity="1"><g transform="translate(206.890151, 459.320726)"><g><path d="M 16.859375 -27 L 24.6875 -27 L 41.671875 0 L 32.796875 0 L 29.75 -5.015625 L 11.765625 -5.015625 L 8.75 0 L -0.109375 0 Z M 26.1875 -10.921875 L 20.75 -19.9375 L 15.3125 -10.921875 Z M 26.1875 -10.921875 "/></g></g></g><g fill="#000000" fill-opacity="1"><g transform="translate(247.235036, 459.320726)"><g><path d="M 40.234375 -19.171875 L 40.234375 -7.828125 C 40.234375 -5.535156 39.460938 -3.660156 37.921875 -2.203125 L 43.046875 2.703125 L 34.765625 2.703125 L 31.984375 0 L 10.5 0 C 8.070312 0 6.085938 -0.734375 4.546875 -2.203125 C 3.003906 -3.660156 2.234375 -5.535156 2.234375 -7.828125 L 2.234375 -19.171875 C 2.234375 -21.460938 3.003906 -23.34375 4.546875 -24.8125 C 6.085938 -26.269531 8.070312 -27 10.5 -27 L 32.015625 -27 C 34.460938 -27 36.429688 -26.269531 37.921875 -24.8125 C 39.460938 -23.34375 40.234375 -21.460938 40.234375 -19.171875 Z M 25.15625 -6.71875 L 20.640625 -11.15625 L 28.59375 -11.15625 L 32.25 -7.640625 C 32.53125 -7.992188 32.671875 -8.441406 32.671875 -8.984375 L 32.671875 -18.015625 C 32.671875 -18.679688 32.453125 -19.226562 32.015625 -19.65625 C 31.578125 -20.082031 31.023438 -20.296875 30.359375 -20.296875 L 12.078125 -20.296875 C 11.429688 -20.296875 10.890625 -20.078125 10.453125 -19.640625 C 10.015625 -19.203125 9.796875 -18.660156 9.796875 -18.015625 L 9.796875 -8.984375 C 9.796875 -8.347656 10.015625 -7.8125 10.453125 -7.375 C 10.890625 -6.9375 11.429688 -6.71875 12.078125 -6.71875 Z M 25.15625 -6.71875 "/></g></g></g><g fill="#000000" fill-opacity="1"><g transform="translate(289.778607, 459.320726)"><g><path d="M 30.359375 -27 L 37.921875 -27 L 37.921875 -7.828125 C 37.921875 -5.535156 37.148438 -3.660156 35.609375 -2.203125 C 34.117188 -0.734375 32.148438 0 29.703125 0 L 10.953125 0 C 8.535156 0 6.554688 -0.734375 5.015625 -2.203125 C 3.472656 -3.660156 2.703125 -5.535156 2.703125 -7.828125 L 2.703125 -27 L 10.265625 -27 L 10.265625 -8.953125 C 10.265625 -8.285156 10.484375 -7.738281 10.921875 -7.3125 C 11.359375 -6.882812 11.894531 -6.671875 12.53125 -6.671875 L 28.046875 -6.671875 C 28.710938 -6.671875 29.265625 -6.882812 29.703125 -7.3125 C 30.140625 -7.738281 30.359375 -8.285156 30.359375 -8.953125 Z M 30.359375 -27 "/></g></g></g><g fill="#000000" fill-opacity="1"><g transform="translate(329.120637, 459.320726)"><g><path d="M 16.859375 -27 L 24.6875 -27 L 41.671875 0 L 32.796875 0 L 29.75 -5.015625 L 11.765625 -5.015625 L 8.75 0 L -0.109375 0 Z M 26.1875 -10.921875 L 20.75 -19.9375 L 15.3125 -10.921875 Z M 26.1875 -10.921875 "/></g></g></g><g fill="#000000" fill-opacity="1"><g transform="translate(369.465522, 459.320726)"><g/></g></g><g fill="#000000" fill-opacity="1"><g transform="translate(389.715179, 459.320726)"><g><path d="M 2.890625 -27 L 29.203125 -27 C 31.722656 -27 33.859375 -26.125 35.609375 -24.375 C 37.359375 -22.632812 38.234375 -20.523438 38.234375 -18.046875 L 38.234375 -17.25 C 38.234375 -14.695312 37.4375 -12.585938 35.84375 -10.921875 C 34.269531 -9.296875 32.222656 -8.484375 29.703125 -8.484375 L 10.453125 -8.484375 L 10.453125 0 L 2.890625 0 Z M 28.046875 -20.328125 L 10.453125 -20.328125 L 10.453125 -14.9375 L 28.078125 -14.9375 C 28.847656 -14.9375 29.472656 -15.144531 29.953125 -15.5625 C 30.429688 -15.988281 30.671875 -16.535156 30.671875 -17.203125 L 30.671875 -18.015625 C 30.671875 -18.679688 30.425781 -19.234375 29.9375 -19.671875 C 29.445312 -20.109375 28.816406 -20.328125 28.046875 -20.328125 Z M 28.046875 -20.328125 "/></g></g></g><g fill="#000000" fill-opacity="1"><g transform="translate(428.980229, 459.320726)"><g><path d="M 32.671875 -8.953125 L 32.671875 -18.046875 C 32.671875 -18.722656 32.453125 -19.269531 32.015625 -19.6875 C 31.578125 -20.113281 31.023438 -20.328125 30.359375 -20.328125 L 12.078125 -20.328125 C 11.429688 -20.328125 10.890625 -20.113281 10.453125 -19.6875 C 10.015625 -19.269531 9.796875 -18.722656 9.796875 -18.046875 L 9.796875 -8.953125 C 9.796875 -8.285156 10.015625 -7.738281 10.453125 -7.3125 C 10.890625 -6.882812 11.429688 -6.671875 12.078125 -6.671875 L 30.359375 -6.671875 C 31.023438 -6.671875 31.578125 -6.882812 32.015625 -7.3125 C 32.453125 -7.738281 32.671875 -8.285156 32.671875 -8.953125 Z M 40.234375 -19.171875 L 40.234375 -7.828125 C 40.234375 -5.535156 39.460938 -3.660156 37.921875 -2.203125 C 36.429688 -0.734375 34.460938 0 32.015625 0 L 10.5 0 C 8.070312 0 6.085938 -0.734375 4.546875 -2.203125 C 3.003906 -3.660156 2.234375 -5.535156 2.234375 -7.828125 L 2.234375 -19.171875 C 2.234375 -21.460938 3.003906 -23.34375 4.546875 -24.8125 C 6.085938 -26.269531 8.070312 -27 10.5 -27 L 32.015625 -27 C 34.460938 -27 36.429688 -26.269531 37.921875 -24.8125 C 39.460938 -23.34375 40.234375 -21.460938 40.234375 -19.171875 Z M 40.234375 -19.171875 "/></g></g></g><g fill="#000000" fill-opacity="1"><g transform="translate(470.559425, 459.320726)"><g><path d="M 45.328125 -27 L 54.203125 -27 L 40.359375 0 L 35.0625 0 L 27.125 -17.015625 L 19.171875 0 L 13.890625 0 L 0.03125 -27 L 8.90625 -27 L 16.390625 -10.609375 L 23.84375 -27 L 30.40625 -27 L 37.84375 -10.609375 Z M 45.328125 -27 "/></g></g></g><g fill="#000000" fill-opacity="1"><g transform="translate(524.78995, 459.320726)"><g><path d="M 35.453125 -16.75 L 35.453125 -10.296875 L 10.453125 -10.296875 L 10.453125 -6.671875 L 36.453125 -6.671875 L 36.453125 0 L 2.890625 0 L 2.890625 -27 L 36.375 -27 L 36.375 -20.328125 L 10.453125 -20.328125 L 10.453125 -16.75 Z M 35.453125 -16.75 "/></g></g></g><g fill="#000000" fill-opacity="1"><g transform="translate(563.399314, 459.320726)"><g><path d="M 10.453125 0 L 2.890625 0 L 2.890625 -27 L 29.09375 -27 C 31.738281 -27 33.921875 -26.164062 35.640625 -24.5 C 37.367188 -22.851562 38.234375 -20.726562 38.234375 -18.125 L 38.234375 -17.40625 C 38.234375 -15.394531 37.613281 -13.628906 36.375 -12.109375 C 35.144531 -10.597656 33.515625 -9.546875 31.484375 -8.953125 L 38.6875 0 L 30.125 0 L 23.5 -8.53125 L 10.453125 -8.53125 Z M 28.125 -20.328125 L 10.453125 -20.328125 L 10.453125 -14.96875 L 28.15625 -14.96875 C 28.925781 -14.96875 29.535156 -15.175781 29.984375 -15.59375 C 30.441406 -16.019531 30.671875 -16.597656 30.671875 -17.328125 L 30.671875 -17.984375 C 30.671875 -18.703125 30.4375 -19.269531 29.96875 -19.6875 C 29.507812 -20.113281 28.894531 -20.328125 28.125 -20.328125 Z M 28.125 -20.328125 "/></g></g></g><g fill="#000000" fill-opacity="1"><g transform="translate(261.62484, 500.550363)"><g><path d="M 5.8125 -19.09375 L 9.109375 -19.09375 L 9.109375 0 L 3.765625 0 L 3.765625 -13.78125 L 0.8125 -12.984375 L 0.8125 -17.734375 Z M 5.8125 -19.09375 "/></g></g></g><g fill="#000000" fill-opacity="1"><g transform="translate(272.831917, 500.550363)"><g><path d="M 23.796875 0 L 1.53125 0 L 1.53125 -6.84375 C 1.53125 -8.394531 2.03125 -9.601562 3.03125 -10.46875 C 4.03125 -11.332031 5.4375 -11.765625 7.25 -11.765625 L 18 -11.765625 C 18.1875 -11.765625 18.335938 -11.816406 18.453125 -11.921875 C 18.578125 -12.023438 18.640625 -12.171875 18.640625 -12.359375 L 18.640625 -13.78125 C 18.640625 -13.957031 18.578125 -14.097656 18.453125 -14.203125 C 18.335938 -14.316406 18.1875 -14.375 18 -14.375 L 2.125 -14.375 L 2.125 -19.09375 L 18.21875 -19.09375 C 20.0625 -19.09375 21.484375 -18.664062 22.484375 -17.8125 C 23.484375 -16.957031 23.984375 -15.757812 23.984375 -14.21875 L 23.984375 -12.03125 C 23.984375 -10.488281 23.488281 -9.304688 22.5 -8.484375 C 21.519531 -7.660156 20.09375 -7.25 18.21875 -7.25 L 7.46875 -7.25 C 7.289062 -7.25 7.140625 -7.191406 7.015625 -7.078125 C 6.898438 -6.972656 6.84375 -6.832031 6.84375 -6.65625 L 6.84375 -4.71875 L 23.796875 -4.71875 Z M 23.796875 0 "/></g></g></g><g fill="#000000" fill-opacity="1"><g transform="translate(298.300055, 500.550363)"><g><path d="M 2.046875 -19.09375 L 7.390625 -19.09375 L 7.390625 -11.671875 L 21.609375 -11.671875 L 21.609375 -19.09375 L 26.953125 -19.09375 L 26.953125 0 L 21.609375 0 L 21.609375 -6.953125 L 7.390625 -6.953125 L 7.390625 0 L 2.046875 0 Z M 2.046875 -19.09375 "/></g></g></g><g fill="#000000" fill-opacity="1"><g transform="translate(327.285743, 500.550363)"><g><path d="M 5.8125 -19.09375 L 9.109375 -19.09375 L 9.109375 0 L 3.765625 0 L 3.765625 -13.78125 L 0.8125 -12.984375 L 0.8125 -17.734375 Z M 5.8125 -19.09375 "/></g></g></g><g fill="#000000" fill-opacity="1"><g transform="translate(338.49282, 500.550363)"><g><path d="M 18.609375 0 L 1.796875 0 L 1.796875 -4.71875 L 18.390625 -4.71875 C 18.566406 -4.71875 18.710938 -4.769531 18.828125 -4.875 C 18.953125 -4.988281 19.015625 -5.132812 19.015625 -5.3125 L 19.015625 -6.875 C 19.015625 -7.050781 18.953125 -7.191406 18.828125 -7.296875 C 18.710938 -7.410156 18.566406 -7.46875 18.390625 -7.46875 L 1.875 -7.46875 L 1.875 -19.09375 L 23.15625 -19.09375 L 23.15625 -14.375 L 7.234375 -14.375 L 7.234375 -11.96875 L 18.609375 -11.96875 C 20.421875 -11.96875 21.832031 -11.539062 22.84375 -10.6875 C 23.851562 -9.832031 24.359375 -8.625 24.359375 -7.0625 L 24.359375 -4.78125 C 24.359375 -3.226562 23.867188 -2.039062 22.890625 -1.21875 C 21.910156 -0.40625 20.484375 0 18.609375 0 Z M 18.609375 0 "/></g></g></g><g fill="#000000" fill-opacity="1"><g transform="translate(364.042766, 500.550363)"><g/></g></g><g fill="#000000" fill-opacity="1"><g transform="translate(378.358366, 500.550363)"><g><path d="M 15.828125 -11.453125 L 15.828125 -8.234375 L 1.6875 -8.234375 L 1.6875 -11.453125 Z M 15.828125 -11.453125 "/></g></g></g><g fill="#000000" fill-opacity="1"><g transform="translate(395.864307, 500.550363)"><g/></g></g><g fill="#000000" fill-opacity="1"><g transform="translate(410.179906, 500.550363)"><g><path d="M 5.8125 -19.09375 L 9.109375 -19.09375 L 9.109375 0 L 3.765625 0 L 3.765625 -13.78125 L 0.8125 -12.984375 L 0.8125 -17.734375 Z M 5.8125 -19.09375 "/></g></g></g><g fill="#000000" fill-opacity="1"><g transform="translate(421.386983, 500.550363)"><g><path d="M 19.390625 -5.3125 L 19.390625 -7.140625 C 19.390625 -7.328125 19.332031 -7.472656 19.21875 -7.578125 C 19.101562 -7.691406 18.953125 -7.75 18.765625 -7.75 L 2.921875 -7.75 L 2.921875 -11.65625 L 18.171875 -11.65625 C 18.347656 -11.65625 18.492188 -11.707031 18.609375 -11.8125 C 18.734375 -11.914062 18.796875 -12.0625 18.796875 -12.25 L 18.796875 -13.78125 C 18.796875 -13.957031 18.734375 -14.097656 18.609375 -14.203125 C 18.492188 -14.316406 18.347656 -14.375 18.171875 -14.375 L 1.609375 -14.375 L 1.609375 -19.09375 L 18.953125 -19.09375 C 20.378906 -19.09375 21.59375 -18.648438 22.59375 -17.765625 C 23.625 -16.890625 24.140625 -15.859375 24.140625 -14.671875 L 24.140625 -12.84375 C 24.140625 -11.695312 23.601562 -10.78125 22.53125 -10.09375 C 24.007812 -9.195312 24.75 -7.925781 24.75 -6.28125 L 24.75 -4.78125 C 24.75 -3.226562 24.253906 -2.039062 23.265625 -1.21875 C 22.285156 -0.40625 20.859375 0 18.984375 0 L 1.46875 0 L 1.46875 -4.71875 L 18.765625 -4.71875 C 18.953125 -4.71875 19.101562 -4.769531 19.21875 -4.875 C 19.332031 -4.988281 19.390625 -5.132812 19.390625 -5.3125 Z M 19.390625 -5.3125 "/></g></g></g><g fill="#000000" fill-opacity="1"><g transform="translate(447.509549, 500.550363)"><g><path d="M 2.046875 -19.09375 L 7.390625 -19.09375 L 7.390625 -11.671875 L 21.609375 -11.671875 L 21.609375 -19.09375 L 26.953125 -19.09375 L 26.953125 0 L 21.609375 0 L 21.609375 -6.953125 L 7.390625 -6.953125 L 7.390625 0 L 2.046875 0 Z M 2.046875 -19.09375 "/></g></g></g><g fill="#000000" fill-opacity="1"><g transform="translate(476.495248, 500.550363)"><g><path d="M 21.71875 -6.328125 L 21.71875 -12.765625 C 21.71875 -13.242188 21.5625 -13.628906 21.25 -13.921875 C 20.9375 -14.222656 20.546875 -14.375 20.078125 -14.375 L 8.671875 -14.375 C 8.203125 -14.375 7.816406 -14.222656 7.515625 -13.921875 C 7.210938 -13.628906 7.0625 -13.242188 7.0625 -12.765625 L 7.0625 -6.328125 C 7.0625 -5.859375 7.210938 -5.472656 7.515625 -5.171875 C 7.816406 -4.867188 8.203125 -4.71875 8.671875 -4.71875 L 20.078125 -4.71875 C 20.546875 -4.71875 20.9375 -4.867188 21.25 -5.171875 C 21.5625 -5.472656 21.71875 -5.859375 21.71875 -6.328125 Z M 27.0625 -13.5625 L 27.0625 -5.53125 C 27.0625 -3.914062 26.515625 -2.59375 25.421875 -1.5625 C 24.367188 -0.519531 22.976562 0 21.25 0 L 7.5625 0 C 5.851562 0 4.453125 -0.519531 3.359375 -1.5625 C 2.265625 -2.59375 1.71875 -3.914062 1.71875 -5.53125 L 1.71875 -13.5625 C 1.71875 -15.175781 2.265625 -16.503906 3.359375 -17.546875 C 4.453125 -18.578125 5.851562 -19.09375 7.5625 -19.09375 L 21.25 -19.09375 C 22.976562 -19.09375 24.367188 -18.578125 25.421875 -17.546875 C 26.515625 -16.503906 27.0625 -15.175781 27.0625 -13.5625 Z M 27.0625 -13.5625 "/></g></g></g><g fill="#000000" fill-opacity="1"><g transform="translate(505.262793, 500.550363)"><g><path d="M 21.71875 -6.328125 L 21.71875 -12.765625 C 21.71875 -13.242188 21.5625 -13.628906 21.25 -13.921875 C 20.9375 -14.222656 20.546875 -14.375 20.078125 -14.375 L 8.671875 -14.375 C 8.203125 -14.375 7.816406 -14.222656 7.515625 -13.921875 C 7.210938 -13.628906 7.0625 -13.242188 7.0625 -12.765625 L 7.0625 -6.328125 C 7.0625 -5.859375 7.210938 -5.472656 7.515625 -5.171875 C 7.816406 -4.867188 8.203125 -4.71875 8.671875 -4.71875 L 20.078125 -4.71875 C 20.546875 -4.71875 20.9375 -4.867188 21.25 -5.171875 C 21.5625 -5.472656 21.71875 -5.859375 21.71875 -6.328125 Z M 27.0625 -13.5625 L 27.0625 -5.53125 C 27.0625 -3.914062 26.515625 -2.59375 25.421875 -1.5625 C 24.367188 -0.519531 22.976562 0 21.25 0 L 7.5625 0 C 5.851562 0 4.453125 -0.519531 3.359375 -1.5625 C 2.265625 -2.59375 1.71875 -3.914062 1.71875 -5.53125 L 1.71875 -13.5625 C 1.71875 -15.175781 2.265625 -16.503906 3.359375 -17.546875 C 4.453125 -18.578125 5.851562 -19.09375 7.5625 -19.09375 L 21.25 -19.09375 C 22.976562 -19.09375 24.367188 -18.578125 25.421875 -17.546875 C 26.515625 -16.503906 27.0625 -15.175781 27.0625 -13.5625 Z M 27.0625 -13.5625 "/></g></g></g><g fill="#000000" fill-opacity="1"><g transform="translate(534.033263, 500.550363)"><g/></g></g><g clip-path="url(#bf034e3078)"><g clip-path="url(#936c6dbf6c)"><g transform="matrix(1, 0, 0, 1, 115, 287)"><g clip-path="url(#c202c37c06)"><g clip-path="url(#fff2c74b8a)"><g clip-path="url(#af3ca1426e)"><path fill="#9ccbd5" d="M 0.902344 0.253906 L 579.074219 0.253906 L 579.074219 103.539062 L 0.902344 103.539062 Z M 0.902344 0.253906 " fill-opacity="1" fill-rule="nonzero"/></g></g></g></g></g></g><g fill="#000000" fill-opacity="1"><g transform="translate(247.41701, 333.913118)"><g><path d="M 16.875 -27.03125 L 24.703125 -27.03125 L 41.703125 0 L 32.8125 0 L 29.765625 -5.015625 L 11.78125 -5.015625 L 8.765625 0 L -0.109375 0 Z M 26.21875 -10.921875 L 20.765625 -19.96875 L 15.328125 -10.921875 Z M 26.21875 -10.921875 "/></g></g></g><g fill="#000000" fill-opacity="1"><g transform="translate(287.798887, 333.913118)"><g><path d="M 40.265625 -19.1875 L 40.265625 -7.84375 C 40.265625 -5.550781 39.492188 -3.671875 37.953125 -2.203125 L 43.09375 2.703125 L 34.78125 2.703125 L 32 0 L 10.5 0 C 8.082031 0 6.101562 -0.734375 4.5625 -2.203125 C 3.007812 -3.671875 2.234375 -5.550781 2.234375 -7.84375 L 2.234375 -19.1875 C 2.234375 -21.476562 3.007812 -23.359375 4.5625 -24.828125 C 6.101562 -26.296875 8.082031 -27.03125 10.5 -27.03125 L 32.046875 -27.03125 C 34.492188 -27.03125 36.460938 -26.296875 37.953125 -24.828125 C 39.492188 -23.359375 40.265625 -21.476562 40.265625 -19.1875 Z M 25.171875 -6.71875 L 20.65625 -11.15625 L 28.609375 -11.15625 L 32.28125 -7.640625 C 32.5625 -8.003906 32.703125 -8.457031 32.703125 -9 L 32.703125 -18.03125 C 32.703125 -18.695312 32.484375 -19.242188 32.046875 -19.671875 C 31.609375 -20.097656 31.054688 -20.3125 30.390625 -20.3125 L 12.078125 -20.3125 C 11.441406 -20.3125 10.90625 -20.09375 10.46875 -19.65625 C 10.03125 -19.21875 9.8125 -18.675781 9.8125 -18.03125 L 9.8125 -9 C 9.8125 -8.351562 10.03125 -7.8125 10.46875 -7.375 C 10.90625 -6.9375 11.441406 -6.71875 12.078125 -6.71875 Z M 25.171875 -6.71875 "/></g></g></g><g fill="#000000" fill-opacity="1"><g transform="translate(330.381302, 333.913118)"><g><path d="M 30.390625 -27.03125 L 37.953125 -27.03125 L 37.953125 -7.84375 C 37.953125 -5.550781 37.179688 -3.671875 35.640625 -2.203125 C 34.140625 -0.734375 32.171875 0 29.734375 0 L 10.96875 0 C 8.539062 0 6.554688 -0.734375 5.015625 -2.203125 C 3.472656 -3.671875 2.703125 -5.550781 2.703125 -7.84375 L 2.703125 -27.03125 L 10.265625 -27.03125 L 10.265625 -8.953125 C 10.265625 -8.285156 10.484375 -7.738281 10.921875 -7.3125 C 11.359375 -6.882812 11.898438 -6.671875 12.546875 -6.671875 L 28.0625 -6.671875 C 28.738281 -6.671875 29.296875 -6.882812 29.734375 -7.3125 C 30.171875 -7.738281 30.390625 -8.285156 30.390625 -8.953125 Z M 30.390625 -27.03125 "/></g></g></g><g fill="#000000" fill-opacity="1"><g transform="translate(369.759421, 333.913118)"><g><path d="M 16.875 -27.03125 L 24.703125 -27.03125 L 41.703125 0 L 32.8125 0 L 29.765625 -5.015625 L 11.78125 -5.015625 L 8.765625 0 L -0.109375 0 Z M 26.21875 -10.921875 L 20.765625 -19.96875 L 15.328125 -10.921875 Z M 26.21875 -10.921875 "/></g></g></g><g fill="#000000" fill-opacity="1"><g transform="translate(410.141298, 333.913118)"><g/></g></g><g fill="#000000" fill-opacity="1"><g transform="translate(430.40944, 333.913118)"><g><path d="M 2.890625 0 L 2.890625 -27.03125 L 29.5 -27.03125 C 32.070312 -27.03125 34.144531 -26.375 35.71875 -25.0625 C 37.28125 -23.800781 38.0625 -22.085938 38.0625 -19.921875 L 38.0625 -19.234375 C 38.0625 -17.222656 37.0625 -15.570312 35.0625 -14.28125 C 36.375 -13.664062 37.398438 -12.820312 38.140625 -11.75 C 38.890625 -10.6875 39.265625 -9.484375 39.265625 -8.140625 L 39.265625 -7.484375 C 39.265625 -5.242188 38.453125 -3.429688 36.828125 -2.046875 C 35.234375 -0.679688 33.113281 0 30.46875 0 Z M 29.5 -10.765625 L 10.46875 -10.765625 L 10.46875 -6.671875 L 29.5 -6.671875 C 30.195312 -6.671875 30.738281 -6.828125 31.125 -7.140625 C 31.507812 -7.453125 31.703125 -7.878906 31.703125 -8.421875 L 31.703125 -9.078125 C 31.703125 -10.203125 30.96875 -10.765625 29.5 -10.765625 Z M 28.5 -20.34375 L 10.46875 -20.34375 L 10.46875 -16.40625 L 28.5 -16.40625 C 29.832031 -16.40625 30.5 -16.945312 30.5 -18.03125 L 30.5 -18.765625 C 30.5 -19.816406 29.832031 -20.34375 28.5 -20.34375 Z M 28.5 -20.34375 "/></g></g></g><g fill="#000000" fill-opacity="1"><g transform="translate(471.177375, 333.913118)"><g><path d="M 2.890625 -27.03125 L 10.46875 -27.03125 L 10.46875 0 L 2.890625 0 Z M 2.890625 -27.03125 "/></g></g></g><g fill="#000000" fill-opacity="1"><g transform="translate(484.535051, 333.913118)"><g><path d="M 2.890625 -27.03125 L 10.46875 -27.03125 L 10.46875 -16.484375 L 17.875 -16.484375 L 29 -27.03125 L 39.609375 -27.03125 L 24.828125 -13.25 L 40.03125 0 L 29.421875 0 L 17.984375 -10.03125 L 10.46875 -10.03125 L 10.46875 0 L 2.890625 0 Z M 2.890625 -27.03125 "/></g></g></g><g fill="#000000" fill-opacity="1"><g transform="translate(523.91317, 333.913118)"><g><path d="M 35.484375 -16.75 L 35.484375 -10.3125 L 10.46875 -10.3125 L 10.46875 -6.671875 L 36.484375 -6.671875 L 36.484375 0 L 2.890625 0 L 2.890625 -27.03125 L 36.40625 -27.03125 L 36.40625 -20.34375 L 10.46875 -20.34375 L 10.46875 -16.75 Z M 35.484375 -16.75 "/></g></g></g><g fill="#000000" fill-opacity="1"><g transform="translate(258.544327, 375.142754)"><g><path d="M 5.8125 -19.09375 L 9.109375 -19.09375 L 9.109375 0 L 3.765625 0 L 3.765625 -13.78125 L 0.8125 -12.984375 L 0.8125 -17.734375 Z M 5.8125 -19.09375 "/></g></g></g><g fill="#000000" fill-opacity="1"><g transform="translate(269.751404, 375.142754)"><g><path d="M 21.71875 -6.328125 L 21.71875 -12.765625 C 21.71875 -13.242188 21.5625 -13.628906 21.25 -13.921875 C 20.9375 -14.222656 20.546875 -14.375 20.078125 -14.375 L 8.671875 -14.375 C 8.203125 -14.375 7.816406 -14.222656 7.515625 -13.921875 C 7.210938 -13.628906 7.0625 -13.242188 7.0625 -12.765625 L 7.0625 -6.328125 C 7.0625 -5.859375 7.210938 -5.472656 7.515625 -5.171875 C 7.816406 -4.867188 8.203125 -4.71875 8.671875 -4.71875 L 20.078125 -4.71875 C 20.546875 -4.71875 20.9375 -4.867188 21.25 -5.171875 C 21.5625 -5.472656 21.71875 -5.859375 21.71875 -6.328125 Z M 27.0625 -13.5625 L 27.0625 -5.53125 C 27.0625 -3.914062 26.515625 -2.59375 25.421875 -1.5625 C 24.367188 -0.519531 22.976562 0 21.25 0 L 7.5625 0 C 5.851562 0 4.453125 -0.519531 3.359375 -1.5625 C 2.265625 -2.59375 1.71875 -3.914062 1.71875 -5.53125 L 1.71875 -13.5625 C 1.71875 -15.175781 2.265625 -16.503906 3.359375 -17.546875 C 4.453125 -18.578125 5.851562 -19.09375 7.5625 -19.09375 L 21.25 -19.09375 C 22.976562 -19.09375 24.367188 -18.578125 25.421875 -17.546875 C 26.515625 -16.503906 27.0625 -15.175781 27.0625 -13.5625 Z M 27.0625 -13.5625 "/></g></g></g><g fill="#000000" fill-opacity="1"><g transform="translate(298.518949, 375.142754)"><g><path d="M 2.046875 -19.09375 L 7.390625 -19.09375 L 7.390625 -11.671875 L 21.609375 -11.671875 L 21.609375 -19.09375 L 26.953125 -19.09375 L 26.953125 0 L 21.609375 0 L 21.609375 -6.953125 L 7.390625 -6.953125 L 7.390625 0 L 2.046875 0 Z M 2.046875 -19.09375 "/></g></g></g><g fill="#000000" fill-opacity="1"><g transform="translate(327.504637, 375.142754)"><g><path d="M 21.71875 -6.328125 L 21.71875 -12.765625 C 21.71875 -13.242188 21.5625 -13.628906 21.25 -13.921875 C 20.9375 -14.222656 20.546875 -14.375 20.078125 -14.375 L 8.671875 -14.375 C 8.203125 -14.375 7.816406 -14.222656 7.515625 -13.921875 C 7.210938 -13.628906 7.0625 -13.242188 7.0625 -12.765625 L 7.0625 -6.328125 C 7.0625 -5.859375 7.210938 -5.472656 7.515625 -5.171875 C 7.816406 -4.867188 8.203125 -4.71875 8.671875 -4.71875 L 20.078125 -4.71875 C 20.546875 -4.71875 20.9375 -4.867188 21.25 -5.171875 C 21.5625 -5.472656 21.71875 -5.859375 21.71875 -6.328125 Z M 27.0625 -13.5625 L 27.0625 -5.53125 C 27.0625 -3.914062 26.515625 -2.59375 25.421875 -1.5625 C 24.367188 -0.519531 22.976562 0 21.25 0 L 7.5625 0 C 5.851562 0 4.453125 -0.519531 3.359375 -1.5625 C 2.265625 -2.59375 1.71875 -3.914062 1.71875 -5.53125 L 1.71875 -13.5625 C 1.71875 -15.175781 2.265625 -16.503906 3.359375 -17.546875 C 4.453125 -18.578125 5.851562 -19.09375 7.5625 -19.09375 L 21.25 -19.09375 C 22.976562 -19.09375 24.367188 -18.578125 25.421875 -17.546875 C 26.515625 -16.503906 27.0625 -15.175781 27.0625 -13.5625 Z M 27.0625 -13.5625 "/></g></g></g><g fill="#000000" fill-opacity="1"><g transform="translate(356.272182, 375.142754)"><g><path d="M 21.71875 -6.328125 L 21.71875 -12.765625 C 21.71875 -13.242188 21.5625 -13.628906 21.25 -13.921875 C 20.9375 -14.222656 20.546875 -14.375 20.078125 -14.375 L 8.671875 -14.375 C 8.203125 -14.375 7.816406 -14.222656 7.515625 -13.921875 C 7.210938 -13.628906 7.0625 -13.242188 7.0625 -12.765625 L 7.0625 -6.328125 C 7.0625 -5.859375 7.210938 -5.472656 7.515625 -5.171875 C 7.816406 -4.867188 8.203125 -4.71875 8.671875 -4.71875 L 20.078125 -4.71875 C 20.546875 -4.71875 20.9375 -4.867188 21.25 -5.171875 C 21.5625 -5.472656 21.71875 -5.859375 21.71875 -6.328125 Z M 27.0625 -13.5625 L 27.0625 -5.53125 C 27.0625 -3.914062 26.515625 -2.59375 25.421875 -1.5625 C 24.367188 -0.519531 22.976562 0 21.25 0 L 7.5625 0 C 5.851562 0 4.453125 -0.519531 3.359375 -1.5625 C 2.265625 -2.59375 1.71875 -3.914062 1.71875 -5.53125 L 1.71875 -13.5625 C 1.71875 -15.175781 2.265625 -16.503906 3.359375 -17.546875 C 4.453125 -18.578125 5.851562 -19.09375 7.5625 -19.09375 L 21.25 -19.09375 C 22.976562 -19.09375 24.367188 -18.578125 25.421875 -17.546875 C 26.515625 -16.503906 27.0625 -15.175781 27.0625 -13.5625 Z M 27.0625 -13.5625 "/></g></g></g><g fill="#000000" fill-opacity="1"><g transform="translate(385.039727, 375.142754)"><g/></g></g><g fill="#000000" fill-opacity="1"><g transform="translate(399.355326, 375.142754)"><g><path d="M 15.828125 -11.453125 L 15.828125 -8.234375 L 1.6875 -8.234375 L 1.6875 -11.453125 Z M 15.828125 -11.453125 "/></g></g></g><g fill="#000000" fill-opacity="1"><g transform="translate(416.861267, 375.142754)"><g/></g></g><g fill="#000000" fill-opacity="1"><g transform="translate(431.176867, 375.142754)"><g><path d="M 5.8125 -19.09375 L 9.109375 -19.09375 L 9.109375 0 L 3.765625 0 L 3.765625 -13.78125 L 0.8125 -12.984375 L 0.8125 -17.734375 Z M 5.8125 -19.09375 "/></g></g></g><g fill="#000000" fill-opacity="1"><g transform="translate(442.383944, 375.142754)"><g><path d="M 21.71875 -6.328125 L 21.71875 -12.765625 C 21.71875 -13.242188 21.5625 -13.628906 21.25 -13.921875 C 20.9375 -14.222656 20.546875 -14.375 20.078125 -14.375 L 8.671875 -14.375 C 8.203125 -14.375 7.816406 -14.222656 7.515625 -13.921875 C 7.210938 -13.628906 7.0625 -13.242188 7.0625 -12.765625 L 7.0625 -6.328125 C 7.0625 -5.859375 7.210938 -5.472656 7.515625 -5.171875 C 7.816406 -4.867188 8.203125 -4.71875 8.671875 -4.71875 L 20.078125 -4.71875 C 20.546875 -4.71875 20.9375 -4.867188 21.25 -5.171875 C 21.5625 -5.472656 21.71875 -5.859375 21.71875 -6.328125 Z M 27.0625 -13.5625 L 27.0625 -5.53125 C 27.0625 -3.914062 26.515625 -2.59375 25.421875 -1.5625 C 24.367188 -0.519531 22.976562 0 21.25 0 L 7.5625 0 C 5.851562 0 4.453125 -0.519531 3.359375 -1.5625 C 2.265625 -2.59375 1.71875 -3.914062 1.71875 -5.53125 L 1.71875 -13.5625 C 1.71875 -15.175781 2.265625 -16.503906 3.359375 -17.546875 C 4.453125 -18.578125 5.851562 -19.09375 7.5625 -19.09375 L 21.25 -19.09375 C 22.976562 -19.09375 24.367188 -18.578125 25.421875 -17.546875 C 26.515625 -16.503906 27.0625 -15.175781 27.0625 -13.5625 Z M 27.0625 -13.5625 "/></g></g></g><g fill="#000000" fill-opacity="1"><g transform="translate(471.151477, 375.142754)"><g><path d="M 2.046875 -19.09375 L 7.390625 -19.09375 L 7.390625 -11.671875 L 21.609375 -11.671875 L 21.609375 -19.09375 L 26.953125 -19.09375 L 26.953125 0 L 21.609375 0 L 21.609375 -6.953125 L 7.390625 -6.953125 L 7.390625 0 L 2.046875 0 Z M 2.046875 -19.09375 "/></g></g></g><g fill="#000000" fill-opacity="1"><g transform="translate(500.137177, 375.142754)"><g><path d="M 0.90625 -3.171875 L 0.90625 -9.71875 L 15.328125 -19.09375 L 22.421875 -19.09375 L 22.421875 -7.53125 L 24.859375 -7.53125 L 24.859375 -3.171875 L 22.421875 -3.171875 L 22.421875 0 L 17.078125 0 L 17.078125 -3.171875 Z M 5.953125 -7.6875 L 5.953125 -7.53125 L 17.078125 -7.53125 L 17.078125 -14.375 L 16.859375 -14.375 Z M 5.953125 -7.6875 "/></g></g></g><g fill="#000000" fill-opacity="1"><g transform="translate(525.877995, 375.142754)"><g><path d="M 18.609375 0 L 1.796875 0 L 1.796875 -4.71875 L 18.390625 -4.71875 C 18.566406 -4.71875 18.710938 -4.769531 18.828125 -4.875 C 18.953125 -4.988281 19.015625 -5.132812 19.015625 -5.3125 L 19.015625 -6.875 C 19.015625 -7.050781 18.953125 -7.191406 18.828125 -7.296875 C 18.710938 -7.410156 18.566406 -7.46875 18.390625 -7.46875 L 1.875 -7.46875 L 1.875 -19.09375 L 23.15625 -19.09375 L 23.15625 -14.375 L 7.234375 -14.375 L 7.234375 -11.96875 L 18.609375 -11.96875 C 20.421875 -11.96875 21.832031 -11.539062 22.84375 -10.6875 C 23.851562 -9.832031 24.359375 -8.625 24.359375 -7.0625 L 24.359375 -4.78125 C 24.359375 -3.226562 23.867188 -2.039062 22.890625 -1.21875 C 21.910156 -0.40625 20.484375 0 18.609375 0 Z M 18.609375 0 "/></g></g></g></svg>