<svg xmlns="http://www.w3.org/2000/svg" xmlns:xlink="http://www.w3.org/1999/xlink" width="1080" zoomAndPan="magnify" viewBox="0 0 810 1012.49997" height="1350" preserveAspectRatio="xMidYMid meet" version="1.2"><defs><clipPath id="c0718904fb"><path d="M 0.199219 0 L 809.800781 0 L 809.800781 1012 L 0.199219 1012 Z M 0.199219 0 "/></clipPath><clipPath id="86060f4081"><path d="M 154.988281 130.460938 L 655.136719 130.460938 L 655.136719 204.214844 L 154.988281 204.214844 Z M 154.988281 130.460938 "/></clipPath><clipPath id="96f45ded95"><path d="M 161.734375 130.460938 L 648.265625 130.460938 C 651.992188 130.460938 655.011719 133.480469 655.011719 137.207031 L 655.011719 197.46875 C 655.011719 201.195312 651.992188 204.214844 648.265625 204.214844 L 161.734375 204.214844 C 158.007812 204.214844 154.988281 201.195312 154.988281 197.46875 L 154.988281 137.207031 C 154.988281 133.480469 158.007812 130.460938 161.734375 130.460938 Z M 161.734375 130.460938 "/></clipPath><clipPath id="e24a646aca"><path d="M 154.988281 251.5625 L 655.066406 251.5625 L 655.066406 328.59375 L 154.988281 328.59375 Z M 154.988281 251.5625 "/></clipPath><clipPath id="ec67861ce2"><path d="M 161.734375 251.5625 L 648.265625 251.5625 C 651.992188 251.5625 655.011719 254.585938 655.011719 258.3125 L 655.011719 321.847656 C 655.011719 325.570312 651.992188 328.59375 648.265625 328.59375 L 161.734375 328.59375 C 158.007812 328.59375 154.988281 325.570312 154.988281 321.847656 L 154.988281 258.3125 C 154.988281 254.585938 158.007812 251.5625 161.734375 251.5625 Z M 161.734375 251.5625 "/></clipPath><clipPath id="5887ac628f"><path d="M 154.988281 375.820312 L 655.066406 375.820312 L 655.066406 452.847656 L 154.988281 452.847656 Z M 154.988281 375.820312 "/></clipPath><clipPath id="f23d4b82da"><path d="M 161.734375 375.820312 L 648.265625 375.820312 C 651.992188 375.820312 655.011719 378.839844 655.011719 382.566406 L 655.011719 446.101562 C 655.011719 449.828125 651.992188 452.847656 648.265625 452.847656 L 161.734375 452.847656 C 158.007812 452.847656 154.988281 449.828125 154.988281 446.101562 L 154.988281 382.566406 C 154.988281 378.839844 158.007812 375.820312 161.734375 375.820312 Z M 161.734375 375.820312 "/></clipPath><clipPath id="faf9f694b8"><path d="M 154.988281 680.257812 L 655.066406 680.257812 L 655.066406 757.285156 L 154.988281 757.285156 Z M 154.988281 680.257812 "/></clipPath><clipPath id="ddbbdc3ee7"><path d="M 161.734375 680.257812 L 648.265625 680.257812 C 651.992188 680.257812 655.011719 683.277344 655.011719 687.003906 L 655.011719 750.539062 C 655.011719 754.265625 651.992188 757.285156 648.265625 757.285156 L 161.734375 757.285156 C 158.007812 757.285156 154.988281 754.265625 154.988281 750.539062 L 154.988281 687.003906 C 154.988281 683.277344 158.007812 680.257812 161.734375 680.257812 Z M 161.734375 680.257812 "/></clipPath><clipPath id="236ef5fa63"><path d="M 154.988281 804.511719 L 655.066406 804.511719 L 655.066406 881.539062 L 154.988281 881.539062 Z M 154.988281 804.511719 "/></clipPath><clipPath id="7339c233eb"><path d="M 161.734375 804.511719 L 648.265625 804.511719 C 651.992188 804.511719 655.011719 807.53125 655.011719 811.257812 L 655.011719 874.792969 C 655.011719 878.519531 651.992188 881.539062 648.265625 881.539062 L 161.734375 881.539062 C 158.007812 881.539062 154.988281 878.519531 154.988281 874.792969 L 154.988281 811.257812 C 154.988281 807.53125 158.007812 804.511719 161.734375 804.511719 Z M 161.734375 804.511719 "/></clipPath><clipPath id="7696921dec"><path d="M 0.199219 500 L 809.800781 500 L 809.800781 505 L 0.199219 505 Z M 0.199219 500 "/></clipPath></defs><g id="4b0a458f63"><g clip-rule="nonzero" clip-path="url(#c0718904fb)"><path style=" stroke:none;fill-rule:nonzero;fill:#ffffff;fill-opacity:1;" d="M 0.199219 0 L 809.800781 0 L 809.800781 1012 L 0.199219 1012 Z M 0.199219 0 "/><path style=" stroke:none;fill-rule:nonzero;fill:#242424;fill-opacity:1;" d="M 0.199219 0 L 809.800781 0 L 809.800781 1012 L 0.199219 1012 Z M 0.199219 0 "/></g><g clip-rule="nonzero" clip-path="url(#86060f4081)"><g clip-rule="nonzero" clip-path="url(#96f45ded95)"><path style=" stroke:none;fill-rule:nonzero;fill:#ffffff;fill-opacity:1;" d="M 154.988281 130.460938 L 655.136719 130.460938 L 655.136719 204.214844 L 154.988281 204.214844 Z M 154.988281 130.460938 "/></g></g><g style="fill:#000000;fill-opacity:1;"><g transform="translate(341.235147, 163.226989)"><path style="stroke:none" d="M 1.546875 -14.421875 L 15.59375 -14.421875 C 16.945312 -14.421875 18.085938 -13.957031 19.015625 -13.03125 C 19.953125 -12.09375 20.421875 -10.960938 20.421875 -9.640625 L 20.421875 -9.21875 C 20.421875 -7.851562 19.992188 -6.722656 19.140625 -5.828125 C 18.304688 -4.960938 17.21875 -4.53125 15.875 -4.53125 L 5.578125 -4.53125 L 5.578125 0 L 1.546875 0 Z M 14.984375 -10.859375 L 5.578125 -10.859375 L 5.578125 -7.96875 L 15 -7.96875 C 15.414062 -7.96875 15.75 -8.082031 16 -8.3125 C 16.257812 -8.539062 16.390625 -8.832031 16.390625 -9.1875 L 16.390625 -9.625 C 16.390625 -9.976562 16.253906 -10.269531 15.984375 -10.5 C 15.722656 -10.738281 15.390625 -10.859375 14.984375 -10.859375 Z M 14.984375 -10.859375 "/></g></g><g style="fill:#000000;fill-opacity:1;"><g transform="translate(362.220972, 163.226989)"><path style="stroke:none" d="M 1.546875 -14.421875 L 5.578125 -14.421875 L 5.578125 0 L 1.546875 0 Z M 1.546875 -14.421875 "/></g></g><g style="fill:#000000;fill-opacity:1;"><g transform="translate(369.353675, 163.226989)"><path style="stroke:none" d="M 1.546875 -14.421875 L 5.578125 -14.421875 L 5.578125 -3.5625 L 18.546875 -3.5625 L 18.546875 0 L 1.546875 0 Z M 1.546875 -14.421875 "/></g></g><g style="fill:#000000;fill-opacity:1;"><g transform="translate(388.29863, 163.226989)"><path style="stroke:none" d="M 9 -14.421875 L 13.1875 -14.421875 L 22.265625 0 L 17.515625 0 L 15.890625 -2.671875 L 6.28125 -2.671875 L 4.671875 0 L -0.0625 0 Z M 14 -5.828125 L 11.09375 -10.65625 L 8.1875 -5.828125 Z M 14 -5.828125 "/></g></g><g style="fill:#000000;fill-opacity:1;"><g transform="translate(406.604519, 163.226989)"><path style="stroke:none" d="M 19.90625 -14.421875 L 19.90625 -10.859375 L 12.15625 -10.859375 L 12.15625 0 L 8.125 0 L 8.125 -10.859375 L 0.375 -10.859375 L 0.375 -14.421875 Z M 19.90625 -14.421875 "/></g></g><g style="fill:#000000;fill-opacity:1;"><g transform="translate(426.889441, 163.226989)"><path style="stroke:none" d="M 18.9375 -8.9375 L 18.9375 -5.5 L 5.578125 -5.5 L 5.578125 -3.5625 L 19.46875 -3.5625 L 19.46875 0 L 1.546875 0 L 1.546875 -14.421875 L 19.4375 -14.421875 L 19.4375 -10.859375 L 5.578125 -10.859375 L 5.578125 -8.9375 Z M 18.9375 -8.9375 "/></g></g><g style="fill:#000000;fill-opacity:1;"><g transform="translate(447.524814, 163.226989)"><path style="stroke:none" d="M 16.0625 0 L 1.546875 0 L 1.546875 -3.5625 L 15.90625 -3.5625 C 16.039062 -3.5625 16.15625 -3.601562 16.25 -3.6875 C 16.34375 -3.769531 16.390625 -3.878906 16.390625 -4.015625 L 16.390625 -5.046875 C 16.390625 -5.179688 16.34375 -5.289062 16.25 -5.375 C 16.15625 -5.457031 16.039062 -5.5 15.90625 -5.5 L 5.28125 -5.5 C 3.882812 -5.5 2.804688 -5.828125 2.046875 -6.484375 C 1.285156 -7.148438 0.90625 -8.082031 0.90625 -9.28125 L 0.90625 -10.640625 C 0.90625 -11.828125 1.289062 -12.753906 2.0625 -13.421875 C 2.832031 -14.085938 3.90625 -14.421875 5.28125 -14.421875 L 19.265625 -14.421875 L 19.265625 -10.859375 L 5.421875 -10.859375 C 5.285156 -10.859375 5.171875 -10.816406 5.078125 -10.734375 C 4.992188 -10.648438 4.953125 -10.539062 4.953125 -10.40625 L 4.953125 -9.390625 C 4.953125 -9.253906 4.992188 -9.144531 5.078125 -9.0625 C 5.171875 -8.976562 5.285156 -8.9375 5.421875 -8.9375 L 16.0625 -8.9375 C 17.425781 -8.9375 18.492188 -8.601562 19.265625 -7.9375 C 20.035156 -7.28125 20.421875 -6.359375 20.421875 -5.171875 L 20.421875 -3.75 C 20.421875 -2.570312 20.035156 -1.648438 19.265625 -0.984375 C 18.492188 -0.328125 17.425781 0 16.0625 0 Z M 16.0625 0 "/></g></g><g style="fill:#000000;fill-opacity:1;"><g transform="translate(308.626253, 186.465511)"><path style="stroke:none" d="M 12.96875 -3.78125 L 12.96875 -7.625 C 12.96875 -7.90625 12.875 -8.132812 12.6875 -8.3125 C 12.507812 -8.5 12.28125 -8.59375 12 -8.59375 L 5.1875 -8.59375 C 4.90625 -8.59375 4.671875 -8.5 4.484375 -8.3125 C 4.304688 -8.132812 4.21875 -7.90625 4.21875 -7.625 L 4.21875 -3.78125 C 4.21875 -3.5 4.304688 -3.265625 4.484375 -3.078125 C 4.671875 -2.898438 4.90625 -2.8125 5.1875 -2.8125 L 12 -2.8125 C 12.28125 -2.8125 12.507812 -2.898438 12.6875 -3.078125 C 12.875 -3.265625 12.96875 -3.5 12.96875 -3.78125 Z M 16.171875 -8.09375 L 16.171875 -3.3125 C 16.171875 -2.34375 15.84375 -1.546875 15.1875 -0.921875 C 14.5625 -0.304688 13.726562 0 12.6875 0 L 4.515625 0 C 3.492188 0 2.65625 -0.304688 2 -0.921875 C 1.351562 -1.546875 1.03125 -2.34375 1.03125 -3.3125 L 1.03125 -8.09375 C 1.03125 -9.0625 1.351562 -9.859375 2 -10.484375 C 2.65625 -11.097656 3.492188 -11.40625 4.515625 -11.40625 L 12.6875 -11.40625 C 13.726562 -11.40625 14.5625 -11.097656 15.1875 -10.484375 C 15.84375 -9.859375 16.171875 -9.0625 16.171875 -8.09375 Z M 16.171875 -8.09375 "/></g></g><g style="fill:#000000;fill-opacity:1;"><g transform="translate(325.802721, 186.465511)"><path style="stroke:none" d="M 3.890625 -11.40625 L 11.109375 -11.40625 C 12.128906 -11.40625 12.96875 -11.097656 13.625 -10.484375 C 14.28125 -9.859375 14.609375 -9.0625 14.609375 -8.09375 L 14.609375 -3.3125 C 14.609375 -2.34375 14.28125 -1.546875 13.625 -0.921875 C 12.96875 -0.304688 12.128906 0 11.109375 0 L 1.3125 0 L 1.3125 -2.8125 L 10.453125 -2.8125 C 10.722656 -2.8125 10.945312 -2.898438 11.125 -3.078125 C 11.3125 -3.265625 11.40625 -3.5 11.40625 -3.78125 L 11.40625 -4.4375 L 3.90625 -4.4375 C 2.863281 -4.4375 2.070312 -4.671875 1.53125 -5.140625 C 0.988281 -5.617188 0.71875 -6.320312 0.71875 -7.25 L 0.71875 -8.203125 C 0.71875 -9.191406 1 -9.972656 1.5625 -10.546875 C 2.132812 -11.117188 2.910156 -11.40625 3.890625 -11.40625 Z M 3.90625 -8.234375 L 3.90625 -7.234375 C 3.90625 -7.128906 3.941406 -7.039062 4.015625 -6.96875 C 4.085938 -6.90625 4.175781 -6.875 4.28125 -6.875 L 11.40625 -6.875 L 11.40625 -8.234375 C 11.40625 -8.335938 11.367188 -8.421875 11.296875 -8.484375 C 11.234375 -8.554688 11.144531 -8.59375 11.03125 -8.59375 L 4.28125 -8.59375 C 4.175781 -8.59375 4.085938 -8.554688 4.015625 -8.484375 C 3.941406 -8.421875 3.90625 -8.335938 3.90625 -8.234375 Z M 3.90625 -8.234375 "/></g></g><g style="fill:#000000;fill-opacity:1;"><g transform="translate(341.416218, 186.465511)"><path style="stroke:none" d="M 1.21875 -11.40625 L 4.421875 -11.40625 L 4.421875 -6.96875 L 12.90625 -6.96875 L 12.90625 -11.40625 L 16.09375 -11.40625 L 16.09375 0 L 12.90625 0 L 12.90625 -4.15625 L 4.421875 -4.15625 L 4.421875 0 L 1.21875 0 Z M 1.21875 -11.40625 "/></g></g><g style="fill:#000000;fill-opacity:1;"><g transform="translate(358.722936, 186.465511)"><path style="stroke:none" d="M 12.96875 -3.78125 L 12.96875 -7.625 C 12.96875 -7.90625 12.875 -8.132812 12.6875 -8.3125 C 12.507812 -8.5 12.28125 -8.59375 12 -8.59375 L 5.1875 -8.59375 C 4.90625 -8.59375 4.671875 -8.5 4.484375 -8.3125 C 4.304688 -8.132812 4.21875 -7.90625 4.21875 -7.625 L 4.21875 -3.78125 C 4.21875 -3.5 4.304688 -3.265625 4.484375 -3.078125 C 4.671875 -2.898438 4.90625 -2.8125 5.1875 -2.8125 L 12 -2.8125 C 12.28125 -2.8125 12.507812 -2.898438 12.6875 -3.078125 C 12.875 -3.265625 12.96875 -3.5 12.96875 -3.78125 Z M 16.171875 -8.09375 L 16.171875 -3.3125 C 16.171875 -2.34375 15.84375 -1.546875 15.1875 -0.921875 C 14.5625 -0.304688 13.726562 0 12.6875 0 L 4.515625 0 C 3.492188 0 2.65625 -0.304688 2 -0.921875 C 1.351562 -1.546875 1.03125 -2.34375 1.03125 -3.3125 L 1.03125 -8.09375 C 1.03125 -9.0625 1.351562 -9.859375 2 -10.484375 C 2.65625 -11.097656 3.492188 -11.40625 4.515625 -11.40625 L 12.6875 -11.40625 C 13.726562 -11.40625 14.5625 -11.097656 15.1875 -10.484375 C 15.84375 -9.859375 16.171875 -9.0625 16.171875 -8.09375 Z M 16.171875 -8.09375 "/></g></g><g style="fill:#000000;fill-opacity:1;"><g transform="translate(375.899404, 186.465511)"><path style="stroke:none" d="M 12.96875 -3.78125 L 12.96875 -7.625 C 12.96875 -7.90625 12.875 -8.132812 12.6875 -8.3125 C 12.507812 -8.5 12.28125 -8.59375 12 -8.59375 L 5.1875 -8.59375 C 4.90625 -8.59375 4.671875 -8.5 4.484375 -8.3125 C 4.304688 -8.132812 4.21875 -7.90625 4.21875 -7.625 L 4.21875 -3.78125 C 4.21875 -3.5 4.304688 -3.265625 4.484375 -3.078125 C 4.671875 -2.898438 4.90625 -2.8125 5.1875 -2.8125 L 12 -2.8125 C 12.28125 -2.8125 12.507812 -2.898438 12.6875 -3.078125 C 12.875 -3.265625 12.96875 -3.5 12.96875 -3.78125 Z M 16.171875 -8.09375 L 16.171875 -3.3125 C 16.171875 -2.34375 15.84375 -1.546875 15.1875 -0.921875 C 14.5625 -0.304688 13.726562 0 12.6875 0 L 4.515625 0 C 3.492188 0 2.65625 -0.304688 2 -0.921875 C 1.351562 -1.546875 1.03125 -2.34375 1.03125 -3.3125 L 1.03125 -8.09375 C 1.03125 -9.0625 1.351562 -9.859375 2 -10.484375 C 2.65625 -11.097656 3.492188 -11.40625 4.515625 -11.40625 L 12.6875 -11.40625 C 13.726562 -11.40625 14.5625 -11.097656 15.1875 -10.484375 C 15.84375 -9.859375 16.171875 -9.0625 16.171875 -8.09375 Z M 16.171875 -8.09375 "/></g></g><g style="fill:#000000;fill-opacity:1;"><g transform="translate(393.075873, 186.465511)"><path style="stroke:none" d=""/></g></g><g style="fill:#000000;fill-opacity:1;"><g transform="translate(401.623409, 186.465511)"><path style="stroke:none" d="M 9.453125 -6.84375 L 9.453125 -4.921875 L 1.015625 -4.921875 L 1.015625 -6.84375 Z M 9.453125 -6.84375 "/></g></g><g style="fill:#000000;fill-opacity:1;"><g transform="translate(412.075823, 186.465511)"><path style="stroke:none" d=""/></g></g><g style="fill:#000000;fill-opacity:1;"><g transform="translate(420.623359, 186.465511)"><path style="stroke:none" d="M 12.96875 -3.78125 L 12.96875 -7.625 C 12.96875 -7.90625 12.875 -8.132812 12.6875 -8.3125 C 12.507812 -8.5 12.28125 -8.59375 12 -8.59375 L 5.1875 -8.59375 C 4.90625 -8.59375 4.671875 -8.5 4.484375 -8.3125 C 4.304688 -8.132812 4.21875 -7.90625 4.21875 -7.625 L 4.21875 -3.78125 C 4.21875 -3.5 4.304688 -3.265625 4.484375 -3.078125 C 4.671875 -2.898438 4.90625 -2.8125 5.1875 -2.8125 L 12 -2.8125 C 12.28125 -2.8125 12.507812 -2.898438 12.6875 -3.078125 C 12.875 -3.265625 12.96875 -3.5 12.96875 -3.78125 Z M 16.171875 -8.09375 L 16.171875 -3.3125 C 16.171875 -2.34375 15.84375 -1.546875 15.1875 -0.921875 C 14.5625 -0.304688 13.726562 0 12.6875 0 L 4.515625 0 C 3.492188 0 2.65625 -0.304688 2 -0.921875 C 1.351562 -1.546875 1.03125 -2.34375 1.03125 -3.3125 L 1.03125 -8.09375 C 1.03125 -9.0625 1.351562 -9.859375 2 -10.484375 C 2.65625 -11.097656 3.492188 -11.40625 4.515625 -11.40625 L 12.6875 -11.40625 C 13.726562 -11.40625 14.5625 -11.097656 15.1875 -10.484375 C 15.84375 -9.859375 16.171875 -9.0625 16.171875 -8.09375 Z M 16.171875 -8.09375 "/></g></g><g style="fill:#000000;fill-opacity:1;"><g transform="translate(437.799828, 186.465511)"><path style="stroke:none" d="M 3.890625 -11.40625 L 11.109375 -11.40625 C 12.128906 -11.40625 12.96875 -11.097656 13.625 -10.484375 C 14.28125 -9.859375 14.609375 -9.0625 14.609375 -8.09375 L 14.609375 -3.3125 C 14.609375 -2.34375 14.28125 -1.546875 13.625 -0.921875 C 12.96875 -0.304688 12.128906 0 11.109375 0 L 1.3125 0 L 1.3125 -2.8125 L 10.453125 -2.8125 C 10.722656 -2.8125 10.945312 -2.898438 11.125 -3.078125 C 11.3125 -3.265625 11.40625 -3.5 11.40625 -3.78125 L 11.40625 -4.4375 L 3.90625 -4.4375 C 2.863281 -4.4375 2.070312 -4.671875 1.53125 -5.140625 C 0.988281 -5.617188 0.71875 -6.320312 0.71875 -7.25 L 0.71875 -8.203125 C 0.71875 -9.191406 1 -9.972656 1.5625 -10.546875 C 2.132812 -11.117188 2.910156 -11.40625 3.890625 -11.40625 Z M 3.90625 -8.234375 L 3.90625 -7.234375 C 3.90625 -7.128906 3.941406 -7.039062 4.015625 -6.96875 C 4.085938 -6.90625 4.175781 -6.875 4.28125 -6.875 L 11.40625 -6.875 L 11.40625 -8.234375 C 11.40625 -8.335938 11.367188 -8.421875 11.296875 -8.484375 C 11.234375 -8.554688 11.144531 -8.59375 11.03125 -8.59375 L 4.28125 -8.59375 C 4.175781 -8.59375 4.085938 -8.554688 4.015625 -8.484375 C 3.941406 -8.421875 3.90625 -8.335938 3.90625 -8.234375 Z M 3.90625 -8.234375 "/></g></g><g style="fill:#000000;fill-opacity:1;"><g transform="translate(453.413325, 186.465511)"><path style="stroke:none" d="M 1.21875 -11.40625 L 4.421875 -11.40625 L 4.421875 -6.96875 L 12.90625 -6.96875 L 12.90625 -11.40625 L 16.09375 -11.40625 L 16.09375 0 L 12.90625 0 L 12.90625 -4.15625 L 4.421875 -4.15625 L 4.421875 0 L 1.21875 0 Z M 1.21875 -11.40625 "/></g></g><g style="fill:#000000;fill-opacity:1;"><g transform="translate(470.720043, 186.465511)"><path style="stroke:none" d="M 0.53125 -1.890625 L 0.53125 -5.796875 L 9.15625 -11.40625 L 13.390625 -11.40625 L 13.390625 -4.5 L 14.84375 -4.5 L 14.84375 -1.890625 L 13.390625 -1.890625 L 13.390625 0 L 10.203125 0 L 10.203125 -1.890625 Z M 3.546875 -4.59375 L 3.546875 -4.5 L 10.203125 -4.5 L 10.203125 -8.59375 L 10.078125 -8.59375 Z M 3.546875 -4.59375 "/></g></g><g style="fill:#000000;fill-opacity:1;"><g transform="translate(486.089317, 186.465511)"><path style="stroke:none" d="M 11.109375 0 L 1.078125 0 L 1.078125 -2.8125 L 10.984375 -2.8125 C 11.085938 -2.8125 11.175781 -2.84375 11.25 -2.90625 C 11.320312 -2.976562 11.359375 -3.066406 11.359375 -3.171875 L 11.359375 -4.109375 C 11.359375 -4.210938 11.320312 -4.296875 11.25 -4.359375 C 11.175781 -4.429688 11.085938 -4.46875 10.984375 -4.46875 L 1.125 -4.46875 L 1.125 -11.40625 L 13.84375 -11.40625 L 13.84375 -8.59375 L 4.3125 -8.59375 L 4.3125 -7.15625 L 11.109375 -7.15625 C 12.203125 -7.15625 13.046875 -6.898438 13.640625 -6.390625 C 14.242188 -5.878906 14.546875 -5.15625 14.546875 -4.21875 L 14.546875 -2.859375 C 14.546875 -1.929688 14.253906 -1.222656 13.671875 -0.734375 C 13.085938 -0.242188 12.234375 0 11.109375 0 Z M 11.109375 0 "/></g></g><g clip-rule="nonzero" clip-path="url(#e24a646aca)"><g clip-rule="nonzero" clip-path="url(#ec67861ce2)"><path style=" stroke:none;fill-rule:nonzero;fill:#e1c340;fill-opacity:1;" d="M 154.988281 251.5625 L 655.066406 251.5625 L 655.066406 328.59375 L 154.988281 328.59375 Z M 154.988281 251.5625 "/></g></g><g style="fill:#000000;fill-opacity:1;"><g transform="translate(371.700565, 285.831191)"><path style="stroke:none" d="M 5.578125 0 L 1.546875 0 L 1.546875 -14.421875 L 15.546875 -14.421875 C 16.953125 -14.421875 18.117188 -13.976562 19.046875 -13.09375 C 19.960938 -12.207031 20.421875 -11.070312 20.421875 -9.6875 L 20.421875 -9.296875 C 20.421875 -8.222656 20.09375 -7.28125 19.4375 -6.46875 C 18.78125 -5.65625 17.90625 -5.09375 16.8125 -4.78125 L 20.671875 0 L 16.09375 0 L 12.546875 -4.546875 L 5.578125 -4.546875 Z M 15.03125 -10.859375 L 5.578125 -10.859375 L 5.578125 -8 L 15.046875 -8 C 15.453125 -8 15.773438 -8.109375 16.015625 -8.328125 C 16.265625 -8.554688 16.390625 -8.863281 16.390625 -9.25 L 16.390625 -9.609375 C 16.390625 -9.992188 16.265625 -10.296875 16.015625 -10.515625 C 15.765625 -10.742188 15.4375 -10.859375 15.03125 -10.859375 Z M 15.03125 -10.859375 "/></g></g><g style="fill:#000000;fill-opacity:1;"><g transform="translate(392.913145, 285.831191)"><path style="stroke:none" d="M 1.546875 -14.421875 L 15.59375 -14.421875 C 16.945312 -14.421875 18.085938 -13.957031 19.015625 -13.03125 C 19.953125 -12.09375 20.421875 -10.960938 20.421875 -9.640625 L 20.421875 -9.21875 C 20.421875 -7.851562 19.992188 -6.722656 19.140625 -5.828125 C 18.304688 -4.960938 17.21875 -4.53125 15.875 -4.53125 L 5.578125 -4.53125 L 5.578125 0 L 1.546875 0 Z M 14.984375 -10.859375 L 5.578125 -10.859375 L 5.578125 -7.96875 L 15 -7.96875 C 15.414062 -7.96875 15.75 -8.082031 16 -8.3125 C 16.257812 -8.539062 16.390625 -8.832031 16.390625 -9.1875 L 16.390625 -9.625 C 16.390625 -9.976562 16.253906 -10.269531 15.984375 -10.5 C 15.722656 -10.738281 15.390625 -10.859375 14.984375 -10.859375 Z M 14.984375 -10.859375 "/></g></g><g style="fill:#000000;fill-opacity:1;"><g transform="translate(413.89897, 285.831191)"><path style="stroke:none" d="M 13.5625 0 L 10.796875 0 L 5.578125 -8.375 L 5.578125 0 L 1.546875 0 L 1.546875 -14.421875 L 6.078125 -14.421875 L 12.1875 -4.53125 L 18.28125 -14.421875 L 22.8125 -14.421875 L 22.8125 0 L 18.78125 0 L 18.78125 -8.375 Z M 13.5625 0 "/></g></g><g style="fill:#000000;fill-opacity:1;"><g transform="translate(317.551532, 309.069713)"><path style="stroke:none" d="M 3.46875 -11.40625 L 5.4375 -11.40625 L 5.4375 0 L 2.25 0 L 2.25 -8.234375 L 0.484375 -7.75 L 0.484375 -10.59375 Z M 3.46875 -11.40625 "/></g></g><g style="fill:#000000;fill-opacity:1;"><g transform="translate(324.243032, 309.069713)"><path style="stroke:none" d="M 12.96875 -3.78125 L 12.96875 -7.625 C 12.96875 -7.90625 12.875 -8.132812 12.6875 -8.3125 C 12.507812 -8.5 12.28125 -8.59375 12 -8.59375 L 5.1875 -8.59375 C 4.90625 -8.59375 4.671875 -8.5 4.484375 -8.3125 C 4.304688 -8.132812 4.21875 -7.90625 4.21875 -7.625 L 4.21875 -3.78125 C 4.21875 -3.5 4.304688 -3.265625 4.484375 -3.078125 C 4.671875 -2.898438 4.90625 -2.8125 5.1875 -2.8125 L 12 -2.8125 C 12.28125 -2.8125 12.507812 -2.898438 12.6875 -3.078125 C 12.875 -3.265625 12.96875 -3.5 12.96875 -3.78125 Z M 16.171875 -8.09375 L 16.171875 -3.3125 C 16.171875 -2.34375 15.84375 -1.546875 15.1875 -0.921875 C 14.5625 -0.304688 13.726562 0 12.6875 0 L 4.515625 0 C 3.492188 0 2.65625 -0.304688 2 -0.921875 C 1.351562 -1.546875 1.03125 -2.34375 1.03125 -3.3125 L 1.03125 -8.09375 C 1.03125 -9.0625 1.351562 -9.859375 2 -10.484375 C 2.65625 -11.097656 3.492188 -11.40625 4.515625 -11.40625 L 12.6875 -11.40625 C 13.726562 -11.40625 14.5625 -11.097656 15.1875 -10.484375 C 15.84375 -9.859375 16.171875 -9.0625 16.171875 -8.09375 Z M 16.171875 -8.09375 "/></g></g><g style="fill:#000000;fill-opacity:1;"><g transform="translate(341.419501, 309.069713)"><path style="stroke:none" d="M 1.21875 -11.40625 L 4.421875 -11.40625 L 4.421875 -6.96875 L 12.90625 -6.96875 L 12.90625 -11.40625 L 16.09375 -11.40625 L 16.09375 0 L 12.90625 0 L 12.90625 -4.15625 L 4.421875 -4.15625 L 4.421875 0 L 1.21875 0 Z M 1.21875 -11.40625 "/></g></g><g style="fill:#000000;fill-opacity:1;"><g transform="translate(358.726219, 309.069713)"><path style="stroke:none" d="M 12.96875 -3.78125 L 12.96875 -7.625 C 12.96875 -7.90625 12.875 -8.132812 12.6875 -8.3125 C 12.507812 -8.5 12.28125 -8.59375 12 -8.59375 L 5.1875 -8.59375 C 4.90625 -8.59375 4.671875 -8.5 4.484375 -8.3125 C 4.304688 -8.132812 4.21875 -7.90625 4.21875 -7.625 L 4.21875 -3.78125 C 4.21875 -3.5 4.304688 -3.265625 4.484375 -3.078125 C 4.671875 -2.898438 4.90625 -2.8125 5.1875 -2.8125 L 12 -2.8125 C 12.28125 -2.8125 12.507812 -2.898438 12.6875 -3.078125 C 12.875 -3.265625 12.96875 -3.5 12.96875 -3.78125 Z M 16.171875 -8.09375 L 16.171875 -3.3125 C 16.171875 -2.34375 15.84375 -1.546875 15.1875 -0.921875 C 14.5625 -0.304688 13.726562 0 12.6875 0 L 4.515625 0 C 3.492188 0 2.65625 -0.304688 2 -0.921875 C 1.351562 -1.546875 1.03125 -2.34375 1.03125 -3.3125 L 1.03125 -8.09375 C 1.03125 -9.0625 1.351562 -9.859375 2 -10.484375 C 2.65625 -11.097656 3.492188 -11.40625 4.515625 -11.40625 L 12.6875 -11.40625 C 13.726562 -11.40625 14.5625 -11.097656 15.1875 -10.484375 C 15.84375 -9.859375 16.171875 -9.0625 16.171875 -8.09375 Z M 16.171875 -8.09375 "/></g></g><g style="fill:#000000;fill-opacity:1;"><g transform="translate(375.902687, 309.069713)"><path style="stroke:none" d="M 12.96875 -3.78125 L 12.96875 -7.625 C 12.96875 -7.90625 12.875 -8.132812 12.6875 -8.3125 C 12.507812 -8.5 12.28125 -8.59375 12 -8.59375 L 5.1875 -8.59375 C 4.90625 -8.59375 4.671875 -8.5 4.484375 -8.3125 C 4.304688 -8.132812 4.21875 -7.90625 4.21875 -7.625 L 4.21875 -3.78125 C 4.21875 -3.5 4.304688 -3.265625 4.484375 -3.078125 C 4.671875 -2.898438 4.90625 -2.8125 5.1875 -2.8125 L 12 -2.8125 C 12.28125 -2.8125 12.507812 -2.898438 12.6875 -3.078125 C 12.875 -3.265625 12.96875 -3.5 12.96875 -3.78125 Z M 16.171875 -8.09375 L 16.171875 -3.3125 C 16.171875 -2.34375 15.84375 -1.546875 15.1875 -0.921875 C 14.5625 -0.304688 13.726562 0 12.6875 0 L 4.515625 0 C 3.492188 0 2.65625 -0.304688 2 -0.921875 C 1.351562 -1.546875 1.03125 -2.34375 1.03125 -3.3125 L 1.03125 -8.09375 C 1.03125 -9.0625 1.351562 -9.859375 2 -10.484375 C 2.65625 -11.097656 3.492188 -11.40625 4.515625 -11.40625 L 12.6875 -11.40625 C 13.726562 -11.40625 14.5625 -11.097656 15.1875 -10.484375 C 15.84375 -9.859375 16.171875 -9.0625 16.171875 -8.09375 Z M 16.171875 -8.09375 "/></g></g><g style="fill:#000000;fill-opacity:1;"><g transform="translate(393.079155, 309.069713)"><path style="stroke:none" d=""/></g></g><g style="fill:#000000;fill-opacity:1;"><g transform="translate(401.626691, 309.069713)"><path style="stroke:none" d="M 9.453125 -6.84375 L 9.453125 -4.921875 L 1.015625 -4.921875 L 1.015625 -6.84375 Z M 9.453125 -6.84375 "/></g></g><g style="fill:#000000;fill-opacity:1;"><g transform="translate(412.079106, 309.069713)"><path style="stroke:none" d=""/></g></g><g style="fill:#000000;fill-opacity:1;"><g transform="translate(420.626642, 309.069713)"><path style="stroke:none" d="M 3.46875 -11.40625 L 5.4375 -11.40625 L 5.4375 0 L 2.25 0 L 2.25 -8.234375 L 0.484375 -7.75 L 0.484375 -10.59375 Z M 3.46875 -11.40625 "/></g></g><g style="fill:#000000;fill-opacity:1;"><g transform="translate(427.318142, 309.069713)"><path style="stroke:none" d="M 12.96875 -3.78125 L 12.96875 -7.625 C 12.96875 -7.90625 12.875 -8.132812 12.6875 -8.3125 C 12.507812 -8.5 12.28125 -8.59375 12 -8.59375 L 5.1875 -8.59375 C 4.90625 -8.59375 4.671875 -8.5 4.484375 -8.3125 C 4.304688 -8.132812 4.21875 -7.90625 4.21875 -7.625 L 4.21875 -3.78125 C 4.21875 -3.5 4.304688 -3.265625 4.484375 -3.078125 C 4.671875 -2.898438 4.90625 -2.8125 5.1875 -2.8125 L 12 -2.8125 C 12.28125 -2.8125 12.507812 -2.898438 12.6875 -3.078125 C 12.875 -3.265625 12.96875 -3.5 12.96875 -3.78125 Z M 16.171875 -8.09375 L 16.171875 -3.3125 C 16.171875 -2.34375 15.84375 -1.546875 15.1875 -0.921875 C 14.5625 -0.304688 13.726562 0 12.6875 0 L 4.515625 0 C 3.492188 0 2.65625 -0.304688 2 -0.921875 C 1.351562 -1.546875 1.03125 -2.34375 1.03125 -3.3125 L 1.03125 -8.09375 C 1.03125 -9.0625 1.351562 -9.859375 2 -10.484375 C 2.65625 -11.097656 3.492188 -11.40625 4.515625 -11.40625 L 12.6875 -11.40625 C 13.726562 -11.40625 14.5625 -11.097656 15.1875 -10.484375 C 15.84375 -9.859375 16.171875 -9.0625 16.171875 -8.09375 Z M 16.171875 -8.09375 "/></g></g><g style="fill:#000000;fill-opacity:1;"><g transform="translate(444.494611, 309.069713)"><path style="stroke:none" d="M 1.21875 -11.40625 L 4.421875 -11.40625 L 4.421875 -6.96875 L 12.90625 -6.96875 L 12.90625 -11.40625 L 16.09375 -11.40625 L 16.09375 0 L 12.90625 0 L 12.90625 -4.15625 L 4.421875 -4.15625 L 4.421875 0 L 1.21875 0 Z M 1.21875 -11.40625 "/></g></g><g style="fill:#000000;fill-opacity:1;"><g transform="translate(461.801329, 309.069713)"><path style="stroke:none" d="M 0.53125 -1.890625 L 0.53125 -5.796875 L 9.15625 -11.40625 L 13.390625 -11.40625 L 13.390625 -4.5 L 14.84375 -4.5 L 14.84375 -1.890625 L 13.390625 -1.890625 L 13.390625 0 L 10.203125 0 L 10.203125 -1.890625 Z M 3.546875 -4.59375 L 3.546875 -4.5 L 10.203125 -4.5 L 10.203125 -8.59375 L 10.078125 -8.59375 Z M 3.546875 -4.59375 "/></g></g><g style="fill:#000000;fill-opacity:1;"><g transform="translate(477.170603, 309.069713)"><path style="stroke:none" d="M 11.109375 0 L 1.078125 0 L 1.078125 -2.8125 L 10.984375 -2.8125 C 11.085938 -2.8125 11.175781 -2.84375 11.25 -2.90625 C 11.320312 -2.976562 11.359375 -3.066406 11.359375 -3.171875 L 11.359375 -4.109375 C 11.359375 -4.210938 11.320312 -4.296875 11.25 -4.359375 C 11.175781 -4.429688 11.085938 -4.46875 10.984375 -4.46875 L 1.125 -4.46875 L 1.125 -11.40625 L 13.84375 -11.40625 L 13.84375 -8.59375 L 4.3125 -8.59375 L 4.3125 -7.15625 L 11.109375 -7.15625 C 12.203125 -7.15625 13.046875 -6.898438 13.640625 -6.390625 C 14.242188 -5.878906 14.546875 -5.15625 14.546875 -4.21875 L 14.546875 -2.859375 C 14.546875 -1.929688 14.253906 -1.222656 13.671875 -0.734375 C 13.085938 -0.242188 12.234375 0 11.109375 0 Z M 11.109375 0 "/></g></g><g clip-rule="nonzero" clip-path="url(#5887ac628f)"><g clip-rule="nonzero" clip-path="url(#f23d4b82da)"><path style=" stroke:none;fill-rule:nonzero;fill:#e1c340;fill-opacity:1;" d="M 154.988281 375.820312 L 655.066406 375.820312 L 655.066406 452.847656 L 154.988281 452.847656 Z M 154.988281 375.820312 "/></g></g><g style="fill:#000000;fill-opacity:1;"><g transform="translate(273.94416, 410.085955)"><path style="stroke:none" d="M 6.453125 -3.5625 L 20.109375 -3.5625 L 20.109375 0 L 5.609375 0 C 4.316406 0 3.257812 -0.390625 2.4375 -1.171875 C 1.613281 -1.953125 1.203125 -2.957031 1.203125 -4.1875 L 1.203125 -10.25 C 1.203125 -11.46875 1.613281 -12.46875 2.4375 -13.25 C 3.257812 -14.03125 4.316406 -14.421875 5.609375 -14.421875 L 19.921875 -14.421875 L 19.921875 -10.859375 L 6.453125 -10.859375 C 6.109375 -10.859375 5.816406 -10.742188 5.578125 -10.515625 C 5.347656 -10.296875 5.234375 -10.003906 5.234375 -9.640625 L 5.234375 -4.78125 C 5.234375 -4.425781 5.347656 -4.132812 5.578125 -3.90625 C 5.816406 -3.675781 6.109375 -3.5625 6.453125 -3.5625 Z M 6.453125 -3.5625 "/></g></g><g style="fill:#000000;fill-opacity:1;"><g transform="translate(294.868137, 410.085955)"><path style="stroke:none" d="M 5.578125 0 L 1.546875 0 L 1.546875 -14.421875 L 15.546875 -14.421875 C 16.953125 -14.421875 18.117188 -13.976562 19.046875 -13.09375 C 19.960938 -12.207031 20.421875 -11.070312 20.421875 -9.6875 L 20.421875 -9.296875 C 20.421875 -8.222656 20.09375 -7.28125 19.4375 -6.46875 C 18.78125 -5.65625 17.90625 -5.09375 16.8125 -4.78125 L 20.671875 0 L 16.09375 0 L 12.546875 -4.546875 L 5.578125 -4.546875 Z M 15.03125 -10.859375 L 5.578125 -10.859375 L 5.578125 -8 L 15.046875 -8 C 15.453125 -8 15.773438 -8.109375 16.015625 -8.328125 C 16.265625 -8.554688 16.390625 -8.863281 16.390625 -9.25 L 16.390625 -9.609375 C 16.390625 -9.992188 16.265625 -10.296875 16.015625 -10.515625 C 15.765625 -10.742188 15.4375 -10.859375 15.03125 -10.859375 Z M 15.03125 -10.859375 "/></g></g><g style="fill:#000000;fill-opacity:1;"><g transform="translate(316.080716, 410.085955)"><path style="stroke:none" d="M 17.453125 -4.78125 L 17.453125 -9.640625 C 17.453125 -10.003906 17.332031 -10.296875 17.09375 -10.515625 C 16.863281 -10.742188 16.570312 -10.859375 16.21875 -10.859375 L 6.453125 -10.859375 C 6.109375 -10.859375 5.816406 -10.742188 5.578125 -10.515625 C 5.347656 -10.296875 5.234375 -10.003906 5.234375 -9.640625 L 5.234375 -4.78125 C 5.234375 -4.425781 5.347656 -4.132812 5.578125 -3.90625 C 5.816406 -3.675781 6.109375 -3.5625 6.453125 -3.5625 L 16.21875 -3.5625 C 16.570312 -3.5625 16.863281 -3.675781 17.09375 -3.90625 C 17.332031 -4.132812 17.453125 -4.425781 17.453125 -4.78125 Z M 21.5 -10.25 L 21.5 -4.1875 C 21.5 -2.957031 21.085938 -1.953125 20.265625 -1.171875 C 19.460938 -0.390625 18.410156 0 17.109375 0 L 5.609375 0 C 4.316406 0 3.257812 -0.390625 2.4375 -1.171875 C 1.613281 -1.953125 1.203125 -2.957031 1.203125 -4.1875 L 1.203125 -10.25 C 1.203125 -11.46875 1.613281 -12.46875 2.4375 -13.25 C 3.257812 -14.03125 4.316406 -14.421875 5.609375 -14.421875 L 17.109375 -14.421875 C 18.410156 -14.421875 19.460938 -14.03125 20.265625 -13.25 C 21.085938 -12.46875 21.5 -11.46875 21.5 -10.25 Z M 21.5 -10.25 "/></g></g><g style="fill:#000000;fill-opacity:1;"><g transform="translate(338.77756, 410.085955)"><path style="stroke:none" d="M 16.0625 0 L 1.546875 0 L 1.546875 -3.5625 L 15.90625 -3.5625 C 16.039062 -3.5625 16.15625 -3.601562 16.25 -3.6875 C 16.34375 -3.769531 16.390625 -3.878906 16.390625 -4.015625 L 16.390625 -5.046875 C 16.390625 -5.179688 16.34375 -5.289062 16.25 -5.375 C 16.15625 -5.457031 16.039062 -5.5 15.90625 -5.5 L 5.28125 -5.5 C 3.882812 -5.5 2.804688 -5.828125 2.046875 -6.484375 C 1.285156 -7.148438 0.90625 -8.082031 0.90625 -9.28125 L 0.90625 -10.640625 C 0.90625 -11.828125 1.289062 -12.753906 2.0625 -13.421875 C 2.832031 -14.085938 3.90625 -14.421875 5.28125 -14.421875 L 19.265625 -14.421875 L 19.265625 -10.859375 L 5.421875 -10.859375 C 5.285156 -10.859375 5.171875 -10.816406 5.078125 -10.734375 C 4.992188 -10.648438 4.953125 -10.539062 4.953125 -10.40625 L 4.953125 -9.390625 C 4.953125 -9.253906 4.992188 -9.144531 5.078125 -9.0625 C 5.171875 -8.976562 5.285156 -8.9375 5.421875 -8.9375 L 16.0625 -8.9375 C 17.425781 -8.9375 18.492188 -8.601562 19.265625 -7.9375 C 20.035156 -7.28125 20.421875 -6.359375 20.421875 -5.171875 L 20.421875 -3.75 C 20.421875 -2.570312 20.035156 -1.648438 19.265625 -0.984375 C 18.492188 -0.328125 17.425781 0 16.0625 0 Z M 16.0625 0 "/></g></g><g style="fill:#000000;fill-opacity:1;"><g transform="translate(359.99014, 410.085955)"><path style="stroke:none" d="M 16.0625 0 L 1.546875 0 L 1.546875 -3.5625 L 15.90625 -3.5625 C 16.039062 -3.5625 16.15625 -3.601562 16.25 -3.6875 C 16.34375 -3.769531 16.390625 -3.878906 16.390625 -4.015625 L 16.390625 -5.046875 C 16.390625 -5.179688 16.34375 -5.289062 16.25 -5.375 C 16.15625 -5.457031 16.039062 -5.5 15.90625 -5.5 L 5.28125 -5.5 C 3.882812 -5.5 2.804688 -5.828125 2.046875 -6.484375 C 1.285156 -7.148438 0.90625 -8.082031 0.90625 -9.28125 L 0.90625 -10.640625 C 0.90625 -11.828125 1.289062 -12.753906 2.0625 -13.421875 C 2.832031 -14.085938 3.90625 -14.421875 5.28125 -14.421875 L 19.265625 -14.421875 L 19.265625 -10.859375 L 5.421875 -10.859375 C 5.285156 -10.859375 5.171875 -10.816406 5.078125 -10.734375 C 4.992188 -10.648438 4.953125 -10.539062 4.953125 -10.40625 L 4.953125 -9.390625 C 4.953125 -9.253906 4.992188 -9.144531 5.078125 -9.0625 C 5.171875 -8.976562 5.285156 -8.9375 5.421875 -8.9375 L 16.0625 -8.9375 C 17.425781 -8.9375 18.492188 -8.601562 19.265625 -7.9375 C 20.035156 -7.28125 20.421875 -6.359375 20.421875 -5.171875 L 20.421875 -3.75 C 20.421875 -2.570312 20.035156 -1.648438 19.265625 -0.984375 C 18.492188 -0.328125 17.425781 0 16.0625 0 Z M 16.0625 0 "/></g></g><g style="fill:#000000;fill-opacity:1;"><g transform="translate(381.20272, 410.085955)"><path style="stroke:none" d=""/></g></g><g style="fill:#000000;fill-opacity:1;"><g transform="translate(392.025465, 410.085955)"><path style="stroke:none" d="M 19.90625 -14.421875 L 19.90625 -10.859375 L 12.15625 -10.859375 L 12.15625 0 L 8.125 0 L 8.125 -10.859375 L 0.375 -10.859375 L 0.375 -14.421875 Z M 19.90625 -14.421875 "/></g></g><g style="fill:#000000;fill-opacity:1;"><g transform="translate(412.310387, 410.085955)"><path style="stroke:none" d="M 5.578125 0 L 1.546875 0 L 1.546875 -14.421875 L 15.546875 -14.421875 C 16.953125 -14.421875 18.117188 -13.976562 19.046875 -13.09375 C 19.960938 -12.207031 20.421875 -11.070312 20.421875 -9.6875 L 20.421875 -9.296875 C 20.421875 -8.222656 20.09375 -7.28125 19.4375 -6.46875 C 18.78125 -5.65625 17.90625 -5.09375 16.8125 -4.78125 L 20.671875 0 L 16.09375 0 L 12.546875 -4.546875 L 5.578125 -4.546875 Z M 15.03125 -10.859375 L 5.578125 -10.859375 L 5.578125 -8 L 15.046875 -8 C 15.453125 -8 15.773438 -8.109375 16.015625 -8.328125 C 16.265625 -8.554688 16.390625 -8.863281 16.390625 -9.25 L 16.390625 -9.609375 C 16.390625 -9.992188 16.265625 -10.296875 16.015625 -10.515625 C 15.765625 -10.742188 15.4375 -10.859375 15.03125 -10.859375 Z M 15.03125 -10.859375 "/></g></g><g style="fill:#000000;fill-opacity:1;"><g transform="translate(433.522967, 410.085955)"><path style="stroke:none" d="M 9 -14.421875 L 13.1875 -14.421875 L 22.265625 0 L 17.515625 0 L 15.890625 -2.671875 L 6.28125 -2.671875 L 4.671875 0 L -0.0625 0 Z M 14 -5.828125 L 11.09375 -10.65625 L 8.1875 -5.828125 Z M 14 -5.828125 "/></g></g><g style="fill:#000000;fill-opacity:1;"><g transform="translate(455.725052, 410.085955)"><path style="stroke:none" d="M 1.546875 -14.421875 L 5.578125 -14.421875 L 5.578125 0 L 1.546875 0 Z M 1.546875 -14.421875 "/></g></g><g style="fill:#000000;fill-opacity:1;"><g transform="translate(462.857756, 410.085955)"><path style="stroke:none" d="M 20.328125 0 L 16.078125 0 L 5.578125 -9.671875 L 5.578125 0 L 1.546875 0 L 1.546875 -14.421875 L 5.796875 -14.421875 L 16.28125 -4.765625 L 16.28125 -14.421875 L 20.328125 -14.421875 Z M 20.328125 0 "/></g></g><g style="fill:#000000;fill-opacity:1;"><g transform="translate(484.730014, 410.085955)"><path style="stroke:none" d="M 1.546875 -14.421875 L 5.578125 -14.421875 L 5.578125 0 L 1.546875 0 Z M 1.546875 -14.421875 "/></g></g><g style="fill:#000000;fill-opacity:1;"><g transform="translate(491.862729, 410.085955)"><path style="stroke:none" d="M 20.328125 0 L 16.078125 0 L 5.578125 -9.671875 L 5.578125 0 L 1.546875 0 L 1.546875 -14.421875 L 5.796875 -14.421875 L 16.28125 -4.765625 L 16.28125 -14.421875 L 20.328125 -14.421875 Z M 20.328125 0 "/></g></g><g style="fill:#000000;fill-opacity:1;"><g transform="translate(513.734976, 410.085955)"><path style="stroke:none" d="M 17.203125 -0.578125 L 16.171875 0 L 5.609375 0 C 4.316406 0 3.257812 -0.390625 2.4375 -1.171875 C 1.613281 -1.953125 1.203125 -2.957031 1.203125 -4.1875 L 1.203125 -10.25 C 1.203125 -11.46875 1.613281 -12.46875 2.4375 -13.25 C 3.257812 -14.03125 4.316406 -14.421875 5.609375 -14.421875 L 20.71875 -14.421875 L 20.71875 -10.859375 L 6.453125 -10.859375 C 6.109375 -10.859375 5.816406 -10.742188 5.578125 -10.515625 C 5.347656 -10.296875 5.234375 -10.003906 5.234375 -9.640625 L 5.234375 -4.78125 C 5.234375 -4.425781 5.347656 -4.132812 5.578125 -3.90625 C 5.816406 -3.675781 6.109375 -3.5625 6.453125 -3.5625 L 17.1875 -3.5625 L 17.1875 -5.578125 L 7.1875 -5.578125 L 7.1875 -8.828125 L 21.046875 -8.828125 L 21.046875 0 L 17.625 0 Z M 17.203125 -0.578125 "/></g></g><g style="fill:#000000;fill-opacity:1;"><g transform="translate(323.6657, 433.324478)"><path style="stroke:none" d="M 3.46875 -11.40625 L 5.4375 -11.40625 L 5.4375 0 L 2.25 0 L 2.25 -8.234375 L 0.484375 -7.75 L 0.484375 -10.59375 Z M 3.46875 -11.40625 "/></g></g><g style="fill:#000000;fill-opacity:1;"><g transform="translate(330.3572, 433.324478)"><path style="stroke:none" d="M 14.203125 0 L 0.90625 0 L 0.90625 -4.09375 C 0.90625 -5.007812 1.203125 -5.726562 1.796875 -6.25 C 2.398438 -6.769531 3.242188 -7.03125 4.328125 -7.03125 L 10.75 -7.03125 C 10.863281 -7.03125 10.953125 -7.0625 11.015625 -7.125 C 11.085938 -7.1875 11.125 -7.269531 11.125 -7.375 L 11.125 -8.234375 C 11.125 -8.335938 11.085938 -8.421875 11.015625 -8.484375 C 10.953125 -8.554688 10.863281 -8.59375 10.75 -8.59375 L 1.265625 -8.59375 L 1.265625 -11.40625 L 10.890625 -11.40625 C 11.984375 -11.40625 12.828125 -11.148438 13.421875 -10.640625 C 14.023438 -10.128906 14.328125 -9.410156 14.328125 -8.484375 L 14.328125 -7.1875 C 14.328125 -6.257812 14.03125 -5.550781 13.4375 -5.0625 C 12.851562 -4.570312 12.003906 -4.328125 10.890625 -4.328125 L 4.46875 -4.328125 C 4.351562 -4.328125 4.257812 -4.296875 4.1875 -4.234375 C 4.125 -4.171875 4.09375 -4.082031 4.09375 -3.96875 L 4.09375 -2.8125 L 14.203125 -2.8125 Z M 14.203125 0 "/></g></g><g style="fill:#000000;fill-opacity:1;"><g transform="translate(345.563671, 433.324478)"><path style="stroke:none" d="M 1.21875 -11.40625 L 4.421875 -11.40625 L 4.421875 -6.96875 L 12.90625 -6.96875 L 12.90625 -11.40625 L 16.09375 -11.40625 L 16.09375 0 L 12.90625 0 L 12.90625 -4.15625 L 4.421875 -4.15625 L 4.421875 0 L 1.21875 0 Z M 1.21875 -11.40625 "/></g></g><g style="fill:#000000;fill-opacity:1;"><g transform="translate(362.870389, 433.324478)"><path style="stroke:none" d="M 3.46875 -11.40625 L 5.4375 -11.40625 L 5.4375 0 L 2.25 0 L 2.25 -8.234375 L 0.484375 -7.75 L 0.484375 -10.59375 Z M 3.46875 -11.40625 "/></g></g><g style="fill:#000000;fill-opacity:1;"><g transform="translate(369.56189, 433.324478)"><path style="stroke:none" d="M 11.109375 0 L 1.078125 0 L 1.078125 -2.8125 L 10.984375 -2.8125 C 11.085938 -2.8125 11.175781 -2.84375 11.25 -2.90625 C 11.320312 -2.976562 11.359375 -3.066406 11.359375 -3.171875 L 11.359375 -4.109375 C 11.359375 -4.210938 11.320312 -4.296875 11.25 -4.359375 C 11.175781 -4.429688 11.085938 -4.46875 10.984375 -4.46875 L 1.125 -4.46875 L 1.125 -11.40625 L 13.84375 -11.40625 L 13.84375 -8.59375 L 4.3125 -8.59375 L 4.3125 -7.15625 L 11.109375 -7.15625 C 12.203125 -7.15625 13.046875 -6.898438 13.640625 -6.390625 C 14.242188 -5.878906 14.546875 -5.15625 14.546875 -4.21875 L 14.546875 -2.859375 C 14.546875 -1.929688 14.253906 -1.222656 13.671875 -0.734375 C 13.085938 -0.242188 12.234375 0 11.109375 0 Z M 11.109375 0 "/></g></g><g style="fill:#000000;fill-opacity:1;"><g transform="translate(384.817203, 433.324478)"><path style="stroke:none" d=""/></g></g><g style="fill:#000000;fill-opacity:1;"><g transform="translate(393.364739, 433.324478)"><path style="stroke:none" d="M 9.453125 -6.84375 L 9.453125 -4.921875 L 1.015625 -4.921875 L 1.015625 -6.84375 Z M 9.453125 -6.84375 "/></g></g><g style="fill:#000000;fill-opacity:1;"><g transform="translate(403.817154, 433.324478)"><path style="stroke:none" d=""/></g></g><g style="fill:#000000;fill-opacity:1;"><g transform="translate(412.36469, 433.324478)"><path style="stroke:none" d="M 3.46875 -11.40625 L 5.4375 -11.40625 L 5.4375 0 L 2.25 0 L 2.25 -8.234375 L 0.484375 -7.75 L 0.484375 -10.59375 Z M 3.46875 -11.40625 "/></g></g><g style="fill:#000000;fill-opacity:1;"><g transform="translate(419.05619, 433.324478)"><path style="stroke:none" d="M 11.59375 -3.171875 L 11.59375 -4.265625 C 11.59375 -4.378906 11.554688 -4.46875 11.484375 -4.53125 C 11.410156 -4.59375 11.320312 -4.625 11.21875 -4.625 L 1.75 -4.625 L 1.75 -6.953125 L 10.859375 -6.953125 C 10.960938 -6.953125 11.050781 -6.984375 11.125 -7.046875 C 11.195312 -7.117188 11.234375 -7.207031 11.234375 -7.3125 L 11.234375 -8.234375 C 11.234375 -8.335938 11.195312 -8.421875 11.125 -8.484375 C 11.050781 -8.554688 10.960938 -8.59375 10.859375 -8.59375 L 0.96875 -8.59375 L 0.96875 -11.40625 L 11.328125 -11.40625 C 12.171875 -11.40625 12.894531 -11.140625 13.5 -10.609375 C 14.113281 -10.085938 14.421875 -9.472656 14.421875 -8.765625 L 14.421875 -7.671875 C 14.421875 -6.992188 14.101562 -6.445312 13.46875 -6.03125 C 14.34375 -5.5 14.78125 -4.738281 14.78125 -3.75 L 14.78125 -2.859375 C 14.78125 -1.929688 14.484375 -1.222656 13.890625 -0.734375 C 13.304688 -0.242188 12.457031 0 11.34375 0 L 0.875 0 L 0.875 -2.8125 L 11.21875 -2.8125 C 11.320312 -2.8125 11.410156 -2.84375 11.484375 -2.90625 C 11.554688 -2.976562 11.59375 -3.066406 11.59375 -3.171875 Z M 11.59375 -3.171875 "/></g></g><g style="fill:#000000;fill-opacity:1;"><g transform="translate(434.653398, 433.324478)"><path style="stroke:none" d="M 1.21875 -11.40625 L 4.421875 -11.40625 L 4.421875 -6.96875 L 12.90625 -6.96875 L 12.90625 -11.40625 L 16.09375 -11.40625 L 16.09375 0 L 12.90625 0 L 12.90625 -4.15625 L 4.421875 -4.15625 L 4.421875 0 L 1.21875 0 Z M 1.21875 -11.40625 "/></g></g><g style="fill:#000000;fill-opacity:1;"><g transform="translate(451.960116, 433.324478)"><path style="stroke:none" d="M 12.96875 -3.78125 L 12.96875 -7.625 C 12.96875 -7.90625 12.875 -8.132812 12.6875 -8.3125 C 12.507812 -8.5 12.28125 -8.59375 12 -8.59375 L 5.1875 -8.59375 C 4.90625 -8.59375 4.671875 -8.5 4.484375 -8.3125 C 4.304688 -8.132812 4.21875 -7.90625 4.21875 -7.625 L 4.21875 -3.78125 C 4.21875 -3.5 4.304688 -3.265625 4.484375 -3.078125 C 4.671875 -2.898438 4.90625 -2.8125 5.1875 -2.8125 L 12 -2.8125 C 12.28125 -2.8125 12.507812 -2.898438 12.6875 -3.078125 C 12.875 -3.265625 12.96875 -3.5 12.96875 -3.78125 Z M 16.171875 -8.09375 L 16.171875 -3.3125 C 16.171875 -2.34375 15.84375 -1.546875 15.1875 -0.921875 C 14.5625 -0.304688 13.726562 0 12.6875 0 L 4.515625 0 C 3.492188 0 2.65625 -0.304688 2 -0.921875 C 1.351562 -1.546875 1.03125 -2.34375 1.03125 -3.3125 L 1.03125 -8.09375 C 1.03125 -9.0625 1.351562 -9.859375 2 -10.484375 C 2.65625 -11.097656 3.492188 -11.40625 4.515625 -11.40625 L 12.6875 -11.40625 C 13.726562 -11.40625 14.5625 -11.097656 15.1875 -10.484375 C 15.84375 -9.859375 16.171875 -9.0625 16.171875 -8.09375 Z M 16.171875 -8.09375 "/></g></g><g style="fill:#000000;fill-opacity:1;"><g transform="translate(469.136585, 433.324478)"><path style="stroke:none" d="M 12.96875 -3.78125 L 12.96875 -7.625 C 12.96875 -7.90625 12.875 -8.132812 12.6875 -8.3125 C 12.507812 -8.5 12.28125 -8.59375 12 -8.59375 L 5.1875 -8.59375 C 4.90625 -8.59375 4.671875 -8.5 4.484375 -8.3125 C 4.304688 -8.132812 4.21875 -7.90625 4.21875 -7.625 L 4.21875 -3.78125 C 4.21875 -3.5 4.304688 -3.265625 4.484375 -3.078125 C 4.671875 -2.898438 4.90625 -2.8125 5.1875 -2.8125 L 12 -2.8125 C 12.28125 -2.8125 12.507812 -2.898438 12.6875 -3.078125 C 12.875 -3.265625 12.96875 -3.5 12.96875 -3.78125 Z M 16.171875 -8.09375 L 16.171875 -3.3125 C 16.171875 -2.34375 15.84375 -1.546875 15.1875 -0.921875 C 14.5625 -0.304688 13.726562 0 12.6875 0 L 4.515625 0 C 3.492188 0 2.65625 -0.304688 2 -0.921875 C 1.351562 -1.546875 1.03125 -2.34375 1.03125 -3.3125 L 1.03125 -8.09375 C 1.03125 -9.0625 1.351562 -9.859375 2 -10.484375 C 2.65625 -11.097656 3.492188 -11.40625 4.515625 -11.40625 L 12.6875 -11.40625 C 13.726562 -11.40625 14.5625 -11.097656 15.1875 -10.484375 C 15.84375 -9.859375 16.171875 -9.0625 16.171875 -8.09375 Z M 16.171875 -8.09375 "/></g></g><g clip-rule="nonzero" clip-path="url(#faf9f694b8)"><g clip-rule="nonzero" clip-path="url(#ddbbdc3ee7)"><path style=" stroke:none;fill-rule:nonzero;fill:#e1c340;fill-opacity:1;" d="M 154.988281 680.257812 L 655.066406 680.257812 L 655.066406 757.285156 L 154.988281 757.285156 Z M 154.988281 680.257812 "/></g></g><g style="fill:#000000;fill-opacity:1;"><g transform="translate(371.700565, 714.524537)"><path style="stroke:none" d="M 5.578125 0 L 1.546875 0 L 1.546875 -14.421875 L 15.546875 -14.421875 C 16.953125 -14.421875 18.117188 -13.976562 19.046875 -13.09375 C 19.960938 -12.207031 20.421875 -11.070312 20.421875 -9.6875 L 20.421875 -9.296875 C 20.421875 -8.222656 20.09375 -7.28125 19.4375 -6.46875 C 18.78125 -5.65625 17.90625 -5.09375 16.8125 -4.78125 L 20.671875 0 L 16.09375 0 L 12.546875 -4.546875 L 5.578125 -4.546875 Z M 15.03125 -10.859375 L 5.578125 -10.859375 L 5.578125 -8 L 15.046875 -8 C 15.453125 -8 15.773438 -8.109375 16.015625 -8.328125 C 16.265625 -8.554688 16.390625 -8.863281 16.390625 -9.25 L 16.390625 -9.609375 C 16.390625 -9.992188 16.265625 -10.296875 16.015625 -10.515625 C 15.765625 -10.742188 15.4375 -10.859375 15.03125 -10.859375 Z M 15.03125 -10.859375 "/></g></g><g style="fill:#000000;fill-opacity:1;"><g transform="translate(392.913145, 714.524537)"><path style="stroke:none" d="M 1.546875 -14.421875 L 15.59375 -14.421875 C 16.945312 -14.421875 18.085938 -13.957031 19.015625 -13.03125 C 19.953125 -12.09375 20.421875 -10.960938 20.421875 -9.640625 L 20.421875 -9.21875 C 20.421875 -7.851562 19.992188 -6.722656 19.140625 -5.828125 C 18.304688 -4.960938 17.21875 -4.53125 15.875 -4.53125 L 5.578125 -4.53125 L 5.578125 0 L 1.546875 0 Z M 14.984375 -10.859375 L 5.578125 -10.859375 L 5.578125 -7.96875 L 15 -7.96875 C 15.414062 -7.96875 15.75 -8.082031 16 -8.3125 C 16.257812 -8.539062 16.390625 -8.832031 16.390625 -9.1875 L 16.390625 -9.625 C 16.390625 -9.976562 16.253906 -10.269531 15.984375 -10.5 C 15.722656 -10.738281 15.390625 -10.859375 14.984375 -10.859375 Z M 14.984375 -10.859375 "/></g></g><g style="fill:#000000;fill-opacity:1;"><g transform="translate(413.89897, 714.524537)"><path style="stroke:none" d="M 13.5625 0 L 10.796875 0 L 5.578125 -8.375 L 5.578125 0 L 1.546875 0 L 1.546875 -14.421875 L 6.078125 -14.421875 L 12.1875 -4.53125 L 18.28125 -14.421875 L 22.8125 -14.421875 L 22.8125 0 L 18.78125 0 L 18.78125 -8.375 Z M 13.5625 0 "/></g></g><g style="fill:#000000;fill-opacity:1;"><g transform="translate(319.109353, 737.76306)"><path style="stroke:none" d="M 3.46875 -11.40625 L 5.4375 -11.40625 L 5.4375 0 L 2.25 0 L 2.25 -8.234375 L 0.484375 -7.75 L 0.484375 -10.59375 Z M 3.46875 -11.40625 "/></g></g><g style="fill:#000000;fill-opacity:1;"><g transform="translate(325.800853, 737.76306)"><path style="stroke:none" d="M 3.890625 -11.40625 L 11.109375 -11.40625 C 12.128906 -11.40625 12.96875 -11.097656 13.625 -10.484375 C 14.28125 -9.859375 14.609375 -9.0625 14.609375 -8.09375 L 14.609375 -3.3125 C 14.609375 -2.34375 14.28125 -1.546875 13.625 -0.921875 C 12.96875 -0.304688 12.128906 0 11.109375 0 L 1.3125 0 L 1.3125 -2.8125 L 10.453125 -2.8125 C 10.722656 -2.8125 10.945312 -2.898438 11.125 -3.078125 C 11.3125 -3.265625 11.40625 -3.5 11.40625 -3.78125 L 11.40625 -4.4375 L 3.90625 -4.4375 C 2.863281 -4.4375 2.070312 -4.671875 1.53125 -5.140625 C 0.988281 -5.617188 0.71875 -6.320312 0.71875 -7.25 L 0.71875 -8.203125 C 0.71875 -9.191406 1 -9.972656 1.5625 -10.546875 C 2.132812 -11.117188 2.910156 -11.40625 3.890625 -11.40625 Z M 3.90625 -8.234375 L 3.90625 -7.234375 C 3.90625 -7.128906 3.941406 -7.039062 4.015625 -6.96875 C 4.085938 -6.90625 4.175781 -6.875 4.28125 -6.875 L 11.40625 -6.875 L 11.40625 -8.234375 C 11.40625 -8.335938 11.367188 -8.421875 11.296875 -8.484375 C 11.234375 -8.554688 11.144531 -8.59375 11.03125 -8.59375 L 4.28125 -8.59375 C 4.175781 -8.59375 4.085938 -8.554688 4.015625 -8.484375 C 3.941406 -8.421875 3.90625 -8.335938 3.90625 -8.234375 Z M 3.90625 -8.234375 "/></g></g><g style="fill:#000000;fill-opacity:1;"><g transform="translate(341.41435, 737.76306)"><path style="stroke:none" d="M 1.21875 -11.40625 L 4.421875 -11.40625 L 4.421875 -6.96875 L 12.90625 -6.96875 L 12.90625 -11.40625 L 16.09375 -11.40625 L 16.09375 0 L 12.90625 0 L 12.90625 -4.15625 L 4.421875 -4.15625 L 4.421875 0 L 1.21875 0 Z M 1.21875 -11.40625 "/></g></g><g style="fill:#000000;fill-opacity:1;"><g transform="translate(358.721068, 737.76306)"><path style="stroke:none" d="M 12.96875 -3.78125 L 12.96875 -7.625 C 12.96875 -7.90625 12.875 -8.132812 12.6875 -8.3125 C 12.507812 -8.5 12.28125 -8.59375 12 -8.59375 L 5.1875 -8.59375 C 4.90625 -8.59375 4.671875 -8.5 4.484375 -8.3125 C 4.304688 -8.132812 4.21875 -7.90625 4.21875 -7.625 L 4.21875 -3.78125 C 4.21875 -3.5 4.304688 -3.265625 4.484375 -3.078125 C 4.671875 -2.898438 4.90625 -2.8125 5.1875 -2.8125 L 12 -2.8125 C 12.28125 -2.8125 12.507812 -2.898438 12.6875 -3.078125 C 12.875 -3.265625 12.96875 -3.5 12.96875 -3.78125 Z M 16.171875 -8.09375 L 16.171875 -3.3125 C 16.171875 -2.34375 15.84375 -1.546875 15.1875 -0.921875 C 14.5625 -0.304688 13.726562 0 12.6875 0 L 4.515625 0 C 3.492188 0 2.65625 -0.304688 2 -0.921875 C 1.351562 -1.546875 1.03125 -2.34375 1.03125 -3.3125 L 1.03125 -8.09375 C 1.03125 -9.0625 1.351562 -9.859375 2 -10.484375 C 2.65625 -11.097656 3.492188 -11.40625 4.515625 -11.40625 L 12.6875 -11.40625 C 13.726562 -11.40625 14.5625 -11.097656 15.1875 -10.484375 C 15.84375 -9.859375 16.171875 -9.0625 16.171875 -8.09375 Z M 16.171875 -8.09375 "/></g></g><g style="fill:#000000;fill-opacity:1;"><g transform="translate(375.897536, 737.76306)"><path style="stroke:none" d="M 12.96875 -3.78125 L 12.96875 -7.625 C 12.96875 -7.90625 12.875 -8.132812 12.6875 -8.3125 C 12.507812 -8.5 12.28125 -8.59375 12 -8.59375 L 5.1875 -8.59375 C 4.90625 -8.59375 4.671875 -8.5 4.484375 -8.3125 C 4.304688 -8.132812 4.21875 -7.90625 4.21875 -7.625 L 4.21875 -3.78125 C 4.21875 -3.5 4.304688 -3.265625 4.484375 -3.078125 C 4.671875 -2.898438 4.90625 -2.8125 5.1875 -2.8125 L 12 -2.8125 C 12.28125 -2.8125 12.507812 -2.898438 12.6875 -3.078125 C 12.875 -3.265625 12.96875 -3.5 12.96875 -3.78125 Z M 16.171875 -8.09375 L 16.171875 -3.3125 C 16.171875 -2.34375 15.84375 -1.546875 15.1875 -0.921875 C 14.5625 -0.304688 13.726562 0 12.6875 0 L 4.515625 0 C 3.492188 0 2.65625 -0.304688 2 -0.921875 C 1.351562 -1.546875 1.03125 -2.34375 1.03125 -3.3125 L 1.03125 -8.09375 C 1.03125 -9.0625 1.351562 -9.859375 2 -10.484375 C 2.65625 -11.097656 3.492188 -11.40625 4.515625 -11.40625 L 12.6875 -11.40625 C 13.726562 -11.40625 14.5625 -11.097656 15.1875 -10.484375 C 15.84375 -9.859375 16.171875 -9.0625 16.171875 -8.09375 Z M 16.171875 -8.09375 "/></g></g><g style="fill:#000000;fill-opacity:1;"><g transform="translate(393.074004, 737.76306)"><path style="stroke:none" d=""/></g></g><g style="fill:#000000;fill-opacity:1;"><g transform="translate(401.621541, 737.76306)"><path style="stroke:none" d="M 9.453125 -6.84375 L 9.453125 -4.921875 L 1.015625 -4.921875 L 1.015625 -6.84375 Z M 9.453125 -6.84375 "/></g></g><g style="fill:#000000;fill-opacity:1;"><g transform="translate(412.073955, 737.76306)"><path style="stroke:none" d=""/></g></g><g style="fill:#000000;fill-opacity:1;"><g transform="translate(420.621491, 737.76306)"><path style="stroke:none" d="M 3.46875 -11.40625 L 5.4375 -11.40625 L 5.4375 0 L 2.25 0 L 2.25 -8.234375 L 0.484375 -7.75 L 0.484375 -10.59375 Z M 3.46875 -11.40625 "/></g></g><g style="fill:#000000;fill-opacity:1;"><g transform="translate(427.312992, 737.76306)"><path style="stroke:none" d="M 3.890625 -11.40625 L 11.109375 -11.40625 C 12.128906 -11.40625 12.96875 -11.097656 13.625 -10.484375 C 14.28125 -9.859375 14.609375 -9.0625 14.609375 -8.09375 L 14.609375 -3.3125 C 14.609375 -2.34375 14.28125 -1.546875 13.625 -0.921875 C 12.96875 -0.304688 12.128906 0 11.109375 0 L 1.3125 0 L 1.3125 -2.8125 L 10.453125 -2.8125 C 10.722656 -2.8125 10.945312 -2.898438 11.125 -3.078125 C 11.3125 -3.265625 11.40625 -3.5 11.40625 -3.78125 L 11.40625 -4.4375 L 3.90625 -4.4375 C 2.863281 -4.4375 2.070312 -4.671875 1.53125 -5.140625 C 0.988281 -5.617188 0.71875 -6.320312 0.71875 -7.25 L 0.71875 -8.203125 C 0.71875 -9.191406 1 -9.972656 1.5625 -10.546875 C 2.132812 -11.117188 2.910156 -11.40625 3.890625 -11.40625 Z M 3.90625 -8.234375 L 3.90625 -7.234375 C 3.90625 -7.128906 3.941406 -7.039062 4.015625 -6.96875 C 4.085938 -6.90625 4.175781 -6.875 4.28125 -6.875 L 11.40625 -6.875 L 11.40625 -8.234375 C 11.40625 -8.335938 11.367188 -8.421875 11.296875 -8.484375 C 11.234375 -8.554688 11.144531 -8.59375 11.03125 -8.59375 L 4.28125 -8.59375 C 4.175781 -8.59375 4.085938 -8.554688 4.015625 -8.484375 C 3.941406 -8.421875 3.90625 -8.335938 3.90625 -8.234375 Z M 3.90625 -8.234375 "/></g></g><g style="fill:#000000;fill-opacity:1;"><g transform="translate(442.926489, 737.76306)"><path style="stroke:none" d="M 1.21875 -11.40625 L 4.421875 -11.40625 L 4.421875 -6.96875 L 12.90625 -6.96875 L 12.90625 -11.40625 L 16.09375 -11.40625 L 16.09375 0 L 12.90625 0 L 12.90625 -4.15625 L 4.421875 -4.15625 L 4.421875 0 L 1.21875 0 Z M 1.21875 -11.40625 "/></g></g><g style="fill:#000000;fill-opacity:1;"><g transform="translate(460.233207, 737.76306)"><path style="stroke:none" d="M 0.53125 -1.890625 L 0.53125 -5.796875 L 9.15625 -11.40625 L 13.390625 -11.40625 L 13.390625 -4.5 L 14.84375 -4.5 L 14.84375 -1.890625 L 13.390625 -1.890625 L 13.390625 0 L 10.203125 0 L 10.203125 -1.890625 Z M 3.546875 -4.59375 L 3.546875 -4.5 L 10.203125 -4.5 L 10.203125 -8.59375 L 10.078125 -8.59375 Z M 3.546875 -4.59375 "/></g></g><g style="fill:#000000;fill-opacity:1;"><g transform="translate(475.602481, 737.76306)"><path style="stroke:none" d="M 11.109375 0 L 1.078125 0 L 1.078125 -2.8125 L 10.984375 -2.8125 C 11.085938 -2.8125 11.175781 -2.84375 11.25 -2.90625 C 11.320312 -2.976562 11.359375 -3.066406 11.359375 -3.171875 L 11.359375 -4.109375 C 11.359375 -4.210938 11.320312 -4.296875 11.25 -4.359375 C 11.175781 -4.429688 11.085938 -4.46875 10.984375 -4.46875 L 1.125 -4.46875 L 1.125 -11.40625 L 13.84375 -11.40625 L 13.84375 -8.59375 L 4.3125 -8.59375 L 4.3125 -7.15625 L 11.109375 -7.15625 C 12.203125 -7.15625 13.046875 -6.898438 13.640625 -6.390625 C 14.242188 -5.878906 14.546875 -5.15625 14.546875 -4.21875 L 14.546875 -2.859375 C 14.546875 -1.929688 14.253906 -1.222656 13.671875 -0.734375 C 13.085938 -0.242188 12.234375 0 11.109375 0 Z M 11.109375 0 "/></g></g><g clip-rule="nonzero" clip-path="url(#236ef5fa63)"><g clip-rule="nonzero" clip-path="url(#7339c233eb)"><path style=" stroke:none;fill-rule:nonzero;fill:#e1c340;fill-opacity:1;" d="M 154.988281 804.511719 L 655.066406 804.511719 L 655.066406 881.539062 L 154.988281 881.539062 Z M 154.988281 804.511719 "/></g></g><g style="fill:#000000;fill-opacity:1;"><g transform="translate(274.3424, 838.779352)"><path style="stroke:none" d="M 6.453125 -3.5625 L 20.109375 -3.5625 L 20.109375 0 L 5.609375 0 C 4.316406 0 3.257812 -0.390625 2.4375 -1.171875 C 1.613281 -1.953125 1.203125 -2.957031 1.203125 -4.1875 L 1.203125 -10.25 C 1.203125 -11.46875 1.613281 -12.46875 2.4375 -13.25 C 3.257812 -14.03125 4.316406 -14.421875 5.609375 -14.421875 L 19.921875 -14.421875 L 19.921875 -10.859375 L 6.453125 -10.859375 C 6.109375 -10.859375 5.816406 -10.742188 5.578125 -10.515625 C 5.347656 -10.296875 5.234375 -10.003906 5.234375 -9.640625 L 5.234375 -4.78125 C 5.234375 -4.425781 5.347656 -4.132812 5.578125 -3.90625 C 5.816406 -3.675781 6.109375 -3.5625 6.453125 -3.5625 Z M 6.453125 -3.5625 "/></g></g><g style="fill:#000000;fill-opacity:1;"><g transform="translate(295.266377, 838.779352)"><path style="stroke:none" d="M 5.578125 0 L 1.546875 0 L 1.546875 -14.421875 L 15.546875 -14.421875 C 16.953125 -14.421875 18.117188 -13.976562 19.046875 -13.09375 C 19.960938 -12.207031 20.421875 -11.070312 20.421875 -9.6875 L 20.421875 -9.296875 C 20.421875 -8.222656 20.09375 -7.28125 19.4375 -6.46875 C 18.78125 -5.65625 17.90625 -5.09375 16.8125 -4.78125 L 20.671875 0 L 16.09375 0 L 12.546875 -4.546875 L 5.578125 -4.546875 Z M 15.03125 -10.859375 L 5.578125 -10.859375 L 5.578125 -8 L 15.046875 -8 C 15.453125 -8 15.773438 -8.109375 16.015625 -8.328125 C 16.265625 -8.554688 16.390625 -8.863281 16.390625 -9.25 L 16.390625 -9.609375 C 16.390625 -9.992188 16.265625 -10.296875 16.015625 -10.515625 C 15.765625 -10.742188 15.4375 -10.859375 15.03125 -10.859375 Z M 15.03125 -10.859375 "/></g></g><g style="fill:#000000;fill-opacity:1;"><g transform="translate(316.478957, 838.779352)"><path style="stroke:none" d="M 17.453125 -4.78125 L 17.453125 -9.640625 C 17.453125 -10.003906 17.332031 -10.296875 17.09375 -10.515625 C 16.863281 -10.742188 16.570312 -10.859375 16.21875 -10.859375 L 6.453125 -10.859375 C 6.109375 -10.859375 5.816406 -10.742188 5.578125 -10.515625 C 5.347656 -10.296875 5.234375 -10.003906 5.234375 -9.640625 L 5.234375 -4.78125 C 5.234375 -4.425781 5.347656 -4.132812 5.578125 -3.90625 C 5.816406 -3.675781 6.109375 -3.5625 6.453125 -3.5625 L 16.21875 -3.5625 C 16.570312 -3.5625 16.863281 -3.675781 17.09375 -3.90625 C 17.332031 -4.132812 17.453125 -4.425781 17.453125 -4.78125 Z M 21.5 -10.25 L 21.5 -4.1875 C 21.5 -2.957031 21.085938 -1.953125 20.265625 -1.171875 C 19.460938 -0.390625 18.410156 0 17.109375 0 L 5.609375 0 C 4.316406 0 3.257812 -0.390625 2.4375 -1.171875 C 1.613281 -1.953125 1.203125 -2.957031 1.203125 -4.1875 L 1.203125 -10.25 C 1.203125 -11.46875 1.613281 -12.46875 2.4375 -13.25 C 3.257812 -14.03125 4.316406 -14.421875 5.609375 -14.421875 L 17.109375 -14.421875 C 18.410156 -14.421875 19.460938 -14.03125 20.265625 -13.25 C 21.085938 -12.46875 21.5 -11.46875 21.5 -10.25 Z M 21.5 -10.25 "/></g></g><g style="fill:#000000;fill-opacity:1;"><g transform="translate(339.175801, 838.779352)"><path style="stroke:none" d="M 16.0625 0 L 1.546875 0 L 1.546875 -3.5625 L 15.90625 -3.5625 C 16.039062 -3.5625 16.15625 -3.601562 16.25 -3.6875 C 16.34375 -3.769531 16.390625 -3.878906 16.390625 -4.015625 L 16.390625 -5.046875 C 16.390625 -5.179688 16.34375 -5.289062 16.25 -5.375 C 16.15625 -5.457031 16.039062 -5.5 15.90625 -5.5 L 5.28125 -5.5 C 3.882812 -5.5 2.804688 -5.828125 2.046875 -6.484375 C 1.285156 -7.148438 0.90625 -8.082031 0.90625 -9.28125 L 0.90625 -10.640625 C 0.90625 -11.828125 1.289062 -12.753906 2.0625 -13.421875 C 2.832031 -14.085938 3.90625 -14.421875 5.28125 -14.421875 L 19.265625 -14.421875 L 19.265625 -10.859375 L 5.421875 -10.859375 C 5.285156 -10.859375 5.171875 -10.816406 5.078125 -10.734375 C 4.992188 -10.648438 4.953125 -10.539062 4.953125 -10.40625 L 4.953125 -9.390625 C 4.953125 -9.253906 4.992188 -9.144531 5.078125 -9.0625 C 5.171875 -8.976562 5.285156 -8.9375 5.421875 -8.9375 L 16.0625 -8.9375 C 17.425781 -8.9375 18.492188 -8.601562 19.265625 -7.9375 C 20.035156 -7.28125 20.421875 -6.359375 20.421875 -5.171875 L 20.421875 -3.75 C 20.421875 -2.570312 20.035156 -1.648438 19.265625 -0.984375 C 18.492188 -0.328125 17.425781 0 16.0625 0 Z M 16.0625 0 "/></g></g><g style="fill:#000000;fill-opacity:1;"><g transform="translate(360.388381, 838.779352)"><path style="stroke:none" d="M 16.0625 0 L 1.546875 0 L 1.546875 -3.5625 L 15.90625 -3.5625 C 16.039062 -3.5625 16.15625 -3.601562 16.25 -3.6875 C 16.34375 -3.769531 16.390625 -3.878906 16.390625 -4.015625 L 16.390625 -5.046875 C 16.390625 -5.179688 16.34375 -5.289062 16.25 -5.375 C 16.15625 -5.457031 16.039062 -5.5 15.90625 -5.5 L 5.28125 -5.5 C 3.882812 -5.5 2.804688 -5.828125 2.046875 -6.484375 C 1.285156 -7.148438 0.90625 -8.082031 0.90625 -9.28125 L 0.90625 -10.640625 C 0.90625 -11.828125 1.289062 -12.753906 2.0625 -13.421875 C 2.832031 -14.085938 3.90625 -14.421875 5.28125 -14.421875 L 19.265625 -14.421875 L 19.265625 -10.859375 L 5.421875 -10.859375 C 5.285156 -10.859375 5.171875 -10.816406 5.078125 -10.734375 C 4.992188 -10.648438 4.953125 -10.539062 4.953125 -10.40625 L 4.953125 -9.390625 C 4.953125 -9.253906 4.992188 -9.144531 5.078125 -9.0625 C 5.171875 -8.976562 5.285156 -8.9375 5.421875 -8.9375 L 16.0625 -8.9375 C 17.425781 -8.9375 18.492188 -8.601562 19.265625 -7.9375 C 20.035156 -7.28125 20.421875 -6.359375 20.421875 -5.171875 L 20.421875 -3.75 C 20.421875 -2.570312 20.035156 -1.648438 19.265625 -0.984375 C 18.492188 -0.328125 17.425781 0 16.0625 0 Z M 16.0625 0 "/></g></g><g style="fill:#000000;fill-opacity:1;"><g transform="translate(381.600961, 838.779352)"><path style="stroke:none" d=""/></g></g><g style="fill:#000000;fill-opacity:1;"><g transform="translate(391.764028, 838.779352)"><path style="stroke:none" d="M 19.90625 -14.421875 L 19.90625 -10.859375 L 12.15625 -10.859375 L 12.15625 0 L 8.125 0 L 8.125 -10.859375 L 0.375 -10.859375 L 0.375 -14.421875 Z M 19.90625 -14.421875 "/></g></g><g style="fill:#000000;fill-opacity:1;"><g transform="translate(412.04895, 838.779352)"><path style="stroke:none" d="M 5.578125 0 L 1.546875 0 L 1.546875 -14.421875 L 15.546875 -14.421875 C 16.953125 -14.421875 18.117188 -13.976562 19.046875 -13.09375 C 19.960938 -12.207031 20.421875 -11.070312 20.421875 -9.6875 L 20.421875 -9.296875 C 20.421875 -8.222656 20.09375 -7.28125 19.4375 -6.46875 C 18.78125 -5.65625 17.90625 -5.09375 16.8125 -4.78125 L 20.671875 0 L 16.09375 0 L 12.546875 -4.546875 L 5.578125 -4.546875 Z M 15.03125 -10.859375 L 5.578125 -10.859375 L 5.578125 -8 L 15.046875 -8 C 15.453125 -8 15.773438 -8.109375 16.015625 -8.328125 C 16.265625 -8.554688 16.390625 -8.863281 16.390625 -9.25 L 16.390625 -9.609375 C 16.390625 -9.992188 16.265625 -10.296875 16.015625 -10.515625 C 15.765625 -10.742188 15.4375 -10.859375 15.03125 -10.859375 Z M 15.03125 -10.859375 "/></g></g><g style="fill:#000000;fill-opacity:1;"><g transform="translate(433.117223, 838.779352)"><path style="stroke:none" d="M 9 -14.421875 L 13.1875 -14.421875 L 22.265625 0 L 17.515625 0 L 15.890625 -2.671875 L 6.28125 -2.671875 L 4.671875 0 L -0.0625 0 Z M 14 -5.828125 L 11.09375 -10.65625 L 8.1875 -5.828125 Z M 14 -5.828125 "/></g></g><g style="fill:#000000;fill-opacity:1;"><g transform="translate(455.319308, 838.779352)"><path style="stroke:none" d="M 1.546875 -14.421875 L 5.578125 -14.421875 L 5.578125 0 L 1.546875 0 Z M 1.546875 -14.421875 "/></g></g><g style="fill:#000000;fill-opacity:1;"><g transform="translate(462.452012, 838.779352)"><path style="stroke:none" d="M 20.328125 0 L 16.078125 0 L 5.578125 -9.671875 L 5.578125 0 L 1.546875 0 L 1.546875 -14.421875 L 5.796875 -14.421875 L 16.28125 -4.765625 L 16.28125 -14.421875 L 20.328125 -14.421875 Z M 20.328125 0 "/></g></g><g style="fill:#000000;fill-opacity:1;"><g transform="translate(484.32427, 838.779352)"><path style="stroke:none" d="M 1.546875 -14.421875 L 5.578125 -14.421875 L 5.578125 0 L 1.546875 0 Z M 1.546875 -14.421875 "/></g></g><g style="fill:#000000;fill-opacity:1;"><g transform="translate(491.456985, 838.779352)"><path style="stroke:none" d="M 20.328125 0 L 16.078125 0 L 5.578125 -9.671875 L 5.578125 0 L 1.546875 0 L 1.546875 -14.421875 L 5.796875 -14.421875 L 16.28125 -4.765625 L 16.28125 -14.421875 L 20.328125 -14.421875 Z M 20.328125 0 "/></g></g><g style="fill:#000000;fill-opacity:1;"><g transform="translate(513.329231, 838.779352)"><path style="stroke:none" d="M 17.203125 -0.578125 L 16.171875 0 L 5.609375 0 C 4.316406 0 3.257812 -0.390625 2.4375 -1.171875 C 1.613281 -1.953125 1.203125 -2.957031 1.203125 -4.1875 L 1.203125 -10.25 C 1.203125 -11.46875 1.613281 -12.46875 2.4375 -13.25 C 3.257812 -14.03125 4.316406 -14.421875 5.609375 -14.421875 L 20.71875 -14.421875 L 20.71875 -10.859375 L 6.453125 -10.859375 C 6.109375 -10.859375 5.816406 -10.742188 5.578125 -10.515625 C 5.347656 -10.296875 5.234375 -10.003906 5.234375 -9.640625 L 5.234375 -4.78125 C 5.234375 -4.425781 5.347656 -4.132812 5.578125 -3.90625 C 5.816406 -3.675781 6.109375 -3.5625 6.453125 -3.5625 L 17.1875 -3.5625 L 17.1875 -5.578125 L 7.1875 -5.578125 L 7.1875 -8.828125 L 21.046875 -8.828125 L 21.046875 0 L 17.625 0 Z M 17.203125 -0.578125 "/></g></g><g style="fill:#000000;fill-opacity:1;"><g transform="translate(309.036203, 862.017875)"><path style="stroke:none" d="M 14.203125 0 L 0.90625 0 L 0.90625 -4.09375 C 0.90625 -5.007812 1.203125 -5.726562 1.796875 -6.25 C 2.398438 -6.769531 3.242188 -7.03125 4.328125 -7.03125 L 10.75 -7.03125 C 10.863281 -7.03125 10.953125 -7.0625 11.015625 -7.125 C 11.085938 -7.1875 11.125 -7.269531 11.125 -7.375 L 11.125 -8.234375 C 11.125 -8.335938 11.085938 -8.421875 11.015625 -8.484375 C 10.953125 -8.554688 10.863281 -8.59375 10.75 -8.59375 L 1.265625 -8.59375 L 1.265625 -11.40625 L 10.890625 -11.40625 C 11.984375 -11.40625 12.828125 -11.148438 13.421875 -10.640625 C 14.023438 -10.128906 14.328125 -9.410156 14.328125 -8.484375 L 14.328125 -7.1875 C 14.328125 -6.257812 14.03125 -5.550781 13.4375 -5.0625 C 12.851562 -4.570312 12.003906 -4.328125 10.890625 -4.328125 L 4.46875 -4.328125 C 4.351562 -4.328125 4.257812 -4.296875 4.1875 -4.234375 C 4.125 -4.171875 4.09375 -4.082031 4.09375 -3.96875 L 4.09375 -2.8125 L 14.203125 -2.8125 Z M 14.203125 0 "/></g></g><g style="fill:#000000;fill-opacity:1;"><g transform="translate(324.242674, 862.017875)"><path style="stroke:none" d="M 12.96875 -3.78125 L 12.96875 -7.625 C 12.96875 -7.90625 12.875 -8.132812 12.6875 -8.3125 C 12.507812 -8.5 12.28125 -8.59375 12 -8.59375 L 5.1875 -8.59375 C 4.90625 -8.59375 4.671875 -8.5 4.484375 -8.3125 C 4.304688 -8.132812 4.21875 -7.90625 4.21875 -7.625 L 4.21875 -3.78125 C 4.21875 -3.5 4.304688 -3.265625 4.484375 -3.078125 C 4.671875 -2.898438 4.90625 -2.8125 5.1875 -2.8125 L 12 -2.8125 C 12.28125 -2.8125 12.507812 -2.898438 12.6875 -3.078125 C 12.875 -3.265625 12.96875 -3.5 12.96875 -3.78125 Z M 16.171875 -8.09375 L 16.171875 -3.3125 C 16.171875 -2.34375 15.84375 -1.546875 15.1875 -0.921875 C 14.5625 -0.304688 13.726562 0 12.6875 0 L 4.515625 0 C 3.492188 0 2.65625 -0.304688 2 -0.921875 C 1.351562 -1.546875 1.03125 -2.34375 1.03125 -3.3125 L 1.03125 -8.09375 C 1.03125 -9.0625 1.351562 -9.859375 2 -10.484375 C 2.65625 -11.097656 3.492188 -11.40625 4.515625 -11.40625 L 12.6875 -11.40625 C 13.726562 -11.40625 14.5625 -11.097656 15.1875 -10.484375 C 15.84375 -9.859375 16.171875 -9.0625 16.171875 -8.09375 Z M 16.171875 -8.09375 "/></g></g><g style="fill:#000000;fill-opacity:1;"><g transform="translate(341.419142, 862.017875)"><path style="stroke:none" d="M 1.21875 -11.40625 L 4.421875 -11.40625 L 4.421875 -6.96875 L 12.90625 -6.96875 L 12.90625 -11.40625 L 16.09375 -11.40625 L 16.09375 0 L 12.90625 0 L 12.90625 -4.15625 L 4.421875 -4.15625 L 4.421875 0 L 1.21875 0 Z M 1.21875 -11.40625 "/></g></g><g style="fill:#000000;fill-opacity:1;"><g transform="translate(358.72586, 862.017875)"><path style="stroke:none" d="M 12.96875 -3.78125 L 12.96875 -7.625 C 12.96875 -7.90625 12.875 -8.132812 12.6875 -8.3125 C 12.507812 -8.5 12.28125 -8.59375 12 -8.59375 L 5.1875 -8.59375 C 4.90625 -8.59375 4.671875 -8.5 4.484375 -8.3125 C 4.304688 -8.132812 4.21875 -7.90625 4.21875 -7.625 L 4.21875 -3.78125 C 4.21875 -3.5 4.304688 -3.265625 4.484375 -3.078125 C 4.671875 -2.898438 4.90625 -2.8125 5.1875 -2.8125 L 12 -2.8125 C 12.28125 -2.8125 12.507812 -2.898438 12.6875 -3.078125 C 12.875 -3.265625 12.96875 -3.5 12.96875 -3.78125 Z M 16.171875 -8.09375 L 16.171875 -3.3125 C 16.171875 -2.34375 15.84375 -1.546875 15.1875 -0.921875 C 14.5625 -0.304688 13.726562 0 12.6875 0 L 4.515625 0 C 3.492188 0 2.65625 -0.304688 2 -0.921875 C 1.351562 -1.546875 1.03125 -2.34375 1.03125 -3.3125 L 1.03125 -8.09375 C 1.03125 -9.0625 1.351562 -9.859375 2 -10.484375 C 2.65625 -11.097656 3.492188 -11.40625 4.515625 -11.40625 L 12.6875 -11.40625 C 13.726562 -11.40625 14.5625 -11.097656 15.1875 -10.484375 C 15.84375 -9.859375 16.171875 -9.0625 16.171875 -8.09375 Z M 16.171875 -8.09375 "/></g></g><g style="fill:#000000;fill-opacity:1;"><g transform="translate(375.902329, 862.017875)"><path style="stroke:none" d="M 12.96875 -3.78125 L 12.96875 -7.625 C 12.96875 -7.90625 12.875 -8.132812 12.6875 -8.3125 C 12.507812 -8.5 12.28125 -8.59375 12 -8.59375 L 5.1875 -8.59375 C 4.90625 -8.59375 4.671875 -8.5 4.484375 -8.3125 C 4.304688 -8.132812 4.21875 -7.90625 4.21875 -7.625 L 4.21875 -3.78125 C 4.21875 -3.5 4.304688 -3.265625 4.484375 -3.078125 C 4.671875 -2.898438 4.90625 -2.8125 5.1875 -2.8125 L 12 -2.8125 C 12.28125 -2.8125 12.507812 -2.898438 12.6875 -3.078125 C 12.875 -3.265625 12.96875 -3.5 12.96875 -3.78125 Z M 16.171875 -8.09375 L 16.171875 -3.3125 C 16.171875 -2.34375 15.84375 -1.546875 15.1875 -0.921875 C 14.5625 -0.304688 13.726562 0 12.6875 0 L 4.515625 0 C 3.492188 0 2.65625 -0.304688 2 -0.921875 C 1.351562 -1.546875 1.03125 -2.34375 1.03125 -3.3125 L 1.03125 -8.09375 C 1.03125 -9.0625 1.351562 -9.859375 2 -10.484375 C 2.65625 -11.097656 3.492188 -11.40625 4.515625 -11.40625 L 12.6875 -11.40625 C 13.726562 -11.40625 14.5625 -11.097656 15.1875 -10.484375 C 15.84375 -9.859375 16.171875 -9.0625 16.171875 -8.09375 Z M 16.171875 -8.09375 "/></g></g><g style="fill:#000000;fill-opacity:1;"><g transform="translate(393.078797, 862.017875)"><path style="stroke:none" d=""/></g></g><g style="fill:#000000;fill-opacity:1;"><g transform="translate(401.626333, 862.017875)"><path style="stroke:none" d="M 9.453125 -6.84375 L 9.453125 -4.921875 L 1.015625 -4.921875 L 1.015625 -6.84375 Z M 9.453125 -6.84375 "/></g></g><g style="fill:#000000;fill-opacity:1;"><g transform="translate(412.078748, 862.017875)"><path style="stroke:none" d=""/></g></g><g style="fill:#000000;fill-opacity:1;"><g transform="translate(420.626284, 862.017875)"><path style="stroke:none" d="M 14.203125 0 L 0.90625 0 L 0.90625 -4.09375 C 0.90625 -5.007812 1.203125 -5.726562 1.796875 -6.25 C 2.398438 -6.769531 3.242188 -7.03125 4.328125 -7.03125 L 10.75 -7.03125 C 10.863281 -7.03125 10.953125 -7.0625 11.015625 -7.125 C 11.085938 -7.1875 11.125 -7.269531 11.125 -7.375 L 11.125 -8.234375 C 11.125 -8.335938 11.085938 -8.421875 11.015625 -8.484375 C 10.953125 -8.554688 10.863281 -8.59375 10.75 -8.59375 L 1.265625 -8.59375 L 1.265625 -11.40625 L 10.890625 -11.40625 C 11.984375 -11.40625 12.828125 -11.148438 13.421875 -10.640625 C 14.023438 -10.128906 14.328125 -9.410156 14.328125 -8.484375 L 14.328125 -7.1875 C 14.328125 -6.257812 14.03125 -5.550781 13.4375 -5.0625 C 12.851562 -4.570312 12.003906 -4.328125 10.890625 -4.328125 L 4.46875 -4.328125 C 4.351562 -4.328125 4.257812 -4.296875 4.1875 -4.234375 C 4.125 -4.171875 4.09375 -4.082031 4.09375 -3.96875 L 4.09375 -2.8125 L 14.203125 -2.8125 Z M 14.203125 0 "/></g></g><g style="fill:#000000;fill-opacity:1;"><g transform="translate(435.832755, 862.017875)"><path style="stroke:none" d="M 12.96875 -3.78125 L 12.96875 -7.625 C 12.96875 -7.90625 12.875 -8.132812 12.6875 -8.3125 C 12.507812 -8.5 12.28125 -8.59375 12 -8.59375 L 5.1875 -8.59375 C 4.90625 -8.59375 4.671875 -8.5 4.484375 -8.3125 C 4.304688 -8.132812 4.21875 -7.90625 4.21875 -7.625 L 4.21875 -3.78125 C 4.21875 -3.5 4.304688 -3.265625 4.484375 -3.078125 C 4.671875 -2.898438 4.90625 -2.8125 5.1875 -2.8125 L 12 -2.8125 C 12.28125 -2.8125 12.507812 -2.898438 12.6875 -3.078125 C 12.875 -3.265625 12.96875 -3.5 12.96875 -3.78125 Z M 16.171875 -8.09375 L 16.171875 -3.3125 C 16.171875 -2.34375 15.84375 -1.546875 15.1875 -0.921875 C 14.5625 -0.304688 13.726562 0 12.6875 0 L 4.515625 0 C 3.492188 0 2.65625 -0.304688 2 -0.921875 C 1.351562 -1.546875 1.03125 -2.34375 1.03125 -3.3125 L 1.03125 -8.09375 C 1.03125 -9.0625 1.351562 -9.859375 2 -10.484375 C 2.65625 -11.097656 3.492188 -11.40625 4.515625 -11.40625 L 12.6875 -11.40625 C 13.726562 -11.40625 14.5625 -11.097656 15.1875 -10.484375 C 15.84375 -9.859375 16.171875 -9.0625 16.171875 -8.09375 Z M 16.171875 -8.09375 "/></g></g><g style="fill:#000000;fill-opacity:1;"><g transform="translate(453.009223, 862.017875)"><path style="stroke:none" d="M 1.21875 -11.40625 L 4.421875 -11.40625 L 4.421875 -6.96875 L 12.90625 -6.96875 L 12.90625 -11.40625 L 16.09375 -11.40625 L 16.09375 0 L 12.90625 0 L 12.90625 -4.15625 L 4.421875 -4.15625 L 4.421875 0 L 1.21875 0 Z M 1.21875 -11.40625 "/></g></g><g style="fill:#000000;fill-opacity:1;"><g transform="translate(470.315941, 862.017875)"><path style="stroke:none" d="M 0.53125 -1.890625 L 0.53125 -5.796875 L 9.15625 -11.40625 L 13.390625 -11.40625 L 13.390625 -4.5 L 14.84375 -4.5 L 14.84375 -1.890625 L 13.390625 -1.890625 L 13.390625 0 L 10.203125 0 L 10.203125 -1.890625 Z M 3.546875 -4.59375 L 3.546875 -4.5 L 10.203125 -4.5 L 10.203125 -8.59375 L 10.078125 -8.59375 Z M 3.546875 -4.59375 "/></g></g><g style="fill:#000000;fill-opacity:1;"><g transform="translate(485.685216, 862.017875)"><path style="stroke:none" d="M 11.109375 0 L 1.078125 0 L 1.078125 -2.8125 L 10.984375 -2.8125 C 11.085938 -2.8125 11.175781 -2.84375 11.25 -2.90625 C 11.320312 -2.976562 11.359375 -3.066406 11.359375 -3.171875 L 11.359375 -4.109375 C 11.359375 -4.210938 11.320312 -4.296875 11.25 -4.359375 C 11.175781 -4.429688 11.085938 -4.46875 10.984375 -4.46875 L 1.125 -4.46875 L 1.125 -11.40625 L 13.84375 -11.40625 L 13.84375 -8.59375 L 4.3125 -8.59375 L 4.3125 -7.15625 L 11.109375 -7.15625 C 12.203125 -7.15625 13.046875 -6.898438 13.640625 -6.390625 C 14.242188 -5.878906 14.546875 -5.15625 14.546875 -4.21875 L 14.546875 -2.859375 C 14.546875 -1.929688 14.253906 -1.222656 13.671875 -0.734375 C 13.085938 -0.242188 12.234375 0 11.109375 0 Z M 11.109375 0 "/></g></g><g clip-rule="nonzero" clip-path="url(#7696921dec)"><path style="fill:none;stroke-width:6;stroke-linecap:butt;stroke-linejoin:miter;stroke:#ffffff;stroke-opacity:1;stroke-miterlimit:4;" d="M -0.000926494 3.000484 L 1080.000971 3.000484 " transform="matrix(0.74963,0,0,0.74963,0.199913,500.32106)"/></g><g style="fill:#ffffff;fill-opacity:1;"><g transform="translate(270.002206, 72.472079)"><path style="stroke:none" d="M 23.078125 0 L 18.375 0 L 9.5 -14.234375 L 9.5 0 L 2.625 0 L 2.625 -24.546875 L 10.34375 -24.546875 L 20.71875 -7.71875 L 31.09375 -24.546875 L 38.8125 -24.546875 L 38.8125 0 L 31.9375 0 L 31.9375 -14.234375 Z M 23.078125 0 "/></g></g><g style="fill:#ffffff;fill-opacity:1;"><g transform="translate(311.439416, 72.472079)"><path style="stroke:none" d="M 32.21875 -15.21875 L 32.21875 -9.359375 L 9.5 -9.359375 L 9.5 -6.0625 L 33.140625 -6.0625 L 33.140625 0 L 2.625 0 L 2.625 -24.546875 L 33.0625 -24.546875 L 33.0625 -18.484375 L 9.5 -18.484375 L 9.5 -15.21875 Z M 32.21875 -15.21875 "/></g></g><g style="fill:#ffffff;fill-opacity:1;"><g transform="translate(346.531333, 72.472079)"><path style="stroke:none" d="M 9.5 0 L 2.625 0 L 2.625 -24.546875 L 26.4375 -24.546875 C 28.84375 -24.546875 30.828125 -23.785156 32.390625 -22.265625 C 33.960938 -20.765625 34.75 -18.835938 34.75 -16.484375 L 34.75 -15.8125 C 34.75 -13.988281 34.1875 -12.382812 33.0625 -11 C 31.9375 -9.625 30.453125 -8.671875 28.609375 -8.140625 L 35.171875 0 L 27.390625 0 L 21.359375 -7.75 L 9.5 -7.75 Z M 25.5625 -18.484375 L 9.5 -18.484375 L 9.5 -13.609375 L 25.59375 -13.609375 C 26.289062 -13.609375 26.84375 -13.800781 27.25 -14.1875 C 27.664062 -14.570312 27.875 -15.09375 27.875 -15.75 L 27.875 -16.34375 C 27.875 -17 27.660156 -17.519531 27.234375 -17.90625 C 26.816406 -18.289062 26.257812 -18.484375 25.5625 -18.484375 Z M 25.5625 -18.484375 "/></g></g><g style="fill:#ffffff;fill-opacity:1;"><g transform="translate(382.60484, 72.472079)"><path style="stroke:none" d="M 10.96875 -6.0625 L 34.21875 -6.0625 L 34.21875 0 L 9.53125 0 C 7.332031 0 5.535156 -0.664062 4.140625 -2 C 2.734375 -3.332031 2.03125 -5.039062 2.03125 -7.125 L 2.03125 -17.421875 C 2.03125 -19.503906 2.734375 -21.210938 4.140625 -22.546875 C 5.535156 -23.878906 7.332031 -24.546875 9.53125 -24.546875 L 33.90625 -24.546875 L 33.90625 -18.484375 L 10.96875 -18.484375 C 10.382812 -18.484375 9.894531 -18.289062 9.5 -17.90625 C 9.101562 -17.519531 8.90625 -17.019531 8.90625 -16.40625 L 8.90625 -8.140625 C 8.90625 -7.523438 9.101562 -7.023438 9.5 -6.640625 C 9.894531 -6.253906 10.382812 -6.0625 10.96875 -6.0625 Z M 10.96875 -6.0625 "/></g></g><g style="fill:#ffffff;fill-opacity:1;"><g transform="translate(418.187558, 72.472079)"><path style="stroke:none" d="M 9.5 0 L 2.625 0 L 2.625 -24.546875 L 26.4375 -24.546875 C 28.84375 -24.546875 30.828125 -23.785156 32.390625 -22.265625 C 33.960938 -20.765625 34.75 -18.835938 34.75 -16.484375 L 34.75 -15.8125 C 34.75 -13.988281 34.1875 -12.382812 33.0625 -11 C 31.9375 -9.625 30.453125 -8.671875 28.609375 -8.140625 L 35.171875 0 L 27.390625 0 L 21.359375 -7.75 L 9.5 -7.75 Z M 25.5625 -18.484375 L 9.5 -18.484375 L 9.5 -13.609375 L 25.59375 -13.609375 C 26.289062 -13.609375 26.84375 -13.800781 27.25 -14.1875 C 27.664062 -14.570312 27.875 -15.09375 27.875 -15.75 L 27.875 -16.34375 C 27.875 -17 27.660156 -17.519531 27.234375 -17.90625 C 26.816406 -18.289062 26.257812 -18.484375 25.5625 -18.484375 Z M 25.5625 -18.484375 "/></g></g><g style="fill:#ffffff;fill-opacity:1;"><g transform="translate(454.261065, 72.472079)"><path style="stroke:none" d="M 32.21875 -15.21875 L 32.21875 -9.359375 L 9.5 -9.359375 L 9.5 -6.0625 L 33.140625 -6.0625 L 33.140625 0 L 2.625 0 L 2.625 -24.546875 L 33.0625 -24.546875 L 33.0625 -18.484375 L 9.5 -18.484375 L 9.5 -15.21875 Z M 32.21875 -15.21875 "/></g></g><g style="fill:#ffffff;fill-opacity:1;"><g transform="translate(489.352982, 72.472079)"><path style="stroke:none" d="M 29 0 L 2.625 0 L 2.625 -24.546875 L 29 -24.546875 C 31.21875 -24.546875 33.003906 -23.878906 34.359375 -22.546875 C 35.765625 -21.210938 36.46875 -19.503906 36.46875 -17.421875 L 36.46875 -7.125 C 36.46875 -5.039062 35.765625 -3.332031 34.359375 -2 C 33.003906 -0.664062 31.21875 0 29 0 Z M 27.484375 -18.484375 L 9.5 -18.484375 L 9.5 -6.0625 L 27.484375 -6.0625 C 28.097656 -6.0625 28.601562 -6.253906 29 -6.640625 C 29.394531 -7.023438 29.59375 -7.523438 29.59375 -8.140625 L 29.59375 -16.40625 C 29.59375 -17.019531 29.394531 -17.519531 29 -17.90625 C 28.601562 -18.289062 28.097656 -18.484375 27.484375 -18.484375 Z M 27.484375 -18.484375 "/></g></g><g style="fill:#ffffff;fill-opacity:1;"><g transform="translate(527.845422, 72.472079)"><path style="stroke:none" d="M 2.625 -24.546875 L 9.5 -24.546875 L 9.5 0 L 2.625 0 Z M 2.625 -24.546875 "/></g></g></g></svg>