<svg xmlns="http://www.w3.org/2000/svg" xmlns:xlink="http://www.w3.org/1999/xlink" width="1080" zoomAndPan="magnify" viewBox="0 0 810 1012.49997" height="1350" preserveAspectRatio="xMidYMid meet" version="1.0"><defs><g/><clipPath id="6f37bb0567"><path d="M 0.199219 0 L 809.800781 0 L 809.800781 1012 L 0.199219 1012 Z M 0.199219 0 " clip-rule="nonzero"/></clipPath><clipPath id="189e5c1118"><path d="M 154.988281 130.460938 L 655.136719 130.460938 L 655.136719 204.214844 L 154.988281 204.214844 Z M 154.988281 130.460938 " clip-rule="nonzero"/></clipPath><clipPath id="fb90a56155"><path d="M 161.734375 130.460938 L 648.265625 130.460938 C 651.992188 130.460938 655.011719 133.480469 655.011719 137.207031 L 655.011719 197.46875 C 655.011719 201.195312 651.992188 204.214844 648.265625 204.214844 L 161.734375 204.214844 C 158.007812 204.214844 154.988281 201.195312 154.988281 197.46875 L 154.988281 137.207031 C 154.988281 133.480469 158.007812 130.460938 161.734375 130.460938 Z M 161.734375 130.460938 " clip-rule="nonzero"/></clipPath><clipPath id="6b3ac487fc"><path d="M 0.988281 0.460938 L 501.078125 0.460938 L 501.078125 74.214844 L 0.988281 74.214844 Z M 0.988281 0.460938 " clip-rule="nonzero"/></clipPath><clipPath id="5d3388a261"><path d="M 7.734375 0.460938 L 494.265625 0.460938 C 497.992188 0.460938 501.011719 3.480469 501.011719 7.207031 L 501.011719 67.46875 C 501.011719 71.195312 497.992188 74.214844 494.265625 74.214844 L 7.734375 74.214844 C 4.007812 74.214844 0.988281 71.195312 0.988281 67.46875 L 0.988281 7.207031 C 0.988281 3.480469 4.007812 0.460938 7.734375 0.460938 Z M 7.734375 0.460938 " clip-rule="nonzero"/></clipPath><clipPath id="1da4f05d47"><rect x="0" width="502" y="0" height="75"/></clipPath><clipPath id="378818ad1b"><path d="M 154.988281 251.5625 L 655.066406 251.5625 L 655.066406 328.59375 L 154.988281 328.59375 Z M 154.988281 251.5625 " clip-rule="nonzero"/></clipPath><clipPath id="988b6bbded"><path d="M 161.734375 251.5625 L 648.265625 251.5625 C 651.992188 251.5625 655.011719 254.585938 655.011719 258.3125 L 655.011719 321.847656 C 655.011719 325.570312 651.992188 328.59375 648.265625 328.59375 L 161.734375 328.59375 C 158.007812 328.59375 154.988281 325.570312 154.988281 321.847656 L 154.988281 258.3125 C 154.988281 254.585938 158.007812 251.5625 161.734375 251.5625 Z M 161.734375 251.5625 " clip-rule="nonzero"/></clipPath><clipPath id="025f0db8a0"><path d="M 0.988281 0.5625 L 501.066406 0.5625 L 501.066406 77.59375 L 0.988281 77.59375 Z M 0.988281 0.5625 " clip-rule="nonzero"/></clipPath><clipPath id="438af8057d"><path d="M 7.734375 0.5625 L 494.265625 0.5625 C 497.992188 0.5625 501.011719 3.585938 501.011719 7.3125 L 501.011719 70.847656 C 501.011719 74.570312 497.992188 77.59375 494.265625 77.59375 L 7.734375 77.59375 C 4.007812 77.59375 0.988281 74.570312 0.988281 70.847656 L 0.988281 7.3125 C 0.988281 3.585938 4.007812 0.5625 7.734375 0.5625 Z M 7.734375 0.5625 " clip-rule="nonzero"/></clipPath><clipPath id="4f83a43bdd"><rect x="0" width="502" y="0" height="78"/></clipPath><clipPath id="8e68d73d1f"><path d="M 154.988281 375.820312 L 655.066406 375.820312 L 655.066406 452.847656 L 154.988281 452.847656 Z M 154.988281 375.820312 " clip-rule="nonzero"/></clipPath><clipPath id="4534f04f5b"><path d="M 161.734375 375.820312 L 648.265625 375.820312 C 651.992188 375.820312 655.011719 378.839844 655.011719 382.566406 L 655.011719 446.101562 C 655.011719 449.828125 651.992188 452.847656 648.265625 452.847656 L 161.734375 452.847656 C 158.007812 452.847656 154.988281 449.828125 154.988281 446.101562 L 154.988281 382.566406 C 154.988281 378.839844 158.007812 375.820312 161.734375 375.820312 Z M 161.734375 375.820312 " clip-rule="nonzero"/></clipPath><clipPath id="e13ebbcf84"><path d="M 0.988281 0.820312 L 501.066406 0.820312 L 501.066406 77.847656 L 0.988281 77.847656 Z M 0.988281 0.820312 " clip-rule="nonzero"/></clipPath><clipPath id="5a1a381bd8"><path d="M 7.734375 0.820312 L 494.265625 0.820312 C 497.992188 0.820312 501.011719 3.839844 501.011719 7.566406 L 501.011719 71.101562 C 501.011719 74.828125 497.992188 77.847656 494.265625 77.847656 L 7.734375 77.847656 C 4.007812 77.847656 0.988281 74.828125 0.988281 71.101562 L 0.988281 7.566406 C 0.988281 3.839844 4.007812 0.820312 7.734375 0.820312 Z M 7.734375 0.820312 " clip-rule="nonzero"/></clipPath><clipPath id="2f91510074"><rect x="0" width="502" y="0" height="78"/></clipPath><clipPath id="16dce7bc66"><path d="M 405 680.257812 L 655.039062 680.257812 L 655.039062 757.285156 L 405 757.285156 Z M 405 680.257812 " clip-rule="nonzero"/></clipPath><clipPath id="2f9727a87c"><path d="M 411.746094 680.257812 L 648.265625 680.257812 C 651.992188 680.257812 655.011719 683.277344 655.011719 687.003906 L 655.011719 750.539062 C 655.011719 754.265625 651.992188 757.285156 648.265625 757.285156 L 411.746094 757.285156 C 408.019531 757.285156 405 754.265625 405 750.539062 L 405 687.003906 C 405 683.277344 408.019531 680.257812 411.746094 680.257812 Z M 411.746094 680.257812 " clip-rule="nonzero"/></clipPath><clipPath id="05153da258"><path d="M 0 0.257812 L 250.039062 0.257812 L 250.039062 77.285156 L 0 77.285156 Z M 0 0.257812 " clip-rule="nonzero"/></clipPath><clipPath id="2f6d2bf566"><path d="M 6.746094 0.257812 L 243.265625 0.257812 C 246.992188 0.257812 250.011719 3.277344 250.011719 7.003906 L 250.011719 70.539062 C 250.011719 74.265625 246.992188 77.285156 243.265625 77.285156 L 6.746094 77.285156 C 3.019531 77.285156 0 74.265625 0 70.539062 L 0 7.003906 C 0 3.277344 3.019531 0.257812 6.746094 0.257812 Z M 6.746094 0.257812 " clip-rule="nonzero"/></clipPath><clipPath id="40b86a81d5"><rect x="0" width="251" y="0" height="78"/></clipPath><clipPath id="a43002af25"><path d="M 154.988281 804.511719 L 655.066406 804.511719 L 655.066406 881.539062 L 154.988281 881.539062 Z M 154.988281 804.511719 " clip-rule="nonzero"/></clipPath><clipPath id="5e854de68a"><path d="M 161.734375 804.511719 L 648.265625 804.511719 C 651.992188 804.511719 655.011719 807.53125 655.011719 811.257812 L 655.011719 874.792969 C 655.011719 878.519531 651.992188 881.539062 648.265625 881.539062 L 161.734375 881.539062 C 158.007812 881.539062 154.988281 878.519531 154.988281 874.792969 L 154.988281 811.257812 C 154.988281 807.53125 158.007812 804.511719 161.734375 804.511719 Z M 161.734375 804.511719 " clip-rule="nonzero"/></clipPath><clipPath id="b8f0af5c81"><path d="M 0.988281 0.511719 L 501.066406 0.511719 L 501.066406 77.539062 L 0.988281 77.539062 Z M 0.988281 0.511719 " clip-rule="nonzero"/></clipPath><clipPath id="e810c10b77"><path d="M 7.734375 0.511719 L 494.265625 0.511719 C 497.992188 0.511719 501.011719 3.53125 501.011719 7.257812 L 501.011719 70.792969 C 501.011719 74.519531 497.992188 77.539062 494.265625 77.539062 L 7.734375 77.539062 C 4.007812 77.539062 0.988281 74.519531 0.988281 70.792969 L 0.988281 7.257812 C 0.988281 3.53125 4.007812 0.511719 7.734375 0.511719 Z M 7.734375 0.511719 " clip-rule="nonzero"/></clipPath><clipPath id="f2651f581b"><rect x="0" width="502" y="0" height="78"/></clipPath><clipPath id="e73e76e86d"><path d="M 0.199219 500 L 809.800781 500 L 809.800781 505 L 0.199219 505 Z M 0.199219 500 " clip-rule="nonzero"/></clipPath><clipPath id="64f1a37942"><path d="M 154.988281 680.257812 L 405 680.257812 L 405 757.285156 L 154.988281 757.285156 Z M 154.988281 680.257812 " clip-rule="nonzero"/></clipPath><clipPath id="5e40cf3617"><path d="M 161.734375 680.257812 L 398.253906 680.257812 C 401.980469 680.257812 405 683.277344 405 687.003906 L 405 750.539062 C 405 754.265625 401.980469 757.285156 398.253906 757.285156 L 161.734375 757.285156 C 158.007812 757.285156 154.988281 754.265625 154.988281 750.539062 L 154.988281 687.003906 C 154.988281 683.277344 158.007812 680.257812 161.734375 680.257812 Z M 161.734375 680.257812 " clip-rule="nonzero"/></clipPath><clipPath id="3eca629c48"><path d="M 0.988281 0.257812 L 251 0.257812 L 251 77.285156 L 0.988281 77.285156 Z M 0.988281 0.257812 " clip-rule="nonzero"/></clipPath><clipPath id="16f52d9375"><path d="M 7.734375 0.257812 L 244.253906 0.257812 C 247.980469 0.257812 251 3.277344 251 7.003906 L 251 70.539062 C 251 74.265625 247.980469 77.285156 244.253906 77.285156 L 7.734375 77.285156 C 4.007812 77.285156 0.988281 74.265625 0.988281 70.539062 L 0.988281 7.003906 C 0.988281 3.277344 4.007812 0.257812 7.734375 0.257812 Z M 7.734375 0.257812 " clip-rule="nonzero"/></clipPath><clipPath id="067c21dd3a"><rect x="0" width="251" y="0" height="78"/></clipPath><clipPath id="1702efc90c"><path d="M 164.898438 559.054688 L 645.15625 559.054688 L 645.15625 633.03125 L 164.898438 633.03125 Z M 164.898438 559.054688 " clip-rule="nonzero"/></clipPath><clipPath id="6868099091"><path d="M 171.644531 559.054688 L 638.355469 559.054688 C 642.082031 559.054688 645.101562 562.078125 645.101562 565.804688 L 645.101562 626.285156 C 645.101562 630.011719 642.082031 633.03125 638.355469 633.03125 L 171.644531 633.03125 C 167.917969 633.03125 164.898438 630.011719 164.898438 626.285156 L 164.898438 565.804688 C 164.898438 562.078125 167.917969 559.054688 171.644531 559.054688 Z M 171.644531 559.054688 " clip-rule="nonzero"/></clipPath><clipPath id="8d801943ba"><path d="M 0.898438 0.0546875 L 481.15625 0.0546875 L 481.15625 74.03125 L 0.898438 74.03125 Z M 0.898438 0.0546875 " clip-rule="nonzero"/></clipPath><clipPath id="68f28f19d0"><path d="M 7.644531 0.0546875 L 474.355469 0.0546875 C 478.082031 0.0546875 481.101562 3.078125 481.101562 6.804688 L 481.101562 67.285156 C 481.101562 71.011719 478.082031 74.03125 474.355469 74.03125 L 7.644531 74.03125 C 3.917969 74.03125 0.898438 71.011719 0.898438 67.285156 L 0.898438 6.804688 C 0.898438 3.078125 3.917969 0.0546875 7.644531 0.0546875 Z M 7.644531 0.0546875 " clip-rule="nonzero"/></clipPath><clipPath id="f670f2679f"><rect x="0" width="482" y="0" height="75"/></clipPath></defs><g clip-path="url(#6f37bb0567)"><path fill="#ffffff" d="M 0.199219 0 L 809.800781 0 L 809.800781 1012 L 0.199219 1012 Z M 0.199219 0 " fill-opacity="1" fill-rule="nonzero"/><path fill="#242424" d="M 0.199219 0 L 809.800781 0 L 809.800781 1012 L 0.199219 1012 Z M 0.199219 0 " fill-opacity="1" fill-rule="nonzero"/></g><g clip-path="url(#189e5c1118)"><g clip-path="url(#fb90a56155)"><g transform="matrix(1, 0, 0, 1, 154, 130)"><g clip-path="url(#1da4f05d47)"><g clip-path="url(#6b3ac487fc)"><g clip-path="url(#5d3388a261)"><path fill="#ffffff" d="M 0.988281 0.460938 L 501.136719 0.460938 L 501.136719 74.214844 L 0.988281 74.214844 Z M 0.988281 0.460938 " fill-opacity="1" fill-rule="nonzero"/></g></g></g></g></g></g><g fill="#000000" fill-opacity="1"><g transform="translate(341.235147, 163.226989)"><g><path d="M 1.546875 -14.421875 L 15.59375 -14.421875 C 16.945312 -14.421875 18.085938 -13.957031 19.015625 -13.03125 C 19.953125 -12.09375 20.421875 -10.960938 20.421875 -9.640625 L 20.421875 -9.21875 C 20.421875 -7.851562 19.992188 -6.722656 19.140625 -5.828125 C 18.304688 -4.960938 17.21875 -4.53125 15.875 -4.53125 L 5.578125 -4.53125 L 5.578125 0 L 1.546875 0 Z M 14.984375 -10.859375 L 5.578125 -10.859375 L 5.578125 -7.96875 L 15 -7.96875 C 15.414062 -7.96875 15.75 -8.082031 16 -8.3125 C 16.257812 -8.539062 16.390625 -8.832031 16.390625 -9.1875 L 16.390625 -9.625 C 16.390625 -9.976562 16.253906 -10.269531 15.984375 -10.5 C 15.722656 -10.738281 15.390625 -10.859375 14.984375 -10.859375 Z M 14.984375 -10.859375 "/></g></g></g><g fill="#000000" fill-opacity="1"><g transform="translate(362.220972, 163.226989)"><g><path d="M 1.546875 -14.421875 L 5.578125 -14.421875 L 5.578125 0 L 1.546875 0 Z M 1.546875 -14.421875 "/></g></g></g><g fill="#000000" fill-opacity="1"><g transform="translate(369.353675, 163.226989)"><g><path d="M 1.546875 -14.421875 L 5.578125 -14.421875 L 5.578125 -3.5625 L 18.546875 -3.5625 L 18.546875 0 L 1.546875 0 Z M 1.546875 -14.421875 "/></g></g></g><g fill="#000000" fill-opacity="1"><g transform="translate(388.29863, 163.226989)"><g><path d="M 9 -14.421875 L 13.1875 -14.421875 L 22.265625 0 L 17.515625 0 L 15.890625 -2.671875 L 6.28125 -2.671875 L 4.671875 0 L -0.0625 0 Z M 14 -5.828125 L 11.09375 -10.65625 L 8.1875 -5.828125 Z M 14 -5.828125 "/></g></g></g><g fill="#000000" fill-opacity="1"><g transform="translate(406.604519, 163.226989)"><g><path d="M 19.90625 -14.421875 L 19.90625 -10.859375 L 12.15625 -10.859375 L 12.15625 0 L 8.125 0 L 8.125 -10.859375 L 0.375 -10.859375 L 0.375 -14.421875 Z M 19.90625 -14.421875 "/></g></g></g><g fill="#000000" fill-opacity="1"><g transform="translate(426.889441, 163.226989)"><g><path d="M 18.9375 -8.9375 L 18.9375 -5.5 L 5.578125 -5.5 L 5.578125 -3.5625 L 19.46875 -3.5625 L 19.46875 0 L 1.546875 0 L 1.546875 -14.421875 L 19.4375 -14.421875 L 19.4375 -10.859375 L 5.578125 -10.859375 L 5.578125 -8.9375 Z M 18.9375 -8.9375 "/></g></g></g><g fill="#000000" fill-opacity="1"><g transform="translate(447.524814, 163.226989)"><g><path d="M 16.0625 0 L 1.546875 0 L 1.546875 -3.5625 L 15.90625 -3.5625 C 16.039062 -3.5625 16.15625 -3.601562 16.25 -3.6875 C 16.34375 -3.769531 16.390625 -3.878906 16.390625 -4.015625 L 16.390625 -5.046875 C 16.390625 -5.179688 16.34375 -5.289062 16.25 -5.375 C 16.15625 -5.457031 16.039062 -5.5 15.90625 -5.5 L 5.28125 -5.5 C 3.882812 -5.5 2.804688 -5.828125 2.046875 -6.484375 C 1.285156 -7.148438 0.90625 -8.082031 0.90625 -9.28125 L 0.90625 -10.640625 C 0.90625 -11.828125 1.289062 -12.753906 2.0625 -13.421875 C 2.832031 -14.085938 3.90625 -14.421875 5.28125 -14.421875 L 19.265625 -14.421875 L 19.265625 -10.859375 L 5.421875 -10.859375 C 5.285156 -10.859375 5.171875 -10.816406 5.078125 -10.734375 C 4.992188 -10.648438 4.953125 -10.539062 4.953125 -10.40625 L 4.953125 -9.390625 C 4.953125 -9.253906 4.992188 -9.144531 5.078125 -9.0625 C 5.171875 -8.976562 5.285156 -8.9375 5.421875 -8.9375 L 16.0625 -8.9375 C 17.425781 -8.9375 18.492188 -8.601562 19.265625 -7.9375 C 20.035156 -7.28125 20.421875 -6.359375 20.421875 -5.171875 L 20.421875 -3.75 C 20.421875 -2.570312 20.035156 -1.648438 19.265625 -0.984375 C 18.492188 -0.328125 17.425781 0 16.0625 0 Z M 16.0625 0 "/></g></g></g><g fill="#000000" fill-opacity="1"><g transform="translate(308.626253, 186.465511)"><g><path d="M 12.96875 -3.78125 L 12.96875 -7.625 C 12.96875 -7.90625 12.875 -8.132812 12.6875 -8.3125 C 12.507812 -8.5 12.28125 -8.59375 12 -8.59375 L 5.1875 -8.59375 C 4.90625 -8.59375 4.671875 -8.5 4.484375 -8.3125 C 4.304688 -8.132812 4.21875 -7.90625 4.21875 -7.625 L 4.21875 -3.78125 C 4.21875 -3.5 4.304688 -3.265625 4.484375 -3.078125 C 4.671875 -2.898438 4.90625 -2.8125 5.1875 -2.8125 L 12 -2.8125 C 12.28125 -2.8125 12.507812 -2.898438 12.6875 -3.078125 C 12.875 -3.265625 12.96875 -3.5 12.96875 -3.78125 Z M 16.171875 -8.09375 L 16.171875 -3.3125 C 16.171875 -2.34375 15.84375 -1.546875 15.1875 -0.921875 C 14.5625 -0.304688 13.726562 0 12.6875 0 L 4.515625 0 C 3.492188 0 2.65625 -0.304688 2 -0.921875 C 1.351562 -1.546875 1.03125 -2.34375 1.03125 -3.3125 L 1.03125 -8.09375 C 1.03125 -9.0625 1.351562 -9.859375 2 -10.484375 C 2.65625 -11.097656 3.492188 -11.40625 4.515625 -11.40625 L 12.6875 -11.40625 C 13.726562 -11.40625 14.5625 -11.097656 15.1875 -10.484375 C 15.84375 -9.859375 16.171875 -9.0625 16.171875 -8.09375 Z M 16.171875 -8.09375 "/></g></g></g><g fill="#000000" fill-opacity="1"><g transform="translate(325.802721, 186.465511)"><g><path d="M 3.890625 -11.40625 L 11.109375 -11.40625 C 12.128906 -11.40625 12.96875 -11.097656 13.625 -10.484375 C 14.28125 -9.859375 14.609375 -9.0625 14.609375 -8.09375 L 14.609375 -3.3125 C 14.609375 -2.34375 14.28125 -1.546875 13.625 -0.921875 C 12.96875 -0.304688 12.128906 0 11.109375 0 L 1.3125 0 L 1.3125 -2.8125 L 10.453125 -2.8125 C 10.722656 -2.8125 10.945312 -2.898438 11.125 -3.078125 C 11.3125 -3.265625 11.40625 -3.5 11.40625 -3.78125 L 11.40625 -4.4375 L 3.90625 -4.4375 C 2.863281 -4.4375 2.070312 -4.671875 1.53125 -5.140625 C 0.988281 -5.617188 0.71875 -6.320312 0.71875 -7.25 L 0.71875 -8.203125 C 0.71875 -9.191406 1 -9.972656 1.5625 -10.546875 C 2.132812 -11.117188 2.910156 -11.40625 3.890625 -11.40625 Z M 3.90625 -8.234375 L 3.90625 -7.234375 C 3.90625 -7.128906 3.941406 -7.039062 4.015625 -6.96875 C 4.085938 -6.90625 4.175781 -6.875 4.28125 -6.875 L 11.40625 -6.875 L 11.40625 -8.234375 C 11.40625 -8.335938 11.367188 -8.421875 11.296875 -8.484375 C 11.234375 -8.554688 11.144531 -8.59375 11.03125 -8.59375 L 4.28125 -8.59375 C 4.175781 -8.59375 4.085938 -8.554688 4.015625 -8.484375 C 3.941406 -8.421875 3.90625 -8.335938 3.90625 -8.234375 Z M 3.90625 -8.234375 "/></g></g></g><g fill="#000000" fill-opacity="1"><g transform="translate(341.416218, 186.465511)"><g><path d="M 1.21875 -11.40625 L 4.421875 -11.40625 L 4.421875 -6.96875 L 12.90625 -6.96875 L 12.90625 -11.40625 L 16.09375 -11.40625 L 16.09375 0 L 12.90625 0 L 12.90625 -4.15625 L 4.421875 -4.15625 L 4.421875 0 L 1.21875 0 Z M 1.21875 -11.40625 "/></g></g></g><g fill="#000000" fill-opacity="1"><g transform="translate(358.722936, 186.465511)"><g><path d="M 12.96875 -3.78125 L 12.96875 -7.625 C 12.96875 -7.90625 12.875 -8.132812 12.6875 -8.3125 C 12.507812 -8.5 12.28125 -8.59375 12 -8.59375 L 5.1875 -8.59375 C 4.90625 -8.59375 4.671875 -8.5 4.484375 -8.3125 C 4.304688 -8.132812 4.21875 -7.90625 4.21875 -7.625 L 4.21875 -3.78125 C 4.21875 -3.5 4.304688 -3.265625 4.484375 -3.078125 C 4.671875 -2.898438 4.90625 -2.8125 5.1875 -2.8125 L 12 -2.8125 C 12.28125 -2.8125 12.507812 -2.898438 12.6875 -3.078125 C 12.875 -3.265625 12.96875 -3.5 12.96875 -3.78125 Z M 16.171875 -8.09375 L 16.171875 -3.3125 C 16.171875 -2.34375 15.84375 -1.546875 15.1875 -0.921875 C 14.5625 -0.304688 13.726562 0 12.6875 0 L 4.515625 0 C 3.492188 0 2.65625 -0.304688 2 -0.921875 C 1.351562 -1.546875 1.03125 -2.34375 1.03125 -3.3125 L 1.03125 -8.09375 C 1.03125 -9.0625 1.351562 -9.859375 2 -10.484375 C 2.65625 -11.097656 3.492188 -11.40625 4.515625 -11.40625 L 12.6875 -11.40625 C 13.726562 -11.40625 14.5625 -11.097656 15.1875 -10.484375 C 15.84375 -9.859375 16.171875 -9.0625 16.171875 -8.09375 Z M 16.171875 -8.09375 "/></g></g></g><g fill="#000000" fill-opacity="1"><g transform="translate(375.899404, 186.465511)"><g><path d="M 12.96875 -3.78125 L 12.96875 -7.625 C 12.96875 -7.90625 12.875 -8.132812 12.6875 -8.3125 C 12.507812 -8.5 12.28125 -8.59375 12 -8.59375 L 5.1875 -8.59375 C 4.90625 -8.59375 4.671875 -8.5 4.484375 -8.3125 C 4.304688 -8.132812 4.21875 -7.90625 4.21875 -7.625 L 4.21875 -3.78125 C 4.21875 -3.5 4.304688 -3.265625 4.484375 -3.078125 C 4.671875 -2.898438 4.90625 -2.8125 5.1875 -2.8125 L 12 -2.8125 C 12.28125 -2.8125 12.507812 -2.898438 12.6875 -3.078125 C 12.875 -3.265625 12.96875 -3.5 12.96875 -3.78125 Z M 16.171875 -8.09375 L 16.171875 -3.3125 C 16.171875 -2.34375 15.84375 -1.546875 15.1875 -0.921875 C 14.5625 -0.304688 13.726562 0 12.6875 0 L 4.515625 0 C 3.492188 0 2.65625 -0.304688 2 -0.921875 C 1.351562 -1.546875 1.03125 -2.34375 1.03125 -3.3125 L 1.03125 -8.09375 C 1.03125 -9.0625 1.351562 -9.859375 2 -10.484375 C 2.65625 -11.097656 3.492188 -11.40625 4.515625 -11.40625 L 12.6875 -11.40625 C 13.726562 -11.40625 14.5625 -11.097656 15.1875 -10.484375 C 15.84375 -9.859375 16.171875 -9.0625 16.171875 -8.09375 Z M 16.171875 -8.09375 "/></g></g></g><g fill="#000000" fill-opacity="1"><g transform="translate(393.075873, 186.465511)"><g/></g></g><g fill="#000000" fill-opacity="1"><g transform="translate(401.623409, 186.465511)"><g><path d="M 9.453125 -6.84375 L 9.453125 -4.921875 L 1.015625 -4.921875 L 1.015625 -6.84375 Z M 9.453125 -6.84375 "/></g></g></g><g fill="#000000" fill-opacity="1"><g transform="translate(412.075823, 186.465511)"><g/></g></g><g fill="#000000" fill-opacity="1"><g transform="translate(420.623359, 186.465511)"><g><path d="M 12.96875 -3.78125 L 12.96875 -7.625 C 12.96875 -7.90625 12.875 -8.132812 12.6875 -8.3125 C 12.507812 -8.5 12.28125 -8.59375 12 -8.59375 L 5.1875 -8.59375 C 4.90625 -8.59375 4.671875 -8.5 4.484375 -8.3125 C 4.304688 -8.132812 4.21875 -7.90625 4.21875 -7.625 L 4.21875 -3.78125 C 4.21875 -3.5 4.304688 -3.265625 4.484375 -3.078125 C 4.671875 -2.898438 4.90625 -2.8125 5.1875 -2.8125 L 12 -2.8125 C 12.28125 -2.8125 12.507812 -2.898438 12.6875 -3.078125 C 12.875 -3.265625 12.96875 -3.5 12.96875 -3.78125 Z M 16.171875 -8.09375 L 16.171875 -3.3125 C 16.171875 -2.34375 15.84375 -1.546875 15.1875 -0.921875 C 14.5625 -0.304688 13.726562 0 12.6875 0 L 4.515625 0 C 3.492188 0 2.65625 -0.304688 2 -0.921875 C 1.351562 -1.546875 1.03125 -2.34375 1.03125 -3.3125 L 1.03125 -8.09375 C 1.03125 -9.0625 1.351562 -9.859375 2 -10.484375 C 2.65625 -11.097656 3.492188 -11.40625 4.515625 -11.40625 L 12.6875 -11.40625 C 13.726562 -11.40625 14.5625 -11.097656 15.1875 -10.484375 C 15.84375 -9.859375 16.171875 -9.0625 16.171875 -8.09375 Z M 16.171875 -8.09375 "/></g></g></g><g fill="#000000" fill-opacity="1"><g transform="translate(437.799828, 186.465511)"><g><path d="M 3.890625 -11.40625 L 11.109375 -11.40625 C 12.128906 -11.40625 12.96875 -11.097656 13.625 -10.484375 C 14.28125 -9.859375 14.609375 -9.0625 14.609375 -8.09375 L 14.609375 -3.3125 C 14.609375 -2.34375 14.28125 -1.546875 13.625 -0.921875 C 12.96875 -0.304688 12.128906 0 11.109375 0 L 1.3125 0 L 1.3125 -2.8125 L 10.453125 -2.8125 C 10.722656 -2.8125 10.945312 -2.898438 11.125 -3.078125 C 11.3125 -3.265625 11.40625 -3.5 11.40625 -3.78125 L 11.40625 -4.4375 L 3.90625 -4.4375 C 2.863281 -4.4375 2.070312 -4.671875 1.53125 -5.140625 C 0.988281 -5.617188 0.71875 -6.320312 0.71875 -7.25 L 0.71875 -8.203125 C 0.71875 -9.191406 1 -9.972656 1.5625 -10.546875 C 2.132812 -11.117188 2.910156 -11.40625 3.890625 -11.40625 Z M 3.90625 -8.234375 L 3.90625 -7.234375 C 3.90625 -7.128906 3.941406 -7.039062 4.015625 -6.96875 C 4.085938 -6.90625 4.175781 -6.875 4.28125 -6.875 L 11.40625 -6.875 L 11.40625 -8.234375 C 11.40625 -8.335938 11.367188 -8.421875 11.296875 -8.484375 C 11.234375 -8.554688 11.144531 -8.59375 11.03125 -8.59375 L 4.28125 -8.59375 C 4.175781 -8.59375 4.085938 -8.554688 4.015625 -8.484375 C 3.941406 -8.421875 3.90625 -8.335938 3.90625 -8.234375 Z M 3.90625 -8.234375 "/></g></g></g><g fill="#000000" fill-opacity="1"><g transform="translate(453.413325, 186.465511)"><g><path d="M 1.21875 -11.40625 L 4.421875 -11.40625 L 4.421875 -6.96875 L 12.90625 -6.96875 L 12.90625 -11.40625 L 16.09375 -11.40625 L 16.09375 0 L 12.90625 0 L 12.90625 -4.15625 L 4.421875 -4.15625 L 4.421875 0 L 1.21875 0 Z M 1.21875 -11.40625 "/></g></g></g><g fill="#000000" fill-opacity="1"><g transform="translate(470.720043, 186.465511)"><g><path d="M 0.53125 -1.890625 L 0.53125 -5.796875 L 9.15625 -11.40625 L 13.390625 -11.40625 L 13.390625 -4.5 L 14.84375 -4.5 L 14.84375 -1.890625 L 13.390625 -1.890625 L 13.390625 0 L 10.203125 0 L 10.203125 -1.890625 Z M 3.546875 -4.59375 L 3.546875 -4.5 L 10.203125 -4.5 L 10.203125 -8.59375 L 10.078125 -8.59375 Z M 3.546875 -4.59375 "/></g></g></g><g fill="#000000" fill-opacity="1"><g transform="translate(486.089317, 186.465511)"><g><path d="M 11.109375 0 L 1.078125 0 L 1.078125 -2.8125 L 10.984375 -2.8125 C 11.085938 -2.8125 11.175781 -2.84375 11.25 -2.90625 C 11.320312 -2.976562 11.359375 -3.066406 11.359375 -3.171875 L 11.359375 -4.109375 C 11.359375 -4.210938 11.320312 -4.296875 11.25 -4.359375 C 11.175781 -4.429688 11.085938 -4.46875 10.984375 -4.46875 L 1.125 -4.46875 L 1.125 -11.40625 L 13.84375 -11.40625 L 13.84375 -8.59375 L 4.3125 -8.59375 L 4.3125 -7.15625 L 11.109375 -7.15625 C 12.203125 -7.15625 13.046875 -6.898438 13.640625 -6.390625 C 14.242188 -5.878906 14.546875 -5.15625 14.546875 -4.21875 L 14.546875 -2.859375 C 14.546875 -1.929688 14.253906 -1.222656 13.671875 -0.734375 C 13.085938 -0.242188 12.234375 0 11.109375 0 Z M 11.109375 0 "/></g></g></g><g clip-path="url(#378818ad1b)"><g clip-path="url(#988b6bbded)"><g transform="matrix(1, 0, 0, 1, 154, 251)"><g clip-path="url(#4f83a43bdd)"><g clip-path="url(#025f0db8a0)"><g clip-path="url(#438af8057d)"><path fill="#e1c340" d="M 0.988281 0.5625 L 501.066406 0.5625 L 501.066406 77.59375 L 0.988281 77.59375 Z M 0.988281 0.5625 " fill-opacity="1" fill-rule="nonzero"/></g></g></g></g></g></g><g fill="#000000" fill-opacity="1"><g transform="translate(371.700565, 285.831191)"><g><path d="M 5.578125 0 L 1.546875 0 L 1.546875 -14.421875 L 15.546875 -14.421875 C 16.953125 -14.421875 18.117188 -13.976562 19.046875 -13.09375 C 19.960938 -12.207031 20.421875 -11.070312 20.421875 -9.6875 L 20.421875 -9.296875 C 20.421875 -8.222656 20.09375 -7.28125 19.4375 -6.46875 C 18.78125 -5.65625 17.90625 -5.09375 16.8125 -4.78125 L 20.671875 0 L 16.09375 0 L 12.546875 -4.546875 L 5.578125 -4.546875 Z M 15.03125 -10.859375 L 5.578125 -10.859375 L 5.578125 -8 L 15.046875 -8 C 15.453125 -8 15.773438 -8.109375 16.015625 -8.328125 C 16.265625 -8.554688 16.390625 -8.863281 16.390625 -9.25 L 16.390625 -9.609375 C 16.390625 -9.992188 16.265625 -10.296875 16.015625 -10.515625 C 15.765625 -10.742188 15.4375 -10.859375 15.03125 -10.859375 Z M 15.03125 -10.859375 "/></g></g></g><g fill="#000000" fill-opacity="1"><g transform="translate(392.913145, 285.831191)"><g><path d="M 1.546875 -14.421875 L 15.59375 -14.421875 C 16.945312 -14.421875 18.085938 -13.957031 19.015625 -13.03125 C 19.953125 -12.09375 20.421875 -10.960938 20.421875 -9.640625 L 20.421875 -9.21875 C 20.421875 -7.851562 19.992188 -6.722656 19.140625 -5.828125 C 18.304688 -4.960938 17.21875 -4.53125 15.875 -4.53125 L 5.578125 -4.53125 L 5.578125 0 L 1.546875 0 Z M 14.984375 -10.859375 L 5.578125 -10.859375 L 5.578125 -7.96875 L 15 -7.96875 C 15.414062 -7.96875 15.75 -8.082031 16 -8.3125 C 16.257812 -8.539062 16.390625 -8.832031 16.390625 -9.1875 L 16.390625 -9.625 C 16.390625 -9.976562 16.253906 -10.269531 15.984375 -10.5 C 15.722656 -10.738281 15.390625 -10.859375 14.984375 -10.859375 Z M 14.984375 -10.859375 "/></g></g></g><g fill="#000000" fill-opacity="1"><g transform="translate(413.89897, 285.831191)"><g><path d="M 13.5625 0 L 10.796875 0 L 5.578125 -8.375 L 5.578125 0 L 1.546875 0 L 1.546875 -14.421875 L 6.078125 -14.421875 L 12.1875 -4.53125 L 18.28125 -14.421875 L 22.8125 -14.421875 L 22.8125 0 L 18.78125 0 L 18.78125 -8.375 Z M 13.5625 0 "/></g></g></g><g fill="#000000" fill-opacity="1"><g transform="translate(317.551532, 309.069713)"><g><path d="M 3.46875 -11.40625 L 5.4375 -11.40625 L 5.4375 0 L 2.25 0 L 2.25 -8.234375 L 0.484375 -7.75 L 0.484375 -10.59375 Z M 3.46875 -11.40625 "/></g></g></g><g fill="#000000" fill-opacity="1"><g transform="translate(324.243032, 309.069713)"><g><path d="M 12.96875 -3.78125 L 12.96875 -7.625 C 12.96875 -7.90625 12.875 -8.132812 12.6875 -8.3125 C 12.507812 -8.5 12.28125 -8.59375 12 -8.59375 L 5.1875 -8.59375 C 4.90625 -8.59375 4.671875 -8.5 4.484375 -8.3125 C 4.304688 -8.132812 4.21875 -7.90625 4.21875 -7.625 L 4.21875 -3.78125 C 4.21875 -3.5 4.304688 -3.265625 4.484375 -3.078125 C 4.671875 -2.898438 4.90625 -2.8125 5.1875 -2.8125 L 12 -2.8125 C 12.28125 -2.8125 12.507812 -2.898438 12.6875 -3.078125 C 12.875 -3.265625 12.96875 -3.5 12.96875 -3.78125 Z M 16.171875 -8.09375 L 16.171875 -3.3125 C 16.171875 -2.34375 15.84375 -1.546875 15.1875 -0.921875 C 14.5625 -0.304688 13.726562 0 12.6875 0 L 4.515625 0 C 3.492188 0 2.65625 -0.304688 2 -0.921875 C 1.351562 -1.546875 1.03125 -2.34375 1.03125 -3.3125 L 1.03125 -8.09375 C 1.03125 -9.0625 1.351562 -9.859375 2 -10.484375 C 2.65625 -11.097656 3.492188 -11.40625 4.515625 -11.40625 L 12.6875 -11.40625 C 13.726562 -11.40625 14.5625 -11.097656 15.1875 -10.484375 C 15.84375 -9.859375 16.171875 -9.0625 16.171875 -8.09375 Z M 16.171875 -8.09375 "/></g></g></g><g fill="#000000" fill-opacity="1"><g transform="translate(341.419501, 309.069713)"><g><path d="M 1.21875 -11.40625 L 4.421875 -11.40625 L 4.421875 -6.96875 L 12.90625 -6.96875 L 12.90625 -11.40625 L 16.09375 -11.40625 L 16.09375 0 L 12.90625 0 L 12.90625 -4.15625 L 4.421875 -4.15625 L 4.421875 0 L 1.21875 0 Z M 1.21875 -11.40625 "/></g></g></g><g fill="#000000" fill-opacity="1"><g transform="translate(358.726219, 309.069713)"><g><path d="M 12.96875 -3.78125 L 12.96875 -7.625 C 12.96875 -7.90625 12.875 -8.132812 12.6875 -8.3125 C 12.507812 -8.5 12.28125 -8.59375 12 -8.59375 L 5.1875 -8.59375 C 4.90625 -8.59375 4.671875 -8.5 4.484375 -8.3125 C 4.304688 -8.132812 4.21875 -7.90625 4.21875 -7.625 L 4.21875 -3.78125 C 4.21875 -3.5 4.304688 -3.265625 4.484375 -3.078125 C 4.671875 -2.898438 4.90625 -2.8125 5.1875 -2.8125 L 12 -2.8125 C 12.28125 -2.8125 12.507812 -2.898438 12.6875 -3.078125 C 12.875 -3.265625 12.96875 -3.5 12.96875 -3.78125 Z M 16.171875 -8.09375 L 16.171875 -3.3125 C 16.171875 -2.34375 15.84375 -1.546875 15.1875 -0.921875 C 14.5625 -0.304688 13.726562 0 12.6875 0 L 4.515625 0 C 3.492188 0 2.65625 -0.304688 2 -0.921875 C 1.351562 -1.546875 1.03125 -2.34375 1.03125 -3.3125 L 1.03125 -8.09375 C 1.03125 -9.0625 1.351562 -9.859375 2 -10.484375 C 2.65625 -11.097656 3.492188 -11.40625 4.515625 -11.40625 L 12.6875 -11.40625 C 13.726562 -11.40625 14.5625 -11.097656 15.1875 -10.484375 C 15.84375 -9.859375 16.171875 -9.0625 16.171875 -8.09375 Z M 16.171875 -8.09375 "/></g></g></g><g fill="#000000" fill-opacity="1"><g transform="translate(375.902687, 309.069713)"><g><path d="M 12.96875 -3.78125 L 12.96875 -7.625 C 12.96875 -7.90625 12.875 -8.132812 12.6875 -8.3125 C 12.507812 -8.5 12.28125 -8.59375 12 -8.59375 L 5.1875 -8.59375 C 4.90625 -8.59375 4.671875 -8.5 4.484375 -8.3125 C 4.304688 -8.132812 4.21875 -7.90625 4.21875 -7.625 L 4.21875 -3.78125 C 4.21875 -3.5 4.304688 -3.265625 4.484375 -3.078125 C 4.671875 -2.898438 4.90625 -2.8125 5.1875 -2.8125 L 12 -2.8125 C 12.28125 -2.8125 12.507812 -2.898438 12.6875 -3.078125 C 12.875 -3.265625 12.96875 -3.5 12.96875 -3.78125 Z M 16.171875 -8.09375 L 16.171875 -3.3125 C 16.171875 -2.34375 15.84375 -1.546875 15.1875 -0.921875 C 14.5625 -0.304688 13.726562 0 12.6875 0 L 4.515625 0 C 3.492188 0 2.65625 -0.304688 2 -0.921875 C 1.351562 -1.546875 1.03125 -2.34375 1.03125 -3.3125 L 1.03125 -8.09375 C 1.03125 -9.0625 1.351562 -9.859375 2 -10.484375 C 2.65625 -11.097656 3.492188 -11.40625 4.515625 -11.40625 L 12.6875 -11.40625 C 13.726562 -11.40625 14.5625 -11.097656 15.1875 -10.484375 C 15.84375 -9.859375 16.171875 -9.0625 16.171875 -8.09375 Z M 16.171875 -8.09375 "/></g></g></g><g fill="#000000" fill-opacity="1"><g transform="translate(393.079155, 309.069713)"><g/></g></g><g fill="#000000" fill-opacity="1"><g transform="translate(401.626691, 309.069713)"><g><path d="M 9.453125 -6.84375 L 9.453125 -4.921875 L 1.015625 -4.921875 L 1.015625 -6.84375 Z M 9.453125 -6.84375 "/></g></g></g><g fill="#000000" fill-opacity="1"><g transform="translate(412.079106, 309.069713)"><g/></g></g><g fill="#000000" fill-opacity="1"><g transform="translate(420.626642, 309.069713)"><g><path d="M 3.46875 -11.40625 L 5.4375 -11.40625 L 5.4375 0 L 2.25 0 L 2.25 -8.234375 L 0.484375 -7.75 L 0.484375 -10.59375 Z M 3.46875 -11.40625 "/></g></g></g><g fill="#000000" fill-opacity="1"><g transform="translate(427.318142, 309.069713)"><g><path d="M 12.96875 -3.78125 L 12.96875 -7.625 C 12.96875 -7.90625 12.875 -8.132812 12.6875 -8.3125 C 12.507812 -8.5 12.28125 -8.59375 12 -8.59375 L 5.1875 -8.59375 C 4.90625 -8.59375 4.671875 -8.5 4.484375 -8.3125 C 4.304688 -8.132812 4.21875 -7.90625 4.21875 -7.625 L 4.21875 -3.78125 C 4.21875 -3.5 4.304688 -3.265625 4.484375 -3.078125 C 4.671875 -2.898438 4.90625 -2.8125 5.1875 -2.8125 L 12 -2.8125 C 12.28125 -2.8125 12.507812 -2.898438 12.6875 -3.078125 C 12.875 -3.265625 12.96875 -3.5 12.96875 -3.78125 Z M 16.171875 -8.09375 L 16.171875 -3.3125 C 16.171875 -2.34375 15.84375 -1.546875 15.1875 -0.921875 C 14.5625 -0.304688 13.726562 0 12.6875 0 L 4.515625 0 C 3.492188 0 2.65625 -0.304688 2 -0.921875 C 1.351562 -1.546875 1.03125 -2.34375 1.03125 -3.3125 L 1.03125 -8.09375 C 1.03125 -9.0625 1.351562 -9.859375 2 -10.484375 C 2.65625 -11.097656 3.492188 -11.40625 4.515625 -11.40625 L 12.6875 -11.40625 C 13.726562 -11.40625 14.5625 -11.097656 15.1875 -10.484375 C 15.84375 -9.859375 16.171875 -9.0625 16.171875 -8.09375 Z M 16.171875 -8.09375 "/></g></g></g><g fill="#000000" fill-opacity="1"><g transform="translate(444.494611, 309.069713)"><g><path d="M 1.21875 -11.40625 L 4.421875 -11.40625 L 4.421875 -6.96875 L 12.90625 -6.96875 L 12.90625 -11.40625 L 16.09375 -11.40625 L 16.09375 0 L 12.90625 0 L 12.90625 -4.15625 L 4.421875 -4.15625 L 4.421875 0 L 1.21875 0 Z M 1.21875 -11.40625 "/></g></g></g><g fill="#000000" fill-opacity="1"><g transform="translate(461.801329, 309.069713)"><g><path d="M 0.53125 -1.890625 L 0.53125 -5.796875 L 9.15625 -11.40625 L 13.390625 -11.40625 L 13.390625 -4.5 L 14.84375 -4.5 L 14.84375 -1.890625 L 13.390625 -1.890625 L 13.390625 0 L 10.203125 0 L 10.203125 -1.890625 Z M 3.546875 -4.59375 L 3.546875 -4.5 L 10.203125 -4.5 L 10.203125 -8.59375 L 10.078125 -8.59375 Z M 3.546875 -4.59375 "/></g></g></g><g fill="#000000" fill-opacity="1"><g transform="translate(477.170603, 309.069713)"><g><path d="M 11.109375 0 L 1.078125 0 L 1.078125 -2.8125 L 10.984375 -2.8125 C 11.085938 -2.8125 11.175781 -2.84375 11.25 -2.90625 C 11.320312 -2.976562 11.359375 -3.066406 11.359375 -3.171875 L 11.359375 -4.109375 C 11.359375 -4.210938 11.320312 -4.296875 11.25 -4.359375 C 11.175781 -4.429688 11.085938 -4.46875 10.984375 -4.46875 L 1.125 -4.46875 L 1.125 -11.40625 L 13.84375 -11.40625 L 13.84375 -8.59375 L 4.3125 -8.59375 L 4.3125 -7.15625 L 11.109375 -7.15625 C 12.203125 -7.15625 13.046875 -6.898438 13.640625 -6.390625 C 14.242188 -5.878906 14.546875 -5.15625 14.546875 -4.21875 L 14.546875 -2.859375 C 14.546875 -1.929688 14.253906 -1.222656 13.671875 -0.734375 C 13.085938 -0.242188 12.234375 0 11.109375 0 Z M 11.109375 0 "/></g></g></g><g clip-path="url(#8e68d73d1f)"><g clip-path="url(#4534f04f5b)"><g transform="matrix(1, 0, 0, 1, 154, 375)"><g clip-path="url(#2f91510074)"><g clip-path="url(#e13ebbcf84)"><g clip-path="url(#5a1a381bd8)"><path fill="#e1c340" d="M 0.988281 0.820312 L 501.066406 0.820312 L 501.066406 77.847656 L 0.988281 77.847656 Z M 0.988281 0.820312 " fill-opacity="1" fill-rule="nonzero"/></g></g></g></g></g></g><g fill="#000000" fill-opacity="1"><g transform="translate(273.94416, 410.085955)"><g><path d="M 6.453125 -3.5625 L 20.109375 -3.5625 L 20.109375 0 L 5.609375 0 C 4.316406 0 3.257812 -0.390625 2.4375 -1.171875 C 1.613281 -1.953125 1.203125 -2.957031 1.203125 -4.1875 L 1.203125 -10.25 C 1.203125 -11.46875 1.613281 -12.46875 2.4375 -13.25 C 3.257812 -14.03125 4.316406 -14.421875 5.609375 -14.421875 L 19.921875 -14.421875 L 19.921875 -10.859375 L 6.453125 -10.859375 C 6.109375 -10.859375 5.816406 -10.742188 5.578125 -10.515625 C 5.347656 -10.296875 5.234375 -10.003906 5.234375 -9.640625 L 5.234375 -4.78125 C 5.234375 -4.425781 5.347656 -4.132812 5.578125 -3.90625 C 5.816406 -3.675781 6.109375 -3.5625 6.453125 -3.5625 Z M 6.453125 -3.5625 "/></g></g></g><g fill="#000000" fill-opacity="1"><g transform="translate(294.868137, 410.085955)"><g><path d="M 5.578125 0 L 1.546875 0 L 1.546875 -14.421875 L 15.546875 -14.421875 C 16.953125 -14.421875 18.117188 -13.976562 19.046875 -13.09375 C 19.960938 -12.207031 20.421875 -11.070312 20.421875 -9.6875 L 20.421875 -9.296875 C 20.421875 -8.222656 20.09375 -7.28125 19.4375 -6.46875 C 18.78125 -5.65625 17.90625 -5.09375 16.8125 -4.78125 L 20.671875 0 L 16.09375 0 L 12.546875 -4.546875 L 5.578125 -4.546875 Z M 15.03125 -10.859375 L 5.578125 -10.859375 L 5.578125 -8 L 15.046875 -8 C 15.453125 -8 15.773438 -8.109375 16.015625 -8.328125 C 16.265625 -8.554688 16.390625 -8.863281 16.390625 -9.25 L 16.390625 -9.609375 C 16.390625 -9.992188 16.265625 -10.296875 16.015625 -10.515625 C 15.765625 -10.742188 15.4375 -10.859375 15.03125 -10.859375 Z M 15.03125 -10.859375 "/></g></g></g><g fill="#000000" fill-opacity="1"><g transform="translate(316.080716, 410.085955)"><g><path d="M 17.453125 -4.78125 L 17.453125 -9.640625 C 17.453125 -10.003906 17.332031 -10.296875 17.09375 -10.515625 C 16.863281 -10.742188 16.570312 -10.859375 16.21875 -10.859375 L 6.453125 -10.859375 C 6.109375 -10.859375 5.816406 -10.742188 5.578125 -10.515625 C 5.347656 -10.296875 5.234375 -10.003906 5.234375 -9.640625 L 5.234375 -4.78125 C 5.234375 -4.425781 5.347656 -4.132812 5.578125 -3.90625 C 5.816406 -3.675781 6.109375 -3.5625 6.453125 -3.5625 L 16.21875 -3.5625 C 16.570312 -3.5625 16.863281 -3.675781 17.09375 -3.90625 C 17.332031 -4.132812 17.453125 -4.425781 17.453125 -4.78125 Z M 21.5 -10.25 L 21.5 -4.1875 C 21.5 -2.957031 21.085938 -1.953125 20.265625 -1.171875 C 19.460938 -0.390625 18.410156 0 17.109375 0 L 5.609375 0 C 4.316406 0 3.257812 -0.390625 2.4375 -1.171875 C 1.613281 -1.953125 1.203125 -2.957031 1.203125 -4.1875 L 1.203125 -10.25 C 1.203125 -11.46875 1.613281 -12.46875 2.4375 -13.25 C 3.257812 -14.03125 4.316406 -14.421875 5.609375 -14.421875 L 17.109375 -14.421875 C 18.410156 -14.421875 19.460938 -14.03125 20.265625 -13.25 C 21.085938 -12.46875 21.5 -11.46875 21.5 -10.25 Z M 21.5 -10.25 "/></g></g></g><g fill="#000000" fill-opacity="1"><g transform="translate(338.77756, 410.085955)"><g><path d="M 16.0625 0 L 1.546875 0 L 1.546875 -3.5625 L 15.90625 -3.5625 C 16.039062 -3.5625 16.15625 -3.601562 16.25 -3.6875 C 16.34375 -3.769531 16.390625 -3.878906 16.390625 -4.015625 L 16.390625 -5.046875 C 16.390625 -5.179688 16.34375 -5.289062 16.25 -5.375 C 16.15625 -5.457031 16.039062 -5.5 15.90625 -5.5 L 5.28125 -5.5 C 3.882812 -5.5 2.804688 -5.828125 2.046875 -6.484375 C 1.285156 -7.148438 0.90625 -8.082031 0.90625 -9.28125 L 0.90625 -10.640625 C 0.90625 -11.828125 1.289062 -12.753906 2.0625 -13.421875 C 2.832031 -14.085938 3.90625 -14.421875 5.28125 -14.421875 L 19.265625 -14.421875 L 19.265625 -10.859375 L 5.421875 -10.859375 C 5.285156 -10.859375 5.171875 -10.816406 5.078125 -10.734375 C 4.992188 -10.648438 4.953125 -10.539062 4.953125 -10.40625 L 4.953125 -9.390625 C 4.953125 -9.253906 4.992188 -9.144531 5.078125 -9.0625 C 5.171875 -8.976562 5.285156 -8.9375 5.421875 -8.9375 L 16.0625 -8.9375 C 17.425781 -8.9375 18.492188 -8.601562 19.265625 -7.9375 C 20.035156 -7.28125 20.421875 -6.359375 20.421875 -5.171875 L 20.421875 -3.75 C 20.421875 -2.570312 20.035156 -1.648438 19.265625 -0.984375 C 18.492188 -0.328125 17.425781 0 16.0625 0 Z M 16.0625 0 "/></g></g></g><g fill="#000000" fill-opacity="1"><g transform="translate(359.99014, 410.085955)"><g><path d="M 16.0625 0 L 1.546875 0 L 1.546875 -3.5625 L 15.90625 -3.5625 C 16.039062 -3.5625 16.15625 -3.601562 16.25 -3.6875 C 16.34375 -3.769531 16.390625 -3.878906 16.390625 -4.015625 L 16.390625 -5.046875 C 16.390625 -5.179688 16.34375 -5.289062 16.25 -5.375 C 16.15625 -5.457031 16.039062 -5.5 15.90625 -5.5 L 5.28125 -5.5 C 3.882812 -5.5 2.804688 -5.828125 2.046875 -6.484375 C 1.285156 -7.148438 0.90625 -8.082031 0.90625 -9.28125 L 0.90625 -10.640625 C 0.90625 -11.828125 1.289062 -12.753906 2.0625 -13.421875 C 2.832031 -14.085938 3.90625 -14.421875 5.28125 -14.421875 L 19.265625 -14.421875 L 19.265625 -10.859375 L 5.421875 -10.859375 C 5.285156 -10.859375 5.171875 -10.816406 5.078125 -10.734375 C 4.992188 -10.648438 4.953125 -10.539062 4.953125 -10.40625 L 4.953125 -9.390625 C 4.953125 -9.253906 4.992188 -9.144531 5.078125 -9.0625 C 5.171875 -8.976562 5.285156 -8.9375 5.421875 -8.9375 L 16.0625 -8.9375 C 17.425781 -8.9375 18.492188 -8.601562 19.265625 -7.9375 C 20.035156 -7.28125 20.421875 -6.359375 20.421875 -5.171875 L 20.421875 -3.75 C 20.421875 -2.570312 20.035156 -1.648438 19.265625 -0.984375 C 18.492188 -0.328125 17.425781 0 16.0625 0 Z M 16.0625 0 "/></g></g></g><g fill="#000000" fill-opacity="1"><g transform="translate(381.20272, 410.085955)"><g/></g></g><g fill="#000000" fill-opacity="1"><g transform="translate(392.025465, 410.085955)"><g><path d="M 19.90625 -14.421875 L 19.90625 -10.859375 L 12.15625 -10.859375 L 12.15625 0 L 8.125 0 L 8.125 -10.859375 L 0.375 -10.859375 L 0.375 -14.421875 Z M 19.90625 -14.421875 "/></g></g></g><g fill="#000000" fill-opacity="1"><g transform="translate(412.310387, 410.085955)"><g><path d="M 5.578125 0 L 1.546875 0 L 1.546875 -14.421875 L 15.546875 -14.421875 C 16.953125 -14.421875 18.117188 -13.976562 19.046875 -13.09375 C 19.960938 -12.207031 20.421875 -11.070312 20.421875 -9.6875 L 20.421875 -9.296875 C 20.421875 -8.222656 20.09375 -7.28125 19.4375 -6.46875 C 18.78125 -5.65625 17.90625 -5.09375 16.8125 -4.78125 L 20.671875 0 L 16.09375 0 L 12.546875 -4.546875 L 5.578125 -4.546875 Z M 15.03125 -10.859375 L 5.578125 -10.859375 L 5.578125 -8 L 15.046875 -8 C 15.453125 -8 15.773438 -8.109375 16.015625 -8.328125 C 16.265625 -8.554688 16.390625 -8.863281 16.390625 -9.25 L 16.390625 -9.609375 C 16.390625 -9.992188 16.265625 -10.296875 16.015625 -10.515625 C 15.765625 -10.742188 15.4375 -10.859375 15.03125 -10.859375 Z M 15.03125 -10.859375 "/></g></g></g><g fill="#000000" fill-opacity="1"><g transform="translate(433.522967, 410.085955)"><g><path d="M 9 -14.421875 L 13.1875 -14.421875 L 22.265625 0 L 17.515625 0 L 15.890625 -2.671875 L 6.28125 -2.671875 L 4.671875 0 L -0.0625 0 Z M 14 -5.828125 L 11.09375 -10.65625 L 8.1875 -5.828125 Z M 14 -5.828125 "/></g></g></g><g fill="#000000" fill-opacity="1"><g transform="translate(455.725052, 410.085955)"><g><path d="M 1.546875 -14.421875 L 5.578125 -14.421875 L 5.578125 0 L 1.546875 0 Z M 1.546875 -14.421875 "/></g></g></g><g fill="#000000" fill-opacity="1"><g transform="translate(462.857756, 410.085955)"><g><path d="M 20.328125 0 L 16.078125 0 L 5.578125 -9.671875 L 5.578125 0 L 1.546875 0 L 1.546875 -14.421875 L 5.796875 -14.421875 L 16.28125 -4.765625 L 16.28125 -14.421875 L 20.328125 -14.421875 Z M 20.328125 0 "/></g></g></g><g fill="#000000" fill-opacity="1"><g transform="translate(484.730014, 410.085955)"><g><path d="M 1.546875 -14.421875 L 5.578125 -14.421875 L 5.578125 0 L 1.546875 0 Z M 1.546875 -14.421875 "/></g></g></g><g fill="#000000" fill-opacity="1"><g transform="translate(491.862729, 410.085955)"><g><path d="M 20.328125 0 L 16.078125 0 L 5.578125 -9.671875 L 5.578125 0 L 1.546875 0 L 1.546875 -14.421875 L 5.796875 -14.421875 L 16.28125 -4.765625 L 16.28125 -14.421875 L 20.328125 -14.421875 Z M 20.328125 0 "/></g></g></g><g fill="#000000" fill-opacity="1"><g transform="translate(513.734976, 410.085955)"><g><path d="M 17.203125 -0.578125 L 16.171875 0 L 5.609375 0 C 4.316406 0 3.257812 -0.390625 2.4375 -1.171875 C 1.613281 -1.953125 1.203125 -2.957031 1.203125 -4.1875 L 1.203125 -10.25 C 1.203125 -11.46875 1.613281 -12.46875 2.4375 -13.25 C 3.257812 -14.03125 4.316406 -14.421875 5.609375 -14.421875 L 20.71875 -14.421875 L 20.71875 -10.859375 L 6.453125 -10.859375 C 6.109375 -10.859375 5.816406 -10.742188 5.578125 -10.515625 C 5.347656 -10.296875 5.234375 -10.003906 5.234375 -9.640625 L 5.234375 -4.78125 C 5.234375 -4.425781 5.347656 -4.132812 5.578125 -3.90625 C 5.816406 -3.675781 6.109375 -3.5625 6.453125 -3.5625 L 17.1875 -3.5625 L 17.1875 -5.578125 L 7.1875 -5.578125 L 7.1875 -8.828125 L 21.046875 -8.828125 L 21.046875 0 L 17.625 0 Z M 17.203125 -0.578125 "/></g></g></g><g fill="#000000" fill-opacity="1"><g transform="translate(323.6657, 433.324478)"><g><path d="M 3.46875 -11.40625 L 5.4375 -11.40625 L 5.4375 0 L 2.25 0 L 2.25 -8.234375 L 0.484375 -7.75 L 0.484375 -10.59375 Z M 3.46875 -11.40625 "/></g></g></g><g fill="#000000" fill-opacity="1"><g transform="translate(330.3572, 433.324478)"><g><path d="M 14.203125 0 L 0.90625 0 L 0.90625 -4.09375 C 0.90625 -5.007812 1.203125 -5.726562 1.796875 -6.25 C 2.398438 -6.769531 3.242188 -7.03125 4.328125 -7.03125 L 10.75 -7.03125 C 10.863281 -7.03125 10.953125 -7.0625 11.015625 -7.125 C 11.085938 -7.1875 11.125 -7.269531 11.125 -7.375 L 11.125 -8.234375 C 11.125 -8.335938 11.085938 -8.421875 11.015625 -8.484375 C 10.953125 -8.554688 10.863281 -8.59375 10.75 -8.59375 L 1.265625 -8.59375 L 1.265625 -11.40625 L 10.890625 -11.40625 C 11.984375 -11.40625 12.828125 -11.148438 13.421875 -10.640625 C 14.023438 -10.128906 14.328125 -9.410156 14.328125 -8.484375 L 14.328125 -7.1875 C 14.328125 -6.257812 14.03125 -5.550781 13.4375 -5.0625 C 12.851562 -4.570312 12.003906 -4.328125 10.890625 -4.328125 L 4.46875 -4.328125 C 4.351562 -4.328125 4.257812 -4.296875 4.1875 -4.234375 C 4.125 -4.171875 4.09375 -4.082031 4.09375 -3.96875 L 4.09375 -2.8125 L 14.203125 -2.8125 Z M 14.203125 0 "/></g></g></g><g fill="#000000" fill-opacity="1"><g transform="translate(345.563671, 433.324478)"><g><path d="M 1.21875 -11.40625 L 4.421875 -11.40625 L 4.421875 -6.96875 L 12.90625 -6.96875 L 12.90625 -11.40625 L 16.09375 -11.40625 L 16.09375 0 L 12.90625 0 L 12.90625 -4.15625 L 4.421875 -4.15625 L 4.421875 0 L 1.21875 0 Z M 1.21875 -11.40625 "/></g></g></g><g fill="#000000" fill-opacity="1"><g transform="translate(362.870389, 433.324478)"><g><path d="M 3.46875 -11.40625 L 5.4375 -11.40625 L 5.4375 0 L 2.25 0 L 2.25 -8.234375 L 0.484375 -7.75 L 0.484375 -10.59375 Z M 3.46875 -11.40625 "/></g></g></g><g fill="#000000" fill-opacity="1"><g transform="translate(369.56189, 433.324478)"><g><path d="M 11.109375 0 L 1.078125 0 L 1.078125 -2.8125 L 10.984375 -2.8125 C 11.085938 -2.8125 11.175781 -2.84375 11.25 -2.90625 C 11.320312 -2.976562 11.359375 -3.066406 11.359375 -3.171875 L 11.359375 -4.109375 C 11.359375 -4.210938 11.320312 -4.296875 11.25 -4.359375 C 11.175781 -4.429688 11.085938 -4.46875 10.984375 -4.46875 L 1.125 -4.46875 L 1.125 -11.40625 L 13.84375 -11.40625 L 13.84375 -8.59375 L 4.3125 -8.59375 L 4.3125 -7.15625 L 11.109375 -7.15625 C 12.203125 -7.15625 13.046875 -6.898438 13.640625 -6.390625 C 14.242188 -5.878906 14.546875 -5.15625 14.546875 -4.21875 L 14.546875 -2.859375 C 14.546875 -1.929688 14.253906 -1.222656 13.671875 -0.734375 C 13.085938 -0.242188 12.234375 0 11.109375 0 Z M 11.109375 0 "/></g></g></g><g fill="#000000" fill-opacity="1"><g transform="translate(384.817203, 433.324478)"><g/></g></g><g fill="#000000" fill-opacity="1"><g transform="translate(393.364739, 433.324478)"><g><path d="M 9.453125 -6.84375 L 9.453125 -4.921875 L 1.015625 -4.921875 L 1.015625 -6.84375 Z M 9.453125 -6.84375 "/></g></g></g><g fill="#000000" fill-opacity="1"><g transform="translate(403.817154, 433.324478)"><g/></g></g><g fill="#000000" fill-opacity="1"><g transform="translate(412.36469, 433.324478)"><g><path d="M 3.46875 -11.40625 L 5.4375 -11.40625 L 5.4375 0 L 2.25 0 L 2.25 -8.234375 L 0.484375 -7.75 L 0.484375 -10.59375 Z M 3.46875 -11.40625 "/></g></g></g><g fill="#000000" fill-opacity="1"><g transform="translate(419.05619, 433.324478)"><g><path d="M 11.59375 -3.171875 L 11.59375 -4.265625 C 11.59375 -4.378906 11.554688 -4.46875 11.484375 -4.53125 C 11.410156 -4.59375 11.320312 -4.625 11.21875 -4.625 L 1.75 -4.625 L 1.75 -6.953125 L 10.859375 -6.953125 C 10.960938 -6.953125 11.050781 -6.984375 11.125 -7.046875 C 11.195312 -7.117188 11.234375 -7.207031 11.234375 -7.3125 L 11.234375 -8.234375 C 11.234375 -8.335938 11.195312 -8.421875 11.125 -8.484375 C 11.050781 -8.554688 10.960938 -8.59375 10.859375 -8.59375 L 0.96875 -8.59375 L 0.96875 -11.40625 L 11.328125 -11.40625 C 12.171875 -11.40625 12.894531 -11.140625 13.5 -10.609375 C 14.113281 -10.085938 14.421875 -9.472656 14.421875 -8.765625 L 14.421875 -7.671875 C 14.421875 -6.992188 14.101562 -6.445312 13.46875 -6.03125 C 14.34375 -5.5 14.78125 -4.738281 14.78125 -3.75 L 14.78125 -2.859375 C 14.78125 -1.929688 14.484375 -1.222656 13.890625 -0.734375 C 13.304688 -0.242188 12.457031 0 11.34375 0 L 0.875 0 L 0.875 -2.8125 L 11.21875 -2.8125 C 11.320312 -2.8125 11.410156 -2.84375 11.484375 -2.90625 C 11.554688 -2.976562 11.59375 -3.066406 11.59375 -3.171875 Z M 11.59375 -3.171875 "/></g></g></g><g fill="#000000" fill-opacity="1"><g transform="translate(434.653398, 433.324478)"><g><path d="M 1.21875 -11.40625 L 4.421875 -11.40625 L 4.421875 -6.96875 L 12.90625 -6.96875 L 12.90625 -11.40625 L 16.09375 -11.40625 L 16.09375 0 L 12.90625 0 L 12.90625 -4.15625 L 4.421875 -4.15625 L 4.421875 0 L 1.21875 0 Z M 1.21875 -11.40625 "/></g></g></g><g fill="#000000" fill-opacity="1"><g transform="translate(451.960116, 433.324478)"><g><path d="M 12.96875 -3.78125 L 12.96875 -7.625 C 12.96875 -7.90625 12.875 -8.132812 12.6875 -8.3125 C 12.507812 -8.5 12.28125 -8.59375 12 -8.59375 L 5.1875 -8.59375 C 4.90625 -8.59375 4.671875 -8.5 4.484375 -8.3125 C 4.304688 -8.132812 4.21875 -7.90625 4.21875 -7.625 L 4.21875 -3.78125 C 4.21875 -3.5 4.304688 -3.265625 4.484375 -3.078125 C 4.671875 -2.898438 4.90625 -2.8125 5.1875 -2.8125 L 12 -2.8125 C 12.28125 -2.8125 12.507812 -2.898438 12.6875 -3.078125 C 12.875 -3.265625 12.96875 -3.5 12.96875 -3.78125 Z M 16.171875 -8.09375 L 16.171875 -3.3125 C 16.171875 -2.34375 15.84375 -1.546875 15.1875 -0.921875 C 14.5625 -0.304688 13.726562 0 12.6875 0 L 4.515625 0 C 3.492188 0 2.65625 -0.304688 2 -0.921875 C 1.351562 -1.546875 1.03125 -2.34375 1.03125 -3.3125 L 1.03125 -8.09375 C 1.03125 -9.0625 1.351562 -9.859375 2 -10.484375 C 2.65625 -11.097656 3.492188 -11.40625 4.515625 -11.40625 L 12.6875 -11.40625 C 13.726562 -11.40625 14.5625 -11.097656 15.1875 -10.484375 C 15.84375 -9.859375 16.171875 -9.0625 16.171875 -8.09375 Z M 16.171875 -8.09375 "/></g></g></g><g fill="#000000" fill-opacity="1"><g transform="translate(469.136585, 433.324478)"><g><path d="M 12.96875 -3.78125 L 12.96875 -7.625 C 12.96875 -7.90625 12.875 -8.132812 12.6875 -8.3125 C 12.507812 -8.5 12.28125 -8.59375 12 -8.59375 L 5.1875 -8.59375 C 4.90625 -8.59375 4.671875 -8.5 4.484375 -8.3125 C 4.304688 -8.132812 4.21875 -7.90625 4.21875 -7.625 L 4.21875 -3.78125 C 4.21875 -3.5 4.304688 -3.265625 4.484375 -3.078125 C 4.671875 -2.898438 4.90625 -2.8125 5.1875 -2.8125 L 12 -2.8125 C 12.28125 -2.8125 12.507812 -2.898438 12.6875 -3.078125 C 12.875 -3.265625 12.96875 -3.5 12.96875 -3.78125 Z M 16.171875 -8.09375 L 16.171875 -3.3125 C 16.171875 -2.34375 15.84375 -1.546875 15.1875 -0.921875 C 14.5625 -0.304688 13.726562 0 12.6875 0 L 4.515625 0 C 3.492188 0 2.65625 -0.304688 2 -0.921875 C 1.351562 -1.546875 1.03125 -2.34375 1.03125 -3.3125 L 1.03125 -8.09375 C 1.03125 -9.0625 1.351562 -9.859375 2 -10.484375 C 2.65625 -11.097656 3.492188 -11.40625 4.515625 -11.40625 L 12.6875 -11.40625 C 13.726562 -11.40625 14.5625 -11.097656 15.1875 -10.484375 C 15.84375 -9.859375 16.171875 -9.0625 16.171875 -8.09375 Z M 16.171875 -8.09375 "/></g></g></g><g clip-path="url(#16dce7bc66)"><g clip-path="url(#2f9727a87c)"><g transform="matrix(1, 0, 0, 1, 405, 680)"><g clip-path="url(#40b86a81d5)"><g clip-path="url(#05153da258)"><g clip-path="url(#2f6d2bf566)"><path fill="#e1c340" d="M 0 0.257812 L 250.039062 0.257812 L 250.039062 77.285156 L 0 77.285156 Z M 0 0.257812 " fill-opacity="1" fill-rule="nonzero"/></g></g></g></g></g></g><g fill="#000000" fill-opacity="1"><g transform="translate(496.712499, 714.524537)"><g><path d="M 5.578125 0 L 1.546875 0 L 1.546875 -14.421875 L 15.546875 -14.421875 C 16.953125 -14.421875 18.117188 -13.976562 19.046875 -13.09375 C 19.960938 -12.207031 20.421875 -11.070312 20.421875 -9.6875 L 20.421875 -9.296875 C 20.421875 -8.222656 20.09375 -7.28125 19.4375 -6.46875 C 18.78125 -5.65625 17.90625 -5.09375 16.8125 -4.78125 L 20.671875 0 L 16.09375 0 L 12.546875 -4.546875 L 5.578125 -4.546875 Z M 15.03125 -10.859375 L 5.578125 -10.859375 L 5.578125 -8 L 15.046875 -8 C 15.453125 -8 15.773438 -8.109375 16.015625 -8.328125 C 16.265625 -8.554688 16.390625 -8.863281 16.390625 -9.25 L 16.390625 -9.609375 C 16.390625 -9.992188 16.265625 -10.296875 16.015625 -10.515625 C 15.765625 -10.742188 15.4375 -10.859375 15.03125 -10.859375 Z M 15.03125 -10.859375 "/></g></g></g><g fill="#000000" fill-opacity="1"><g transform="translate(517.925079, 714.524537)"><g><path d="M 1.546875 -14.421875 L 15.59375 -14.421875 C 16.945312 -14.421875 18.085938 -13.957031 19.015625 -13.03125 C 19.953125 -12.09375 20.421875 -10.960938 20.421875 -9.640625 L 20.421875 -9.21875 C 20.421875 -7.851562 19.992188 -6.722656 19.140625 -5.828125 C 18.304688 -4.960938 17.21875 -4.53125 15.875 -4.53125 L 5.578125 -4.53125 L 5.578125 0 L 1.546875 0 Z M 14.984375 -10.859375 L 5.578125 -10.859375 L 5.578125 -7.96875 L 15 -7.96875 C 15.414062 -7.96875 15.75 -8.082031 16 -8.3125 C 16.257812 -8.539062 16.390625 -8.832031 16.390625 -9.1875 L 16.390625 -9.625 C 16.390625 -9.976562 16.253906 -10.269531 15.984375 -10.5 C 15.722656 -10.738281 15.390625 -10.859375 14.984375 -10.859375 Z M 14.984375 -10.859375 "/></g></g></g><g fill="#000000" fill-opacity="1"><g transform="translate(538.910903, 714.524537)"><g><path d="M 13.5625 0 L 10.796875 0 L 5.578125 -8.375 L 5.578125 0 L 1.546875 0 L 1.546875 -14.421875 L 6.078125 -14.421875 L 12.1875 -4.53125 L 18.28125 -14.421875 L 22.8125 -14.421875 L 22.8125 0 L 18.78125 0 L 18.78125 -8.375 Z M 13.5625 0 "/></g></g></g><g fill="#000000" fill-opacity="1"><g transform="translate(444.121286, 737.76306)"><g><path d="M 3.46875 -11.40625 L 5.4375 -11.40625 L 5.4375 0 L 2.25 0 L 2.25 -8.234375 L 0.484375 -7.75 L 0.484375 -10.59375 Z M 3.46875 -11.40625 "/></g></g></g><g fill="#000000" fill-opacity="1"><g transform="translate(450.812786, 737.76306)"><g><path d="M 3.890625 -11.40625 L 11.109375 -11.40625 C 12.128906 -11.40625 12.96875 -11.097656 13.625 -10.484375 C 14.28125 -9.859375 14.609375 -9.0625 14.609375 -8.09375 L 14.609375 -3.3125 C 14.609375 -2.34375 14.28125 -1.546875 13.625 -0.921875 C 12.96875 -0.304688 12.128906 0 11.109375 0 L 1.3125 0 L 1.3125 -2.8125 L 10.453125 -2.8125 C 10.722656 -2.8125 10.945312 -2.898438 11.125 -3.078125 C 11.3125 -3.265625 11.40625 -3.5 11.40625 -3.78125 L 11.40625 -4.4375 L 3.90625 -4.4375 C 2.863281 -4.4375 2.070312 -4.671875 1.53125 -5.140625 C 0.988281 -5.617188 0.71875 -6.320312 0.71875 -7.25 L 0.71875 -8.203125 C 0.71875 -9.191406 1 -9.972656 1.5625 -10.546875 C 2.132812 -11.117188 2.910156 -11.40625 3.890625 -11.40625 Z M 3.90625 -8.234375 L 3.90625 -7.234375 C 3.90625 -7.128906 3.941406 -7.039062 4.015625 -6.96875 C 4.085938 -6.90625 4.175781 -6.875 4.28125 -6.875 L 11.40625 -6.875 L 11.40625 -8.234375 C 11.40625 -8.335938 11.367188 -8.421875 11.296875 -8.484375 C 11.234375 -8.554688 11.144531 -8.59375 11.03125 -8.59375 L 4.28125 -8.59375 C 4.175781 -8.59375 4.085938 -8.554688 4.015625 -8.484375 C 3.941406 -8.421875 3.90625 -8.335938 3.90625 -8.234375 Z M 3.90625 -8.234375 "/></g></g></g><g fill="#000000" fill-opacity="1"><g transform="translate(466.426283, 737.76306)"><g><path d="M 1.21875 -11.40625 L 4.421875 -11.40625 L 4.421875 -6.96875 L 12.90625 -6.96875 L 12.90625 -11.40625 L 16.09375 -11.40625 L 16.09375 0 L 12.90625 0 L 12.90625 -4.15625 L 4.421875 -4.15625 L 4.421875 0 L 1.21875 0 Z M 1.21875 -11.40625 "/></g></g></g><g fill="#000000" fill-opacity="1"><g transform="translate(483.733001, 737.76306)"><g><path d="M 12.96875 -3.78125 L 12.96875 -7.625 C 12.96875 -7.90625 12.875 -8.132812 12.6875 -8.3125 C 12.507812 -8.5 12.28125 -8.59375 12 -8.59375 L 5.1875 -8.59375 C 4.90625 -8.59375 4.671875 -8.5 4.484375 -8.3125 C 4.304688 -8.132812 4.21875 -7.90625 4.21875 -7.625 L 4.21875 -3.78125 C 4.21875 -3.5 4.304688 -3.265625 4.484375 -3.078125 C 4.671875 -2.898438 4.90625 -2.8125 5.1875 -2.8125 L 12 -2.8125 C 12.28125 -2.8125 12.507812 -2.898438 12.6875 -3.078125 C 12.875 -3.265625 12.96875 -3.5 12.96875 -3.78125 Z M 16.171875 -8.09375 L 16.171875 -3.3125 C 16.171875 -2.34375 15.84375 -1.546875 15.1875 -0.921875 C 14.5625 -0.304688 13.726562 0 12.6875 0 L 4.515625 0 C 3.492188 0 2.65625 -0.304688 2 -0.921875 C 1.351562 -1.546875 1.03125 -2.34375 1.03125 -3.3125 L 1.03125 -8.09375 C 1.03125 -9.0625 1.351562 -9.859375 2 -10.484375 C 2.65625 -11.097656 3.492188 -11.40625 4.515625 -11.40625 L 12.6875 -11.40625 C 13.726562 -11.40625 14.5625 -11.097656 15.1875 -10.484375 C 15.84375 -9.859375 16.171875 -9.0625 16.171875 -8.09375 Z M 16.171875 -8.09375 "/></g></g></g><g fill="#000000" fill-opacity="1"><g transform="translate(500.90947, 737.76306)"><g><path d="M 12.96875 -3.78125 L 12.96875 -7.625 C 12.96875 -7.90625 12.875 -8.132812 12.6875 -8.3125 C 12.507812 -8.5 12.28125 -8.59375 12 -8.59375 L 5.1875 -8.59375 C 4.90625 -8.59375 4.671875 -8.5 4.484375 -8.3125 C 4.304688 -8.132812 4.21875 -7.90625 4.21875 -7.625 L 4.21875 -3.78125 C 4.21875 -3.5 4.304688 -3.265625 4.484375 -3.078125 C 4.671875 -2.898438 4.90625 -2.8125 5.1875 -2.8125 L 12 -2.8125 C 12.28125 -2.8125 12.507812 -2.898438 12.6875 -3.078125 C 12.875 -3.265625 12.96875 -3.5 12.96875 -3.78125 Z M 16.171875 -8.09375 L 16.171875 -3.3125 C 16.171875 -2.34375 15.84375 -1.546875 15.1875 -0.921875 C 14.5625 -0.304688 13.726562 0 12.6875 0 L 4.515625 0 C 3.492188 0 2.65625 -0.304688 2 -0.921875 C 1.351562 -1.546875 1.03125 -2.34375 1.03125 -3.3125 L 1.03125 -8.09375 C 1.03125 -9.0625 1.351562 -9.859375 2 -10.484375 C 2.65625 -11.097656 3.492188 -11.40625 4.515625 -11.40625 L 12.6875 -11.40625 C 13.726562 -11.40625 14.5625 -11.097656 15.1875 -10.484375 C 15.84375 -9.859375 16.171875 -9.0625 16.171875 -8.09375 Z M 16.171875 -8.09375 "/></g></g></g><g fill="#000000" fill-opacity="1"><g transform="translate(518.085938, 737.76306)"><g/></g></g><g fill="#000000" fill-opacity="1"><g transform="translate(526.633474, 737.76306)"><g><path d="M 9.453125 -6.84375 L 9.453125 -4.921875 L 1.015625 -4.921875 L 1.015625 -6.84375 Z M 9.453125 -6.84375 "/></g></g></g><g fill="#000000" fill-opacity="1"><g transform="translate(537.085889, 737.76306)"><g/></g></g><g fill="#000000" fill-opacity="1"><g transform="translate(545.633425, 737.76306)"><g><path d="M 3.46875 -11.40625 L 5.4375 -11.40625 L 5.4375 0 L 2.25 0 L 2.25 -8.234375 L 0.484375 -7.75 L 0.484375 -10.59375 Z M 3.46875 -11.40625 "/></g></g></g><g fill="#000000" fill-opacity="1"><g transform="translate(552.324925, 737.76306)"><g><path d="M 3.890625 -11.40625 L 11.109375 -11.40625 C 12.128906 -11.40625 12.96875 -11.097656 13.625 -10.484375 C 14.28125 -9.859375 14.609375 -9.0625 14.609375 -8.09375 L 14.609375 -3.3125 C 14.609375 -2.34375 14.28125 -1.546875 13.625 -0.921875 C 12.96875 -0.304688 12.128906 0 11.109375 0 L 1.3125 0 L 1.3125 -2.8125 L 10.453125 -2.8125 C 10.722656 -2.8125 10.945312 -2.898438 11.125 -3.078125 C 11.3125 -3.265625 11.40625 -3.5 11.40625 -3.78125 L 11.40625 -4.4375 L 3.90625 -4.4375 C 2.863281 -4.4375 2.070312 -4.671875 1.53125 -5.140625 C 0.988281 -5.617188 0.71875 -6.320312 0.71875 -7.25 L 0.71875 -8.203125 C 0.71875 -9.191406 1 -9.972656 1.5625 -10.546875 C 2.132812 -11.117188 2.910156 -11.40625 3.890625 -11.40625 Z M 3.90625 -8.234375 L 3.90625 -7.234375 C 3.90625 -7.128906 3.941406 -7.039062 4.015625 -6.96875 C 4.085938 -6.90625 4.175781 -6.875 4.28125 -6.875 L 11.40625 -6.875 L 11.40625 -8.234375 C 11.40625 -8.335938 11.367188 -8.421875 11.296875 -8.484375 C 11.234375 -8.554688 11.144531 -8.59375 11.03125 -8.59375 L 4.28125 -8.59375 C 4.175781 -8.59375 4.085938 -8.554688 4.015625 -8.484375 C 3.941406 -8.421875 3.90625 -8.335938 3.90625 -8.234375 Z M 3.90625 -8.234375 "/></g></g></g><g fill="#000000" fill-opacity="1"><g transform="translate(567.938422, 737.76306)"><g><path d="M 1.21875 -11.40625 L 4.421875 -11.40625 L 4.421875 -6.96875 L 12.90625 -6.96875 L 12.90625 -11.40625 L 16.09375 -11.40625 L 16.09375 0 L 12.90625 0 L 12.90625 -4.15625 L 4.421875 -4.15625 L 4.421875 0 L 1.21875 0 Z M 1.21875 -11.40625 "/></g></g></g><g fill="#000000" fill-opacity="1"><g transform="translate(585.24514, 737.76306)"><g><path d="M 0.53125 -1.890625 L 0.53125 -5.796875 L 9.15625 -11.40625 L 13.390625 -11.40625 L 13.390625 -4.5 L 14.84375 -4.5 L 14.84375 -1.890625 L 13.390625 -1.890625 L 13.390625 0 L 10.203125 0 L 10.203125 -1.890625 Z M 3.546875 -4.59375 L 3.546875 -4.5 L 10.203125 -4.5 L 10.203125 -8.59375 L 10.078125 -8.59375 Z M 3.546875 -4.59375 "/></g></g></g><g fill="#000000" fill-opacity="1"><g transform="translate(600.614415, 737.76306)"><g><path d="M 11.109375 0 L 1.078125 0 L 1.078125 -2.8125 L 10.984375 -2.8125 C 11.085938 -2.8125 11.175781 -2.84375 11.25 -2.90625 C 11.320312 -2.976562 11.359375 -3.066406 11.359375 -3.171875 L 11.359375 -4.109375 C 11.359375 -4.210938 11.320312 -4.296875 11.25 -4.359375 C 11.175781 -4.429688 11.085938 -4.46875 10.984375 -4.46875 L 1.125 -4.46875 L 1.125 -11.40625 L 13.84375 -11.40625 L 13.84375 -8.59375 L 4.3125 -8.59375 L 4.3125 -7.15625 L 11.109375 -7.15625 C 12.203125 -7.15625 13.046875 -6.898438 13.640625 -6.390625 C 14.242188 -5.878906 14.546875 -5.15625 14.546875 -4.21875 L 14.546875 -2.859375 C 14.546875 -1.929688 14.253906 -1.222656 13.671875 -0.734375 C 13.085938 -0.242188 12.234375 0 11.109375 0 Z M 11.109375 0 "/></g></g></g><g clip-path="url(#a43002af25)"><g clip-path="url(#5e854de68a)"><g transform="matrix(1, 0, 0, 1, 154, 804)"><g clip-path="url(#f2651f581b)"><g clip-path="url(#b8f0af5c81)"><g clip-path="url(#e810c10b77)"><path fill="#e1c340" d="M 0.988281 0.511719 L 501.066406 0.511719 L 501.066406 77.539062 L 0.988281 77.539062 Z M 0.988281 0.511719 " fill-opacity="1" fill-rule="nonzero"/></g></g></g></g></g></g><g fill="#000000" fill-opacity="1"><g transform="translate(372.848436, 838.779352)"><g><path d="M 1.546875 -14.421875 L 15.59375 -14.421875 C 16.945312 -14.421875 18.085938 -13.957031 19.015625 -13.03125 C 19.953125 -12.09375 20.421875 -10.960938 20.421875 -9.640625 L 20.421875 -9.21875 C 20.421875 -7.851562 19.992188 -6.722656 19.140625 -5.828125 C 18.304688 -4.960938 17.21875 -4.53125 15.875 -4.53125 L 5.578125 -4.53125 L 5.578125 0 L 1.546875 0 Z M 14.984375 -10.859375 L 5.578125 -10.859375 L 5.578125 -7.96875 L 15 -7.96875 C 15.414062 -7.96875 15.75 -8.082031 16 -8.3125 C 16.257812 -8.539062 16.390625 -8.832031 16.390625 -9.1875 L 16.390625 -9.625 C 16.390625 -9.976562 16.253906 -10.269531 15.984375 -10.5 C 15.722656 -10.738281 15.390625 -10.859375 14.984375 -10.859375 Z M 14.984375 -10.859375 "/></g></g></g><g fill="#000000" fill-opacity="1"><g transform="translate(393.83426, 838.779352)"><g><path d="M 1.546875 -14.421875 L 15.59375 -14.421875 C 16.945312 -14.421875 18.085938 -13.957031 19.015625 -13.03125 C 19.953125 -12.09375 20.421875 -10.960938 20.421875 -9.640625 L 20.421875 -9.21875 C 20.421875 -7.851562 19.992188 -6.722656 19.140625 -5.828125 C 18.304688 -4.960938 17.21875 -4.53125 15.875 -4.53125 L 5.578125 -4.53125 L 5.578125 0 L 1.546875 0 Z M 14.984375 -10.859375 L 5.578125 -10.859375 L 5.578125 -7.96875 L 15 -7.96875 C 15.414062 -7.96875 15.75 -8.082031 16 -8.3125 C 16.257812 -8.539062 16.390625 -8.832031 16.390625 -9.1875 L 16.390625 -9.625 C 16.390625 -9.976562 16.253906 -10.269531 15.984375 -10.5 C 15.722656 -10.738281 15.390625 -10.859375 14.984375 -10.859375 Z M 14.984375 -10.859375 "/></g></g></g><g fill="#000000" fill-opacity="1"><g transform="translate(414.820085, 838.779352)"><g><path d="M 17.203125 -0.578125 L 16.171875 0 L 5.609375 0 C 4.316406 0 3.257812 -0.390625 2.4375 -1.171875 C 1.613281 -1.953125 1.203125 -2.957031 1.203125 -4.1875 L 1.203125 -10.25 C 1.203125 -11.46875 1.613281 -12.46875 2.4375 -13.25 C 3.257812 -14.03125 4.316406 -14.421875 5.609375 -14.421875 L 20.71875 -14.421875 L 20.71875 -10.859375 L 6.453125 -10.859375 C 6.109375 -10.859375 5.816406 -10.742188 5.578125 -10.515625 C 5.347656 -10.296875 5.234375 -10.003906 5.234375 -9.640625 L 5.234375 -4.78125 C 5.234375 -4.425781 5.347656 -4.132812 5.578125 -3.90625 C 5.816406 -3.675781 6.109375 -3.5625 6.453125 -3.5625 L 17.1875 -3.5625 L 17.1875 -5.578125 L 7.1875 -5.578125 L 7.1875 -8.828125 L 21.046875 -8.828125 L 21.046875 0 L 17.625 0 Z M 17.203125 -0.578125 "/></g></g></g><g fill="#000000" fill-opacity="1"><g transform="translate(309.036203, 862.017875)"><g><path d="M 14.203125 0 L 0.90625 0 L 0.90625 -4.09375 C 0.90625 -5.007812 1.203125 -5.726562 1.796875 -6.25 C 2.398438 -6.769531 3.242188 -7.03125 4.328125 -7.03125 L 10.75 -7.03125 C 10.863281 -7.03125 10.953125 -7.0625 11.015625 -7.125 C 11.085938 -7.1875 11.125 -7.269531 11.125 -7.375 L 11.125 -8.234375 C 11.125 -8.335938 11.085938 -8.421875 11.015625 -8.484375 C 10.953125 -8.554688 10.863281 -8.59375 10.75 -8.59375 L 1.265625 -8.59375 L 1.265625 -11.40625 L 10.890625 -11.40625 C 11.984375 -11.40625 12.828125 -11.148438 13.421875 -10.640625 C 14.023438 -10.128906 14.328125 -9.410156 14.328125 -8.484375 L 14.328125 -7.1875 C 14.328125 -6.257812 14.03125 -5.550781 13.4375 -5.0625 C 12.851562 -4.570312 12.003906 -4.328125 10.890625 -4.328125 L 4.46875 -4.328125 C 4.351562 -4.328125 4.257812 -4.296875 4.1875 -4.234375 C 4.125 -4.171875 4.09375 -4.082031 4.09375 -3.96875 L 4.09375 -2.8125 L 14.203125 -2.8125 Z M 14.203125 0 "/></g></g></g><g fill="#000000" fill-opacity="1"><g transform="translate(324.242674, 862.017875)"><g><path d="M 12.96875 -3.78125 L 12.96875 -7.625 C 12.96875 -7.90625 12.875 -8.132812 12.6875 -8.3125 C 12.507812 -8.5 12.28125 -8.59375 12 -8.59375 L 5.1875 -8.59375 C 4.90625 -8.59375 4.671875 -8.5 4.484375 -8.3125 C 4.304688 -8.132812 4.21875 -7.90625 4.21875 -7.625 L 4.21875 -3.78125 C 4.21875 -3.5 4.304688 -3.265625 4.484375 -3.078125 C 4.671875 -2.898438 4.90625 -2.8125 5.1875 -2.8125 L 12 -2.8125 C 12.28125 -2.8125 12.507812 -2.898438 12.6875 -3.078125 C 12.875 -3.265625 12.96875 -3.5 12.96875 -3.78125 Z M 16.171875 -8.09375 L 16.171875 -3.3125 C 16.171875 -2.34375 15.84375 -1.546875 15.1875 -0.921875 C 14.5625 -0.304688 13.726562 0 12.6875 0 L 4.515625 0 C 3.492188 0 2.65625 -0.304688 2 -0.921875 C 1.351562 -1.546875 1.03125 -2.34375 1.03125 -3.3125 L 1.03125 -8.09375 C 1.03125 -9.0625 1.351562 -9.859375 2 -10.484375 C 2.65625 -11.097656 3.492188 -11.40625 4.515625 -11.40625 L 12.6875 -11.40625 C 13.726562 -11.40625 14.5625 -11.097656 15.1875 -10.484375 C 15.84375 -9.859375 16.171875 -9.0625 16.171875 -8.09375 Z M 16.171875 -8.09375 "/></g></g></g><g fill="#000000" fill-opacity="1"><g transform="translate(341.419142, 862.017875)"><g><path d="M 1.21875 -11.40625 L 4.421875 -11.40625 L 4.421875 -6.96875 L 12.90625 -6.96875 L 12.90625 -11.40625 L 16.09375 -11.40625 L 16.09375 0 L 12.90625 0 L 12.90625 -4.15625 L 4.421875 -4.15625 L 4.421875 0 L 1.21875 0 Z M 1.21875 -11.40625 "/></g></g></g><g fill="#000000" fill-opacity="1"><g transform="translate(358.72586, 862.017875)"><g><path d="M 12.96875 -3.78125 L 12.96875 -7.625 C 12.96875 -7.90625 12.875 -8.132812 12.6875 -8.3125 C 12.507812 -8.5 12.28125 -8.59375 12 -8.59375 L 5.1875 -8.59375 C 4.90625 -8.59375 4.671875 -8.5 4.484375 -8.3125 C 4.304688 -8.132812 4.21875 -7.90625 4.21875 -7.625 L 4.21875 -3.78125 C 4.21875 -3.5 4.304688 -3.265625 4.484375 -3.078125 C 4.671875 -2.898438 4.90625 -2.8125 5.1875 -2.8125 L 12 -2.8125 C 12.28125 -2.8125 12.507812 -2.898438 12.6875 -3.078125 C 12.875 -3.265625 12.96875 -3.5 12.96875 -3.78125 Z M 16.171875 -8.09375 L 16.171875 -3.3125 C 16.171875 -2.34375 15.84375 -1.546875 15.1875 -0.921875 C 14.5625 -0.304688 13.726562 0 12.6875 0 L 4.515625 0 C 3.492188 0 2.65625 -0.304688 2 -0.921875 C 1.351562 -1.546875 1.03125 -2.34375 1.03125 -3.3125 L 1.03125 -8.09375 C 1.03125 -9.0625 1.351562 -9.859375 2 -10.484375 C 2.65625 -11.097656 3.492188 -11.40625 4.515625 -11.40625 L 12.6875 -11.40625 C 13.726562 -11.40625 14.5625 -11.097656 15.1875 -10.484375 C 15.84375 -9.859375 16.171875 -9.0625 16.171875 -8.09375 Z M 16.171875 -8.09375 "/></g></g></g><g fill="#000000" fill-opacity="1"><g transform="translate(375.902329, 862.017875)"><g><path d="M 12.96875 -3.78125 L 12.96875 -7.625 C 12.96875 -7.90625 12.875 -8.132812 12.6875 -8.3125 C 12.507812 -8.5 12.28125 -8.59375 12 -8.59375 L 5.1875 -8.59375 C 4.90625 -8.59375 4.671875 -8.5 4.484375 -8.3125 C 4.304688 -8.132812 4.21875 -7.90625 4.21875 -7.625 L 4.21875 -3.78125 C 4.21875 -3.5 4.304688 -3.265625 4.484375 -3.078125 C 4.671875 -2.898438 4.90625 -2.8125 5.1875 -2.8125 L 12 -2.8125 C 12.28125 -2.8125 12.507812 -2.898438 12.6875 -3.078125 C 12.875 -3.265625 12.96875 -3.5 12.96875 -3.78125 Z M 16.171875 -8.09375 L 16.171875 -3.3125 C 16.171875 -2.34375 15.84375 -1.546875 15.1875 -0.921875 C 14.5625 -0.304688 13.726562 0 12.6875 0 L 4.515625 0 C 3.492188 0 2.65625 -0.304688 2 -0.921875 C 1.351562 -1.546875 1.03125 -2.34375 1.03125 -3.3125 L 1.03125 -8.09375 C 1.03125 -9.0625 1.351562 -9.859375 2 -10.484375 C 2.65625 -11.097656 3.492188 -11.40625 4.515625 -11.40625 L 12.6875 -11.40625 C 13.726562 -11.40625 14.5625 -11.097656 15.1875 -10.484375 C 15.84375 -9.859375 16.171875 -9.0625 16.171875 -8.09375 Z M 16.171875 -8.09375 "/></g></g></g><g fill="#000000" fill-opacity="1"><g transform="translate(393.078797, 862.017875)"><g/></g></g><g fill="#000000" fill-opacity="1"><g transform="translate(401.626333, 862.017875)"><g><path d="M 9.453125 -6.84375 L 9.453125 -4.921875 L 1.015625 -4.921875 L 1.015625 -6.84375 Z M 9.453125 -6.84375 "/></g></g></g><g fill="#000000" fill-opacity="1"><g transform="translate(412.078748, 862.017875)"><g/></g></g><g fill="#000000" fill-opacity="1"><g transform="translate(420.626284, 862.017875)"><g><path d="M 14.203125 0 L 0.90625 0 L 0.90625 -4.09375 C 0.90625 -5.007812 1.203125 -5.726562 1.796875 -6.25 C 2.398438 -6.769531 3.242188 -7.03125 4.328125 -7.03125 L 10.75 -7.03125 C 10.863281 -7.03125 10.953125 -7.0625 11.015625 -7.125 C 11.085938 -7.1875 11.125 -7.269531 11.125 -7.375 L 11.125 -8.234375 C 11.125 -8.335938 11.085938 -8.421875 11.015625 -8.484375 C 10.953125 -8.554688 10.863281 -8.59375 10.75 -8.59375 L 1.265625 -8.59375 L 1.265625 -11.40625 L 10.890625 -11.40625 C 11.984375 -11.40625 12.828125 -11.148438 13.421875 -10.640625 C 14.023438 -10.128906 14.328125 -9.410156 14.328125 -8.484375 L 14.328125 -7.1875 C 14.328125 -6.257812 14.03125 -5.550781 13.4375 -5.0625 C 12.851562 -4.570312 12.003906 -4.328125 10.890625 -4.328125 L 4.46875 -4.328125 C 4.351562 -4.328125 4.257812 -4.296875 4.1875 -4.234375 C 4.125 -4.171875 4.09375 -4.082031 4.09375 -3.96875 L 4.09375 -2.8125 L 14.203125 -2.8125 Z M 14.203125 0 "/></g></g></g><g fill="#000000" fill-opacity="1"><g transform="translate(435.832755, 862.017875)"><g><path d="M 12.96875 -3.78125 L 12.96875 -7.625 C 12.96875 -7.90625 12.875 -8.132812 12.6875 -8.3125 C 12.507812 -8.5 12.28125 -8.59375 12 -8.59375 L 5.1875 -8.59375 C 4.90625 -8.59375 4.671875 -8.5 4.484375 -8.3125 C 4.304688 -8.132812 4.21875 -7.90625 4.21875 -7.625 L 4.21875 -3.78125 C 4.21875 -3.5 4.304688 -3.265625 4.484375 -3.078125 C 4.671875 -2.898438 4.90625 -2.8125 5.1875 -2.8125 L 12 -2.8125 C 12.28125 -2.8125 12.507812 -2.898438 12.6875 -3.078125 C 12.875 -3.265625 12.96875 -3.5 12.96875 -3.78125 Z M 16.171875 -8.09375 L 16.171875 -3.3125 C 16.171875 -2.34375 15.84375 -1.546875 15.1875 -0.921875 C 14.5625 -0.304688 13.726562 0 12.6875 0 L 4.515625 0 C 3.492188 0 2.65625 -0.304688 2 -0.921875 C 1.351562 -1.546875 1.03125 -2.34375 1.03125 -3.3125 L 1.03125 -8.09375 C 1.03125 -9.0625 1.351562 -9.859375 2 -10.484375 C 2.65625 -11.097656 3.492188 -11.40625 4.515625 -11.40625 L 12.6875 -11.40625 C 13.726562 -11.40625 14.5625 -11.097656 15.1875 -10.484375 C 15.84375 -9.859375 16.171875 -9.0625 16.171875 -8.09375 Z M 16.171875 -8.09375 "/></g></g></g><g fill="#000000" fill-opacity="1"><g transform="translate(453.009223, 862.017875)"><g><path d="M 1.21875 -11.40625 L 4.421875 -11.40625 L 4.421875 -6.96875 L 12.90625 -6.96875 L 12.90625 -11.40625 L 16.09375 -11.40625 L 16.09375 0 L 12.90625 0 L 12.90625 -4.15625 L 4.421875 -4.15625 L 4.421875 0 L 1.21875 0 Z M 1.21875 -11.40625 "/></g></g></g><g fill="#000000" fill-opacity="1"><g transform="translate(470.315941, 862.017875)"><g><path d="M 0.53125 -1.890625 L 0.53125 -5.796875 L 9.15625 -11.40625 L 13.390625 -11.40625 L 13.390625 -4.5 L 14.84375 -4.5 L 14.84375 -1.890625 L 13.390625 -1.890625 L 13.390625 0 L 10.203125 0 L 10.203125 -1.890625 Z M 3.546875 -4.59375 L 3.546875 -4.5 L 10.203125 -4.5 L 10.203125 -8.59375 L 10.078125 -8.59375 Z M 3.546875 -4.59375 "/></g></g></g><g fill="#000000" fill-opacity="1"><g transform="translate(485.685216, 862.017875)"><g><path d="M 11.109375 0 L 1.078125 0 L 1.078125 -2.8125 L 10.984375 -2.8125 C 11.085938 -2.8125 11.175781 -2.84375 11.25 -2.90625 C 11.320312 -2.976562 11.359375 -3.066406 11.359375 -3.171875 L 11.359375 -4.109375 C 11.359375 -4.210938 11.320312 -4.296875 11.25 -4.359375 C 11.175781 -4.429688 11.085938 -4.46875 10.984375 -4.46875 L 1.125 -4.46875 L 1.125 -11.40625 L 13.84375 -11.40625 L 13.84375 -8.59375 L 4.3125 -8.59375 L 4.3125 -7.15625 L 11.109375 -7.15625 C 12.203125 -7.15625 13.046875 -6.898438 13.640625 -6.390625 C 14.242188 -5.878906 14.546875 -5.15625 14.546875 -4.21875 L 14.546875 -2.859375 C 14.546875 -1.929688 14.253906 -1.222656 13.671875 -0.734375 C 13.085938 -0.242188 12.234375 0 11.109375 0 Z M 11.109375 0 "/></g></g></g><g clip-path="url(#e73e76e86d)"><path stroke-linecap="butt" transform="matrix(0.74963, 0, 0, 0.74963, 0.199913, 500.32106)" fill="none" stroke-linejoin="miter" d="M -0.000926494 3.000484 L 1080.000971 3.000484 " stroke="#ffffff" stroke-width="6" stroke-opacity="1" stroke-miterlimit="4"/></g><g fill="#ffffff" fill-opacity="1"><g transform="translate(270.002206, 72.472079)"><g><path d="M 23.078125 0 L 18.375 0 L 9.5 -14.234375 L 9.5 0 L 2.625 0 L 2.625 -24.546875 L 10.34375 -24.546875 L 20.71875 -7.71875 L 31.09375 -24.546875 L 38.8125 -24.546875 L 38.8125 0 L 31.9375 0 L 31.9375 -14.234375 Z M 23.078125 0 "/></g></g></g><g fill="#ffffff" fill-opacity="1"><g transform="translate(311.439416, 72.472079)"><g><path d="M 32.21875 -15.21875 L 32.21875 -9.359375 L 9.5 -9.359375 L 9.5 -6.0625 L 33.140625 -6.0625 L 33.140625 0 L 2.625 0 L 2.625 -24.546875 L 33.0625 -24.546875 L 33.0625 -18.484375 L 9.5 -18.484375 L 9.5 -15.21875 Z M 32.21875 -15.21875 "/></g></g></g><g fill="#ffffff" fill-opacity="1"><g transform="translate(346.531333, 72.472079)"><g><path d="M 9.5 0 L 2.625 0 L 2.625 -24.546875 L 26.4375 -24.546875 C 28.84375 -24.546875 30.828125 -23.785156 32.390625 -22.265625 C 33.960938 -20.765625 34.75 -18.835938 34.75 -16.484375 L 34.75 -15.8125 C 34.75 -13.988281 34.1875 -12.382812 33.0625 -11 C 31.9375 -9.625 30.453125 -8.671875 28.609375 -8.140625 L 35.171875 0 L 27.390625 0 L 21.359375 -7.75 L 9.5 -7.75 Z M 25.5625 -18.484375 L 9.5 -18.484375 L 9.5 -13.609375 L 25.59375 -13.609375 C 26.289062 -13.609375 26.84375 -13.800781 27.25 -14.1875 C 27.664062 -14.570312 27.875 -15.09375 27.875 -15.75 L 27.875 -16.34375 C 27.875 -17 27.660156 -17.519531 27.234375 -17.90625 C 26.816406 -18.289062 26.257812 -18.484375 25.5625 -18.484375 Z M 25.5625 -18.484375 "/></g></g></g><g fill="#ffffff" fill-opacity="1"><g transform="translate(382.60484, 72.472079)"><g><path d="M 10.96875 -6.0625 L 34.21875 -6.0625 L 34.21875 0 L 9.53125 0 C 7.332031 0 5.535156 -0.664062 4.140625 -2 C 2.734375 -3.332031 2.03125 -5.039062 2.03125 -7.125 L 2.03125 -17.421875 C 2.03125 -19.503906 2.734375 -21.210938 4.140625 -22.546875 C 5.535156 -23.878906 7.332031 -24.546875 9.53125 -24.546875 L 33.90625 -24.546875 L 33.90625 -18.484375 L 10.96875 -18.484375 C 10.382812 -18.484375 9.894531 -18.289062 9.5 -17.90625 C 9.101562 -17.519531 8.90625 -17.019531 8.90625 -16.40625 L 8.90625 -8.140625 C 8.90625 -7.523438 9.101562 -7.023438 9.5 -6.640625 C 9.894531 -6.253906 10.382812 -6.0625 10.96875 -6.0625 Z M 10.96875 -6.0625 "/></g></g></g><g fill="#ffffff" fill-opacity="1"><g transform="translate(418.187558, 72.472079)"><g><path d="M 9.5 0 L 2.625 0 L 2.625 -24.546875 L 26.4375 -24.546875 C 28.84375 -24.546875 30.828125 -23.785156 32.390625 -22.265625 C 33.960938 -20.765625 34.75 -18.835938 34.75 -16.484375 L 34.75 -15.8125 C 34.75 -13.988281 34.1875 -12.382812 33.0625 -11 C 31.9375 -9.625 30.453125 -8.671875 28.609375 -8.140625 L 35.171875 0 L 27.390625 0 L 21.359375 -7.75 L 9.5 -7.75 Z M 25.5625 -18.484375 L 9.5 -18.484375 L 9.5 -13.609375 L 25.59375 -13.609375 C 26.289062 -13.609375 26.84375 -13.800781 27.25 -14.1875 C 27.664062 -14.570312 27.875 -15.09375 27.875 -15.75 L 27.875 -16.34375 C 27.875 -17 27.660156 -17.519531 27.234375 -17.90625 C 26.816406 -18.289062 26.257812 -18.484375 25.5625 -18.484375 Z M 25.5625 -18.484375 "/></g></g></g><g fill="#ffffff" fill-opacity="1"><g transform="translate(454.261065, 72.472079)"><g><path d="M 32.21875 -15.21875 L 32.21875 -9.359375 L 9.5 -9.359375 L 9.5 -6.0625 L 33.140625 -6.0625 L 33.140625 0 L 2.625 0 L 2.625 -24.546875 L 33.0625 -24.546875 L 33.0625 -18.484375 L 9.5 -18.484375 L 9.5 -15.21875 Z M 32.21875 -15.21875 "/></g></g></g><g fill="#ffffff" fill-opacity="1"><g transform="translate(489.352982, 72.472079)"><g><path d="M 29 0 L 2.625 0 L 2.625 -24.546875 L 29 -24.546875 C 31.21875 -24.546875 33.003906 -23.878906 34.359375 -22.546875 C 35.765625 -21.210938 36.46875 -19.503906 36.46875 -17.421875 L 36.46875 -7.125 C 36.46875 -5.039062 35.765625 -3.332031 34.359375 -2 C 33.003906 -0.664062 31.21875 0 29 0 Z M 27.484375 -18.484375 L 9.5 -18.484375 L 9.5 -6.0625 L 27.484375 -6.0625 C 28.097656 -6.0625 28.601562 -6.253906 29 -6.640625 C 29.394531 -7.023438 29.59375 -7.523438 29.59375 -8.140625 L 29.59375 -16.40625 C 29.59375 -17.019531 29.394531 -17.519531 29 -17.90625 C 28.601562 -18.289062 28.097656 -18.484375 27.484375 -18.484375 Z M 27.484375 -18.484375 "/></g></g></g><g fill="#ffffff" fill-opacity="1"><g transform="translate(527.845422, 72.472079)"><g><path d="M 2.625 -24.546875 L 9.5 -24.546875 L 9.5 0 L 2.625 0 Z M 2.625 -24.546875 "/></g></g></g><g clip-path="url(#64f1a37942)"><g clip-path="url(#5e40cf3617)"><g transform="matrix(1, 0, 0, 1, 154, 680)"><g clip-path="url(#067c21dd3a)"><g clip-path="url(#3eca629c48)"><g clip-path="url(#16f52d9375)"><path fill="#e1c340" d="M 0.988281 0.257812 L 251.027344 0.257812 L 251.027344 77.285156 L 0.988281 77.285156 Z M 0.988281 0.257812 " fill-opacity="1" fill-rule="nonzero"/></g></g></g></g></g></g><g fill="#000000" fill-opacity="1"><g transform="translate(247.847674, 714.524537)"><g><path d="M 1.546875 -14.421875 L 15.59375 -14.421875 C 16.945312 -14.421875 18.085938 -13.957031 19.015625 -13.03125 C 19.953125 -12.09375 20.421875 -10.960938 20.421875 -9.640625 L 20.421875 -9.21875 C 20.421875 -7.851562 19.992188 -6.722656 19.140625 -5.828125 C 18.304688 -4.960938 17.21875 -4.53125 15.875 -4.53125 L 5.578125 -4.53125 L 5.578125 0 L 1.546875 0 Z M 14.984375 -10.859375 L 5.578125 -10.859375 L 5.578125 -7.96875 L 15 -7.96875 C 15.414062 -7.96875 15.75 -8.082031 16 -8.3125 C 16.257812 -8.539062 16.390625 -8.832031 16.390625 -9.1875 L 16.390625 -9.625 C 16.390625 -9.976562 16.253906 -10.269531 15.984375 -10.5 C 15.722656 -10.738281 15.390625 -10.859375 14.984375 -10.859375 Z M 14.984375 -10.859375 "/></g></g></g><g fill="#000000" fill-opacity="1"><g transform="translate(268.833498, 714.524537)"><g><path d="M 1.546875 -14.421875 L 15.59375 -14.421875 C 16.945312 -14.421875 18.085938 -13.957031 19.015625 -13.03125 C 19.953125 -12.09375 20.421875 -10.960938 20.421875 -9.640625 L 20.421875 -9.21875 C 20.421875 -7.851562 19.992188 -6.722656 19.140625 -5.828125 C 18.304688 -4.960938 17.21875 -4.53125 15.875 -4.53125 L 5.578125 -4.53125 L 5.578125 0 L 1.546875 0 Z M 14.984375 -10.859375 L 5.578125 -10.859375 L 5.578125 -7.96875 L 15 -7.96875 C 15.414062 -7.96875 15.75 -8.082031 16 -8.3125 C 16.257812 -8.539062 16.390625 -8.832031 16.390625 -9.1875 L 16.390625 -9.625 C 16.390625 -9.976562 16.253906 -10.269531 15.984375 -10.5 C 15.722656 -10.738281 15.390625 -10.859375 14.984375 -10.859375 Z M 14.984375 -10.859375 "/></g></g></g><g fill="#000000" fill-opacity="1"><g transform="translate(289.819322, 714.524537)"><g><path d="M 17.203125 -0.578125 L 16.171875 0 L 5.609375 0 C 4.316406 0 3.257812 -0.390625 2.4375 -1.171875 C 1.613281 -1.953125 1.203125 -2.957031 1.203125 -4.1875 L 1.203125 -10.25 C 1.203125 -11.46875 1.613281 -12.46875 2.4375 -13.25 C 3.257812 -14.03125 4.316406 -14.421875 5.609375 -14.421875 L 20.71875 -14.421875 L 20.71875 -10.859375 L 6.453125 -10.859375 C 6.109375 -10.859375 5.816406 -10.742188 5.578125 -10.515625 C 5.347656 -10.296875 5.234375 -10.003906 5.234375 -9.640625 L 5.234375 -4.78125 C 5.234375 -4.425781 5.347656 -4.132812 5.578125 -3.90625 C 5.816406 -3.675781 6.109375 -3.5625 6.453125 -3.5625 L 17.1875 -3.5625 L 17.1875 -5.578125 L 7.1875 -5.578125 L 7.1875 -8.828125 L 21.046875 -8.828125 L 21.046875 0 L 17.625 0 Z M 17.203125 -0.578125 "/></g></g></g><g fill="#000000" fill-opacity="1"><g transform="translate(194.10859, 737.76306)"><g><path d="M 3.46875 -11.40625 L 5.4375 -11.40625 L 5.4375 0 L 2.25 0 L 2.25 -8.234375 L 0.484375 -7.75 L 0.484375 -10.59375 Z M 3.46875 -11.40625 "/></g></g></g><g fill="#000000" fill-opacity="1"><g transform="translate(200.800091, 737.76306)"><g><path d="M 3.890625 -11.40625 L 11.109375 -11.40625 C 12.128906 -11.40625 12.96875 -11.097656 13.625 -10.484375 C 14.28125 -9.859375 14.609375 -9.0625 14.609375 -8.09375 L 14.609375 -3.3125 C 14.609375 -2.34375 14.28125 -1.546875 13.625 -0.921875 C 12.96875 -0.304688 12.128906 0 11.109375 0 L 1.3125 0 L 1.3125 -2.8125 L 10.453125 -2.8125 C 10.722656 -2.8125 10.945312 -2.898438 11.125 -3.078125 C 11.3125 -3.265625 11.40625 -3.5 11.40625 -3.78125 L 11.40625 -4.4375 L 3.90625 -4.4375 C 2.863281 -4.4375 2.070312 -4.671875 1.53125 -5.140625 C 0.988281 -5.617188 0.71875 -6.320312 0.71875 -7.25 L 0.71875 -8.203125 C 0.71875 -9.191406 1 -9.972656 1.5625 -10.546875 C 2.132812 -11.117188 2.910156 -11.40625 3.890625 -11.40625 Z M 3.90625 -8.234375 L 3.90625 -7.234375 C 3.90625 -7.128906 3.941406 -7.039062 4.015625 -6.96875 C 4.085938 -6.90625 4.175781 -6.875 4.28125 -6.875 L 11.40625 -6.875 L 11.40625 -8.234375 C 11.40625 -8.335938 11.367188 -8.421875 11.296875 -8.484375 C 11.234375 -8.554688 11.144531 -8.59375 11.03125 -8.59375 L 4.28125 -8.59375 C 4.175781 -8.59375 4.085938 -8.554688 4.015625 -8.484375 C 3.941406 -8.421875 3.90625 -8.335938 3.90625 -8.234375 Z M 3.90625 -8.234375 "/></g></g></g><g fill="#000000" fill-opacity="1"><g transform="translate(216.413588, 737.76306)"><g><path d="M 1.21875 -11.40625 L 4.421875 -11.40625 L 4.421875 -6.96875 L 12.90625 -6.96875 L 12.90625 -11.40625 L 16.09375 -11.40625 L 16.09375 0 L 12.90625 0 L 12.90625 -4.15625 L 4.421875 -4.15625 L 4.421875 0 L 1.21875 0 Z M 1.21875 -11.40625 "/></g></g></g><g fill="#000000" fill-opacity="1"><g transform="translate(233.720306, 737.76306)"><g><path d="M 12.96875 -3.78125 L 12.96875 -7.625 C 12.96875 -7.90625 12.875 -8.132812 12.6875 -8.3125 C 12.507812 -8.5 12.28125 -8.59375 12 -8.59375 L 5.1875 -8.59375 C 4.90625 -8.59375 4.671875 -8.5 4.484375 -8.3125 C 4.304688 -8.132812 4.21875 -7.90625 4.21875 -7.625 L 4.21875 -3.78125 C 4.21875 -3.5 4.304688 -3.265625 4.484375 -3.078125 C 4.671875 -2.898438 4.90625 -2.8125 5.1875 -2.8125 L 12 -2.8125 C 12.28125 -2.8125 12.507812 -2.898438 12.6875 -3.078125 C 12.875 -3.265625 12.96875 -3.5 12.96875 -3.78125 Z M 16.171875 -8.09375 L 16.171875 -3.3125 C 16.171875 -2.34375 15.84375 -1.546875 15.1875 -0.921875 C 14.5625 -0.304688 13.726562 0 12.6875 0 L 4.515625 0 C 3.492188 0 2.65625 -0.304688 2 -0.921875 C 1.351562 -1.546875 1.03125 -2.34375 1.03125 -3.3125 L 1.03125 -8.09375 C 1.03125 -9.0625 1.351562 -9.859375 2 -10.484375 C 2.65625 -11.097656 3.492188 -11.40625 4.515625 -11.40625 L 12.6875 -11.40625 C 13.726562 -11.40625 14.5625 -11.097656 15.1875 -10.484375 C 15.84375 -9.859375 16.171875 -9.0625 16.171875 -8.09375 Z M 16.171875 -8.09375 "/></g></g></g><g fill="#000000" fill-opacity="1"><g transform="translate(250.896774, 737.76306)"><g><path d="M 12.96875 -3.78125 L 12.96875 -7.625 C 12.96875 -7.90625 12.875 -8.132812 12.6875 -8.3125 C 12.507812 -8.5 12.28125 -8.59375 12 -8.59375 L 5.1875 -8.59375 C 4.90625 -8.59375 4.671875 -8.5 4.484375 -8.3125 C 4.304688 -8.132812 4.21875 -7.90625 4.21875 -7.625 L 4.21875 -3.78125 C 4.21875 -3.5 4.304688 -3.265625 4.484375 -3.078125 C 4.671875 -2.898438 4.90625 -2.8125 5.1875 -2.8125 L 12 -2.8125 C 12.28125 -2.8125 12.507812 -2.898438 12.6875 -3.078125 C 12.875 -3.265625 12.96875 -3.5 12.96875 -3.78125 Z M 16.171875 -8.09375 L 16.171875 -3.3125 C 16.171875 -2.34375 15.84375 -1.546875 15.1875 -0.921875 C 14.5625 -0.304688 13.726562 0 12.6875 0 L 4.515625 0 C 3.492188 0 2.65625 -0.304688 2 -0.921875 C 1.351562 -1.546875 1.03125 -2.34375 1.03125 -3.3125 L 1.03125 -8.09375 C 1.03125 -9.0625 1.351562 -9.859375 2 -10.484375 C 2.65625 -11.097656 3.492188 -11.40625 4.515625 -11.40625 L 12.6875 -11.40625 C 13.726562 -11.40625 14.5625 -11.097656 15.1875 -10.484375 C 15.84375 -9.859375 16.171875 -9.0625 16.171875 -8.09375 Z M 16.171875 -8.09375 "/></g></g></g><g fill="#000000" fill-opacity="1"><g transform="translate(268.073242, 737.76306)"><g/></g></g><g fill="#000000" fill-opacity="1"><g transform="translate(276.620778, 737.76306)"><g><path d="M 9.453125 -6.84375 L 9.453125 -4.921875 L 1.015625 -4.921875 L 1.015625 -6.84375 Z M 9.453125 -6.84375 "/></g></g></g><g fill="#000000" fill-opacity="1"><g transform="translate(287.073193, 737.76306)"><g/></g></g><g fill="#000000" fill-opacity="1"><g transform="translate(295.620729, 737.76306)"><g><path d="M 3.46875 -11.40625 L 5.4375 -11.40625 L 5.4375 0 L 2.25 0 L 2.25 -8.234375 L 0.484375 -7.75 L 0.484375 -10.59375 Z M 3.46875 -11.40625 "/></g></g></g><g fill="#000000" fill-opacity="1"><g transform="translate(302.312229, 737.76306)"><g><path d="M 3.890625 -11.40625 L 11.109375 -11.40625 C 12.128906 -11.40625 12.96875 -11.097656 13.625 -10.484375 C 14.28125 -9.859375 14.609375 -9.0625 14.609375 -8.09375 L 14.609375 -3.3125 C 14.609375 -2.34375 14.28125 -1.546875 13.625 -0.921875 C 12.96875 -0.304688 12.128906 0 11.109375 0 L 1.3125 0 L 1.3125 -2.8125 L 10.453125 -2.8125 C 10.722656 -2.8125 10.945312 -2.898438 11.125 -3.078125 C 11.3125 -3.265625 11.40625 -3.5 11.40625 -3.78125 L 11.40625 -4.4375 L 3.90625 -4.4375 C 2.863281 -4.4375 2.070312 -4.671875 1.53125 -5.140625 C 0.988281 -5.617188 0.71875 -6.320312 0.71875 -7.25 L 0.71875 -8.203125 C 0.71875 -9.191406 1 -9.972656 1.5625 -10.546875 C 2.132812 -11.117188 2.910156 -11.40625 3.890625 -11.40625 Z M 3.90625 -8.234375 L 3.90625 -7.234375 C 3.90625 -7.128906 3.941406 -7.039062 4.015625 -6.96875 C 4.085938 -6.90625 4.175781 -6.875 4.28125 -6.875 L 11.40625 -6.875 L 11.40625 -8.234375 C 11.40625 -8.335938 11.367188 -8.421875 11.296875 -8.484375 C 11.234375 -8.554688 11.144531 -8.59375 11.03125 -8.59375 L 4.28125 -8.59375 C 4.175781 -8.59375 4.085938 -8.554688 4.015625 -8.484375 C 3.941406 -8.421875 3.90625 -8.335938 3.90625 -8.234375 Z M 3.90625 -8.234375 "/></g></g></g><g fill="#000000" fill-opacity="1"><g transform="translate(317.925726, 737.76306)"><g><path d="M 1.21875 -11.40625 L 4.421875 -11.40625 L 4.421875 -6.96875 L 12.90625 -6.96875 L 12.90625 -11.40625 L 16.09375 -11.40625 L 16.09375 0 L 12.90625 0 L 12.90625 -4.15625 L 4.421875 -4.15625 L 4.421875 0 L 1.21875 0 Z M 1.21875 -11.40625 "/></g></g></g><g fill="#000000" fill-opacity="1"><g transform="translate(335.232444, 737.76306)"><g><path d="M 0.53125 -1.890625 L 0.53125 -5.796875 L 9.15625 -11.40625 L 13.390625 -11.40625 L 13.390625 -4.5 L 14.84375 -4.5 L 14.84375 -1.890625 L 13.390625 -1.890625 L 13.390625 0 L 10.203125 0 L 10.203125 -1.890625 Z M 3.546875 -4.59375 L 3.546875 -4.5 L 10.203125 -4.5 L 10.203125 -8.59375 L 10.078125 -8.59375 Z M 3.546875 -4.59375 "/></g></g></g><g fill="#000000" fill-opacity="1"><g transform="translate(350.601719, 737.76306)"><g><path d="M 11.109375 0 L 1.078125 0 L 1.078125 -2.8125 L 10.984375 -2.8125 C 11.085938 -2.8125 11.175781 -2.84375 11.25 -2.90625 C 11.320312 -2.976562 11.359375 -3.066406 11.359375 -3.171875 L 11.359375 -4.109375 C 11.359375 -4.210938 11.320312 -4.296875 11.25 -4.359375 C 11.175781 -4.429688 11.085938 -4.46875 10.984375 -4.46875 L 1.125 -4.46875 L 1.125 -11.40625 L 13.84375 -11.40625 L 13.84375 -8.59375 L 4.3125 -8.59375 L 4.3125 -7.15625 L 11.109375 -7.15625 C 12.203125 -7.15625 13.046875 -6.898438 13.640625 -6.390625 C 14.242188 -5.878906 14.546875 -5.15625 14.546875 -4.21875 L 14.546875 -2.859375 C 14.546875 -1.929688 14.253906 -1.222656 13.671875 -0.734375 C 13.085938 -0.242188 12.234375 0 11.109375 0 Z M 11.109375 0 "/></g></g></g><g clip-path="url(#1702efc90c)"><g clip-path="url(#6868099091)"><g transform="matrix(1, 0, 0, 1, 164, 559)"><g clip-path="url(#f670f2679f)"><g clip-path="url(#8d801943ba)"><g clip-path="url(#68f28f19d0)"><path fill="#ffffff" d="M 0.898438 0.0546875 L 481.15625 0.0546875 L 481.15625 74.03125 L 0.898438 74.03125 Z M 0.898438 0.0546875 " fill-opacity="1" fill-rule="nonzero"/></g></g></g></g></g></g><g fill="#000000" fill-opacity="1"><g transform="translate(350.536282, 591.823795)"><g><path d="M 18.546875 -3.5625 L 18.546875 0 L 0.890625 0 L 0.890625 -3.015625 L 11.953125 -10.859375 L 1.09375 -10.859375 L 1.09375 -14.421875 L 18.234375 -14.421875 L 18.234375 -11.234375 L 7.421875 -3.5625 Z M 18.546875 -3.5625 "/></g></g></g><g fill="#000000" fill-opacity="1"><g transform="translate(369.975995, 591.823795)"><g><path d="M 16.21875 -14.421875 L 20.265625 -14.421875 L 20.265625 -4.1875 C 20.265625 -2.957031 19.847656 -1.953125 19.015625 -1.171875 C 18.222656 -0.390625 17.175781 0 15.875 0 L 5.859375 0 C 4.566406 0 3.503906 -0.390625 2.671875 -1.171875 C 1.847656 -1.953125 1.4375 -2.957031 1.4375 -4.1875 L 1.4375 -14.421875 L 5.484375 -14.421875 L 5.484375 -4.78125 C 5.484375 -4.425781 5.597656 -4.132812 5.828125 -3.90625 C 6.066406 -3.675781 6.359375 -3.5625 6.703125 -3.5625 L 14.984375 -3.5625 C 15.335938 -3.5625 15.628906 -3.675781 15.859375 -3.90625 C 16.097656 -4.132812 16.21875 -4.425781 16.21875 -4.78125 Z M 16.21875 -14.421875 "/></g></g></g><g fill="#000000" fill-opacity="1"><g transform="translate(391.683333, 591.823795)"><g><path d="M 13.5625 0 L 10.796875 0 L 5.578125 -8.375 L 5.578125 0 L 1.546875 0 L 1.546875 -14.421875 L 6.078125 -14.421875 L 12.1875 -4.53125 L 18.28125 -14.421875 L 22.8125 -14.421875 L 22.8125 0 L 18.78125 0 L 18.78125 -8.375 Z M 13.5625 0 "/></g></g></g><g fill="#000000" fill-opacity="1"><g transform="translate(416.049972, 591.823795)"><g><path d="M 1.546875 0 L 1.546875 -14.421875 L 15.75 -14.421875 C 17.125 -14.421875 18.226562 -14.070312 19.0625 -13.375 C 19.90625 -12.695312 20.328125 -11.785156 20.328125 -10.640625 L 20.328125 -10.265625 C 20.328125 -9.191406 19.789062 -8.3125 18.71875 -7.625 C 19.414062 -7.289062 19.960938 -6.835938 20.359375 -6.265625 C 20.753906 -5.703125 20.953125 -5.0625 20.953125 -4.34375 L 20.953125 -4 C 20.953125 -2.800781 20.519531 -1.832031 19.65625 -1.09375 C 18.8125 -0.363281 17.679688 0 16.265625 0 Z M 15.75 -5.75 L 5.578125 -5.75 L 5.578125 -3.5625 L 15.75 -3.5625 C 16.113281 -3.5625 16.398438 -3.644531 16.609375 -3.8125 C 16.816406 -3.976562 16.921875 -4.207031 16.921875 -4.5 L 16.921875 -4.84375 C 16.921875 -5.445312 16.53125 -5.75 15.75 -5.75 Z M 15.203125 -10.859375 L 5.578125 -10.859375 L 5.578125 -8.765625 L 15.203125 -8.765625 C 15.921875 -8.765625 16.28125 -9.050781 16.28125 -9.625 L 16.28125 -10.015625 C 16.28125 -10.578125 15.921875 -10.859375 15.203125 -10.859375 Z M 15.203125 -10.859375 "/></g></g></g><g fill="#000000" fill-opacity="1"><g transform="translate(437.24194, 591.823795)"><g><path d="M 9 -14.421875 L 13.1875 -14.421875 L 22.265625 0 L 17.515625 0 L 15.890625 -2.671875 L 6.28125 -2.671875 L 4.671875 0 L -0.0625 0 Z M 14 -5.828125 L 11.09375 -10.65625 L 8.1875 -5.828125 Z M 14 -5.828125 "/></g></g></g><g fill="#000000" fill-opacity="1"><g transform="translate(321.628684, 615.062318)"><g><path d="M 3.46875 -11.40625 L 5.4375 -11.40625 L 5.4375 0 L 2.25 0 L 2.25 -8.234375 L 0.484375 -7.75 L 0.484375 -10.59375 Z M 3.46875 -11.40625 "/></g></g></g><g fill="#000000" fill-opacity="1"><g transform="translate(328.320184, 615.062318)"><g><path d="M 1.25 0 L 8.84375 -8.59375 L 0.4375 -8.59375 L 0.4375 -11.40625 L 12.78125 -11.40625 L 12.78125 -8.640625 L 5.25 0 Z M 1.25 0 "/></g></g></g><g fill="#000000" fill-opacity="1"><g transform="translate(341.426398, 615.062318)"><g><path d="M 1.21875 -11.40625 L 4.421875 -11.40625 L 4.421875 -6.96875 L 12.90625 -6.96875 L 12.90625 -11.40625 L 16.09375 -11.40625 L 16.09375 0 L 12.90625 0 L 12.90625 -4.15625 L 4.421875 -4.15625 L 4.421875 0 L 1.21875 0 Z M 1.21875 -11.40625 "/></g></g></g><g fill="#000000" fill-opacity="1"><g transform="translate(358.733116, 615.062318)"><g><path d="M 12.96875 -3.78125 L 12.96875 -7.625 C 12.96875 -7.90625 12.875 -8.132812 12.6875 -8.3125 C 12.507812 -8.5 12.28125 -8.59375 12 -8.59375 L 5.1875 -8.59375 C 4.90625 -8.59375 4.671875 -8.5 4.484375 -8.3125 C 4.304688 -8.132812 4.21875 -7.90625 4.21875 -7.625 L 4.21875 -3.78125 C 4.21875 -3.5 4.304688 -3.265625 4.484375 -3.078125 C 4.671875 -2.898438 4.90625 -2.8125 5.1875 -2.8125 L 12 -2.8125 C 12.28125 -2.8125 12.507812 -2.898438 12.6875 -3.078125 C 12.875 -3.265625 12.96875 -3.5 12.96875 -3.78125 Z M 16.171875 -8.09375 L 16.171875 -3.3125 C 16.171875 -2.34375 15.84375 -1.546875 15.1875 -0.921875 C 14.5625 -0.304688 13.726562 0 12.6875 0 L 4.515625 0 C 3.492188 0 2.65625 -0.304688 2 -0.921875 C 1.351562 -1.546875 1.03125 -2.34375 1.03125 -3.3125 L 1.03125 -8.09375 C 1.03125 -9.0625 1.351562 -9.859375 2 -10.484375 C 2.65625 -11.097656 3.492188 -11.40625 4.515625 -11.40625 L 12.6875 -11.40625 C 13.726562 -11.40625 14.5625 -11.097656 15.1875 -10.484375 C 15.84375 -9.859375 16.171875 -9.0625 16.171875 -8.09375 Z M 16.171875 -8.09375 "/></g></g></g><g fill="#000000" fill-opacity="1"><g transform="translate(375.909584, 615.062318)"><g><path d="M 12.96875 -3.78125 L 12.96875 -7.625 C 12.96875 -7.90625 12.875 -8.132812 12.6875 -8.3125 C 12.507812 -8.5 12.28125 -8.59375 12 -8.59375 L 5.1875 -8.59375 C 4.90625 -8.59375 4.671875 -8.5 4.484375 -8.3125 C 4.304688 -8.132812 4.21875 -7.90625 4.21875 -7.625 L 4.21875 -3.78125 C 4.21875 -3.5 4.304688 -3.265625 4.484375 -3.078125 C 4.671875 -2.898438 4.90625 -2.8125 5.1875 -2.8125 L 12 -2.8125 C 12.28125 -2.8125 12.507812 -2.898438 12.6875 -3.078125 C 12.875 -3.265625 12.96875 -3.5 12.96875 -3.78125 Z M 16.171875 -8.09375 L 16.171875 -3.3125 C 16.171875 -2.34375 15.84375 -1.546875 15.1875 -0.921875 C 14.5625 -0.304688 13.726562 0 12.6875 0 L 4.515625 0 C 3.492188 0 2.65625 -0.304688 2 -0.921875 C 1.351562 -1.546875 1.03125 -2.34375 1.03125 -3.3125 L 1.03125 -8.09375 C 1.03125 -9.0625 1.351562 -9.859375 2 -10.484375 C 2.65625 -11.097656 3.492188 -11.40625 4.515625 -11.40625 L 12.6875 -11.40625 C 13.726562 -11.40625 14.5625 -11.097656 15.1875 -10.484375 C 15.84375 -9.859375 16.171875 -9.0625 16.171875 -8.09375 Z M 16.171875 -8.09375 "/></g></g></g><g fill="#000000" fill-opacity="1"><g transform="translate(393.086052, 615.062318)"><g/></g></g><g fill="#000000" fill-opacity="1"><g transform="translate(401.633588, 615.062318)"><g><path d="M 9.453125 -6.84375 L 9.453125 -4.921875 L 1.015625 -4.921875 L 1.015625 -6.84375 Z M 9.453125 -6.84375 "/></g></g></g><g fill="#000000" fill-opacity="1"><g transform="translate(412.086003, 615.062318)"><g/></g></g><g fill="#000000" fill-opacity="1"><g transform="translate(420.633539, 615.062318)"><g><path d="M 3.46875 -11.40625 L 5.4375 -11.40625 L 5.4375 0 L 2.25 0 L 2.25 -8.234375 L 0.484375 -7.75 L 0.484375 -10.59375 Z M 3.46875 -11.40625 "/></g></g></g><g fill="#000000" fill-opacity="1"><g transform="translate(427.325039, 615.062318)"><g><path d="M 1.25 0 L 8.84375 -8.59375 L 0.4375 -8.59375 L 0.4375 -11.40625 L 12.78125 -11.40625 L 12.78125 -8.640625 L 5.25 0 Z M 1.25 0 "/></g></g></g><g fill="#000000" fill-opacity="1"><g transform="translate(440.431253, 615.062318)"><g><path d="M 1.21875 -11.40625 L 4.421875 -11.40625 L 4.421875 -6.96875 L 12.90625 -6.96875 L 12.90625 -11.40625 L 16.09375 -11.40625 L 16.09375 0 L 12.90625 0 L 12.90625 -4.15625 L 4.421875 -4.15625 L 4.421875 0 L 1.21875 0 Z M 1.21875 -11.40625 "/></g></g></g><g fill="#000000" fill-opacity="1"><g transform="translate(457.737971, 615.062318)"><g><path d="M 0.53125 -1.890625 L 0.53125 -5.796875 L 9.15625 -11.40625 L 13.390625 -11.40625 L 13.390625 -4.5 L 14.84375 -4.5 L 14.84375 -1.890625 L 13.390625 -1.890625 L 13.390625 0 L 10.203125 0 L 10.203125 -1.890625 Z M 3.546875 -4.59375 L 3.546875 -4.5 L 10.203125 -4.5 L 10.203125 -8.59375 L 10.078125 -8.59375 Z M 3.546875 -4.59375 "/></g></g></g><g fill="#000000" fill-opacity="1"><g transform="translate(473.107245, 615.062318)"><g><path d="M 11.109375 0 L 1.078125 0 L 1.078125 -2.8125 L 10.984375 -2.8125 C 11.085938 -2.8125 11.175781 -2.84375 11.25 -2.90625 C 11.320312 -2.976562 11.359375 -3.066406 11.359375 -3.171875 L 11.359375 -4.109375 C 11.359375 -4.210938 11.320312 -4.296875 11.25 -4.359375 C 11.175781 -4.429688 11.085938 -4.46875 10.984375 -4.46875 L 1.125 -4.46875 L 1.125 -11.40625 L 13.84375 -11.40625 L 13.84375 -8.59375 L 4.3125 -8.59375 L 4.3125 -7.15625 L 11.109375 -7.15625 C 12.203125 -7.15625 13.046875 -6.898438 13.640625 -6.390625 C 14.242188 -5.878906 14.546875 -5.15625 14.546875 -4.21875 L 14.546875 -2.859375 C 14.546875 -1.929688 14.253906 -1.222656 13.671875 -0.734375 C 13.085938 -0.242188 12.234375 0 11.109375 0 Z M 11.109375 0 "/></g></g></g></svg>