<svg xmlns="http://www.w3.org/2000/svg" xmlns:xlink="http://www.w3.org/1999/xlink" width="1080" zoomAndPan="magnify" viewBox="0 0 810 1012.49997" height="1350" preserveAspectRatio="xMidYMid meet" version="1.2"><defs><clipPath id="9ac22489f9"><path d="M 0.199219 0 L 809.800781 0 L 809.800781 1012 L 0.199219 1012 Z M 0.199219 0 "/></clipPath><clipPath id="d6cc94fb06"><path d="M 154.988281 182.636719 L 405 182.636719 L 405 256.390625 L 154.988281 256.390625 Z M 154.988281 182.636719 "/></clipPath><clipPath id="845a0c6fa3"><path d="M 161.734375 182.636719 L 398.253906 182.636719 C 401.980469 182.636719 405 185.65625 405 189.382812 L 405 249.644531 C 405 253.371094 401.980469 256.390625 398.253906 256.390625 L 161.734375 256.390625 C 158.007812 256.390625 154.988281 253.371094 154.988281 249.644531 L 154.988281 189.382812 C 154.988281 185.65625 158.007812 182.636719 161.734375 182.636719 Z M 161.734375 182.636719 "/></clipPath><clipPath id="701facb94d"><path d="M 154.988281 303.738281 L 655.066406 303.738281 L 655.066406 380.769531 L 154.988281 380.769531 Z M 154.988281 303.738281 "/></clipPath><clipPath id="a941902a37"><path d="M 161.734375 303.738281 L 648.265625 303.738281 C 651.992188 303.738281 655.011719 306.761719 655.011719 310.488281 L 655.011719 374.023438 C 655.011719 377.746094 651.992188 380.769531 648.265625 380.769531 L 161.734375 380.769531 C 158.007812 380.769531 154.988281 377.746094 154.988281 374.023438 L 154.988281 310.488281 C 154.988281 306.761719 158.007812 303.738281 161.734375 303.738281 Z M 161.734375 303.738281 "/></clipPath><clipPath id="ebdc19e582"><path d="M 405 182.757812 L 655.074219 182.757812 L 655.074219 256.511719 L 405 256.511719 Z M 405 182.757812 "/></clipPath><clipPath id="18652847a5"><path d="M 411.746094 182.757812 L 648.265625 182.757812 C 651.992188 182.757812 655.011719 185.78125 655.011719 189.503906 L 655.011719 249.765625 C 655.011719 253.492188 651.992188 256.511719 648.265625 256.511719 L 411.746094 256.511719 C 408.019531 256.511719 405 253.492188 405 249.765625 L 405 189.503906 C 405 185.78125 408.019531 182.757812 411.746094 182.757812 Z M 411.746094 182.757812 "/></clipPath><clipPath id="55d1f76a95"><path d="M 196.828125 756.546875 L 233.515625 756.546875 L 233.515625 787.238281 L 196.828125 787.238281 Z M 196.828125 756.546875 "/></clipPath><clipPath id="29d255ae33"><path d="M 209.574219 756.546875 L 220.726562 756.546875 C 227.765625 756.546875 233.472656 762.25 233.472656 769.289062 L 233.472656 774.492188 C 233.472656 781.53125 227.765625 787.238281 220.726562 787.238281 L 209.574219 787.238281 C 202.535156 787.238281 196.828125 781.53125 196.828125 774.492188 L 196.828125 769.289062 C 196.828125 762.25 202.535156 756.546875 209.574219 756.546875 Z M 209.574219 756.546875 "/></clipPath><clipPath id="2d356015a1"><path d="M 196.828125 686.144531 L 233.515625 686.144531 L 233.515625 716.832031 L 196.828125 716.832031 Z M 196.828125 686.144531 "/></clipPath><clipPath id="a0a50bcae6"><path d="M 209.574219 686.144531 L 220.726562 686.144531 C 227.765625 686.144531 233.472656 691.847656 233.472656 698.886719 L 233.472656 704.089844 C 233.472656 711.128906 227.765625 716.832031 220.726562 716.832031 L 209.574219 716.832031 C 202.535156 716.832031 196.828125 711.128906 196.828125 704.089844 L 196.828125 698.886719 C 196.828125 691.847656 202.535156 686.144531 209.574219 686.144531 Z M 209.574219 686.144531 "/></clipPath></defs><g id="282fe6b6c7"><g clip-rule="nonzero" clip-path="url(#9ac22489f9)"><path style=" stroke:none;fill-rule:nonzero;fill:#ffffff;fill-opacity:1;" d="M 0.199219 0 L 809.800781 0 L 809.800781 1012 L 0.199219 1012 Z M 0.199219 0 "/><path style=" stroke:none;fill-rule:nonzero;fill:#242424;fill-opacity:1;" d="M 0.199219 0 L 809.800781 0 L 809.800781 1012 L 0.199219 1012 Z M 0.199219 0 "/></g><g clip-rule="nonzero" clip-path="url(#d6cc94fb06)"><g clip-rule="nonzero" clip-path="url(#845a0c6fa3)"><path style=" stroke:none;fill-rule:nonzero;fill:#ffffff;fill-opacity:1;" d="M 154.988281 182.636719 L 405.0625 182.636719 L 405.0625 256.390625 L 154.988281 256.390625 Z M 154.988281 182.636719 "/></g></g><g style="fill:#000000;fill-opacity:1;"><g transform="translate(235.959014, 215.402772)"><path style="stroke:none" d="M 1.546875 -14.421875 L 15.59375 -14.421875 C 16.945312 -14.421875 18.085938 -13.957031 19.015625 -13.03125 C 19.953125 -12.09375 20.421875 -10.960938 20.421875 -9.640625 L 20.421875 -9.21875 C 20.421875 -7.851562 19.992188 -6.722656 19.140625 -5.828125 C 18.304688 -4.960938 17.21875 -4.53125 15.875 -4.53125 L 5.578125 -4.53125 L 5.578125 0 L 1.546875 0 Z M 14.984375 -10.859375 L 5.578125 -10.859375 L 5.578125 -7.96875 L 15 -7.96875 C 15.414062 -7.96875 15.75 -8.082031 16 -8.3125 C 16.257812 -8.539062 16.390625 -8.832031 16.390625 -9.1875 L 16.390625 -9.625 C 16.390625 -9.976562 16.253906 -10.269531 15.984375 -10.5 C 15.722656 -10.738281 15.390625 -10.859375 14.984375 -10.859375 Z M 14.984375 -10.859375 "/></g></g><g style="fill:#000000;fill-opacity:1;"><g transform="translate(256.944839, 215.402772)"><path style="stroke:none" d="M 16.21875 -14.421875 L 20.265625 -14.421875 L 20.265625 -4.1875 C 20.265625 -2.957031 19.847656 -1.953125 19.015625 -1.171875 C 18.222656 -0.390625 17.175781 0 15.875 0 L 5.859375 0 C 4.566406 0 3.503906 -0.390625 2.671875 -1.171875 C 1.847656 -1.953125 1.4375 -2.957031 1.4375 -4.1875 L 1.4375 -14.421875 L 5.484375 -14.421875 L 5.484375 -4.78125 C 5.484375 -4.425781 5.597656 -4.132812 5.828125 -3.90625 C 6.066406 -3.675781 6.359375 -3.5625 6.703125 -3.5625 L 14.984375 -3.5625 C 15.335938 -3.5625 15.628906 -3.675781 15.859375 -3.90625 C 16.097656 -4.132812 16.21875 -4.425781 16.21875 -4.78125 Z M 16.21875 -14.421875 "/></g></g><g style="fill:#000000;fill-opacity:1;"><g transform="translate(278.652177, 215.402772)"><path style="stroke:none" d="M 13.5625 0 L 10.796875 0 L 5.578125 -8.375 L 5.578125 0 L 1.546875 0 L 1.546875 -14.421875 L 6.078125 -14.421875 L 12.1875 -4.53125 L 18.28125 -14.421875 L 22.8125 -14.421875 L 22.8125 0 L 18.78125 0 L 18.78125 -8.375 Z M 13.5625 0 "/></g></g><g style="fill:#000000;fill-opacity:1;"><g transform="translate(303.018816, 215.402772)"><path style="stroke:none" d="M 1.546875 -14.421875 L 15.59375 -14.421875 C 16.945312 -14.421875 18.085938 -13.957031 19.015625 -13.03125 C 19.953125 -12.09375 20.421875 -10.960938 20.421875 -9.640625 L 20.421875 -9.21875 C 20.421875 -7.851562 19.992188 -6.722656 19.140625 -5.828125 C 18.304688 -4.960938 17.21875 -4.53125 15.875 -4.53125 L 5.578125 -4.53125 L 5.578125 0 L 1.546875 0 Z M 14.984375 -10.859375 L 5.578125 -10.859375 L 5.578125 -7.96875 L 15 -7.96875 C 15.414062 -7.96875 15.75 -8.082031 16 -8.3125 C 16.257812 -8.539062 16.390625 -8.832031 16.390625 -9.1875 L 16.390625 -9.625 C 16.390625 -9.976562 16.253906 -10.269531 15.984375 -10.5 C 15.722656 -10.738281 15.390625 -10.859375 14.984375 -10.859375 Z M 14.984375 -10.859375 "/></g></g><g style="fill:#000000;fill-opacity:1;"><g transform="translate(183.625487, 238.641295)"><path style="stroke:none" d="M 12.96875 -3.78125 L 12.96875 -7.625 C 12.96875 -7.90625 12.875 -8.132812 12.6875 -8.3125 C 12.507812 -8.5 12.28125 -8.59375 12 -8.59375 L 5.1875 -8.59375 C 4.90625 -8.59375 4.671875 -8.5 4.484375 -8.3125 C 4.304688 -8.132812 4.21875 -7.90625 4.21875 -7.625 L 4.21875 -3.78125 C 4.21875 -3.5 4.304688 -3.265625 4.484375 -3.078125 C 4.671875 -2.898438 4.90625 -2.8125 5.1875 -2.8125 L 12 -2.8125 C 12.28125 -2.8125 12.507812 -2.898438 12.6875 -3.078125 C 12.875 -3.265625 12.96875 -3.5 12.96875 -3.78125 Z M 16.171875 -8.09375 L 16.171875 -3.3125 C 16.171875 -2.34375 15.84375 -1.546875 15.1875 -0.921875 C 14.5625 -0.304688 13.726562 0 12.6875 0 L 4.515625 0 C 3.492188 0 2.65625 -0.304688 2 -0.921875 C 1.351562 -1.546875 1.03125 -2.34375 1.03125 -3.3125 L 1.03125 -8.09375 C 1.03125 -9.0625 1.351562 -9.859375 2 -10.484375 C 2.65625 -11.097656 3.492188 -11.40625 4.515625 -11.40625 L 12.6875 -11.40625 C 13.726562 -11.40625 14.5625 -11.097656 15.1875 -10.484375 C 15.84375 -9.859375 16.171875 -9.0625 16.171875 -8.09375 Z M 16.171875 -8.09375 "/></g></g><g style="fill:#000000;fill-opacity:1;"><g transform="translate(200.801955, 238.641295)"><path style="stroke:none" d="M 3.890625 -11.40625 L 11.109375 -11.40625 C 12.128906 -11.40625 12.96875 -11.097656 13.625 -10.484375 C 14.28125 -9.859375 14.609375 -9.0625 14.609375 -8.09375 L 14.609375 -3.3125 C 14.609375 -2.34375 14.28125 -1.546875 13.625 -0.921875 C 12.96875 -0.304688 12.128906 0 11.109375 0 L 1.3125 0 L 1.3125 -2.8125 L 10.453125 -2.8125 C 10.722656 -2.8125 10.945312 -2.898438 11.125 -3.078125 C 11.3125 -3.265625 11.40625 -3.5 11.40625 -3.78125 L 11.40625 -4.4375 L 3.90625 -4.4375 C 2.863281 -4.4375 2.070312 -4.671875 1.53125 -5.140625 C 0.988281 -5.617188 0.71875 -6.320312 0.71875 -7.25 L 0.71875 -8.203125 C 0.71875 -9.191406 1 -9.972656 1.5625 -10.546875 C 2.132812 -11.117188 2.910156 -11.40625 3.890625 -11.40625 Z M 3.90625 -8.234375 L 3.90625 -7.234375 C 3.90625 -7.128906 3.941406 -7.039062 4.015625 -6.96875 C 4.085938 -6.90625 4.175781 -6.875 4.28125 -6.875 L 11.40625 -6.875 L 11.40625 -8.234375 C 11.40625 -8.335938 11.367188 -8.421875 11.296875 -8.484375 C 11.234375 -8.554688 11.144531 -8.59375 11.03125 -8.59375 L 4.28125 -8.59375 C 4.175781 -8.59375 4.085938 -8.554688 4.015625 -8.484375 C 3.941406 -8.421875 3.90625 -8.335938 3.90625 -8.234375 Z M 3.90625 -8.234375 "/></g></g><g style="fill:#000000;fill-opacity:1;"><g transform="translate(216.415452, 238.641295)"><path style="stroke:none" d="M 1.21875 -11.40625 L 4.421875 -11.40625 L 4.421875 -6.96875 L 12.90625 -6.96875 L 12.90625 -11.40625 L 16.09375 -11.40625 L 16.09375 0 L 12.90625 0 L 12.90625 -4.15625 L 4.421875 -4.15625 L 4.421875 0 L 1.21875 0 Z M 1.21875 -11.40625 "/></g></g><g style="fill:#000000;fill-opacity:1;"><g transform="translate(233.72217, 238.641295)"><path style="stroke:none" d="M 12.96875 -3.78125 L 12.96875 -7.625 C 12.96875 -7.90625 12.875 -8.132812 12.6875 -8.3125 C 12.507812 -8.5 12.28125 -8.59375 12 -8.59375 L 5.1875 -8.59375 C 4.90625 -8.59375 4.671875 -8.5 4.484375 -8.3125 C 4.304688 -8.132812 4.21875 -7.90625 4.21875 -7.625 L 4.21875 -3.78125 C 4.21875 -3.5 4.304688 -3.265625 4.484375 -3.078125 C 4.671875 -2.898438 4.90625 -2.8125 5.1875 -2.8125 L 12 -2.8125 C 12.28125 -2.8125 12.507812 -2.898438 12.6875 -3.078125 C 12.875 -3.265625 12.96875 -3.5 12.96875 -3.78125 Z M 16.171875 -8.09375 L 16.171875 -3.3125 C 16.171875 -2.34375 15.84375 -1.546875 15.1875 -0.921875 C 14.5625 -0.304688 13.726562 0 12.6875 0 L 4.515625 0 C 3.492188 0 2.65625 -0.304688 2 -0.921875 C 1.351562 -1.546875 1.03125 -2.34375 1.03125 -3.3125 L 1.03125 -8.09375 C 1.03125 -9.0625 1.351562 -9.859375 2 -10.484375 C 2.65625 -11.097656 3.492188 -11.40625 4.515625 -11.40625 L 12.6875 -11.40625 C 13.726562 -11.40625 14.5625 -11.097656 15.1875 -10.484375 C 15.84375 -9.859375 16.171875 -9.0625 16.171875 -8.09375 Z M 16.171875 -8.09375 "/></g></g><g style="fill:#000000;fill-opacity:1;"><g transform="translate(250.898638, 238.641295)"><path style="stroke:none" d="M 12.96875 -3.78125 L 12.96875 -7.625 C 12.96875 -7.90625 12.875 -8.132812 12.6875 -8.3125 C 12.507812 -8.5 12.28125 -8.59375 12 -8.59375 L 5.1875 -8.59375 C 4.90625 -8.59375 4.671875 -8.5 4.484375 -8.3125 C 4.304688 -8.132812 4.21875 -7.90625 4.21875 -7.625 L 4.21875 -3.78125 C 4.21875 -3.5 4.304688 -3.265625 4.484375 -3.078125 C 4.671875 -2.898438 4.90625 -2.8125 5.1875 -2.8125 L 12 -2.8125 C 12.28125 -2.8125 12.507812 -2.898438 12.6875 -3.078125 C 12.875 -3.265625 12.96875 -3.5 12.96875 -3.78125 Z M 16.171875 -8.09375 L 16.171875 -3.3125 C 16.171875 -2.34375 15.84375 -1.546875 15.1875 -0.921875 C 14.5625 -0.304688 13.726562 0 12.6875 0 L 4.515625 0 C 3.492188 0 2.65625 -0.304688 2 -0.921875 C 1.351562 -1.546875 1.03125 -2.34375 1.03125 -3.3125 L 1.03125 -8.09375 C 1.03125 -9.0625 1.351562 -9.859375 2 -10.484375 C 2.65625 -11.097656 3.492188 -11.40625 4.515625 -11.40625 L 12.6875 -11.40625 C 13.726562 -11.40625 14.5625 -11.097656 15.1875 -10.484375 C 15.84375 -9.859375 16.171875 -9.0625 16.171875 -8.09375 Z M 16.171875 -8.09375 "/></g></g><g style="fill:#000000;fill-opacity:1;"><g transform="translate(268.075107, 238.641295)"><path style="stroke:none" d=""/></g></g><g style="fill:#000000;fill-opacity:1;"><g transform="translate(276.622643, 238.641295)"><path style="stroke:none" d="M 9.453125 -6.84375 L 9.453125 -4.921875 L 1.015625 -4.921875 L 1.015625 -6.84375 Z M 9.453125 -6.84375 "/></g></g><g style="fill:#000000;fill-opacity:1;"><g transform="translate(287.075057, 238.641295)"><path style="stroke:none" d=""/></g></g><g style="fill:#000000;fill-opacity:1;"><g transform="translate(295.622593, 238.641295)"><path style="stroke:none" d="M 12.96875 -3.78125 L 12.96875 -7.625 C 12.96875 -7.90625 12.875 -8.132812 12.6875 -8.3125 C 12.507812 -8.5 12.28125 -8.59375 12 -8.59375 L 5.1875 -8.59375 C 4.90625 -8.59375 4.671875 -8.5 4.484375 -8.3125 C 4.304688 -8.132812 4.21875 -7.90625 4.21875 -7.625 L 4.21875 -3.78125 C 4.21875 -3.5 4.304688 -3.265625 4.484375 -3.078125 C 4.671875 -2.898438 4.90625 -2.8125 5.1875 -2.8125 L 12 -2.8125 C 12.28125 -2.8125 12.507812 -2.898438 12.6875 -3.078125 C 12.875 -3.265625 12.96875 -3.5 12.96875 -3.78125 Z M 16.171875 -8.09375 L 16.171875 -3.3125 C 16.171875 -2.34375 15.84375 -1.546875 15.1875 -0.921875 C 14.5625 -0.304688 13.726562 0 12.6875 0 L 4.515625 0 C 3.492188 0 2.65625 -0.304688 2 -0.921875 C 1.351562 -1.546875 1.03125 -2.34375 1.03125 -3.3125 L 1.03125 -8.09375 C 1.03125 -9.0625 1.351562 -9.859375 2 -10.484375 C 2.65625 -11.097656 3.492188 -11.40625 4.515625 -11.40625 L 12.6875 -11.40625 C 13.726562 -11.40625 14.5625 -11.097656 15.1875 -10.484375 C 15.84375 -9.859375 16.171875 -9.0625 16.171875 -8.09375 Z M 16.171875 -8.09375 "/></g></g><g style="fill:#000000;fill-opacity:1;"><g transform="translate(312.799062, 238.641295)"><path style="stroke:none" d="M 3.890625 -11.40625 L 11.109375 -11.40625 C 12.128906 -11.40625 12.96875 -11.097656 13.625 -10.484375 C 14.28125 -9.859375 14.609375 -9.0625 14.609375 -8.09375 L 14.609375 -3.3125 C 14.609375 -2.34375 14.28125 -1.546875 13.625 -0.921875 C 12.96875 -0.304688 12.128906 0 11.109375 0 L 1.3125 0 L 1.3125 -2.8125 L 10.453125 -2.8125 C 10.722656 -2.8125 10.945312 -2.898438 11.125 -3.078125 C 11.3125 -3.265625 11.40625 -3.5 11.40625 -3.78125 L 11.40625 -4.4375 L 3.90625 -4.4375 C 2.863281 -4.4375 2.070312 -4.671875 1.53125 -5.140625 C 0.988281 -5.617188 0.71875 -6.320312 0.71875 -7.25 L 0.71875 -8.203125 C 0.71875 -9.191406 1 -9.972656 1.5625 -10.546875 C 2.132812 -11.117188 2.910156 -11.40625 3.890625 -11.40625 Z M 3.90625 -8.234375 L 3.90625 -7.234375 C 3.90625 -7.128906 3.941406 -7.039062 4.015625 -6.96875 C 4.085938 -6.90625 4.175781 -6.875 4.28125 -6.875 L 11.40625 -6.875 L 11.40625 -8.234375 C 11.40625 -8.335938 11.367188 -8.421875 11.296875 -8.484375 C 11.234375 -8.554688 11.144531 -8.59375 11.03125 -8.59375 L 4.28125 -8.59375 C 4.175781 -8.59375 4.085938 -8.554688 4.015625 -8.484375 C 3.941406 -8.421875 3.90625 -8.335938 3.90625 -8.234375 Z M 3.90625 -8.234375 "/></g></g><g style="fill:#000000;fill-opacity:1;"><g transform="translate(328.412559, 238.641295)"><path style="stroke:none" d="M 1.21875 -11.40625 L 4.421875 -11.40625 L 4.421875 -6.96875 L 12.90625 -6.96875 L 12.90625 -11.40625 L 16.09375 -11.40625 L 16.09375 0 L 12.90625 0 L 12.90625 -4.15625 L 4.421875 -4.15625 L 4.421875 0 L 1.21875 0 Z M 1.21875 -11.40625 "/></g></g><g style="fill:#000000;fill-opacity:1;"><g transform="translate(345.719277, 238.641295)"><path style="stroke:none" d="M 0.53125 -1.890625 L 0.53125 -5.796875 L 9.15625 -11.40625 L 13.390625 -11.40625 L 13.390625 -4.5 L 14.84375 -4.5 L 14.84375 -1.890625 L 13.390625 -1.890625 L 13.390625 0 L 10.203125 0 L 10.203125 -1.890625 Z M 3.546875 -4.59375 L 3.546875 -4.5 L 10.203125 -4.5 L 10.203125 -8.59375 L 10.078125 -8.59375 Z M 3.546875 -4.59375 "/></g></g><g style="fill:#000000;fill-opacity:1;"><g transform="translate(361.088551, 238.641295)"><path style="stroke:none" d="M 11.109375 0 L 1.078125 0 L 1.078125 -2.8125 L 10.984375 -2.8125 C 11.085938 -2.8125 11.175781 -2.84375 11.25 -2.90625 C 11.320312 -2.976562 11.359375 -3.066406 11.359375 -3.171875 L 11.359375 -4.109375 C 11.359375 -4.210938 11.320312 -4.296875 11.25 -4.359375 C 11.175781 -4.429688 11.085938 -4.46875 10.984375 -4.46875 L 1.125 -4.46875 L 1.125 -11.40625 L 13.84375 -11.40625 L 13.84375 -8.59375 L 4.3125 -8.59375 L 4.3125 -7.15625 L 11.109375 -7.15625 C 12.203125 -7.15625 13.046875 -6.898438 13.640625 -6.390625 C 14.242188 -5.878906 14.546875 -5.15625 14.546875 -4.21875 L 14.546875 -2.859375 C 14.546875 -1.929688 14.253906 -1.222656 13.671875 -0.734375 C 13.085938 -0.242188 12.234375 0 11.109375 0 Z M 11.109375 0 "/></g></g><g clip-rule="nonzero" clip-path="url(#701facb94d)"><g clip-rule="nonzero" clip-path="url(#a941902a37)"><path style=" stroke:none;fill-rule:nonzero;fill:#e1c340;fill-opacity:1;" d="M 154.988281 303.738281 L 655.066406 303.738281 L 655.066406 380.769531 L 154.988281 380.769531 Z M 154.988281 303.738281 "/></g></g><g style="fill:#000000;fill-opacity:1;"><g transform="translate(371.700565, 338.006974)"><path style="stroke:none" d="M 5.578125 0 L 1.546875 0 L 1.546875 -14.421875 L 15.546875 -14.421875 C 16.953125 -14.421875 18.117188 -13.976562 19.046875 -13.09375 C 19.960938 -12.207031 20.421875 -11.070312 20.421875 -9.6875 L 20.421875 -9.296875 C 20.421875 -8.222656 20.09375 -7.28125 19.4375 -6.46875 C 18.78125 -5.65625 17.90625 -5.09375 16.8125 -4.78125 L 20.671875 0 L 16.09375 0 L 12.546875 -4.546875 L 5.578125 -4.546875 Z M 15.03125 -10.859375 L 5.578125 -10.859375 L 5.578125 -8 L 15.046875 -8 C 15.453125 -8 15.773438 -8.109375 16.015625 -8.328125 C 16.265625 -8.554688 16.390625 -8.863281 16.390625 -9.25 L 16.390625 -9.609375 C 16.390625 -9.992188 16.265625 -10.296875 16.015625 -10.515625 C 15.765625 -10.742188 15.4375 -10.859375 15.03125 -10.859375 Z M 15.03125 -10.859375 "/></g></g><g style="fill:#000000;fill-opacity:1;"><g transform="translate(392.913145, 338.006974)"><path style="stroke:none" d="M 1.546875 -14.421875 L 15.59375 -14.421875 C 16.945312 -14.421875 18.085938 -13.957031 19.015625 -13.03125 C 19.953125 -12.09375 20.421875 -10.960938 20.421875 -9.640625 L 20.421875 -9.21875 C 20.421875 -7.851562 19.992188 -6.722656 19.140625 -5.828125 C 18.304688 -4.960938 17.21875 -4.53125 15.875 -4.53125 L 5.578125 -4.53125 L 5.578125 0 L 1.546875 0 Z M 14.984375 -10.859375 L 5.578125 -10.859375 L 5.578125 -7.96875 L 15 -7.96875 C 15.414062 -7.96875 15.75 -8.082031 16 -8.3125 C 16.257812 -8.539062 16.390625 -8.832031 16.390625 -9.1875 L 16.390625 -9.625 C 16.390625 -9.976562 16.253906 -10.269531 15.984375 -10.5 C 15.722656 -10.738281 15.390625 -10.859375 14.984375 -10.859375 Z M 14.984375 -10.859375 "/></g></g><g style="fill:#000000;fill-opacity:1;"><g transform="translate(413.89897, 338.006974)"><path style="stroke:none" d="M 13.5625 0 L 10.796875 0 L 5.578125 -8.375 L 5.578125 0 L 1.546875 0 L 1.546875 -14.421875 L 6.078125 -14.421875 L 12.1875 -4.53125 L 18.28125 -14.421875 L 22.8125 -14.421875 L 22.8125 0 L 18.78125 0 L 18.78125 -8.375 Z M 13.5625 0 "/></g></g><g style="fill:#000000;fill-opacity:1;"><g transform="translate(317.551532, 361.245497)"><path style="stroke:none" d="M 3.46875 -11.40625 L 5.4375 -11.40625 L 5.4375 0 L 2.25 0 L 2.25 -8.234375 L 0.484375 -7.75 L 0.484375 -10.59375 Z M 3.46875 -11.40625 "/></g></g><g style="fill:#000000;fill-opacity:1;"><g transform="translate(324.243032, 361.245497)"><path style="stroke:none" d="M 12.96875 -3.78125 L 12.96875 -7.625 C 12.96875 -7.90625 12.875 -8.132812 12.6875 -8.3125 C 12.507812 -8.5 12.28125 -8.59375 12 -8.59375 L 5.1875 -8.59375 C 4.90625 -8.59375 4.671875 -8.5 4.484375 -8.3125 C 4.304688 -8.132812 4.21875 -7.90625 4.21875 -7.625 L 4.21875 -3.78125 C 4.21875 -3.5 4.304688 -3.265625 4.484375 -3.078125 C 4.671875 -2.898438 4.90625 -2.8125 5.1875 -2.8125 L 12 -2.8125 C 12.28125 -2.8125 12.507812 -2.898438 12.6875 -3.078125 C 12.875 -3.265625 12.96875 -3.5 12.96875 -3.78125 Z M 16.171875 -8.09375 L 16.171875 -3.3125 C 16.171875 -2.34375 15.84375 -1.546875 15.1875 -0.921875 C 14.5625 -0.304688 13.726562 0 12.6875 0 L 4.515625 0 C 3.492188 0 2.65625 -0.304688 2 -0.921875 C 1.351562 -1.546875 1.03125 -2.34375 1.03125 -3.3125 L 1.03125 -8.09375 C 1.03125 -9.0625 1.351562 -9.859375 2 -10.484375 C 2.65625 -11.097656 3.492188 -11.40625 4.515625 -11.40625 L 12.6875 -11.40625 C 13.726562 -11.40625 14.5625 -11.097656 15.1875 -10.484375 C 15.84375 -9.859375 16.171875 -9.0625 16.171875 -8.09375 Z M 16.171875 -8.09375 "/></g></g><g style="fill:#000000;fill-opacity:1;"><g transform="translate(341.419501, 361.245497)"><path style="stroke:none" d="M 1.21875 -11.40625 L 4.421875 -11.40625 L 4.421875 -6.96875 L 12.90625 -6.96875 L 12.90625 -11.40625 L 16.09375 -11.40625 L 16.09375 0 L 12.90625 0 L 12.90625 -4.15625 L 4.421875 -4.15625 L 4.421875 0 L 1.21875 0 Z M 1.21875 -11.40625 "/></g></g><g style="fill:#000000;fill-opacity:1;"><g transform="translate(358.726219, 361.245497)"><path style="stroke:none" d="M 12.96875 -3.78125 L 12.96875 -7.625 C 12.96875 -7.90625 12.875 -8.132812 12.6875 -8.3125 C 12.507812 -8.5 12.28125 -8.59375 12 -8.59375 L 5.1875 -8.59375 C 4.90625 -8.59375 4.671875 -8.5 4.484375 -8.3125 C 4.304688 -8.132812 4.21875 -7.90625 4.21875 -7.625 L 4.21875 -3.78125 C 4.21875 -3.5 4.304688 -3.265625 4.484375 -3.078125 C 4.671875 -2.898438 4.90625 -2.8125 5.1875 -2.8125 L 12 -2.8125 C 12.28125 -2.8125 12.507812 -2.898438 12.6875 -3.078125 C 12.875 -3.265625 12.96875 -3.5 12.96875 -3.78125 Z M 16.171875 -8.09375 L 16.171875 -3.3125 C 16.171875 -2.34375 15.84375 -1.546875 15.1875 -0.921875 C 14.5625 -0.304688 13.726562 0 12.6875 0 L 4.515625 0 C 3.492188 0 2.65625 -0.304688 2 -0.921875 C 1.351562 -1.546875 1.03125 -2.34375 1.03125 -3.3125 L 1.03125 -8.09375 C 1.03125 -9.0625 1.351562 -9.859375 2 -10.484375 C 2.65625 -11.097656 3.492188 -11.40625 4.515625 -11.40625 L 12.6875 -11.40625 C 13.726562 -11.40625 14.5625 -11.097656 15.1875 -10.484375 C 15.84375 -9.859375 16.171875 -9.0625 16.171875 -8.09375 Z M 16.171875 -8.09375 "/></g></g><g style="fill:#000000;fill-opacity:1;"><g transform="translate(375.902687, 361.245497)"><path style="stroke:none" d="M 12.96875 -3.78125 L 12.96875 -7.625 C 12.96875 -7.90625 12.875 -8.132812 12.6875 -8.3125 C 12.507812 -8.5 12.28125 -8.59375 12 -8.59375 L 5.1875 -8.59375 C 4.90625 -8.59375 4.671875 -8.5 4.484375 -8.3125 C 4.304688 -8.132812 4.21875 -7.90625 4.21875 -7.625 L 4.21875 -3.78125 C 4.21875 -3.5 4.304688 -3.265625 4.484375 -3.078125 C 4.671875 -2.898438 4.90625 -2.8125 5.1875 -2.8125 L 12 -2.8125 C 12.28125 -2.8125 12.507812 -2.898438 12.6875 -3.078125 C 12.875 -3.265625 12.96875 -3.5 12.96875 -3.78125 Z M 16.171875 -8.09375 L 16.171875 -3.3125 C 16.171875 -2.34375 15.84375 -1.546875 15.1875 -0.921875 C 14.5625 -0.304688 13.726562 0 12.6875 0 L 4.515625 0 C 3.492188 0 2.65625 -0.304688 2 -0.921875 C 1.351562 -1.546875 1.03125 -2.34375 1.03125 -3.3125 L 1.03125 -8.09375 C 1.03125 -9.0625 1.351562 -9.859375 2 -10.484375 C 2.65625 -11.097656 3.492188 -11.40625 4.515625 -11.40625 L 12.6875 -11.40625 C 13.726562 -11.40625 14.5625 -11.097656 15.1875 -10.484375 C 15.84375 -9.859375 16.171875 -9.0625 16.171875 -8.09375 Z M 16.171875 -8.09375 "/></g></g><g style="fill:#000000;fill-opacity:1;"><g transform="translate(393.079155, 361.245497)"><path style="stroke:none" d=""/></g></g><g style="fill:#000000;fill-opacity:1;"><g transform="translate(401.626691, 361.245497)"><path style="stroke:none" d="M 9.453125 -6.84375 L 9.453125 -4.921875 L 1.015625 -4.921875 L 1.015625 -6.84375 Z M 9.453125 -6.84375 "/></g></g><g style="fill:#000000;fill-opacity:1;"><g transform="translate(412.079106, 361.245497)"><path style="stroke:none" d=""/></g></g><g style="fill:#000000;fill-opacity:1;"><g transform="translate(420.626642, 361.245497)"><path style="stroke:none" d="M 3.46875 -11.40625 L 5.4375 -11.40625 L 5.4375 0 L 2.25 0 L 2.25 -8.234375 L 0.484375 -7.75 L 0.484375 -10.59375 Z M 3.46875 -11.40625 "/></g></g><g style="fill:#000000;fill-opacity:1;"><g transform="translate(427.318142, 361.245497)"><path style="stroke:none" d="M 12.96875 -3.78125 L 12.96875 -7.625 C 12.96875 -7.90625 12.875 -8.132812 12.6875 -8.3125 C 12.507812 -8.5 12.28125 -8.59375 12 -8.59375 L 5.1875 -8.59375 C 4.90625 -8.59375 4.671875 -8.5 4.484375 -8.3125 C 4.304688 -8.132812 4.21875 -7.90625 4.21875 -7.625 L 4.21875 -3.78125 C 4.21875 -3.5 4.304688 -3.265625 4.484375 -3.078125 C 4.671875 -2.898438 4.90625 -2.8125 5.1875 -2.8125 L 12 -2.8125 C 12.28125 -2.8125 12.507812 -2.898438 12.6875 -3.078125 C 12.875 -3.265625 12.96875 -3.5 12.96875 -3.78125 Z M 16.171875 -8.09375 L 16.171875 -3.3125 C 16.171875 -2.34375 15.84375 -1.546875 15.1875 -0.921875 C 14.5625 -0.304688 13.726562 0 12.6875 0 L 4.515625 0 C 3.492188 0 2.65625 -0.304688 2 -0.921875 C 1.351562 -1.546875 1.03125 -2.34375 1.03125 -3.3125 L 1.03125 -8.09375 C 1.03125 -9.0625 1.351562 -9.859375 2 -10.484375 C 2.65625 -11.097656 3.492188 -11.40625 4.515625 -11.40625 L 12.6875 -11.40625 C 13.726562 -11.40625 14.5625 -11.097656 15.1875 -10.484375 C 15.84375 -9.859375 16.171875 -9.0625 16.171875 -8.09375 Z M 16.171875 -8.09375 "/></g></g><g style="fill:#000000;fill-opacity:1;"><g transform="translate(444.494611, 361.245497)"><path style="stroke:none" d="M 1.21875 -11.40625 L 4.421875 -11.40625 L 4.421875 -6.96875 L 12.90625 -6.96875 L 12.90625 -11.40625 L 16.09375 -11.40625 L 16.09375 0 L 12.90625 0 L 12.90625 -4.15625 L 4.421875 -4.15625 L 4.421875 0 L 1.21875 0 Z M 1.21875 -11.40625 "/></g></g><g style="fill:#000000;fill-opacity:1;"><g transform="translate(461.801329, 361.245497)"><path style="stroke:none" d="M 0.53125 -1.890625 L 0.53125 -5.796875 L 9.15625 -11.40625 L 13.390625 -11.40625 L 13.390625 -4.5 L 14.84375 -4.5 L 14.84375 -1.890625 L 13.390625 -1.890625 L 13.390625 0 L 10.203125 0 L 10.203125 -1.890625 Z M 3.546875 -4.59375 L 3.546875 -4.5 L 10.203125 -4.5 L 10.203125 -8.59375 L 10.078125 -8.59375 Z M 3.546875 -4.59375 "/></g></g><g style="fill:#000000;fill-opacity:1;"><g transform="translate(477.170603, 361.245497)"><path style="stroke:none" d="M 11.109375 0 L 1.078125 0 L 1.078125 -2.8125 L 10.984375 -2.8125 C 11.085938 -2.8125 11.175781 -2.84375 11.25 -2.90625 C 11.320312 -2.976562 11.359375 -3.066406 11.359375 -3.171875 L 11.359375 -4.109375 C 11.359375 -4.210938 11.320312 -4.296875 11.25 -4.359375 C 11.175781 -4.429688 11.085938 -4.46875 10.984375 -4.46875 L 1.125 -4.46875 L 1.125 -11.40625 L 13.84375 -11.40625 L 13.84375 -8.59375 L 4.3125 -8.59375 L 4.3125 -7.15625 L 11.109375 -7.15625 C 12.203125 -7.15625 13.046875 -6.898438 13.640625 -6.390625 C 14.242188 -5.878906 14.546875 -5.15625 14.546875 -4.21875 L 14.546875 -2.859375 C 14.546875 -1.929688 14.253906 -1.222656 13.671875 -0.734375 C 13.085938 -0.242188 12.234375 0 11.109375 0 Z M 11.109375 0 "/></g></g><g style="fill:#ffffff;fill-opacity:1;"><g transform="translate(304.906841, 72.472079)"><path style="stroke:none" d="M 27.3125 0 L 2.625 0 L 2.625 -6.0625 L 27.0625 -6.0625 C 27.300781 -6.0625 27.492188 -6.128906 27.640625 -6.265625 C 27.796875 -6.410156 27.875 -6.601562 27.875 -6.84375 L 27.875 -8.59375 C 27.875 -8.820312 27.796875 -9.003906 27.640625 -9.140625 C 27.492188 -9.285156 27.300781 -9.359375 27.0625 -9.359375 L 8.96875 -9.359375 C 6.613281 -9.359375 4.785156 -9.921875 3.484375 -11.046875 C 2.191406 -12.171875 1.546875 -13.75 1.546875 -15.78125 L 1.546875 -18.09375 C 1.546875 -20.125 2.195312 -21.707031 3.5 -22.84375 C 4.8125 -23.976562 6.632812 -24.546875 8.96875 -24.546875 L 32.78125 -24.546875 L 32.78125 -18.484375 L 9.21875 -18.484375 C 8.988281 -18.484375 8.796875 -18.410156 8.640625 -18.265625 C 8.492188 -18.128906 8.421875 -17.941406 8.421875 -17.703125 L 8.421875 -15.984375 C 8.421875 -15.753906 8.492188 -15.566406 8.640625 -15.421875 C 8.796875 -15.285156 8.988281 -15.21875 9.21875 -15.21875 L 27.3125 -15.21875 C 29.644531 -15.21875 31.46875 -14.648438 32.78125 -13.515625 C 34.09375 -12.378906 34.75 -10.804688 34.75 -8.796875 L 34.75 -6.375 C 34.75 -4.363281 34.09375 -2.796875 32.78125 -1.671875 C 31.46875 -0.554688 29.644531 0 27.3125 0 Z M 27.3125 0 "/></g></g><g style="fill:#ffffff;fill-opacity:1;"><g transform="translate(340.173961, 72.472079)"><path style="stroke:none" d="M 15.328125 -24.546875 L 22.4375 -24.546875 L 37.875 0 L 29.796875 0 L 27.03125 -4.5625 L 10.6875 -4.5625 L 7.953125 0 L -0.109375 0 Z M 23.8125 -9.921875 L 18.859375 -18.125 L 13.921875 -9.921875 Z M 23.8125 -9.921875 "/></g></g><g style="fill:#ffffff;fill-opacity:1;"><g transform="translate(377.9302, 72.472079)"><path style="stroke:none" d="M 23.078125 0 L 18.375 0 L 9.5 -14.234375 L 9.5 0 L 2.625 0 L 2.625 -24.546875 L 10.34375 -24.546875 L 20.71875 -7.71875 L 31.09375 -24.546875 L 38.8125 -24.546875 L 38.8125 0 L 31.9375 0 L 31.9375 -14.234375 Z M 23.078125 0 "/></g></g><g style="fill:#ffffff;fill-opacity:1;"><g transform="translate(419.36741, 72.472079)"><path style="stroke:none" d="M 32.21875 -15.21875 L 32.21875 -9.359375 L 9.5 -9.359375 L 9.5 -6.0625 L 33.140625 -6.0625 L 33.140625 0 L 2.625 0 L 2.625 -24.546875 L 33.0625 -24.546875 L 33.0625 -18.484375 L 9.5 -18.484375 L 9.5 -15.21875 Z M 32.21875 -15.21875 "/></g></g><g style="fill:#ffffff;fill-opacity:1;"><g transform="translate(454.459327, 72.472079)"><path style="stroke:none" d="M 29 0 L 2.625 0 L 2.625 -24.546875 L 29 -24.546875 C 31.21875 -24.546875 33.003906 -23.878906 34.359375 -22.546875 C 35.765625 -21.210938 36.46875 -19.503906 36.46875 -17.421875 L 36.46875 -7.125 C 36.46875 -5.039062 35.765625 -3.332031 34.359375 -2 C 33.003906 -0.664062 31.21875 0 29 0 Z M 27.484375 -18.484375 L 9.5 -18.484375 L 9.5 -6.0625 L 27.484375 -6.0625 C 28.097656 -6.0625 28.601562 -6.253906 29 -6.640625 C 29.394531 -7.023438 29.59375 -7.523438 29.59375 -8.140625 L 29.59375 -16.40625 C 29.59375 -17.019531 29.394531 -17.519531 29 -17.90625 C 28.601562 -18.289062 28.097656 -18.484375 27.484375 -18.484375 Z M 27.484375 -18.484375 "/></g></g><g style="fill:#ffffff;fill-opacity:1;"><g transform="translate(492.951756, 72.472079)"><path style="stroke:none" d="M 2.625 -24.546875 L 9.5 -24.546875 L 9.5 0 L 2.625 0 Z M 2.625 -24.546875 "/></g></g><g clip-rule="nonzero" clip-path="url(#ebdc19e582)"><g clip-rule="nonzero" clip-path="url(#18652847a5)"><path style=" stroke:none;fill-rule:nonzero;fill:#e1c340;fill-opacity:1;" d="M 405 182.757812 L 655.074219 182.757812 L 655.074219 256.511719 L 405 256.511719 Z M 405 182.757812 "/></g></g><g style="fill:#000000;fill-opacity:1;"><g transform="translate(497.86037, 215.526287)"><path style="stroke:none" d="M 1.546875 -14.421875 L 15.59375 -14.421875 C 16.945312 -14.421875 18.085938 -13.957031 19.015625 -13.03125 C 19.953125 -12.09375 20.421875 -10.960938 20.421875 -9.640625 L 20.421875 -9.21875 C 20.421875 -7.851562 19.992188 -6.722656 19.140625 -5.828125 C 18.304688 -4.960938 17.21875 -4.53125 15.875 -4.53125 L 5.578125 -4.53125 L 5.578125 0 L 1.546875 0 Z M 14.984375 -10.859375 L 5.578125 -10.859375 L 5.578125 -7.96875 L 15 -7.96875 C 15.414062 -7.96875 15.75 -8.082031 16 -8.3125 C 16.257812 -8.539062 16.390625 -8.832031 16.390625 -9.1875 L 16.390625 -9.625 C 16.390625 -9.976562 16.253906 -10.269531 15.984375 -10.5 C 15.722656 -10.738281 15.390625 -10.859375 14.984375 -10.859375 Z M 14.984375 -10.859375 "/></g></g><g style="fill:#000000;fill-opacity:1;"><g transform="translate(518.846194, 215.526287)"><path style="stroke:none" d="M 1.546875 -14.421875 L 15.59375 -14.421875 C 16.945312 -14.421875 18.085938 -13.957031 19.015625 -13.03125 C 19.953125 -12.09375 20.421875 -10.960938 20.421875 -9.640625 L 20.421875 -9.21875 C 20.421875 -7.851562 19.992188 -6.722656 19.140625 -5.828125 C 18.304688 -4.960938 17.21875 -4.53125 15.875 -4.53125 L 5.578125 -4.53125 L 5.578125 0 L 1.546875 0 Z M 14.984375 -10.859375 L 5.578125 -10.859375 L 5.578125 -7.96875 L 15 -7.96875 C 15.414062 -7.96875 15.75 -8.082031 16 -8.3125 C 16.257812 -8.539062 16.390625 -8.832031 16.390625 -9.1875 L 16.390625 -9.625 C 16.390625 -9.976562 16.253906 -10.269531 15.984375 -10.5 C 15.722656 -10.738281 15.390625 -10.859375 14.984375 -10.859375 Z M 14.984375 -10.859375 "/></g></g><g style="fill:#000000;fill-opacity:1;"><g transform="translate(539.832018, 215.526287)"><path style="stroke:none" d="M 17.203125 -0.578125 L 16.171875 0 L 5.609375 0 C 4.316406 0 3.257812 -0.390625 2.4375 -1.171875 C 1.613281 -1.953125 1.203125 -2.957031 1.203125 -4.1875 L 1.203125 -10.25 C 1.203125 -11.46875 1.613281 -12.46875 2.4375 -13.25 C 3.257812 -14.03125 4.316406 -14.421875 5.609375 -14.421875 L 20.71875 -14.421875 L 20.71875 -10.859375 L 6.453125 -10.859375 C 6.109375 -10.859375 5.816406 -10.742188 5.578125 -10.515625 C 5.347656 -10.296875 5.234375 -10.003906 5.234375 -9.640625 L 5.234375 -4.78125 C 5.234375 -4.425781 5.347656 -4.132812 5.578125 -3.90625 C 5.816406 -3.675781 6.109375 -3.5625 6.453125 -3.5625 L 17.1875 -3.5625 L 17.1875 -5.578125 L 7.1875 -5.578125 L 7.1875 -8.828125 L 21.046875 -8.828125 L 21.046875 0 L 17.625 0 Z M 17.203125 -0.578125 "/></g></g><g style="fill:#000000;fill-opacity:1;"><g transform="translate(433.638183, 238.76481)"><path style="stroke:none" d="M 12.96875 -3.78125 L 12.96875 -7.625 C 12.96875 -7.90625 12.875 -8.132812 12.6875 -8.3125 C 12.507812 -8.5 12.28125 -8.59375 12 -8.59375 L 5.1875 -8.59375 C 4.90625 -8.59375 4.671875 -8.5 4.484375 -8.3125 C 4.304688 -8.132812 4.21875 -7.90625 4.21875 -7.625 L 4.21875 -3.78125 C 4.21875 -3.5 4.304688 -3.265625 4.484375 -3.078125 C 4.671875 -2.898438 4.90625 -2.8125 5.1875 -2.8125 L 12 -2.8125 C 12.28125 -2.8125 12.507812 -2.898438 12.6875 -3.078125 C 12.875 -3.265625 12.96875 -3.5 12.96875 -3.78125 Z M 16.171875 -8.09375 L 16.171875 -3.3125 C 16.171875 -2.34375 15.84375 -1.546875 15.1875 -0.921875 C 14.5625 -0.304688 13.726562 0 12.6875 0 L 4.515625 0 C 3.492188 0 2.65625 -0.304688 2 -0.921875 C 1.351562 -1.546875 1.03125 -2.34375 1.03125 -3.3125 L 1.03125 -8.09375 C 1.03125 -9.0625 1.351562 -9.859375 2 -10.484375 C 2.65625 -11.097656 3.492188 -11.40625 4.515625 -11.40625 L 12.6875 -11.40625 C 13.726562 -11.40625 14.5625 -11.097656 15.1875 -10.484375 C 15.84375 -9.859375 16.171875 -9.0625 16.171875 -8.09375 Z M 16.171875 -8.09375 "/></g></g><g style="fill:#000000;fill-opacity:1;"><g transform="translate(450.814651, 238.76481)"><path style="stroke:none" d="M 3.890625 -11.40625 L 11.109375 -11.40625 C 12.128906 -11.40625 12.96875 -11.097656 13.625 -10.484375 C 14.28125 -9.859375 14.609375 -9.0625 14.609375 -8.09375 L 14.609375 -3.3125 C 14.609375 -2.34375 14.28125 -1.546875 13.625 -0.921875 C 12.96875 -0.304688 12.128906 0 11.109375 0 L 1.3125 0 L 1.3125 -2.8125 L 10.453125 -2.8125 C 10.722656 -2.8125 10.945312 -2.898438 11.125 -3.078125 C 11.3125 -3.265625 11.40625 -3.5 11.40625 -3.78125 L 11.40625 -4.4375 L 3.90625 -4.4375 C 2.863281 -4.4375 2.070312 -4.671875 1.53125 -5.140625 C 0.988281 -5.617188 0.71875 -6.320312 0.71875 -7.25 L 0.71875 -8.203125 C 0.71875 -9.191406 1 -9.972656 1.5625 -10.546875 C 2.132812 -11.117188 2.910156 -11.40625 3.890625 -11.40625 Z M 3.90625 -8.234375 L 3.90625 -7.234375 C 3.90625 -7.128906 3.941406 -7.039062 4.015625 -6.96875 C 4.085938 -6.90625 4.175781 -6.875 4.28125 -6.875 L 11.40625 -6.875 L 11.40625 -8.234375 C 11.40625 -8.335938 11.367188 -8.421875 11.296875 -8.484375 C 11.234375 -8.554688 11.144531 -8.59375 11.03125 -8.59375 L 4.28125 -8.59375 C 4.175781 -8.59375 4.085938 -8.554688 4.015625 -8.484375 C 3.941406 -8.421875 3.90625 -8.335938 3.90625 -8.234375 Z M 3.90625 -8.234375 "/></g></g><g style="fill:#000000;fill-opacity:1;"><g transform="translate(466.428148, 238.76481)"><path style="stroke:none" d="M 1.21875 -11.40625 L 4.421875 -11.40625 L 4.421875 -6.96875 L 12.90625 -6.96875 L 12.90625 -11.40625 L 16.09375 -11.40625 L 16.09375 0 L 12.90625 0 L 12.90625 -4.15625 L 4.421875 -4.15625 L 4.421875 0 L 1.21875 0 Z M 1.21875 -11.40625 "/></g></g><g style="fill:#000000;fill-opacity:1;"><g transform="translate(483.734866, 238.76481)"><path style="stroke:none" d="M 12.96875 -3.78125 L 12.96875 -7.625 C 12.96875 -7.90625 12.875 -8.132812 12.6875 -8.3125 C 12.507812 -8.5 12.28125 -8.59375 12 -8.59375 L 5.1875 -8.59375 C 4.90625 -8.59375 4.671875 -8.5 4.484375 -8.3125 C 4.304688 -8.132812 4.21875 -7.90625 4.21875 -7.625 L 4.21875 -3.78125 C 4.21875 -3.5 4.304688 -3.265625 4.484375 -3.078125 C 4.671875 -2.898438 4.90625 -2.8125 5.1875 -2.8125 L 12 -2.8125 C 12.28125 -2.8125 12.507812 -2.898438 12.6875 -3.078125 C 12.875 -3.265625 12.96875 -3.5 12.96875 -3.78125 Z M 16.171875 -8.09375 L 16.171875 -3.3125 C 16.171875 -2.34375 15.84375 -1.546875 15.1875 -0.921875 C 14.5625 -0.304688 13.726562 0 12.6875 0 L 4.515625 0 C 3.492188 0 2.65625 -0.304688 2 -0.921875 C 1.351562 -1.546875 1.03125 -2.34375 1.03125 -3.3125 L 1.03125 -8.09375 C 1.03125 -9.0625 1.351562 -9.859375 2 -10.484375 C 2.65625 -11.097656 3.492188 -11.40625 4.515625 -11.40625 L 12.6875 -11.40625 C 13.726562 -11.40625 14.5625 -11.097656 15.1875 -10.484375 C 15.84375 -9.859375 16.171875 -9.0625 16.171875 -8.09375 Z M 16.171875 -8.09375 "/></g></g><g style="fill:#000000;fill-opacity:1;"><g transform="translate(500.911334, 238.76481)"><path style="stroke:none" d="M 12.96875 -3.78125 L 12.96875 -7.625 C 12.96875 -7.90625 12.875 -8.132812 12.6875 -8.3125 C 12.507812 -8.5 12.28125 -8.59375 12 -8.59375 L 5.1875 -8.59375 C 4.90625 -8.59375 4.671875 -8.5 4.484375 -8.3125 C 4.304688 -8.132812 4.21875 -7.90625 4.21875 -7.625 L 4.21875 -3.78125 C 4.21875 -3.5 4.304688 -3.265625 4.484375 -3.078125 C 4.671875 -2.898438 4.90625 -2.8125 5.1875 -2.8125 L 12 -2.8125 C 12.28125 -2.8125 12.507812 -2.898438 12.6875 -3.078125 C 12.875 -3.265625 12.96875 -3.5 12.96875 -3.78125 Z M 16.171875 -8.09375 L 16.171875 -3.3125 C 16.171875 -2.34375 15.84375 -1.546875 15.1875 -0.921875 C 14.5625 -0.304688 13.726562 0 12.6875 0 L 4.515625 0 C 3.492188 0 2.65625 -0.304688 2 -0.921875 C 1.351562 -1.546875 1.03125 -2.34375 1.03125 -3.3125 L 1.03125 -8.09375 C 1.03125 -9.0625 1.351562 -9.859375 2 -10.484375 C 2.65625 -11.097656 3.492188 -11.40625 4.515625 -11.40625 L 12.6875 -11.40625 C 13.726562 -11.40625 14.5625 -11.097656 15.1875 -10.484375 C 15.84375 -9.859375 16.171875 -9.0625 16.171875 -8.09375 Z M 16.171875 -8.09375 "/></g></g><g style="fill:#000000;fill-opacity:1;"><g transform="translate(518.087802, 238.76481)"><path style="stroke:none" d=""/></g></g><g style="fill:#000000;fill-opacity:1;"><g transform="translate(526.635339, 238.76481)"><path style="stroke:none" d="M 9.453125 -6.84375 L 9.453125 -4.921875 L 1.015625 -4.921875 L 1.015625 -6.84375 Z M 9.453125 -6.84375 "/></g></g><g style="fill:#000000;fill-opacity:1;"><g transform="translate(537.087753, 238.76481)"><path style="stroke:none" d=""/></g></g><g style="fill:#000000;fill-opacity:1;"><g transform="translate(545.635289, 238.76481)"><path style="stroke:none" d="M 12.96875 -3.78125 L 12.96875 -7.625 C 12.96875 -7.90625 12.875 -8.132812 12.6875 -8.3125 C 12.507812 -8.5 12.28125 -8.59375 12 -8.59375 L 5.1875 -8.59375 C 4.90625 -8.59375 4.671875 -8.5 4.484375 -8.3125 C 4.304688 -8.132812 4.21875 -7.90625 4.21875 -7.625 L 4.21875 -3.78125 C 4.21875 -3.5 4.304688 -3.265625 4.484375 -3.078125 C 4.671875 -2.898438 4.90625 -2.8125 5.1875 -2.8125 L 12 -2.8125 C 12.28125 -2.8125 12.507812 -2.898438 12.6875 -3.078125 C 12.875 -3.265625 12.96875 -3.5 12.96875 -3.78125 Z M 16.171875 -8.09375 L 16.171875 -3.3125 C 16.171875 -2.34375 15.84375 -1.546875 15.1875 -0.921875 C 14.5625 -0.304688 13.726562 0 12.6875 0 L 4.515625 0 C 3.492188 0 2.65625 -0.304688 2 -0.921875 C 1.351562 -1.546875 1.03125 -2.34375 1.03125 -3.3125 L 1.03125 -8.09375 C 1.03125 -9.0625 1.351562 -9.859375 2 -10.484375 C 2.65625 -11.097656 3.492188 -11.40625 4.515625 -11.40625 L 12.6875 -11.40625 C 13.726562 -11.40625 14.5625 -11.097656 15.1875 -10.484375 C 15.84375 -9.859375 16.171875 -9.0625 16.171875 -8.09375 Z M 16.171875 -8.09375 "/></g></g><g style="fill:#000000;fill-opacity:1;"><g transform="translate(562.811758, 238.76481)"><path style="stroke:none" d="M 3.890625 -11.40625 L 11.109375 -11.40625 C 12.128906 -11.40625 12.96875 -11.097656 13.625 -10.484375 C 14.28125 -9.859375 14.609375 -9.0625 14.609375 -8.09375 L 14.609375 -3.3125 C 14.609375 -2.34375 14.28125 -1.546875 13.625 -0.921875 C 12.96875 -0.304688 12.128906 0 11.109375 0 L 1.3125 0 L 1.3125 -2.8125 L 10.453125 -2.8125 C 10.722656 -2.8125 10.945312 -2.898438 11.125 -3.078125 C 11.3125 -3.265625 11.40625 -3.5 11.40625 -3.78125 L 11.40625 -4.4375 L 3.90625 -4.4375 C 2.863281 -4.4375 2.070312 -4.671875 1.53125 -5.140625 C 0.988281 -5.617188 0.71875 -6.320312 0.71875 -7.25 L 0.71875 -8.203125 C 0.71875 -9.191406 1 -9.972656 1.5625 -10.546875 C 2.132812 -11.117188 2.910156 -11.40625 3.890625 -11.40625 Z M 3.90625 -8.234375 L 3.90625 -7.234375 C 3.90625 -7.128906 3.941406 -7.039062 4.015625 -6.96875 C 4.085938 -6.90625 4.175781 -6.875 4.28125 -6.875 L 11.40625 -6.875 L 11.40625 -8.234375 C 11.40625 -8.335938 11.367188 -8.421875 11.296875 -8.484375 C 11.234375 -8.554688 11.144531 -8.59375 11.03125 -8.59375 L 4.28125 -8.59375 C 4.175781 -8.59375 4.085938 -8.554688 4.015625 -8.484375 C 3.941406 -8.421875 3.90625 -8.335938 3.90625 -8.234375 Z M 3.90625 -8.234375 "/></g></g><g style="fill:#000000;fill-opacity:1;"><g transform="translate(578.425255, 238.76481)"><path style="stroke:none" d="M 1.21875 -11.40625 L 4.421875 -11.40625 L 4.421875 -6.96875 L 12.90625 -6.96875 L 12.90625 -11.40625 L 16.09375 -11.40625 L 16.09375 0 L 12.90625 0 L 12.90625 -4.15625 L 4.421875 -4.15625 L 4.421875 0 L 1.21875 0 Z M 1.21875 -11.40625 "/></g></g><g style="fill:#000000;fill-opacity:1;"><g transform="translate(595.731973, 238.76481)"><path style="stroke:none" d="M 0.53125 -1.890625 L 0.53125 -5.796875 L 9.15625 -11.40625 L 13.390625 -11.40625 L 13.390625 -4.5 L 14.84375 -4.5 L 14.84375 -1.890625 L 13.390625 -1.890625 L 13.390625 0 L 10.203125 0 L 10.203125 -1.890625 Z M 3.546875 -4.59375 L 3.546875 -4.5 L 10.203125 -4.5 L 10.203125 -8.59375 L 10.078125 -8.59375 Z M 3.546875 -4.59375 "/></g></g><g style="fill:#000000;fill-opacity:1;"><g transform="translate(611.101247, 238.76481)"><path style="stroke:none" d="M 11.109375 0 L 1.078125 0 L 1.078125 -2.8125 L 10.984375 -2.8125 C 11.085938 -2.8125 11.175781 -2.84375 11.25 -2.90625 C 11.320312 -2.976562 11.359375 -3.066406 11.359375 -3.171875 L 11.359375 -4.109375 C 11.359375 -4.210938 11.320312 -4.296875 11.25 -4.359375 C 11.175781 -4.429688 11.085938 -4.46875 10.984375 -4.46875 L 1.125 -4.46875 L 1.125 -11.40625 L 13.84375 -11.40625 L 13.84375 -8.59375 L 4.3125 -8.59375 L 4.3125 -7.15625 L 11.109375 -7.15625 C 12.203125 -7.15625 13.046875 -6.898438 13.640625 -6.390625 C 14.242188 -5.878906 14.546875 -5.15625 14.546875 -4.21875 L 14.546875 -2.859375 C 14.546875 -1.929688 14.253906 -1.222656 13.671875 -0.734375 C 13.085938 -0.242188 12.234375 0 11.109375 0 Z M 11.109375 0 "/></g></g><g clip-rule="nonzero" clip-path="url(#55d1f76a95)"><g clip-rule="nonzero" clip-path="url(#29d255ae33)"><path style=" stroke:none;fill-rule:nonzero;fill:#e1c340;fill-opacity:1;" d="M 196.828125 756.546875 L 233.515625 756.546875 L 233.515625 787.238281 L 196.828125 787.238281 Z M 196.828125 756.546875 "/></g></g><g style="fill:#ffffff;fill-opacity:1;"><g transform="translate(264.527547, 779.590333)"><path style="stroke:none" d="M 18.09375 0 L 1.75 0 L 1.75 -4.015625 L 17.9375 -4.015625 C 18.09375 -4.015625 18.21875 -4.0625 18.3125 -4.15625 C 18.414062 -4.25 18.46875 -4.375 18.46875 -4.53125 L 18.46875 -5.6875 C 18.46875 -5.84375 18.414062 -5.96875 18.3125 -6.0625 C 18.21875 -6.15625 18.09375 -6.203125 17.9375 -6.203125 L 5.953125 -6.203125 C 4.378906 -6.203125 3.160156 -6.570312 2.296875 -7.3125 C 1.441406 -8.0625 1.015625 -9.109375 1.015625 -10.453125 L 1.015625 -11.984375 C 1.015625 -13.335938 1.445312 -14.390625 2.3125 -15.140625 C 3.1875 -15.890625 4.398438 -16.265625 5.953125 -16.265625 L 21.71875 -16.265625 L 21.71875 -12.25 L 6.109375 -12.25 C 5.953125 -12.25 5.820312 -12.203125 5.71875 -12.109375 C 5.625 -12.015625 5.578125 -11.890625 5.578125 -11.734375 L 5.578125 -10.59375 C 5.578125 -10.4375 5.625 -10.3125 5.71875 -10.21875 C 5.820312 -10.125 5.953125 -10.078125 6.109375 -10.078125 L 18.09375 -10.078125 C 19.644531 -10.078125 20.851562 -9.703125 21.71875 -8.953125 C 22.59375 -8.203125 23.03125 -7.160156 23.03125 -5.828125 L 23.03125 -4.234375 C 23.03125 -2.898438 22.59375 -1.859375 21.71875 -1.109375 C 20.851562 -0.367188 19.644531 0 18.09375 0 Z M 18.09375 0 "/></g></g><g style="fill:#ffffff;fill-opacity:1;"><g transform="translate(288.425612, 779.590333)"><path style="stroke:none" d="M 15.28125 0 L 12.171875 0 L 6.296875 -9.4375 L 6.296875 0 L 1.75 0 L 1.75 -16.265625 L 6.859375 -16.265625 L 13.734375 -5.109375 L 20.609375 -16.265625 L 25.71875 -16.265625 L 25.71875 0 L 21.171875 0 L 21.171875 -9.4375 Z M 15.28125 0 "/></g></g><g style="fill:#ffffff;fill-opacity:1;"><g transform="translate(315.877037, 779.590333)"><path style="stroke:none" d="M 10.15625 -16.265625 L 14.875 -16.265625 L 25.09375 0 L 19.75 0 L 17.90625 -3.015625 L 7.09375 -3.015625 L 5.28125 0 L -0.0625 0 Z M 15.78125 -6.578125 L 12.5 -12.015625 L 9.21875 -6.578125 Z M 15.78125 -6.578125 "/></g></g><g style="fill:#ffffff;fill-opacity:1;"><g transform="translate(340.889881, 779.590333)"><path style="stroke:none" d="M 1.75 -16.265625 L 6.296875 -16.265625 L 6.296875 -4.015625 L 20.90625 -4.015625 L 20.90625 0 L 1.75 0 Z M 1.75 -16.265625 "/></g></g><g style="fill:#ffffff;fill-opacity:1;"><g transform="translate(362.233238, 779.590333)"><path style="stroke:none" d="M 1.75 -16.265625 L 6.296875 -16.265625 L 6.296875 -4.015625 L 20.90625 -4.015625 L 20.90625 0 L 1.75 0 Z M 1.75 -16.265625 "/></g></g><g style="fill:#ffffff;fill-opacity:1;"><g transform="translate(383.297711, 779.590333)"><path style="stroke:none" d="M 19.40625 -0.65625 L 18.234375 0 L 6.3125 0 C 4.863281 0 3.671875 -0.441406 2.734375 -1.328125 C 1.804688 -2.210938 1.34375 -3.34375 1.34375 -4.71875 L 1.34375 -11.546875 C 1.34375 -12.921875 1.804688 -14.050781 2.734375 -14.9375 C 3.671875 -15.820312 4.863281 -16.265625 6.3125 -16.265625 L 23.34375 -16.265625 L 23.34375 -12.25 L 7.265625 -12.25 C 6.878906 -12.25 6.554688 -12.117188 6.296875 -11.859375 C 6.035156 -11.609375 5.90625 -11.28125 5.90625 -10.875 L 5.90625 -5.390625 C 5.90625 -4.984375 6.035156 -4.648438 6.296875 -4.390625 C 6.554688 -4.140625 6.878906 -4.015625 7.265625 -4.015625 L 19.375 -4.015625 L 19.375 -6.296875 L 8.109375 -6.296875 L 8.109375 -9.9375 L 23.71875 -9.9375 L 23.71875 0 L 19.859375 0 Z M 19.40625 -0.65625 "/></g></g><g style="fill:#ffffff;fill-opacity:1;"><g transform="translate(408.426682, 779.590333)"><path style="stroke:none" d="M 6.296875 0 L 1.75 0 L 1.75 -16.265625 L 17.515625 -16.265625 C 19.109375 -16.265625 20.425781 -15.757812 21.46875 -14.75 C 22.507812 -13.757812 23.03125 -12.484375 23.03125 -10.921875 L 23.03125 -10.484375 C 23.03125 -9.273438 22.65625 -8.210938 21.90625 -7.296875 C 21.164062 -6.378906 20.179688 -5.742188 18.953125 -5.390625 L 23.296875 0 L 18.140625 0 L 14.15625 -5.140625 L 6.296875 -5.140625 Z M 16.9375 -12.25 L 6.296875 -12.25 L 6.296875 -9.015625 L 16.96875 -9.015625 C 17.425781 -9.015625 17.789062 -9.140625 18.0625 -9.390625 C 18.332031 -9.648438 18.46875 -10 18.46875 -10.4375 L 18.46875 -10.828125 C 18.46875 -11.265625 18.328125 -11.609375 18.046875 -11.859375 C 17.773438 -12.117188 17.40625 -12.25 16.9375 -12.25 Z M 16.9375 -12.25 "/></g></g><g style="fill:#ffffff;fill-opacity:1;"><g transform="translate(432.324747, 779.590333)"><path style="stroke:none" d="M 19.671875 -5.390625 L 19.671875 -10.875 C 19.671875 -11.28125 19.539062 -11.609375 19.28125 -11.859375 C 19.019531 -12.117188 18.6875 -12.25 18.28125 -12.25 L 7.265625 -12.25 C 6.878906 -12.25 6.554688 -12.117188 6.296875 -11.859375 C 6.035156 -11.609375 5.90625 -11.28125 5.90625 -10.875 L 5.90625 -5.390625 C 5.90625 -4.984375 6.035156 -4.648438 6.296875 -4.390625 C 6.554688 -4.140625 6.878906 -4.015625 7.265625 -4.015625 L 18.28125 -4.015625 C 18.6875 -4.015625 19.019531 -4.140625 19.28125 -4.390625 C 19.539062 -4.648438 19.671875 -4.984375 19.671875 -5.390625 Z M 24.234375 -11.546875 L 24.234375 -4.71875 C 24.234375 -3.34375 23.769531 -2.210938 22.84375 -1.328125 C 21.9375 -0.441406 20.75 0 19.28125 0 L 6.3125 0 C 4.863281 0 3.671875 -0.441406 2.734375 -1.328125 C 1.804688 -2.210938 1.34375 -3.34375 1.34375 -4.71875 L 1.34375 -11.546875 C 1.34375 -12.921875 1.804688 -14.050781 2.734375 -14.9375 C 3.671875 -15.820312 4.863281 -16.265625 6.3125 -16.265625 L 19.28125 -16.265625 C 20.75 -16.265625 21.9375 -15.820312 22.84375 -14.9375 C 23.769531 -14.050781 24.234375 -12.921875 24.234375 -11.546875 Z M 24.234375 -11.546875 "/></g></g><g style="fill:#ffffff;fill-opacity:1;"><g transform="translate(457.894979, 779.590333)"><path style="stroke:none" d="M 18.28125 -16.265625 L 22.84375 -16.265625 L 22.84375 -4.71875 C 22.84375 -3.34375 22.378906 -2.210938 21.453125 -1.328125 C 20.546875 -0.441406 19.359375 0 17.890625 0 L 6.59375 0 C 5.144531 0 3.953125 -0.441406 3.015625 -1.328125 C 2.085938 -2.210938 1.625 -3.34375 1.625 -4.71875 L 1.625 -16.265625 L 6.1875 -16.265625 L 6.1875 -5.390625 C 6.1875 -4.984375 6.316406 -4.648438 6.578125 -4.390625 C 6.835938 -4.140625 7.160156 -4.015625 7.546875 -4.015625 L 16.890625 -4.015625 C 17.296875 -4.015625 17.628906 -4.140625 17.890625 -4.390625 C 18.148438 -4.648438 18.28125 -4.984375 18.28125 -5.390625 Z M 18.28125 -16.265625 "/></g></g><g style="fill:#ffffff;fill-opacity:1;"><g transform="translate(482.350433, 779.590333)"><path style="stroke:none" d="M 1.75 -16.265625 L 17.59375 -16.265625 C 19.101562 -16.265625 20.390625 -15.738281 21.453125 -14.6875 C 22.503906 -13.632812 23.03125 -12.363281 23.03125 -10.875 L 23.03125 -10.390625 C 23.03125 -8.847656 22.546875 -7.578125 21.578125 -6.578125 C 20.640625 -5.597656 19.410156 -5.109375 17.890625 -5.109375 L 6.296875 -5.109375 L 6.296875 0 L 1.75 0 Z M 16.890625 -12.25 L 6.296875 -12.25 L 6.296875 -8.984375 L 16.921875 -8.984375 C 17.378906 -8.984375 17.75 -9.113281 18.03125 -9.375 C 18.320312 -9.632812 18.46875 -9.960938 18.46875 -10.359375 L 18.46875 -10.84375 C 18.46875 -11.25 18.320312 -11.582031 18.03125 -11.84375 C 17.738281 -12.113281 17.359375 -12.25 16.890625 -12.25 Z M 16.890625 -12.25 "/></g></g><g style="fill:#ffffff;fill-opacity:1;"><g transform="translate(505.993033, 779.590333)"><path style="stroke:none" d="M 18.09375 0 L 1.75 0 L 1.75 -4.015625 L 17.9375 -4.015625 C 18.09375 -4.015625 18.21875 -4.0625 18.3125 -4.15625 C 18.414062 -4.25 18.46875 -4.375 18.46875 -4.53125 L 18.46875 -5.6875 C 18.46875 -5.84375 18.414062 -5.96875 18.3125 -6.0625 C 18.21875 -6.15625 18.09375 -6.203125 17.9375 -6.203125 L 5.953125 -6.203125 C 4.378906 -6.203125 3.160156 -6.570312 2.296875 -7.3125 C 1.441406 -8.0625 1.015625 -9.109375 1.015625 -10.453125 L 1.015625 -11.984375 C 1.015625 -13.335938 1.445312 -14.390625 2.3125 -15.140625 C 3.1875 -15.890625 4.398438 -16.265625 5.953125 -16.265625 L 21.71875 -16.265625 L 21.71875 -12.25 L 6.109375 -12.25 C 5.953125 -12.25 5.820312 -12.203125 5.71875 -12.109375 C 5.625 -12.015625 5.578125 -11.890625 5.578125 -11.734375 L 5.578125 -10.59375 C 5.578125 -10.4375 5.625 -10.3125 5.71875 -10.21875 C 5.820312 -10.125 5.953125 -10.078125 6.109375 -10.078125 L 18.09375 -10.078125 C 19.644531 -10.078125 20.851562 -9.703125 21.71875 -8.953125 C 22.59375 -8.203125 23.03125 -7.160156 23.03125 -5.828125 L 23.03125 -4.234375 C 23.03125 -2.898438 22.59375 -1.859375 21.71875 -1.109375 C 20.851562 -0.367188 19.644531 0 18.09375 0 Z M 18.09375 0 "/></g></g><g clip-rule="nonzero" clip-path="url(#2d356015a1)"><g clip-rule="nonzero" clip-path="url(#a0a50bcae6)"><path style=" stroke:none;fill-rule:nonzero;fill:#fffdfd;fill-opacity:1;" d="M 196.828125 686.144531 L 233.515625 686.144531 L 233.515625 716.832031 L 196.828125 716.832031 Z M 196.828125 686.144531 "/></g></g><g style="fill:#ffffff;fill-opacity:1;"><g transform="translate(264.431313, 693.991998)"><path style="stroke:none" d="M 7.265625 -4.015625 L 22.671875 -4.015625 L 22.671875 0 L 6.3125 0 C 4.863281 0 3.671875 -0.441406 2.734375 -1.328125 C 1.804688 -2.210938 1.34375 -3.34375 1.34375 -4.71875 L 1.34375 -11.546875 C 1.34375 -12.921875 1.804688 -14.050781 2.734375 -14.9375 C 3.671875 -15.820312 4.863281 -16.265625 6.3125 -16.265625 L 22.46875 -16.265625 L 22.46875 -12.25 L 7.265625 -12.25 C 6.878906 -12.25 6.554688 -12.117188 6.296875 -11.859375 C 6.035156 -11.609375 5.90625 -11.28125 5.90625 -10.875 L 5.90625 -5.390625 C 5.90625 -4.984375 6.035156 -4.648438 6.296875 -4.390625 C 6.554688 -4.140625 6.878906 -4.015625 7.265625 -4.015625 Z M 7.265625 -4.015625 "/></g></g><g style="fill:#ffffff;fill-opacity:1;"><g transform="translate(288.018342, 693.991998)"><path style="stroke:none" d="M 19.671875 -5.390625 L 19.671875 -10.875 C 19.671875 -11.28125 19.539062 -11.609375 19.28125 -11.859375 C 19.019531 -12.117188 18.6875 -12.25 18.28125 -12.25 L 7.265625 -12.25 C 6.878906 -12.25 6.554688 -12.117188 6.296875 -11.859375 C 6.035156 -11.609375 5.90625 -11.28125 5.90625 -10.875 L 5.90625 -5.390625 C 5.90625 -4.984375 6.035156 -4.648438 6.296875 -4.390625 C 6.554688 -4.140625 6.878906 -4.015625 7.265625 -4.015625 L 18.28125 -4.015625 C 18.6875 -4.015625 19.019531 -4.140625 19.28125 -4.390625 C 19.539062 -4.648438 19.671875 -4.984375 19.671875 -5.390625 Z M 24.234375 -11.546875 L 24.234375 -4.71875 C 24.234375 -3.34375 23.769531 -2.210938 22.84375 -1.328125 C 21.9375 -0.441406 20.75 0 19.28125 0 L 6.3125 0 C 4.863281 0 3.671875 -0.441406 2.734375 -1.328125 C 1.804688 -2.210938 1.34375 -3.34375 1.34375 -4.71875 L 1.34375 -11.546875 C 1.34375 -12.921875 1.804688 -14.050781 2.734375 -14.9375 C 3.671875 -15.820312 4.863281 -16.265625 6.3125 -16.265625 L 19.28125 -16.265625 C 20.75 -16.265625 21.9375 -15.820312 22.84375 -14.9375 C 23.769531 -14.050781 24.234375 -12.921875 24.234375 -11.546875 Z M 24.234375 -11.546875 "/></g></g><g style="fill:#ffffff;fill-opacity:1;"><g transform="translate(313.603873, 693.991998)"><path style="stroke:none" d="M 18.28125 -16.265625 L 22.84375 -16.265625 L 22.84375 -4.71875 C 22.84375 -3.34375 22.378906 -2.210938 21.453125 -1.328125 C 20.546875 -0.441406 19.359375 0 17.890625 0 L 6.59375 0 C 5.144531 0 3.953125 -0.441406 3.015625 -1.328125 C 2.085938 -2.210938 1.625 -3.34375 1.625 -4.71875 L 1.625 -16.265625 L 6.1875 -16.265625 L 6.1875 -5.390625 C 6.1875 -4.984375 6.316406 -4.648438 6.578125 -4.390625 C 6.835938 -4.140625 7.160156 -4.015625 7.546875 -4.015625 L 16.890625 -4.015625 C 17.296875 -4.015625 17.628906 -4.140625 17.890625 -4.390625 C 18.148438 -4.648438 18.28125 -4.984375 18.28125 -5.390625 Z M 18.28125 -16.265625 "/></g></g><g style="fill:#ffffff;fill-opacity:1;"><g transform="translate(338.073961, 693.991998)"><path style="stroke:none" d="M 6.296875 0 L 1.75 0 L 1.75 -16.265625 L 17.515625 -16.265625 C 19.109375 -16.265625 20.425781 -15.757812 21.46875 -14.75 C 22.507812 -13.757812 23.03125 -12.484375 23.03125 -10.921875 L 23.03125 -10.484375 C 23.03125 -9.273438 22.65625 -8.210938 21.90625 -7.296875 C 21.164062 -6.378906 20.179688 -5.742188 18.953125 -5.390625 L 23.296875 0 L 18.140625 0 L 14.15625 -5.140625 L 6.296875 -5.140625 Z M 16.9375 -12.25 L 6.296875 -12.25 L 6.296875 -9.015625 L 16.96875 -9.015625 C 17.425781 -9.015625 17.789062 -9.140625 18.0625 -9.390625 C 18.332031 -9.648438 18.46875 -10 18.46875 -10.4375 L 18.46875 -10.828125 C 18.46875 -11.265625 18.328125 -11.609375 18.046875 -11.859375 C 17.773438 -12.117188 17.40625 -12.25 16.9375 -12.25 Z M 16.9375 -12.25 "/></g></g><g style="fill:#ffffff;fill-opacity:1;"><g transform="translate(361.986322, 693.991998)"><path style="stroke:none" d="M 18.09375 0 L 1.75 0 L 1.75 -4.015625 L 17.9375 -4.015625 C 18.09375 -4.015625 18.21875 -4.0625 18.3125 -4.15625 C 18.414062 -4.25 18.46875 -4.375 18.46875 -4.53125 L 18.46875 -5.6875 C 18.46875 -5.84375 18.414062 -5.96875 18.3125 -6.0625 C 18.21875 -6.15625 18.09375 -6.203125 17.9375 -6.203125 L 5.953125 -6.203125 C 4.378906 -6.203125 3.160156 -6.570312 2.296875 -7.3125 C 1.441406 -8.0625 1.015625 -9.109375 1.015625 -10.453125 L 1.015625 -11.984375 C 1.015625 -13.335938 1.445312 -14.390625 2.3125 -15.140625 C 3.1875 -15.890625 4.398438 -16.265625 5.953125 -16.265625 L 21.71875 -16.265625 L 21.71875 -12.25 L 6.109375 -12.25 C 5.953125 -12.25 5.820312 -12.203125 5.71875 -12.109375 C 5.625 -12.015625 5.578125 -11.890625 5.578125 -11.734375 L 5.578125 -10.59375 C 5.578125 -10.4375 5.625 -10.3125 5.71875 -10.21875 C 5.820312 -10.125 5.953125 -10.078125 6.109375 -10.078125 L 18.09375 -10.078125 C 19.644531 -10.078125 20.851562 -9.703125 21.71875 -8.953125 C 22.59375 -8.203125 23.03125 -7.160156 23.03125 -5.828125 L 23.03125 -4.234375 C 23.03125 -2.898438 22.59375 -1.859375 21.71875 -1.109375 C 20.851562 -0.367188 19.644531 0 18.09375 0 Z M 18.09375 0 "/></g></g><g style="fill:#ffffff;fill-opacity:1;"><g transform="translate(385.898683, 693.991998)"><path style="stroke:none" d=""/></g></g><g style="fill:#ffffff;fill-opacity:1;"><g transform="translate(398.098869, 693.991998)"><path style="stroke:none" d="M 7.265625 -4.015625 L 22.671875 -4.015625 L 22.671875 0 L 6.3125 0 C 4.863281 0 3.671875 -0.441406 2.734375 -1.328125 C 1.804688 -2.210938 1.34375 -3.34375 1.34375 -4.71875 L 1.34375 -11.546875 C 1.34375 -12.921875 1.804688 -14.050781 2.734375 -14.9375 C 3.671875 -15.820312 4.863281 -16.265625 6.3125 -16.265625 L 22.46875 -16.265625 L 22.46875 -12.25 L 7.265625 -12.25 C 6.878906 -12.25 6.554688 -12.117188 6.296875 -11.859375 C 6.035156 -11.609375 5.90625 -11.28125 5.90625 -10.875 L 5.90625 -5.390625 C 5.90625 -4.984375 6.035156 -4.648438 6.296875 -4.390625 C 6.554688 -4.140625 6.878906 -4.015625 7.265625 -4.015625 Z M 7.265625 -4.015625 "/></g></g><g style="fill:#ffffff;fill-opacity:1;"><g transform="translate(421.685898, 693.991998)"><path style="stroke:none" d="M 19.671875 -5.390625 L 19.671875 -10.875 C 19.671875 -11.28125 19.539062 -11.609375 19.28125 -11.859375 C 19.019531 -12.117188 18.6875 -12.25 18.28125 -12.25 L 7.265625 -12.25 C 6.878906 -12.25 6.554688 -12.117188 6.296875 -11.859375 C 6.035156 -11.609375 5.90625 -11.28125 5.90625 -10.875 L 5.90625 -5.390625 C 5.90625 -4.984375 6.035156 -4.648438 6.296875 -4.390625 C 6.554688 -4.140625 6.878906 -4.015625 7.265625 -4.015625 L 18.28125 -4.015625 C 18.6875 -4.015625 19.019531 -4.140625 19.28125 -4.390625 C 19.539062 -4.648438 19.671875 -4.984375 19.671875 -5.390625 Z M 24.234375 -11.546875 L 24.234375 -4.71875 C 24.234375 -3.34375 23.769531 -2.210938 22.84375 -1.328125 C 21.9375 -0.441406 20.75 0 19.28125 0 L 6.3125 0 C 4.863281 0 3.671875 -0.441406 2.734375 -1.328125 C 1.804688 -2.210938 1.34375 -3.34375 1.34375 -4.71875 L 1.34375 -11.546875 C 1.34375 -12.921875 1.804688 -14.050781 2.734375 -14.9375 C 3.671875 -15.820312 4.863281 -16.265625 6.3125 -16.265625 L 19.28125 -16.265625 C 20.75 -16.265625 21.9375 -15.820312 22.84375 -14.9375 C 23.769531 -14.050781 24.234375 -12.921875 24.234375 -11.546875 Z M 24.234375 -11.546875 "/></g></g><g style="fill:#ffffff;fill-opacity:1;"><g transform="translate(447.271429, 693.991998)"><path style="stroke:none" d="M 1.75 -16.265625 L 6.296875 -16.265625 L 6.296875 -4.015625 L 20.90625 -4.015625 L 20.90625 0 L 1.75 0 Z M 1.75 -16.265625 "/></g></g><g style="fill:#ffffff;fill-opacity:1;"><g transform="translate(468.62755, 693.991998)"><path style="stroke:none" d="M 1.75 -16.265625 L 6.296875 -16.265625 L 6.296875 -4.015625 L 20.90625 -4.015625 L 20.90625 0 L 1.75 0 Z M 1.75 -16.265625 "/></g></g><g style="fill:#ffffff;fill-opacity:1;"><g transform="translate(489.983694, 693.991998)"><path style="stroke:none" d="M 21.359375 -10.078125 L 21.359375 -6.203125 L 6.296875 -6.203125 L 6.296875 -4.015625 L 21.953125 -4.015625 L 21.953125 0 L 1.75 0 L 1.75 -16.265625 L 21.90625 -16.265625 L 21.90625 -12.25 L 6.296875 -12.25 L 6.296875 -10.078125 Z M 21.359375 -10.078125 "/></g></g><g style="fill:#ffffff;fill-opacity:1;"><g transform="translate(513.24539, 693.991998)"><path style="stroke:none" d="M 7.265625 -4.015625 L 22.671875 -4.015625 L 22.671875 0 L 6.3125 0 C 4.863281 0 3.671875 -0.441406 2.734375 -1.328125 C 1.804688 -2.210938 1.34375 -3.34375 1.34375 -4.71875 L 1.34375 -11.546875 C 1.34375 -12.921875 1.804688 -14.050781 2.734375 -14.9375 C 3.671875 -15.820312 4.863281 -16.265625 6.3125 -16.265625 L 22.46875 -16.265625 L 22.46875 -12.25 L 7.265625 -12.25 C 6.878906 -12.25 6.554688 -12.117188 6.296875 -11.859375 C 6.035156 -11.609375 5.90625 -11.28125 5.90625 -10.875 L 5.90625 -5.390625 C 5.90625 -4.984375 6.035156 -4.648438 6.296875 -4.390625 C 6.554688 -4.140625 6.878906 -4.015625 7.265625 -4.015625 Z M 7.265625 -4.015625 "/></g></g><g style="fill:#ffffff;fill-opacity:1;"><g transform="translate(536.83242, 693.991998)"><path style="stroke:none" d="M 22.4375 -16.265625 L 22.4375 -12.25 L 13.703125 -12.25 L 13.703125 0 L 9.15625 0 L 9.15625 -12.25 L 0.421875 -12.25 L 0.421875 -16.265625 Z M 22.4375 -16.265625 "/></g></g><g style="fill:#ffffff;fill-opacity:1;"><g transform="translate(559.699055, 693.991998)"><path style="stroke:none" d="M 1.75 -16.265625 L 6.296875 -16.265625 L 6.296875 0 L 1.75 0 Z M 1.75 -16.265625 "/></g></g><g style="fill:#ffffff;fill-opacity:1;"><g transform="translate(567.739548, 693.991998)"><path style="stroke:none" d="M 21.03125 -9.265625 L 21.03125 -5.390625 L 6.296875 -5.390625 L 6.296875 0 L 1.75 0 L 1.75 -16.265625 L 21.90625 -16.265625 L 21.90625 -12.25 L 6.296875 -12.25 L 6.296875 -9.265625 Z M 21.03125 -9.265625 "/></g></g><g style="fill:#ffffff;fill-opacity:1;"><g transform="translate(590.536456, 693.991998)"><path style="stroke:none" d="M 18.09375 0 L 1.75 0 L 1.75 -4.015625 L 17.9375 -4.015625 C 18.09375 -4.015625 18.21875 -4.0625 18.3125 -4.15625 C 18.414062 -4.25 18.46875 -4.375 18.46875 -4.53125 L 18.46875 -5.6875 C 18.46875 -5.84375 18.414062 -5.96875 18.3125 -6.0625 C 18.21875 -6.15625 18.09375 -6.203125 17.9375 -6.203125 L 5.953125 -6.203125 C 4.378906 -6.203125 3.160156 -6.570312 2.296875 -7.3125 C 1.441406 -8.0625 1.015625 -9.109375 1.015625 -10.453125 L 1.015625 -11.984375 C 1.015625 -13.335938 1.445312 -14.390625 2.3125 -15.140625 C 3.1875 -15.890625 4.398438 -16.265625 5.953125 -16.265625 L 21.71875 -16.265625 L 21.71875 -12.25 L 6.109375 -12.25 C 5.953125 -12.25 5.820312 -12.203125 5.71875 -12.109375 C 5.625 -12.015625 5.578125 -11.890625 5.578125 -11.734375 L 5.578125 -10.59375 C 5.578125 -10.4375 5.625 -10.3125 5.71875 -10.21875 C 5.820312 -10.125 5.953125 -10.078125 6.109375 -10.078125 L 18.09375 -10.078125 C 19.644531 -10.078125 20.851562 -9.703125 21.71875 -8.953125 C 22.59375 -8.203125 23.03125 -7.160156 23.03125 -5.828125 L 23.03125 -4.234375 C 23.03125 -2.898438 22.59375 -1.859375 21.71875 -1.109375 C 20.851562 -0.367188 19.644531 0 18.09375 0 Z M 18.09375 0 "/></g></g><g style="fill:#ffffff;fill-opacity:1;"><g transform="translate(264.431313, 726.226078)"><path style="stroke:none" d="M 6.875 -1.25 L 8.984375 -1.25 L 8.984375 2.328125 L 6.53125 2.328125 C 5.132812 2.328125 3.914062 1.820312 2.875 0.8125 C 1.875 -0.195312 1.375 -1.410156 1.375 -2.828125 L 1.375 -13.421875 C 1.375 -14.847656 1.875 -16.066406 2.875 -17.078125 C 3.914062 -18.085938 5.132812 -18.59375 6.53125 -18.59375 L 8.984375 -18.59375 L 8.984375 -15.015625 L 6.875 -15.015625 C 6.46875 -15.015625 6.132812 -14.878906 5.875 -14.609375 C 5.613281 -14.347656 5.484375 -14.015625 5.484375 -13.609375 L 5.484375 -2.65625 C 5.484375 -2.25 5.613281 -1.910156 5.875 -1.640625 C 6.132812 -1.378906 6.46875 -1.25 6.875 -1.25 Z M 6.875 -1.25 "/></g></g><g style="fill:#ffffff;fill-opacity:1;"><g transform="translate(274.168218, 726.226078)"><path style="stroke:none" d="M 21.03125 -9.265625 L 21.03125 -5.390625 L 6.296875 -5.390625 L 6.296875 0 L 1.75 0 L 1.75 -16.265625 L 21.90625 -16.265625 L 21.90625 -12.25 L 6.296875 -12.25 L 6.296875 -9.265625 Z M 21.03125 -9.265625 "/></g></g><g style="fill:#ffffff;fill-opacity:1;"><g transform="translate(296.802471, 726.226078)"><path style="stroke:none" d="M 19.671875 -5.390625 L 19.671875 -10.875 C 19.671875 -11.28125 19.539062 -11.609375 19.28125 -11.859375 C 19.019531 -12.117188 18.6875 -12.25 18.28125 -12.25 L 7.265625 -12.25 C 6.878906 -12.25 6.554688 -12.117188 6.296875 -11.859375 C 6.035156 -11.609375 5.90625 -11.28125 5.90625 -10.875 L 5.90625 -5.390625 C 5.90625 -4.984375 6.035156 -4.648438 6.296875 -4.390625 C 6.554688 -4.140625 6.878906 -4.015625 7.265625 -4.015625 L 18.28125 -4.015625 C 18.6875 -4.015625 19.019531 -4.140625 19.28125 -4.390625 C 19.539062 -4.648438 19.671875 -4.984375 19.671875 -5.390625 Z M 24.234375 -11.546875 L 24.234375 -4.71875 C 24.234375 -3.34375 23.769531 -2.210938 22.84375 -1.328125 C 21.9375 -0.441406 20.75 0 19.28125 0 L 6.3125 0 C 4.863281 0 3.671875 -0.441406 2.734375 -1.328125 C 1.804688 -2.210938 1.34375 -3.34375 1.34375 -4.71875 L 1.34375 -11.546875 C 1.34375 -12.921875 1.804688 -14.050781 2.734375 -14.9375 C 3.671875 -15.820312 4.863281 -16.265625 6.3125 -16.265625 L 19.28125 -16.265625 C 20.75 -16.265625 21.9375 -15.820312 22.84375 -14.9375 C 23.769531 -14.050781 24.234375 -12.921875 24.234375 -11.546875 Z M 24.234375 -11.546875 "/></g></g><g style="fill:#ffffff;fill-opacity:1;"><g transform="translate(322.388002, 726.226078)"><path style="stroke:none" d="M 6.296875 0 L 1.75 0 L 1.75 -16.265625 L 17.515625 -16.265625 C 19.109375 -16.265625 20.425781 -15.757812 21.46875 -14.75 C 22.507812 -13.757812 23.03125 -12.484375 23.03125 -10.921875 L 23.03125 -10.484375 C 23.03125 -9.273438 22.65625 -8.210938 21.90625 -7.296875 C 21.164062 -6.378906 20.179688 -5.742188 18.953125 -5.390625 L 23.296875 0 L 18.140625 0 L 14.15625 -5.140625 L 6.296875 -5.140625 Z M 16.9375 -12.25 L 6.296875 -12.25 L 6.296875 -9.015625 L 16.96875 -9.015625 C 17.425781 -9.015625 17.789062 -9.140625 18.0625 -9.390625 C 18.332031 -9.648438 18.46875 -10 18.46875 -10.4375 L 18.46875 -10.828125 C 18.46875 -11.265625 18.328125 -11.609375 18.046875 -11.859375 C 17.773438 -12.117188 17.40625 -12.25 16.9375 -12.25 Z M 16.9375 -12.25 "/></g></g><g style="fill:#ffffff;fill-opacity:1;"><g transform="translate(346.300363, 726.226078)"><path style="stroke:none" d="M 15.28125 0 L 12.171875 0 L 6.296875 -9.4375 L 6.296875 0 L 1.75 0 L 1.75 -16.265625 L 6.859375 -16.265625 L 13.734375 -5.109375 L 20.609375 -16.265625 L 25.71875 -16.265625 L 25.71875 0 L 21.171875 0 L 21.171875 -9.4375 Z M 15.28125 0 "/></g></g><g style="fill:#ffffff;fill-opacity:1;"><g transform="translate(373.768204, 726.226078)"><path style="stroke:none" d="M 18.28125 -16.265625 L 22.84375 -16.265625 L 22.84375 -4.71875 C 22.84375 -3.34375 22.378906 -2.210938 21.453125 -1.328125 C 20.546875 -0.441406 19.359375 0 17.890625 0 L 6.59375 0 C 5.144531 0 3.953125 -0.441406 3.015625 -1.328125 C 2.085938 -2.210938 1.625 -3.34375 1.625 -4.71875 L 1.625 -16.265625 L 6.1875 -16.265625 L 6.1875 -5.390625 C 6.1875 -4.984375 6.316406 -4.648438 6.578125 -4.390625 C 6.835938 -4.140625 7.160156 -4.015625 7.546875 -4.015625 L 16.890625 -4.015625 C 17.296875 -4.015625 17.628906 -4.140625 17.890625 -4.390625 C 18.148438 -4.648438 18.28125 -4.984375 18.28125 -5.390625 Z M 18.28125 -16.265625 "/></g></g><g style="fill:#ffffff;fill-opacity:1;"><g transform="translate(398.238292, 726.226078)"><path style="stroke:none" d="M 1.75 -16.265625 L 6.296875 -16.265625 L 6.296875 -4.015625 L 20.90625 -4.015625 L 20.90625 0 L 1.75 0 Z M 1.75 -16.265625 "/></g></g><g style="fill:#ffffff;fill-opacity:1;"><g transform="translate(419.594425, 726.226078)"><path style="stroke:none" d="M 21.359375 -10.078125 L 21.359375 -6.203125 L 6.296875 -6.203125 L 6.296875 -4.015625 L 21.953125 -4.015625 L 21.953125 0 L 1.75 0 L 1.75 -16.265625 L 21.90625 -16.265625 L 21.90625 -12.25 L 6.296875 -12.25 L 6.296875 -10.078125 Z M 21.359375 -10.078125 "/></g></g><g style="fill:#ffffff;fill-opacity:1;"><g transform="translate(442.85611, 726.226078)"><path style="stroke:none" d=""/></g></g><g style="fill:#ffffff;fill-opacity:1;"><g transform="translate(455.056295, 726.226078)"><path style="stroke:none" d="M 1.75 0 L 1.75 -16.265625 L 17.75 -16.265625 C 19.300781 -16.265625 20.546875 -15.867188 21.484375 -15.078125 C 22.429688 -14.316406 22.90625 -13.285156 22.90625 -11.984375 L 22.90625 -11.578125 C 22.90625 -10.367188 22.300781 -9.375 21.09375 -8.59375 C 21.882812 -8.226562 22.503906 -7.722656 22.953125 -7.078125 C 23.398438 -6.429688 23.625 -5.707031 23.625 -4.90625 L 23.625 -4.5 C 23.625 -3.15625 23.140625 -2.066406 22.171875 -1.234375 C 21.203125 -0.410156 19.921875 0 18.328125 0 Z M 17.75 -6.484375 L 6.296875 -6.484375 L 6.296875 -4.015625 L 17.75 -4.015625 C 18.164062 -4.015625 18.488281 -4.109375 18.71875 -4.296875 C 18.957031 -4.484375 19.078125 -4.738281 19.078125 -5.0625 L 19.078125 -5.453125 C 19.078125 -6.140625 18.632812 -6.484375 17.75 -6.484375 Z M 17.140625 -12.25 L 6.296875 -12.25 L 6.296875 -9.875 L 17.140625 -9.875 C 17.953125 -9.875 18.359375 -10.195312 18.359375 -10.84375 L 18.359375 -11.296875 C 18.359375 -11.929688 17.953125 -12.25 17.140625 -12.25 Z M 17.140625 -12.25 "/></g></g><g style="fill:#ffffff;fill-opacity:1;"><g transform="translate(479.596101, 726.226078)"><path style="stroke:none" d="M 19.671875 -5.390625 L 19.671875 -10.875 C 19.671875 -11.28125 19.539062 -11.609375 19.28125 -11.859375 C 19.019531 -12.117188 18.6875 -12.25 18.28125 -12.25 L 7.265625 -12.25 C 6.878906 -12.25 6.554688 -12.117188 6.296875 -11.859375 C 6.035156 -11.609375 5.90625 -11.28125 5.90625 -10.875 L 5.90625 -5.390625 C 5.90625 -4.984375 6.035156 -4.648438 6.296875 -4.390625 C 6.554688 -4.140625 6.878906 -4.015625 7.265625 -4.015625 L 18.28125 -4.015625 C 18.6875 -4.015625 19.019531 -4.140625 19.28125 -4.390625 C 19.539062 -4.648438 19.671875 -4.984375 19.671875 -5.390625 Z M 24.234375 -11.546875 L 24.234375 -4.71875 C 24.234375 -3.34375 23.769531 -2.210938 22.84375 -1.328125 C 21.9375 -0.441406 20.75 0 19.28125 0 L 6.3125 0 C 4.863281 0 3.671875 -0.441406 2.734375 -1.328125 C 1.804688 -2.210938 1.34375 -3.34375 1.34375 -4.71875 L 1.34375 -11.546875 C 1.34375 -12.921875 1.804688 -14.050781 2.734375 -14.9375 C 3.671875 -15.820312 4.863281 -16.265625 6.3125 -16.265625 L 19.28125 -16.265625 C 20.75 -16.265625 21.9375 -15.820312 22.84375 -14.9375 C 23.769531 -14.050781 24.234375 -12.921875 24.234375 -11.546875 Z M 24.234375 -11.546875 "/></g></g><g style="fill:#ffffff;fill-opacity:1;"><g transform="translate(505.181632, 726.226078)"><path style="stroke:none" d="M 19.671875 -5.390625 L 19.671875 -10.875 C 19.671875 -11.28125 19.539062 -11.609375 19.28125 -11.859375 C 19.019531 -12.117188 18.6875 -12.25 18.28125 -12.25 L 7.265625 -12.25 C 6.878906 -12.25 6.554688 -12.117188 6.296875 -11.859375 C 6.035156 -11.609375 5.90625 -11.28125 5.90625 -10.875 L 5.90625 -5.390625 C 5.90625 -4.984375 6.035156 -4.648438 6.296875 -4.390625 C 6.554688 -4.140625 6.878906 -4.015625 7.265625 -4.015625 L 18.28125 -4.015625 C 18.6875 -4.015625 19.019531 -4.140625 19.28125 -4.390625 C 19.539062 -4.648438 19.671875 -4.984375 19.671875 -5.390625 Z M 24.234375 -11.546875 L 24.234375 -4.71875 C 24.234375 -3.34375 23.769531 -2.210938 22.84375 -1.328125 C 21.9375 -0.441406 20.75 0 19.28125 0 L 6.3125 0 C 4.863281 0 3.671875 -0.441406 2.734375 -1.328125 C 1.804688 -2.210938 1.34375 -3.34375 1.34375 -4.71875 L 1.34375 -11.546875 C 1.34375 -12.921875 1.804688 -14.050781 2.734375 -14.9375 C 3.671875 -15.820312 4.863281 -16.265625 6.3125 -16.265625 L 19.28125 -16.265625 C 20.75 -16.265625 21.9375 -15.820312 22.84375 -14.9375 C 23.769531 -14.050781 24.234375 -12.921875 24.234375 -11.546875 Z M 24.234375 -11.546875 "/></g></g><g style="fill:#ffffff;fill-opacity:1;"><g transform="translate(530.767163, 726.226078)"><path style="stroke:none" d="M 18.09375 0 L 1.75 0 L 1.75 -4.015625 L 17.9375 -4.015625 C 18.09375 -4.015625 18.21875 -4.0625 18.3125 -4.15625 C 18.414062 -4.25 18.46875 -4.375 18.46875 -4.53125 L 18.46875 -5.6875 C 18.46875 -5.84375 18.414062 -5.96875 18.3125 -6.0625 C 18.21875 -6.15625 18.09375 -6.203125 17.9375 -6.203125 L 5.953125 -6.203125 C 4.378906 -6.203125 3.160156 -6.570312 2.296875 -7.3125 C 1.441406 -8.0625 1.015625 -9.109375 1.015625 -10.453125 L 1.015625 -11.984375 C 1.015625 -13.335938 1.445312 -14.390625 2.3125 -15.140625 C 3.1875 -15.890625 4.398438 -16.265625 5.953125 -16.265625 L 21.71875 -16.265625 L 21.71875 -12.25 L 6.109375 -12.25 C 5.953125 -12.25 5.820312 -12.203125 5.71875 -12.109375 C 5.625 -12.015625 5.578125 -11.890625 5.578125 -11.734375 L 5.578125 -10.59375 C 5.578125 -10.4375 5.625 -10.3125 5.71875 -10.21875 C 5.820312 -10.125 5.953125 -10.078125 6.109375 -10.078125 L 18.09375 -10.078125 C 19.644531 -10.078125 20.851562 -9.703125 21.71875 -8.953125 C 22.59375 -8.203125 23.03125 -7.160156 23.03125 -5.828125 L 23.03125 -4.234375 C 23.03125 -2.898438 22.59375 -1.859375 21.71875 -1.109375 C 20.851562 -0.367188 19.644531 0 18.09375 0 Z M 18.09375 0 "/></g></g><g style="fill:#ffffff;fill-opacity:1;"><g transform="translate(554.307706, 726.226078)"><path style="stroke:none" d="M 22.4375 -16.265625 L 22.4375 -12.25 L 13.703125 -12.25 L 13.703125 0 L 9.15625 0 L 9.15625 -12.25 L 0.421875 -12.25 L 0.421875 -16.265625 Z M 22.4375 -16.265625 "/></g></g><g style="fill:#ffffff;fill-opacity:1;"><g transform="translate(577.174341, 726.226078)"><path style="stroke:none" d="M 2.859375 -15.015625 L 0.75 -15.015625 L 0.75 -18.59375 L 3.203125 -18.59375 C 4.628906 -18.59375 5.847656 -18.085938 6.859375 -17.078125 C 7.859375 -16.066406 8.359375 -14.847656 8.359375 -13.421875 L 8.359375 -2.828125 C 8.359375 -1.410156 7.859375 -0.195312 6.859375 0.8125 C 5.847656 1.820312 4.628906 2.328125 3.203125 2.328125 L 0.75 2.328125 L 0.75 -1.25 L 2.859375 -1.25 C 3.242188 -1.25 3.570312 -1.378906 3.84375 -1.640625 C 4.113281 -1.910156 4.25 -2.25 4.25 -2.65625 L 4.25 -13.609375 C 4.25 -14.015625 4.113281 -14.347656 3.84375 -14.609375 C 3.570312 -14.878906 3.242188 -15.015625 2.859375 -15.015625 Z M 2.859375 -15.015625 "/></g></g></g></svg>