<svg xmlns="http://www.w3.org/2000/svg" xmlns:xlink="http://www.w3.org/1999/xlink" width="1080" zoomAndPan="magnify" viewBox="0 0 810 1012.49997" height="1350" preserveAspectRatio="xMidYMid meet" version="1.0"><defs><g/><clipPath id="2d83f1aa12"><path d="M 0.199219 0 L 809.800781 0 L 809.800781 1012 L 0.199219 1012 Z M 0.199219 0 " clip-rule="nonzero"/></clipPath><clipPath id="5f0cc9437c"><path d="M 154.988281 139.964844 L 655.136719 139.964844 L 655.136719 213.71875 L 154.988281 213.71875 Z M 154.988281 139.964844 " clip-rule="nonzero"/></clipPath><clipPath id="48a16dd7f2"><path d="M 161.734375 139.964844 L 648.265625 139.964844 C 651.992188 139.964844 655.011719 142.984375 655.011719 146.710938 L 655.011719 206.972656 C 655.011719 210.699219 651.992188 213.71875 648.265625 213.71875 L 161.734375 213.71875 C 158.007812 213.71875 154.988281 210.699219 154.988281 206.972656 L 154.988281 146.710938 C 154.988281 142.984375 158.007812 139.964844 161.734375 139.964844 Z M 161.734375 139.964844 " clip-rule="nonzero"/></clipPath><clipPath id="976f51b5df"><path d="M 0.988281 0.964844 L 501.078125 0.964844 L 501.078125 74.71875 L 0.988281 74.71875 Z M 0.988281 0.964844 " clip-rule="nonzero"/></clipPath><clipPath id="54d7067715"><path d="M 7.734375 0.964844 L 494.265625 0.964844 C 497.992188 0.964844 501.011719 3.984375 501.011719 7.710938 L 501.011719 67.972656 C 501.011719 71.699219 497.992188 74.71875 494.265625 74.71875 L 7.734375 74.71875 C 4.007812 74.71875 0.988281 71.699219 0.988281 67.972656 L 0.988281 7.710938 C 0.988281 3.984375 4.007812 0.964844 7.734375 0.964844 Z M 7.734375 0.964844 " clip-rule="nonzero"/></clipPath><clipPath id="e1052af229"><rect x="0" width="502" y="0" height="75"/></clipPath><clipPath id="9661e21063"><path d="M 154.988281 261.070312 L 655.066406 261.070312 L 655.066406 338.097656 L 154.988281 338.097656 Z M 154.988281 261.070312 " clip-rule="nonzero"/></clipPath><clipPath id="706a77465d"><path d="M 161.734375 261.070312 L 648.265625 261.070312 C 651.992188 261.070312 655.011719 264.089844 655.011719 267.816406 L 655.011719 331.351562 C 655.011719 335.078125 651.992188 338.097656 648.265625 338.097656 L 161.734375 338.097656 C 158.007812 338.097656 154.988281 335.078125 154.988281 331.351562 L 154.988281 267.816406 C 154.988281 264.089844 158.007812 261.070312 161.734375 261.070312 Z M 161.734375 261.070312 " clip-rule="nonzero"/></clipPath><clipPath id="5286f24631"><path d="M 0.988281 0.0703125 L 501.066406 0.0703125 L 501.066406 77.097656 L 0.988281 77.097656 Z M 0.988281 0.0703125 " clip-rule="nonzero"/></clipPath><clipPath id="786fa5f6ee"><path d="M 7.734375 0.0703125 L 494.265625 0.0703125 C 497.992188 0.0703125 501.011719 3.089844 501.011719 6.816406 L 501.011719 70.351562 C 501.011719 74.078125 497.992188 77.097656 494.265625 77.097656 L 7.734375 77.097656 C 4.007812 77.097656 0.988281 74.078125 0.988281 70.351562 L 0.988281 6.816406 C 0.988281 3.089844 4.007812 0.0703125 7.734375 0.0703125 Z M 7.734375 0.0703125 " clip-rule="nonzero"/></clipPath><clipPath id="d0c449a851"><rect x="0" width="502" y="0" height="78"/></clipPath><clipPath id="47d87ec3f6"><path d="M 154.988281 385.324219 L 655.066406 385.324219 L 655.066406 462.351562 L 154.988281 462.351562 Z M 154.988281 385.324219 " clip-rule="nonzero"/></clipPath><clipPath id="ad7c7c5b62"><path d="M 161.734375 385.324219 L 648.265625 385.324219 C 651.992188 385.324219 655.011719 388.34375 655.011719 392.070312 L 655.011719 455.605469 C 655.011719 459.332031 651.992188 462.351562 648.265625 462.351562 L 161.734375 462.351562 C 158.007812 462.351562 154.988281 459.332031 154.988281 455.605469 L 154.988281 392.070312 C 154.988281 388.34375 158.007812 385.324219 161.734375 385.324219 Z M 161.734375 385.324219 " clip-rule="nonzero"/></clipPath><clipPath id="f9afcb7be4"><path d="M 0.988281 0.324219 L 501.066406 0.324219 L 501.066406 77.351562 L 0.988281 77.351562 Z M 0.988281 0.324219 " clip-rule="nonzero"/></clipPath><clipPath id="3e856f2259"><path d="M 7.734375 0.324219 L 494.265625 0.324219 C 497.992188 0.324219 501.011719 3.34375 501.011719 7.070312 L 501.011719 70.605469 C 501.011719 74.332031 497.992188 77.351562 494.265625 77.351562 L 7.734375 77.351562 C 4.007812 77.351562 0.988281 74.332031 0.988281 70.605469 L 0.988281 7.070312 C 0.988281 3.34375 4.007812 0.324219 7.734375 0.324219 Z M 7.734375 0.324219 " clip-rule="nonzero"/></clipPath><clipPath id="0cbbf4658f"><rect x="0" width="502" y="0" height="78"/></clipPath><clipPath id="db26dd9721"><path d="M 154.988281 561.550781 L 655.136719 561.550781 L 655.136719 642.535156 L 154.988281 642.535156 Z M 154.988281 561.550781 " clip-rule="nonzero"/></clipPath><clipPath id="47ec54717d"><path d="M 161.734375 561.550781 L 648.265625 561.550781 C 651.992188 561.550781 655.011719 564.570312 655.011719 568.296875 L 655.011719 635.789062 C 655.011719 639.515625 651.992188 642.535156 648.265625 642.535156 L 161.734375 642.535156 C 158.007812 642.535156 154.988281 639.515625 154.988281 635.789062 L 154.988281 568.296875 C 154.988281 564.570312 158.007812 561.550781 161.734375 561.550781 Z M 161.734375 561.550781 " clip-rule="nonzero"/></clipPath><clipPath id="1268bde6fc"><path d="M 0.988281 0.550781 L 501.078125 0.550781 L 501.078125 81.535156 L 0.988281 81.535156 Z M 0.988281 0.550781 " clip-rule="nonzero"/></clipPath><clipPath id="e06b3fce6f"><path d="M 7.734375 0.550781 L 494.265625 0.550781 C 497.992188 0.550781 501.011719 3.570312 501.011719 7.296875 L 501.011719 74.789062 C 501.011719 78.515625 497.992188 81.535156 494.265625 81.535156 L 7.734375 81.535156 C 4.007812 81.535156 0.988281 78.515625 0.988281 74.789062 L 0.988281 7.296875 C 0.988281 3.570312 4.007812 0.550781 7.734375 0.550781 Z M 7.734375 0.550781 " clip-rule="nonzero"/></clipPath><clipPath id="b9dc8764f7"><rect x="0" width="502" y="0" height="82"/></clipPath><clipPath id="4a88b9e7d9"><path d="M 154.988281 689.761719 L 655.066406 689.761719 L 655.066406 766.789062 L 154.988281 766.789062 Z M 154.988281 689.761719 " clip-rule="nonzero"/></clipPath><clipPath id="b3bb16649d"><path d="M 161.734375 689.761719 L 648.265625 689.761719 C 651.992188 689.761719 655.011719 692.78125 655.011719 696.507812 L 655.011719 760.042969 C 655.011719 763.769531 651.992188 766.789062 648.265625 766.789062 L 161.734375 766.789062 C 158.007812 766.789062 154.988281 763.769531 154.988281 760.042969 L 154.988281 696.507812 C 154.988281 692.78125 158.007812 689.761719 161.734375 689.761719 Z M 161.734375 689.761719 " clip-rule="nonzero"/></clipPath><clipPath id="f89519695b"><path d="M 0.988281 0.761719 L 501.066406 0.761719 L 501.066406 77.789062 L 0.988281 77.789062 Z M 0.988281 0.761719 " clip-rule="nonzero"/></clipPath><clipPath id="0f8ee8f456"><path d="M 7.734375 0.761719 L 494.265625 0.761719 C 497.992188 0.761719 501.011719 3.78125 501.011719 7.507812 L 501.011719 71.042969 C 501.011719 74.769531 497.992188 77.789062 494.265625 77.789062 L 7.734375 77.789062 C 4.007812 77.789062 0.988281 74.769531 0.988281 71.042969 L 0.988281 7.507812 C 0.988281 3.78125 4.007812 0.761719 7.734375 0.761719 Z M 7.734375 0.761719 " clip-rule="nonzero"/></clipPath><clipPath id="30718524f5"><rect x="0" width="502" y="0" height="78"/></clipPath><clipPath id="70d46358d7"><path d="M 0.199219 509 L 809.800781 509 L 809.800781 515 L 0.199219 515 Z M 0.199219 509 " clip-rule="nonzero"/></clipPath></defs><g clip-path="url(#2d83f1aa12)"><path fill="#ffffff" d="M 0.199219 0 L 809.800781 0 L 809.800781 1012 L 0.199219 1012 Z M 0.199219 0 " fill-opacity="1" fill-rule="nonzero"/><path fill="#242424" d="M 0.199219 0 L 809.800781 0 L 809.800781 1012 L 0.199219 1012 Z M 0.199219 0 " fill-opacity="1" fill-rule="nonzero"/></g><g clip-path="url(#5f0cc9437c)"><g clip-path="url(#48a16dd7f2)"><g transform="matrix(1, 0, 0, 1, 154, 139)"><g clip-path="url(#e1052af229)"><g clip-path="url(#976f51b5df)"><g clip-path="url(#54d7067715)"><path fill="#e1c340" d="M 0.988281 0.964844 L 501.136719 0.964844 L 501.136719 74.71875 L 0.988281 74.71875 Z M 0.988281 0.964844 " fill-opacity="1" fill-rule="nonzero"/></g></g></g></g></g></g><g fill="#000000" fill-opacity="1"><g transform="translate(298.693658, 172.731445)"><g><path d="M 6.453125 -3.5625 L 20.109375 -3.5625 L 20.109375 0 L 5.609375 0 C 4.316406 0 3.257812 -0.390625 2.4375 -1.171875 C 1.613281 -1.953125 1.203125 -2.957031 1.203125 -4.1875 L 1.203125 -10.25 C 1.203125 -11.46875 1.613281 -12.46875 2.4375 -13.25 C 3.257812 -14.03125 4.316406 -14.421875 5.609375 -14.421875 L 19.921875 -14.421875 L 19.921875 -10.859375 L 6.453125 -10.859375 C 6.109375 -10.859375 5.816406 -10.742188 5.578125 -10.515625 C 5.347656 -10.296875 5.234375 -10.003906 5.234375 -9.640625 L 5.234375 -4.78125 C 5.234375 -4.425781 5.347656 -4.132812 5.578125 -3.90625 C 5.816406 -3.675781 6.109375 -3.5625 6.453125 -3.5625 Z M 6.453125 -3.5625 "/></g></g></g><g fill="#000000" fill-opacity="1"><g transform="translate(319.617635, 172.731445)"><g><path d="M 9 -14.421875 L 13.1875 -14.421875 L 22.265625 0 L 17.515625 0 L 15.890625 -2.671875 L 6.28125 -2.671875 L 4.671875 0 L -0.0625 0 Z M 14 -5.828125 L 11.09375 -10.65625 L 8.1875 -5.828125 Z M 14 -5.828125 "/></g></g></g><g fill="#000000" fill-opacity="1"><g transform="translate(341.81972, 172.731445)"><g><path d="M 5.578125 0 L 1.546875 0 L 1.546875 -14.421875 L 15.546875 -14.421875 C 16.953125 -14.421875 18.117188 -13.976562 19.046875 -13.09375 C 19.960938 -12.207031 20.421875 -11.070312 20.421875 -9.6875 L 20.421875 -9.296875 C 20.421875 -8.222656 20.09375 -7.28125 19.4375 -6.46875 C 18.78125 -5.65625 17.90625 -5.09375 16.8125 -4.78125 L 20.671875 0 L 16.09375 0 L 12.546875 -4.546875 L 5.578125 -4.546875 Z M 15.03125 -10.859375 L 5.578125 -10.859375 L 5.578125 -8 L 15.046875 -8 C 15.453125 -8 15.773438 -8.109375 16.015625 -8.328125 C 16.265625 -8.554688 16.390625 -8.863281 16.390625 -9.25 L 16.390625 -9.609375 C 16.390625 -9.992188 16.265625 -10.296875 16.015625 -10.515625 C 15.765625 -10.742188 15.4375 -10.859375 15.03125 -10.859375 Z M 15.03125 -10.859375 "/></g></g></g><g fill="#000000" fill-opacity="1"><g transform="translate(363.0323, 172.731445)"><g><path d="M 17.046875 0 L 1.546875 0 L 1.546875 -14.421875 L 17.046875 -14.421875 C 18.347656 -14.421875 19.398438 -14.03125 20.203125 -13.25 C 21.023438 -12.46875 21.4375 -11.46875 21.4375 -10.25 L 21.4375 -4.1875 C 21.4375 -2.957031 21.023438 -1.953125 20.203125 -1.171875 C 19.398438 -0.390625 18.347656 0 17.046875 0 Z M 16.15625 -10.859375 L 5.578125 -10.859375 L 5.578125 -3.5625 L 16.15625 -3.5625 C 16.507812 -3.5625 16.800781 -3.675781 17.03125 -3.90625 C 17.269531 -4.132812 17.390625 -4.425781 17.390625 -4.78125 L 17.390625 -9.640625 C 17.390625 -10.003906 17.269531 -10.296875 17.03125 -10.515625 C 16.800781 -10.742188 16.507812 -10.859375 16.15625 -10.859375 Z M 16.15625 -10.859375 "/></g></g></g><g fill="#000000" fill-opacity="1"><g transform="translate(385.667297, 172.731445)"><g><path d="M 1.546875 -14.421875 L 5.578125 -14.421875 L 5.578125 0 L 1.546875 0 Z M 1.546875 -14.421875 "/></g></g></g><g fill="#000000" fill-opacity="1"><g transform="translate(392.800001, 172.731445)"><g><path d="M 17.453125 -4.78125 L 17.453125 -9.640625 C 17.453125 -10.003906 17.332031 -10.296875 17.09375 -10.515625 C 16.863281 -10.742188 16.570312 -10.859375 16.21875 -10.859375 L 6.453125 -10.859375 C 6.109375 -10.859375 5.816406 -10.742188 5.578125 -10.515625 C 5.347656 -10.296875 5.234375 -10.003906 5.234375 -9.640625 L 5.234375 -4.78125 C 5.234375 -4.425781 5.347656 -4.132812 5.578125 -3.90625 C 5.816406 -3.675781 6.109375 -3.5625 6.453125 -3.5625 L 16.21875 -3.5625 C 16.570312 -3.5625 16.863281 -3.675781 17.09375 -3.90625 C 17.332031 -4.132812 17.453125 -4.425781 17.453125 -4.78125 Z M 21.5 -10.25 L 21.5 -4.1875 C 21.5 -2.957031 21.085938 -1.953125 20.265625 -1.171875 C 19.460938 -0.390625 18.410156 0 17.109375 0 L 5.609375 0 C 4.316406 0 3.257812 -0.390625 2.4375 -1.171875 C 1.613281 -1.953125 1.203125 -2.957031 1.203125 -4.1875 L 1.203125 -10.25 C 1.203125 -11.46875 1.613281 -12.46875 2.4375 -13.25 C 3.257812 -14.03125 4.316406 -14.421875 5.609375 -14.421875 L 17.109375 -14.421875 C 18.410156 -14.421875 19.460938 -14.03125 20.265625 -13.25 C 21.085938 -12.46875 21.5 -11.46875 21.5 -10.25 Z M 21.5 -10.25 "/></g></g></g><g fill="#000000" fill-opacity="1"><g transform="translate(415.496844, 172.731445)"><g/></g></g><g fill="#000000" fill-opacity="1"><g transform="translate(426.31959, 172.731445)"><g><path d="M 1.546875 0 L 1.546875 -14.421875 L 15.75 -14.421875 C 17.125 -14.421875 18.226562 -14.070312 19.0625 -13.375 C 19.90625 -12.695312 20.328125 -11.785156 20.328125 -10.640625 L 20.328125 -10.265625 C 20.328125 -9.191406 19.789062 -8.3125 18.71875 -7.625 C 19.414062 -7.289062 19.960938 -6.835938 20.359375 -6.265625 C 20.753906 -5.703125 20.953125 -5.0625 20.953125 -4.34375 L 20.953125 -4 C 20.953125 -2.800781 20.519531 -1.832031 19.65625 -1.09375 C 18.8125 -0.363281 17.679688 0 16.265625 0 Z M 15.75 -5.75 L 5.578125 -5.75 L 5.578125 -3.5625 L 15.75 -3.5625 C 16.113281 -3.5625 16.398438 -3.644531 16.609375 -3.8125 C 16.816406 -3.976562 16.921875 -4.207031 16.921875 -4.5 L 16.921875 -4.84375 C 16.921875 -5.445312 16.53125 -5.75 15.75 -5.75 Z M 15.203125 -10.859375 L 5.578125 -10.859375 L 5.578125 -8.765625 L 15.203125 -8.765625 C 15.921875 -8.765625 16.28125 -9.050781 16.28125 -9.625 L 16.28125 -10.015625 C 16.28125 -10.578125 15.921875 -10.859375 15.203125 -10.859375 Z M 15.203125 -10.859375 "/></g></g></g><g fill="#000000" fill-opacity="1"><g transform="translate(448.088776, 172.731445)"><g><path d="M 17.453125 -4.78125 L 17.453125 -9.640625 C 17.453125 -10.003906 17.332031 -10.296875 17.09375 -10.515625 C 16.863281 -10.742188 16.570312 -10.859375 16.21875 -10.859375 L 6.453125 -10.859375 C 6.109375 -10.859375 5.816406 -10.742188 5.578125 -10.515625 C 5.347656 -10.296875 5.234375 -10.003906 5.234375 -9.640625 L 5.234375 -4.78125 C 5.234375 -4.425781 5.347656 -4.132812 5.578125 -3.90625 C 5.816406 -3.675781 6.109375 -3.5625 6.453125 -3.5625 L 16.21875 -3.5625 C 16.570312 -3.5625 16.863281 -3.675781 17.09375 -3.90625 C 17.332031 -4.132812 17.453125 -4.425781 17.453125 -4.78125 Z M 21.5 -10.25 L 21.5 -4.1875 C 21.5 -2.957031 21.085938 -1.953125 20.265625 -1.171875 C 19.460938 -0.390625 18.410156 0 17.109375 0 L 5.609375 0 C 4.316406 0 3.257812 -0.390625 2.4375 -1.171875 C 1.613281 -1.953125 1.203125 -2.957031 1.203125 -4.1875 L 1.203125 -10.25 C 1.203125 -11.46875 1.613281 -12.46875 2.4375 -13.25 C 3.257812 -14.03125 4.316406 -14.421875 5.609375 -14.421875 L 17.109375 -14.421875 C 18.410156 -14.421875 19.460938 -14.03125 20.265625 -13.25 C 21.085938 -12.46875 21.5 -11.46875 21.5 -10.25 Z M 21.5 -10.25 "/></g></g></g><g fill="#000000" fill-opacity="1"><g transform="translate(470.002258, 172.731445)"><g><path d="M 7.5625 -7.34375 L -0.109375 -14.421875 L 5.5 -14.421875 L 10.3125 -9.8125 L 15.140625 -14.421875 L 20.71875 -14.421875 L 13.0625 -7.34375 L 21 0 L 15.484375 0 L 10.328125 -4.734375 L 5.125 0 L -0.375 0 Z M 7.5625 -7.34375 "/></g></g></g><g fill="#000000" fill-opacity="1"><g transform="translate(490.637631, 172.731445)"><g><path d="M 18.9375 -8.9375 L 18.9375 -5.5 L 5.578125 -5.5 L 5.578125 -3.5625 L 19.46875 -3.5625 L 19.46875 0 L 1.546875 0 L 1.546875 -14.421875 L 19.4375 -14.421875 L 19.4375 -10.859375 L 5.578125 -10.859375 L 5.578125 -8.9375 Z M 18.9375 -8.9375 "/></g></g></g><g fill="#000000" fill-opacity="1"><g transform="translate(308.626253, 195.969968)"><g><path d="M 12.96875 -3.78125 L 12.96875 -7.625 C 12.96875 -7.90625 12.875 -8.132812 12.6875 -8.3125 C 12.507812 -8.5 12.28125 -8.59375 12 -8.59375 L 5.1875 -8.59375 C 4.90625 -8.59375 4.671875 -8.5 4.484375 -8.3125 C 4.304688 -8.132812 4.21875 -7.90625 4.21875 -7.625 L 4.21875 -3.78125 C 4.21875 -3.5 4.304688 -3.265625 4.484375 -3.078125 C 4.671875 -2.898438 4.90625 -2.8125 5.1875 -2.8125 L 12 -2.8125 C 12.28125 -2.8125 12.507812 -2.898438 12.6875 -3.078125 C 12.875 -3.265625 12.96875 -3.5 12.96875 -3.78125 Z M 16.171875 -8.09375 L 16.171875 -3.3125 C 16.171875 -2.34375 15.84375 -1.546875 15.1875 -0.921875 C 14.5625 -0.304688 13.726562 0 12.6875 0 L 4.515625 0 C 3.492188 0 2.65625 -0.304688 2 -0.921875 C 1.351562 -1.546875 1.03125 -2.34375 1.03125 -3.3125 L 1.03125 -8.09375 C 1.03125 -9.0625 1.351562 -9.859375 2 -10.484375 C 2.65625 -11.097656 3.492188 -11.40625 4.515625 -11.40625 L 12.6875 -11.40625 C 13.726562 -11.40625 14.5625 -11.097656 15.1875 -10.484375 C 15.84375 -9.859375 16.171875 -9.0625 16.171875 -8.09375 Z M 16.171875 -8.09375 "/></g></g></g><g fill="#000000" fill-opacity="1"><g transform="translate(325.802721, 195.969968)"><g><path d="M 3.890625 -11.40625 L 11.109375 -11.40625 C 12.128906 -11.40625 12.96875 -11.097656 13.625 -10.484375 C 14.28125 -9.859375 14.609375 -9.0625 14.609375 -8.09375 L 14.609375 -3.3125 C 14.609375 -2.34375 14.28125 -1.546875 13.625 -0.921875 C 12.96875 -0.304688 12.128906 0 11.109375 0 L 1.3125 0 L 1.3125 -2.8125 L 10.453125 -2.8125 C 10.722656 -2.8125 10.945312 -2.898438 11.125 -3.078125 C 11.3125 -3.265625 11.40625 -3.5 11.40625 -3.78125 L 11.40625 -4.4375 L 3.90625 -4.4375 C 2.863281 -4.4375 2.070312 -4.671875 1.53125 -5.140625 C 0.988281 -5.617188 0.71875 -6.320312 0.71875 -7.25 L 0.71875 -8.203125 C 0.71875 -9.191406 1 -9.972656 1.5625 -10.546875 C 2.132812 -11.117188 2.910156 -11.40625 3.890625 -11.40625 Z M 3.90625 -8.234375 L 3.90625 -7.234375 C 3.90625 -7.128906 3.941406 -7.039062 4.015625 -6.96875 C 4.085938 -6.90625 4.175781 -6.875 4.28125 -6.875 L 11.40625 -6.875 L 11.40625 -8.234375 C 11.40625 -8.335938 11.367188 -8.421875 11.296875 -8.484375 C 11.234375 -8.554688 11.144531 -8.59375 11.03125 -8.59375 L 4.28125 -8.59375 C 4.175781 -8.59375 4.085938 -8.554688 4.015625 -8.484375 C 3.941406 -8.421875 3.90625 -8.335938 3.90625 -8.234375 Z M 3.90625 -8.234375 "/></g></g></g><g fill="#000000" fill-opacity="1"><g transform="translate(341.416218, 195.969968)"><g><path d="M 1.21875 -11.40625 L 4.421875 -11.40625 L 4.421875 -6.96875 L 12.90625 -6.96875 L 12.90625 -11.40625 L 16.09375 -11.40625 L 16.09375 0 L 12.90625 0 L 12.90625 -4.15625 L 4.421875 -4.15625 L 4.421875 0 L 1.21875 0 Z M 1.21875 -11.40625 "/></g></g></g><g fill="#000000" fill-opacity="1"><g transform="translate(358.722936, 195.969968)"><g><path d="M 12.96875 -3.78125 L 12.96875 -7.625 C 12.96875 -7.90625 12.875 -8.132812 12.6875 -8.3125 C 12.507812 -8.5 12.28125 -8.59375 12 -8.59375 L 5.1875 -8.59375 C 4.90625 -8.59375 4.671875 -8.5 4.484375 -8.3125 C 4.304688 -8.132812 4.21875 -7.90625 4.21875 -7.625 L 4.21875 -3.78125 C 4.21875 -3.5 4.304688 -3.265625 4.484375 -3.078125 C 4.671875 -2.898438 4.90625 -2.8125 5.1875 -2.8125 L 12 -2.8125 C 12.28125 -2.8125 12.507812 -2.898438 12.6875 -3.078125 C 12.875 -3.265625 12.96875 -3.5 12.96875 -3.78125 Z M 16.171875 -8.09375 L 16.171875 -3.3125 C 16.171875 -2.34375 15.84375 -1.546875 15.1875 -0.921875 C 14.5625 -0.304688 13.726562 0 12.6875 0 L 4.515625 0 C 3.492188 0 2.65625 -0.304688 2 -0.921875 C 1.351562 -1.546875 1.03125 -2.34375 1.03125 -3.3125 L 1.03125 -8.09375 C 1.03125 -9.0625 1.351562 -9.859375 2 -10.484375 C 2.65625 -11.097656 3.492188 -11.40625 4.515625 -11.40625 L 12.6875 -11.40625 C 13.726562 -11.40625 14.5625 -11.097656 15.1875 -10.484375 C 15.84375 -9.859375 16.171875 -9.0625 16.171875 -8.09375 Z M 16.171875 -8.09375 "/></g></g></g><g fill="#000000" fill-opacity="1"><g transform="translate(375.899404, 195.969968)"><g><path d="M 12.96875 -3.78125 L 12.96875 -7.625 C 12.96875 -7.90625 12.875 -8.132812 12.6875 -8.3125 C 12.507812 -8.5 12.28125 -8.59375 12 -8.59375 L 5.1875 -8.59375 C 4.90625 -8.59375 4.671875 -8.5 4.484375 -8.3125 C 4.304688 -8.132812 4.21875 -7.90625 4.21875 -7.625 L 4.21875 -3.78125 C 4.21875 -3.5 4.304688 -3.265625 4.484375 -3.078125 C 4.671875 -2.898438 4.90625 -2.8125 5.1875 -2.8125 L 12 -2.8125 C 12.28125 -2.8125 12.507812 -2.898438 12.6875 -3.078125 C 12.875 -3.265625 12.96875 -3.5 12.96875 -3.78125 Z M 16.171875 -8.09375 L 16.171875 -3.3125 C 16.171875 -2.34375 15.84375 -1.546875 15.1875 -0.921875 C 14.5625 -0.304688 13.726562 0 12.6875 0 L 4.515625 0 C 3.492188 0 2.65625 -0.304688 2 -0.921875 C 1.351562 -1.546875 1.03125 -2.34375 1.03125 -3.3125 L 1.03125 -8.09375 C 1.03125 -9.0625 1.351562 -9.859375 2 -10.484375 C 2.65625 -11.097656 3.492188 -11.40625 4.515625 -11.40625 L 12.6875 -11.40625 C 13.726562 -11.40625 14.5625 -11.097656 15.1875 -10.484375 C 15.84375 -9.859375 16.171875 -9.0625 16.171875 -8.09375 Z M 16.171875 -8.09375 "/></g></g></g><g fill="#000000" fill-opacity="1"><g transform="translate(393.075873, 195.969968)"><g/></g></g><g fill="#000000" fill-opacity="1"><g transform="translate(401.623409, 195.969968)"><g><path d="M 9.453125 -6.84375 L 9.453125 -4.921875 L 1.015625 -4.921875 L 1.015625 -6.84375 Z M 9.453125 -6.84375 "/></g></g></g><g fill="#000000" fill-opacity="1"><g transform="translate(412.075823, 195.969968)"><g/></g></g><g fill="#000000" fill-opacity="1"><g transform="translate(420.623359, 195.969968)"><g><path d="M 12.96875 -3.78125 L 12.96875 -7.625 C 12.96875 -7.90625 12.875 -8.132812 12.6875 -8.3125 C 12.507812 -8.5 12.28125 -8.59375 12 -8.59375 L 5.1875 -8.59375 C 4.90625 -8.59375 4.671875 -8.5 4.484375 -8.3125 C 4.304688 -8.132812 4.21875 -7.90625 4.21875 -7.625 L 4.21875 -3.78125 C 4.21875 -3.5 4.304688 -3.265625 4.484375 -3.078125 C 4.671875 -2.898438 4.90625 -2.8125 5.1875 -2.8125 L 12 -2.8125 C 12.28125 -2.8125 12.507812 -2.898438 12.6875 -3.078125 C 12.875 -3.265625 12.96875 -3.5 12.96875 -3.78125 Z M 16.171875 -8.09375 L 16.171875 -3.3125 C 16.171875 -2.34375 15.84375 -1.546875 15.1875 -0.921875 C 14.5625 -0.304688 13.726562 0 12.6875 0 L 4.515625 0 C 3.492188 0 2.65625 -0.304688 2 -0.921875 C 1.351562 -1.546875 1.03125 -2.34375 1.03125 -3.3125 L 1.03125 -8.09375 C 1.03125 -9.0625 1.351562 -9.859375 2 -10.484375 C 2.65625 -11.097656 3.492188 -11.40625 4.515625 -11.40625 L 12.6875 -11.40625 C 13.726562 -11.40625 14.5625 -11.097656 15.1875 -10.484375 C 15.84375 -9.859375 16.171875 -9.0625 16.171875 -8.09375 Z M 16.171875 -8.09375 "/></g></g></g><g fill="#000000" fill-opacity="1"><g transform="translate(437.799828, 195.969968)"><g><path d="M 3.890625 -11.40625 L 11.109375 -11.40625 C 12.128906 -11.40625 12.96875 -11.097656 13.625 -10.484375 C 14.28125 -9.859375 14.609375 -9.0625 14.609375 -8.09375 L 14.609375 -3.3125 C 14.609375 -2.34375 14.28125 -1.546875 13.625 -0.921875 C 12.96875 -0.304688 12.128906 0 11.109375 0 L 1.3125 0 L 1.3125 -2.8125 L 10.453125 -2.8125 C 10.722656 -2.8125 10.945312 -2.898438 11.125 -3.078125 C 11.3125 -3.265625 11.40625 -3.5 11.40625 -3.78125 L 11.40625 -4.4375 L 3.90625 -4.4375 C 2.863281 -4.4375 2.070312 -4.671875 1.53125 -5.140625 C 0.988281 -5.617188 0.71875 -6.320312 0.71875 -7.25 L 0.71875 -8.203125 C 0.71875 -9.191406 1 -9.972656 1.5625 -10.546875 C 2.132812 -11.117188 2.910156 -11.40625 3.890625 -11.40625 Z M 3.90625 -8.234375 L 3.90625 -7.234375 C 3.90625 -7.128906 3.941406 -7.039062 4.015625 -6.96875 C 4.085938 -6.90625 4.175781 -6.875 4.28125 -6.875 L 11.40625 -6.875 L 11.40625 -8.234375 C 11.40625 -8.335938 11.367188 -8.421875 11.296875 -8.484375 C 11.234375 -8.554688 11.144531 -8.59375 11.03125 -8.59375 L 4.28125 -8.59375 C 4.175781 -8.59375 4.085938 -8.554688 4.015625 -8.484375 C 3.941406 -8.421875 3.90625 -8.335938 3.90625 -8.234375 Z M 3.90625 -8.234375 "/></g></g></g><g fill="#000000" fill-opacity="1"><g transform="translate(453.413325, 195.969968)"><g><path d="M 1.21875 -11.40625 L 4.421875 -11.40625 L 4.421875 -6.96875 L 12.90625 -6.96875 L 12.90625 -11.40625 L 16.09375 -11.40625 L 16.09375 0 L 12.90625 0 L 12.90625 -4.15625 L 4.421875 -4.15625 L 4.421875 0 L 1.21875 0 Z M 1.21875 -11.40625 "/></g></g></g><g fill="#000000" fill-opacity="1"><g transform="translate(470.720043, 195.969968)"><g><path d="M 0.53125 -1.890625 L 0.53125 -5.796875 L 9.15625 -11.40625 L 13.390625 -11.40625 L 13.390625 -4.5 L 14.84375 -4.5 L 14.84375 -1.890625 L 13.390625 -1.890625 L 13.390625 0 L 10.203125 0 L 10.203125 -1.890625 Z M 3.546875 -4.59375 L 3.546875 -4.5 L 10.203125 -4.5 L 10.203125 -8.59375 L 10.078125 -8.59375 Z M 3.546875 -4.59375 "/></g></g></g><g fill="#000000" fill-opacity="1"><g transform="translate(486.089317, 195.969968)"><g><path d="M 11.109375 0 L 1.078125 0 L 1.078125 -2.8125 L 10.984375 -2.8125 C 11.085938 -2.8125 11.175781 -2.84375 11.25 -2.90625 C 11.320312 -2.976562 11.359375 -3.066406 11.359375 -3.171875 L 11.359375 -4.109375 C 11.359375 -4.210938 11.320312 -4.296875 11.25 -4.359375 C 11.175781 -4.429688 11.085938 -4.46875 10.984375 -4.46875 L 1.125 -4.46875 L 1.125 -11.40625 L 13.84375 -11.40625 L 13.84375 -8.59375 L 4.3125 -8.59375 L 4.3125 -7.15625 L 11.109375 -7.15625 C 12.203125 -7.15625 13.046875 -6.898438 13.640625 -6.390625 C 14.242188 -5.878906 14.546875 -5.15625 14.546875 -4.21875 L 14.546875 -2.859375 C 14.546875 -1.929688 14.253906 -1.222656 13.671875 -0.734375 C 13.085938 -0.242188 12.234375 0 11.109375 0 Z M 11.109375 0 "/></g></g></g><g clip-path="url(#9661e21063)"><g clip-path="url(#706a77465d)"><g transform="matrix(1, 0, 0, 1, 154, 261)"><g clip-path="url(#d0c449a851)"><g clip-path="url(#5286f24631)"><g clip-path="url(#786fa5f6ee)"><path fill="#ffffff" d="M 0.988281 0.0703125 L 501.066406 0.0703125 L 501.066406 77.097656 L 0.988281 77.097656 Z M 0.988281 0.0703125 " fill-opacity="1" fill-rule="nonzero"/></g></g></g></g></g></g><g fill="#000000" fill-opacity="1"><g transform="translate(360.889502, 295.335647)"><g><path d="M 8.984375 -4.78125 L 0.140625 -14.421875 L 5.3125 -14.421875 L 11 -8 L 16.6875 -14.421875 L 21.859375 -14.421875 L 13.03125 -4.78125 L 13.03125 0 L 8.984375 0 Z M 8.984375 -4.78125 "/></g></g></g><g fill="#000000" fill-opacity="1"><g transform="translate(381.875316, 295.335647)"><g><path d="M 17.453125 -4.78125 L 17.453125 -9.640625 C 17.453125 -10.003906 17.332031 -10.296875 17.09375 -10.515625 C 16.863281 -10.742188 16.570312 -10.859375 16.21875 -10.859375 L 6.453125 -10.859375 C 6.109375 -10.859375 5.816406 -10.742188 5.578125 -10.515625 C 5.347656 -10.296875 5.234375 -10.003906 5.234375 -9.640625 L 5.234375 -4.78125 C 5.234375 -4.425781 5.347656 -4.132812 5.578125 -3.90625 C 5.816406 -3.675781 6.109375 -3.5625 6.453125 -3.5625 L 16.21875 -3.5625 C 16.570312 -3.5625 16.863281 -3.675781 17.09375 -3.90625 C 17.332031 -4.132812 17.453125 -4.425781 17.453125 -4.78125 Z M 21.5 -10.25 L 21.5 -4.1875 C 21.5 -2.957031 21.085938 -1.953125 20.265625 -1.171875 C 19.460938 -0.390625 18.410156 0 17.109375 0 L 5.609375 0 C 4.316406 0 3.257812 -0.390625 2.4375 -1.171875 C 1.613281 -1.953125 1.203125 -2.957031 1.203125 -4.1875 L 1.203125 -10.25 C 1.203125 -11.46875 1.613281 -12.46875 2.4375 -13.25 C 3.257812 -14.03125 4.316406 -14.421875 5.609375 -14.421875 L 17.109375 -14.421875 C 18.410156 -14.421875 19.460938 -14.03125 20.265625 -13.25 C 21.085938 -12.46875 21.5 -11.46875 21.5 -10.25 Z M 21.5 -10.25 "/></g></g></g><g fill="#000000" fill-opacity="1"><g transform="translate(404.572159, 295.335647)"><g><path d="M 17.203125 -0.578125 L 16.171875 0 L 5.609375 0 C 4.316406 0 3.257812 -0.390625 2.4375 -1.171875 C 1.613281 -1.953125 1.203125 -2.957031 1.203125 -4.1875 L 1.203125 -10.25 C 1.203125 -11.46875 1.613281 -12.46875 2.4375 -13.25 C 3.257812 -14.03125 4.316406 -14.421875 5.609375 -14.421875 L 20.71875 -14.421875 L 20.71875 -10.859375 L 6.453125 -10.859375 C 6.109375 -10.859375 5.816406 -10.742188 5.578125 -10.515625 C 5.347656 -10.296875 5.234375 -10.003906 5.234375 -9.640625 L 5.234375 -4.78125 C 5.234375 -4.425781 5.347656 -4.132812 5.578125 -3.90625 C 5.816406 -3.675781 6.109375 -3.5625 6.453125 -3.5625 L 17.1875 -3.5625 L 17.1875 -5.578125 L 7.1875 -5.578125 L 7.1875 -8.828125 L 21.046875 -8.828125 L 21.046875 0 L 17.625 0 Z M 17.203125 -0.578125 "/></g></g></g><g fill="#000000" fill-opacity="1"><g transform="translate(426.877328, 295.335647)"><g><path d="M 9 -14.421875 L 13.1875 -14.421875 L 22.265625 0 L 17.515625 0 L 15.890625 -2.671875 L 6.28125 -2.671875 L 4.671875 0 L -0.0625 0 Z M 14 -5.828125 L 11.09375 -10.65625 L 8.1875 -5.828125 Z M 14 -5.828125 "/></g></g></g><g fill="#000000" fill-opacity="1"><g transform="translate(317.551532, 318.574169)"><g><path d="M 3.46875 -11.40625 L 5.4375 -11.40625 L 5.4375 0 L 2.25 0 L 2.25 -8.234375 L 0.484375 -7.75 L 0.484375 -10.59375 Z M 3.46875 -11.40625 "/></g></g></g><g fill="#000000" fill-opacity="1"><g transform="translate(324.243032, 318.574169)"><g><path d="M 12.96875 -3.78125 L 12.96875 -7.625 C 12.96875 -7.90625 12.875 -8.132812 12.6875 -8.3125 C 12.507812 -8.5 12.28125 -8.59375 12 -8.59375 L 5.1875 -8.59375 C 4.90625 -8.59375 4.671875 -8.5 4.484375 -8.3125 C 4.304688 -8.132812 4.21875 -7.90625 4.21875 -7.625 L 4.21875 -3.78125 C 4.21875 -3.5 4.304688 -3.265625 4.484375 -3.078125 C 4.671875 -2.898438 4.90625 -2.8125 5.1875 -2.8125 L 12 -2.8125 C 12.28125 -2.8125 12.507812 -2.898438 12.6875 -3.078125 C 12.875 -3.265625 12.96875 -3.5 12.96875 -3.78125 Z M 16.171875 -8.09375 L 16.171875 -3.3125 C 16.171875 -2.34375 15.84375 -1.546875 15.1875 -0.921875 C 14.5625 -0.304688 13.726562 0 12.6875 0 L 4.515625 0 C 3.492188 0 2.65625 -0.304688 2 -0.921875 C 1.351562 -1.546875 1.03125 -2.34375 1.03125 -3.3125 L 1.03125 -8.09375 C 1.03125 -9.0625 1.351562 -9.859375 2 -10.484375 C 2.65625 -11.097656 3.492188 -11.40625 4.515625 -11.40625 L 12.6875 -11.40625 C 13.726562 -11.40625 14.5625 -11.097656 15.1875 -10.484375 C 15.84375 -9.859375 16.171875 -9.0625 16.171875 -8.09375 Z M 16.171875 -8.09375 "/></g></g></g><g fill="#000000" fill-opacity="1"><g transform="translate(341.419501, 318.574169)"><g><path d="M 1.21875 -11.40625 L 4.421875 -11.40625 L 4.421875 -6.96875 L 12.90625 -6.96875 L 12.90625 -11.40625 L 16.09375 -11.40625 L 16.09375 0 L 12.90625 0 L 12.90625 -4.15625 L 4.421875 -4.15625 L 4.421875 0 L 1.21875 0 Z M 1.21875 -11.40625 "/></g></g></g><g fill="#000000" fill-opacity="1"><g transform="translate(358.726219, 318.574169)"><g><path d="M 12.96875 -3.78125 L 12.96875 -7.625 C 12.96875 -7.90625 12.875 -8.132812 12.6875 -8.3125 C 12.507812 -8.5 12.28125 -8.59375 12 -8.59375 L 5.1875 -8.59375 C 4.90625 -8.59375 4.671875 -8.5 4.484375 -8.3125 C 4.304688 -8.132812 4.21875 -7.90625 4.21875 -7.625 L 4.21875 -3.78125 C 4.21875 -3.5 4.304688 -3.265625 4.484375 -3.078125 C 4.671875 -2.898438 4.90625 -2.8125 5.1875 -2.8125 L 12 -2.8125 C 12.28125 -2.8125 12.507812 -2.898438 12.6875 -3.078125 C 12.875 -3.265625 12.96875 -3.5 12.96875 -3.78125 Z M 16.171875 -8.09375 L 16.171875 -3.3125 C 16.171875 -2.34375 15.84375 -1.546875 15.1875 -0.921875 C 14.5625 -0.304688 13.726562 0 12.6875 0 L 4.515625 0 C 3.492188 0 2.65625 -0.304688 2 -0.921875 C 1.351562 -1.546875 1.03125 -2.34375 1.03125 -3.3125 L 1.03125 -8.09375 C 1.03125 -9.0625 1.351562 -9.859375 2 -10.484375 C 2.65625 -11.097656 3.492188 -11.40625 4.515625 -11.40625 L 12.6875 -11.40625 C 13.726562 -11.40625 14.5625 -11.097656 15.1875 -10.484375 C 15.84375 -9.859375 16.171875 -9.0625 16.171875 -8.09375 Z M 16.171875 -8.09375 "/></g></g></g><g fill="#000000" fill-opacity="1"><g transform="translate(375.902687, 318.574169)"><g><path d="M 12.96875 -3.78125 L 12.96875 -7.625 C 12.96875 -7.90625 12.875 -8.132812 12.6875 -8.3125 C 12.507812 -8.5 12.28125 -8.59375 12 -8.59375 L 5.1875 -8.59375 C 4.90625 -8.59375 4.671875 -8.5 4.484375 -8.3125 C 4.304688 -8.132812 4.21875 -7.90625 4.21875 -7.625 L 4.21875 -3.78125 C 4.21875 -3.5 4.304688 -3.265625 4.484375 -3.078125 C 4.671875 -2.898438 4.90625 -2.8125 5.1875 -2.8125 L 12 -2.8125 C 12.28125 -2.8125 12.507812 -2.898438 12.6875 -3.078125 C 12.875 -3.265625 12.96875 -3.5 12.96875 -3.78125 Z M 16.171875 -8.09375 L 16.171875 -3.3125 C 16.171875 -2.34375 15.84375 -1.546875 15.1875 -0.921875 C 14.5625 -0.304688 13.726562 0 12.6875 0 L 4.515625 0 C 3.492188 0 2.65625 -0.304688 2 -0.921875 C 1.351562 -1.546875 1.03125 -2.34375 1.03125 -3.3125 L 1.03125 -8.09375 C 1.03125 -9.0625 1.351562 -9.859375 2 -10.484375 C 2.65625 -11.097656 3.492188 -11.40625 4.515625 -11.40625 L 12.6875 -11.40625 C 13.726562 -11.40625 14.5625 -11.097656 15.1875 -10.484375 C 15.84375 -9.859375 16.171875 -9.0625 16.171875 -8.09375 Z M 16.171875 -8.09375 "/></g></g></g><g fill="#000000" fill-opacity="1"><g transform="translate(393.079155, 318.574169)"><g/></g></g><g fill="#000000" fill-opacity="1"><g transform="translate(401.626691, 318.574169)"><g><path d="M 9.453125 -6.84375 L 9.453125 -4.921875 L 1.015625 -4.921875 L 1.015625 -6.84375 Z M 9.453125 -6.84375 "/></g></g></g><g fill="#000000" fill-opacity="1"><g transform="translate(412.079106, 318.574169)"><g/></g></g><g fill="#000000" fill-opacity="1"><g transform="translate(420.626642, 318.574169)"><g><path d="M 3.46875 -11.40625 L 5.4375 -11.40625 L 5.4375 0 L 2.25 0 L 2.25 -8.234375 L 0.484375 -7.75 L 0.484375 -10.59375 Z M 3.46875 -11.40625 "/></g></g></g><g fill="#000000" fill-opacity="1"><g transform="translate(427.318142, 318.574169)"><g><path d="M 12.96875 -3.78125 L 12.96875 -7.625 C 12.96875 -7.90625 12.875 -8.132812 12.6875 -8.3125 C 12.507812 -8.5 12.28125 -8.59375 12 -8.59375 L 5.1875 -8.59375 C 4.90625 -8.59375 4.671875 -8.5 4.484375 -8.3125 C 4.304688 -8.132812 4.21875 -7.90625 4.21875 -7.625 L 4.21875 -3.78125 C 4.21875 -3.5 4.304688 -3.265625 4.484375 -3.078125 C 4.671875 -2.898438 4.90625 -2.8125 5.1875 -2.8125 L 12 -2.8125 C 12.28125 -2.8125 12.507812 -2.898438 12.6875 -3.078125 C 12.875 -3.265625 12.96875 -3.5 12.96875 -3.78125 Z M 16.171875 -8.09375 L 16.171875 -3.3125 C 16.171875 -2.34375 15.84375 -1.546875 15.1875 -0.921875 C 14.5625 -0.304688 13.726562 0 12.6875 0 L 4.515625 0 C 3.492188 0 2.65625 -0.304688 2 -0.921875 C 1.351562 -1.546875 1.03125 -2.34375 1.03125 -3.3125 L 1.03125 -8.09375 C 1.03125 -9.0625 1.351562 -9.859375 2 -10.484375 C 2.65625 -11.097656 3.492188 -11.40625 4.515625 -11.40625 L 12.6875 -11.40625 C 13.726562 -11.40625 14.5625 -11.097656 15.1875 -10.484375 C 15.84375 -9.859375 16.171875 -9.0625 16.171875 -8.09375 Z M 16.171875 -8.09375 "/></g></g></g><g fill="#000000" fill-opacity="1"><g transform="translate(444.494611, 318.574169)"><g><path d="M 1.21875 -11.40625 L 4.421875 -11.40625 L 4.421875 -6.96875 L 12.90625 -6.96875 L 12.90625 -11.40625 L 16.09375 -11.40625 L 16.09375 0 L 12.90625 0 L 12.90625 -4.15625 L 4.421875 -4.15625 L 4.421875 0 L 1.21875 0 Z M 1.21875 -11.40625 "/></g></g></g><g fill="#000000" fill-opacity="1"><g transform="translate(461.801329, 318.574169)"><g><path d="M 0.53125 -1.890625 L 0.53125 -5.796875 L 9.15625 -11.40625 L 13.390625 -11.40625 L 13.390625 -4.5 L 14.84375 -4.5 L 14.84375 -1.890625 L 13.390625 -1.890625 L 13.390625 0 L 10.203125 0 L 10.203125 -1.890625 Z M 3.546875 -4.59375 L 3.546875 -4.5 L 10.203125 -4.5 L 10.203125 -8.59375 L 10.078125 -8.59375 Z M 3.546875 -4.59375 "/></g></g></g><g fill="#000000" fill-opacity="1"><g transform="translate(477.170603, 318.574169)"><g><path d="M 11.109375 0 L 1.078125 0 L 1.078125 -2.8125 L 10.984375 -2.8125 C 11.085938 -2.8125 11.175781 -2.84375 11.25 -2.90625 C 11.320312 -2.976562 11.359375 -3.066406 11.359375 -3.171875 L 11.359375 -4.109375 C 11.359375 -4.210938 11.320312 -4.296875 11.25 -4.359375 C 11.175781 -4.429688 11.085938 -4.46875 10.984375 -4.46875 L 1.125 -4.46875 L 1.125 -11.40625 L 13.84375 -11.40625 L 13.84375 -8.59375 L 4.3125 -8.59375 L 4.3125 -7.15625 L 11.109375 -7.15625 C 12.203125 -7.15625 13.046875 -6.898438 13.640625 -6.390625 C 14.242188 -5.878906 14.546875 -5.15625 14.546875 -4.21875 L 14.546875 -2.859375 C 14.546875 -1.929688 14.253906 -1.222656 13.671875 -0.734375 C 13.085938 -0.242188 12.234375 0 11.109375 0 Z M 11.109375 0 "/></g></g></g><g clip-path="url(#47d87ec3f6)"><g clip-path="url(#ad7c7c5b62)"><g transform="matrix(1, 0, 0, 1, 154, 385)"><g clip-path="url(#0cbbf4658f)"><g clip-path="url(#f9afcb7be4)"><g clip-path="url(#3e856f2259)"><path fill="#e1c340" d="M 0.988281 0.324219 L 501.066406 0.324219 L 501.066406 77.351562 L 0.988281 77.351562 Z M 0.988281 0.324219 " fill-opacity="1" fill-rule="nonzero"/></g></g></g></g></g></g><g fill="#000000" fill-opacity="1"><g transform="translate(273.94416, 419.59044)"><g><path d="M 6.453125 -3.5625 L 20.109375 -3.5625 L 20.109375 0 L 5.609375 0 C 4.316406 0 3.257812 -0.390625 2.4375 -1.171875 C 1.613281 -1.953125 1.203125 -2.957031 1.203125 -4.1875 L 1.203125 -10.25 C 1.203125 -11.46875 1.613281 -12.46875 2.4375 -13.25 C 3.257812 -14.03125 4.316406 -14.421875 5.609375 -14.421875 L 19.921875 -14.421875 L 19.921875 -10.859375 L 6.453125 -10.859375 C 6.109375 -10.859375 5.816406 -10.742188 5.578125 -10.515625 C 5.347656 -10.296875 5.234375 -10.003906 5.234375 -9.640625 L 5.234375 -4.78125 C 5.234375 -4.425781 5.347656 -4.132812 5.578125 -3.90625 C 5.816406 -3.675781 6.109375 -3.5625 6.453125 -3.5625 Z M 6.453125 -3.5625 "/></g></g></g><g fill="#000000" fill-opacity="1"><g transform="translate(294.868137, 419.59044)"><g><path d="M 5.578125 0 L 1.546875 0 L 1.546875 -14.421875 L 15.546875 -14.421875 C 16.953125 -14.421875 18.117188 -13.976562 19.046875 -13.09375 C 19.960938 -12.207031 20.421875 -11.070312 20.421875 -9.6875 L 20.421875 -9.296875 C 20.421875 -8.222656 20.09375 -7.28125 19.4375 -6.46875 C 18.78125 -5.65625 17.90625 -5.09375 16.8125 -4.78125 L 20.671875 0 L 16.09375 0 L 12.546875 -4.546875 L 5.578125 -4.546875 Z M 15.03125 -10.859375 L 5.578125 -10.859375 L 5.578125 -8 L 15.046875 -8 C 15.453125 -8 15.773438 -8.109375 16.015625 -8.328125 C 16.265625 -8.554688 16.390625 -8.863281 16.390625 -9.25 L 16.390625 -9.609375 C 16.390625 -9.992188 16.265625 -10.296875 16.015625 -10.515625 C 15.765625 -10.742188 15.4375 -10.859375 15.03125 -10.859375 Z M 15.03125 -10.859375 "/></g></g></g><g fill="#000000" fill-opacity="1"><g transform="translate(316.080716, 419.59044)"><g><path d="M 17.453125 -4.78125 L 17.453125 -9.640625 C 17.453125 -10.003906 17.332031 -10.296875 17.09375 -10.515625 C 16.863281 -10.742188 16.570312 -10.859375 16.21875 -10.859375 L 6.453125 -10.859375 C 6.109375 -10.859375 5.816406 -10.742188 5.578125 -10.515625 C 5.347656 -10.296875 5.234375 -10.003906 5.234375 -9.640625 L 5.234375 -4.78125 C 5.234375 -4.425781 5.347656 -4.132812 5.578125 -3.90625 C 5.816406 -3.675781 6.109375 -3.5625 6.453125 -3.5625 L 16.21875 -3.5625 C 16.570312 -3.5625 16.863281 -3.675781 17.09375 -3.90625 C 17.332031 -4.132812 17.453125 -4.425781 17.453125 -4.78125 Z M 21.5 -10.25 L 21.5 -4.1875 C 21.5 -2.957031 21.085938 -1.953125 20.265625 -1.171875 C 19.460938 -0.390625 18.410156 0 17.109375 0 L 5.609375 0 C 4.316406 0 3.257812 -0.390625 2.4375 -1.171875 C 1.613281 -1.953125 1.203125 -2.957031 1.203125 -4.1875 L 1.203125 -10.25 C 1.203125 -11.46875 1.613281 -12.46875 2.4375 -13.25 C 3.257812 -14.03125 4.316406 -14.421875 5.609375 -14.421875 L 17.109375 -14.421875 C 18.410156 -14.421875 19.460938 -14.03125 20.265625 -13.25 C 21.085938 -12.46875 21.5 -11.46875 21.5 -10.25 Z M 21.5 -10.25 "/></g></g></g><g fill="#000000" fill-opacity="1"><g transform="translate(338.77756, 419.59044)"><g><path d="M 16.0625 0 L 1.546875 0 L 1.546875 -3.5625 L 15.90625 -3.5625 C 16.039062 -3.5625 16.15625 -3.601562 16.25 -3.6875 C 16.34375 -3.769531 16.390625 -3.878906 16.390625 -4.015625 L 16.390625 -5.046875 C 16.390625 -5.179688 16.34375 -5.289062 16.25 -5.375 C 16.15625 -5.457031 16.039062 -5.5 15.90625 -5.5 L 5.28125 -5.5 C 3.882812 -5.5 2.804688 -5.828125 2.046875 -6.484375 C 1.285156 -7.148438 0.90625 -8.082031 0.90625 -9.28125 L 0.90625 -10.640625 C 0.90625 -11.828125 1.289062 -12.753906 2.0625 -13.421875 C 2.832031 -14.085938 3.90625 -14.421875 5.28125 -14.421875 L 19.265625 -14.421875 L 19.265625 -10.859375 L 5.421875 -10.859375 C 5.285156 -10.859375 5.171875 -10.816406 5.078125 -10.734375 C 4.992188 -10.648438 4.953125 -10.539062 4.953125 -10.40625 L 4.953125 -9.390625 C 4.953125 -9.253906 4.992188 -9.144531 5.078125 -9.0625 C 5.171875 -8.976562 5.285156 -8.9375 5.421875 -8.9375 L 16.0625 -8.9375 C 17.425781 -8.9375 18.492188 -8.601562 19.265625 -7.9375 C 20.035156 -7.28125 20.421875 -6.359375 20.421875 -5.171875 L 20.421875 -3.75 C 20.421875 -2.570312 20.035156 -1.648438 19.265625 -0.984375 C 18.492188 -0.328125 17.425781 0 16.0625 0 Z M 16.0625 0 "/></g></g></g><g fill="#000000" fill-opacity="1"><g transform="translate(359.99014, 419.59044)"><g><path d="M 16.0625 0 L 1.546875 0 L 1.546875 -3.5625 L 15.90625 -3.5625 C 16.039062 -3.5625 16.15625 -3.601562 16.25 -3.6875 C 16.34375 -3.769531 16.390625 -3.878906 16.390625 -4.015625 L 16.390625 -5.046875 C 16.390625 -5.179688 16.34375 -5.289062 16.25 -5.375 C 16.15625 -5.457031 16.039062 -5.5 15.90625 -5.5 L 5.28125 -5.5 C 3.882812 -5.5 2.804688 -5.828125 2.046875 -6.484375 C 1.285156 -7.148438 0.90625 -8.082031 0.90625 -9.28125 L 0.90625 -10.640625 C 0.90625 -11.828125 1.289062 -12.753906 2.0625 -13.421875 C 2.832031 -14.085938 3.90625 -14.421875 5.28125 -14.421875 L 19.265625 -14.421875 L 19.265625 -10.859375 L 5.421875 -10.859375 C 5.285156 -10.859375 5.171875 -10.816406 5.078125 -10.734375 C 4.992188 -10.648438 4.953125 -10.539062 4.953125 -10.40625 L 4.953125 -9.390625 C 4.953125 -9.253906 4.992188 -9.144531 5.078125 -9.0625 C 5.171875 -8.976562 5.285156 -8.9375 5.421875 -8.9375 L 16.0625 -8.9375 C 17.425781 -8.9375 18.492188 -8.601562 19.265625 -7.9375 C 20.035156 -7.28125 20.421875 -6.359375 20.421875 -5.171875 L 20.421875 -3.75 C 20.421875 -2.570312 20.035156 -1.648438 19.265625 -0.984375 C 18.492188 -0.328125 17.425781 0 16.0625 0 Z M 16.0625 0 "/></g></g></g><g fill="#000000" fill-opacity="1"><g transform="translate(381.20272, 419.59044)"><g/></g></g><g fill="#000000" fill-opacity="1"><g transform="translate(392.025465, 419.59044)"><g><path d="M 19.90625 -14.421875 L 19.90625 -10.859375 L 12.15625 -10.859375 L 12.15625 0 L 8.125 0 L 8.125 -10.859375 L 0.375 -10.859375 L 0.375 -14.421875 Z M 19.90625 -14.421875 "/></g></g></g><g fill="#000000" fill-opacity="1"><g transform="translate(412.310387, 419.59044)"><g><path d="M 5.578125 0 L 1.546875 0 L 1.546875 -14.421875 L 15.546875 -14.421875 C 16.953125 -14.421875 18.117188 -13.976562 19.046875 -13.09375 C 19.960938 -12.207031 20.421875 -11.070312 20.421875 -9.6875 L 20.421875 -9.296875 C 20.421875 -8.222656 20.09375 -7.28125 19.4375 -6.46875 C 18.78125 -5.65625 17.90625 -5.09375 16.8125 -4.78125 L 20.671875 0 L 16.09375 0 L 12.546875 -4.546875 L 5.578125 -4.546875 Z M 15.03125 -10.859375 L 5.578125 -10.859375 L 5.578125 -8 L 15.046875 -8 C 15.453125 -8 15.773438 -8.109375 16.015625 -8.328125 C 16.265625 -8.554688 16.390625 -8.863281 16.390625 -9.25 L 16.390625 -9.609375 C 16.390625 -9.992188 16.265625 -10.296875 16.015625 -10.515625 C 15.765625 -10.742188 15.4375 -10.859375 15.03125 -10.859375 Z M 15.03125 -10.859375 "/></g></g></g><g fill="#000000" fill-opacity="1"><g transform="translate(433.522967, 419.59044)"><g><path d="M 9 -14.421875 L 13.1875 -14.421875 L 22.265625 0 L 17.515625 0 L 15.890625 -2.671875 L 6.28125 -2.671875 L 4.671875 0 L -0.0625 0 Z M 14 -5.828125 L 11.09375 -10.65625 L 8.1875 -5.828125 Z M 14 -5.828125 "/></g></g></g><g fill="#000000" fill-opacity="1"><g transform="translate(455.725052, 419.59044)"><g><path d="M 1.546875 -14.421875 L 5.578125 -14.421875 L 5.578125 0 L 1.546875 0 Z M 1.546875 -14.421875 "/></g></g></g><g fill="#000000" fill-opacity="1"><g transform="translate(462.857756, 419.59044)"><g><path d="M 20.328125 0 L 16.078125 0 L 5.578125 -9.671875 L 5.578125 0 L 1.546875 0 L 1.546875 -14.421875 L 5.796875 -14.421875 L 16.28125 -4.765625 L 16.28125 -14.421875 L 20.328125 -14.421875 Z M 20.328125 0 "/></g></g></g><g fill="#000000" fill-opacity="1"><g transform="translate(484.730014, 419.59044)"><g><path d="M 1.546875 -14.421875 L 5.578125 -14.421875 L 5.578125 0 L 1.546875 0 Z M 1.546875 -14.421875 "/></g></g></g><g fill="#000000" fill-opacity="1"><g transform="translate(491.862729, 419.59044)"><g><path d="M 20.328125 0 L 16.078125 0 L 5.578125 -9.671875 L 5.578125 0 L 1.546875 0 L 1.546875 -14.421875 L 5.796875 -14.421875 L 16.28125 -4.765625 L 16.28125 -14.421875 L 20.328125 -14.421875 Z M 20.328125 0 "/></g></g></g><g fill="#000000" fill-opacity="1"><g transform="translate(513.734976, 419.59044)"><g><path d="M 17.203125 -0.578125 L 16.171875 0 L 5.609375 0 C 4.316406 0 3.257812 -0.390625 2.4375 -1.171875 C 1.613281 -1.953125 1.203125 -2.957031 1.203125 -4.1875 L 1.203125 -10.25 C 1.203125 -11.46875 1.613281 -12.46875 2.4375 -13.25 C 3.257812 -14.03125 4.316406 -14.421875 5.609375 -14.421875 L 20.71875 -14.421875 L 20.71875 -10.859375 L 6.453125 -10.859375 C 6.109375 -10.859375 5.816406 -10.742188 5.578125 -10.515625 C 5.347656 -10.296875 5.234375 -10.003906 5.234375 -9.640625 L 5.234375 -4.78125 C 5.234375 -4.425781 5.347656 -4.132812 5.578125 -3.90625 C 5.816406 -3.675781 6.109375 -3.5625 6.453125 -3.5625 L 17.1875 -3.5625 L 17.1875 -5.578125 L 7.1875 -5.578125 L 7.1875 -8.828125 L 21.046875 -8.828125 L 21.046875 0 L 17.625 0 Z M 17.203125 -0.578125 "/></g></g></g><g fill="#000000" fill-opacity="1"><g transform="translate(323.6657, 442.828963)"><g><path d="M 3.46875 -11.40625 L 5.4375 -11.40625 L 5.4375 0 L 2.25 0 L 2.25 -8.234375 L 0.484375 -7.75 L 0.484375 -10.59375 Z M 3.46875 -11.40625 "/></g></g></g><g fill="#000000" fill-opacity="1"><g transform="translate(330.3572, 442.828963)"><g><path d="M 14.203125 0 L 0.90625 0 L 0.90625 -4.09375 C 0.90625 -5.007812 1.203125 -5.726562 1.796875 -6.25 C 2.398438 -6.769531 3.242188 -7.03125 4.328125 -7.03125 L 10.75 -7.03125 C 10.863281 -7.03125 10.953125 -7.0625 11.015625 -7.125 C 11.085938 -7.1875 11.125 -7.269531 11.125 -7.375 L 11.125 -8.234375 C 11.125 -8.335938 11.085938 -8.421875 11.015625 -8.484375 C 10.953125 -8.554688 10.863281 -8.59375 10.75 -8.59375 L 1.265625 -8.59375 L 1.265625 -11.40625 L 10.890625 -11.40625 C 11.984375 -11.40625 12.828125 -11.148438 13.421875 -10.640625 C 14.023438 -10.128906 14.328125 -9.410156 14.328125 -8.484375 L 14.328125 -7.1875 C 14.328125 -6.257812 14.03125 -5.550781 13.4375 -5.0625 C 12.851562 -4.570312 12.003906 -4.328125 10.890625 -4.328125 L 4.46875 -4.328125 C 4.351562 -4.328125 4.257812 -4.296875 4.1875 -4.234375 C 4.125 -4.171875 4.09375 -4.082031 4.09375 -3.96875 L 4.09375 -2.8125 L 14.203125 -2.8125 Z M 14.203125 0 "/></g></g></g><g fill="#000000" fill-opacity="1"><g transform="translate(345.563671, 442.828963)"><g><path d="M 1.21875 -11.40625 L 4.421875 -11.40625 L 4.421875 -6.96875 L 12.90625 -6.96875 L 12.90625 -11.40625 L 16.09375 -11.40625 L 16.09375 0 L 12.90625 0 L 12.90625 -4.15625 L 4.421875 -4.15625 L 4.421875 0 L 1.21875 0 Z M 1.21875 -11.40625 "/></g></g></g><g fill="#000000" fill-opacity="1"><g transform="translate(362.870389, 442.828963)"><g><path d="M 3.46875 -11.40625 L 5.4375 -11.40625 L 5.4375 0 L 2.25 0 L 2.25 -8.234375 L 0.484375 -7.75 L 0.484375 -10.59375 Z M 3.46875 -11.40625 "/></g></g></g><g fill="#000000" fill-opacity="1"><g transform="translate(369.56189, 442.828963)"><g><path d="M 11.109375 0 L 1.078125 0 L 1.078125 -2.8125 L 10.984375 -2.8125 C 11.085938 -2.8125 11.175781 -2.84375 11.25 -2.90625 C 11.320312 -2.976562 11.359375 -3.066406 11.359375 -3.171875 L 11.359375 -4.109375 C 11.359375 -4.210938 11.320312 -4.296875 11.25 -4.359375 C 11.175781 -4.429688 11.085938 -4.46875 10.984375 -4.46875 L 1.125 -4.46875 L 1.125 -11.40625 L 13.84375 -11.40625 L 13.84375 -8.59375 L 4.3125 -8.59375 L 4.3125 -7.15625 L 11.109375 -7.15625 C 12.203125 -7.15625 13.046875 -6.898438 13.640625 -6.390625 C 14.242188 -5.878906 14.546875 -5.15625 14.546875 -4.21875 L 14.546875 -2.859375 C 14.546875 -1.929688 14.253906 -1.222656 13.671875 -0.734375 C 13.085938 -0.242188 12.234375 0 11.109375 0 Z M 11.109375 0 "/></g></g></g><g fill="#000000" fill-opacity="1"><g transform="translate(384.817203, 442.828963)"><g/></g></g><g fill="#000000" fill-opacity="1"><g transform="translate(393.364739, 442.828963)"><g><path d="M 9.453125 -6.84375 L 9.453125 -4.921875 L 1.015625 -4.921875 L 1.015625 -6.84375 Z M 9.453125 -6.84375 "/></g></g></g><g fill="#000000" fill-opacity="1"><g transform="translate(403.817154, 442.828963)"><g/></g></g><g fill="#000000" fill-opacity="1"><g transform="translate(412.36469, 442.828963)"><g><path d="M 3.46875 -11.40625 L 5.4375 -11.40625 L 5.4375 0 L 2.25 0 L 2.25 -8.234375 L 0.484375 -7.75 L 0.484375 -10.59375 Z M 3.46875 -11.40625 "/></g></g></g><g fill="#000000" fill-opacity="1"><g transform="translate(419.05619, 442.828963)"><g><path d="M 11.59375 -3.171875 L 11.59375 -4.265625 C 11.59375 -4.378906 11.554688 -4.46875 11.484375 -4.53125 C 11.410156 -4.59375 11.320312 -4.625 11.21875 -4.625 L 1.75 -4.625 L 1.75 -6.953125 L 10.859375 -6.953125 C 10.960938 -6.953125 11.050781 -6.984375 11.125 -7.046875 C 11.195312 -7.117188 11.234375 -7.207031 11.234375 -7.3125 L 11.234375 -8.234375 C 11.234375 -8.335938 11.195312 -8.421875 11.125 -8.484375 C 11.050781 -8.554688 10.960938 -8.59375 10.859375 -8.59375 L 0.96875 -8.59375 L 0.96875 -11.40625 L 11.328125 -11.40625 C 12.171875 -11.40625 12.894531 -11.140625 13.5 -10.609375 C 14.113281 -10.085938 14.421875 -9.472656 14.421875 -8.765625 L 14.421875 -7.671875 C 14.421875 -6.992188 14.101562 -6.445312 13.46875 -6.03125 C 14.34375 -5.5 14.78125 -4.738281 14.78125 -3.75 L 14.78125 -2.859375 C 14.78125 -1.929688 14.484375 -1.222656 13.890625 -0.734375 C 13.304688 -0.242188 12.457031 0 11.34375 0 L 0.875 0 L 0.875 -2.8125 L 11.21875 -2.8125 C 11.320312 -2.8125 11.410156 -2.84375 11.484375 -2.90625 C 11.554688 -2.976562 11.59375 -3.066406 11.59375 -3.171875 Z M 11.59375 -3.171875 "/></g></g></g><g fill="#000000" fill-opacity="1"><g transform="translate(434.653398, 442.828963)"><g><path d="M 1.21875 -11.40625 L 4.421875 -11.40625 L 4.421875 -6.96875 L 12.90625 -6.96875 L 12.90625 -11.40625 L 16.09375 -11.40625 L 16.09375 0 L 12.90625 0 L 12.90625 -4.15625 L 4.421875 -4.15625 L 4.421875 0 L 1.21875 0 Z M 1.21875 -11.40625 "/></g></g></g><g fill="#000000" fill-opacity="1"><g transform="translate(451.960116, 442.828963)"><g><path d="M 12.96875 -3.78125 L 12.96875 -7.625 C 12.96875 -7.90625 12.875 -8.132812 12.6875 -8.3125 C 12.507812 -8.5 12.28125 -8.59375 12 -8.59375 L 5.1875 -8.59375 C 4.90625 -8.59375 4.671875 -8.5 4.484375 -8.3125 C 4.304688 -8.132812 4.21875 -7.90625 4.21875 -7.625 L 4.21875 -3.78125 C 4.21875 -3.5 4.304688 -3.265625 4.484375 -3.078125 C 4.671875 -2.898438 4.90625 -2.8125 5.1875 -2.8125 L 12 -2.8125 C 12.28125 -2.8125 12.507812 -2.898438 12.6875 -3.078125 C 12.875 -3.265625 12.96875 -3.5 12.96875 -3.78125 Z M 16.171875 -8.09375 L 16.171875 -3.3125 C 16.171875 -2.34375 15.84375 -1.546875 15.1875 -0.921875 C 14.5625 -0.304688 13.726562 0 12.6875 0 L 4.515625 0 C 3.492188 0 2.65625 -0.304688 2 -0.921875 C 1.351562 -1.546875 1.03125 -2.34375 1.03125 -3.3125 L 1.03125 -8.09375 C 1.03125 -9.0625 1.351562 -9.859375 2 -10.484375 C 2.65625 -11.097656 3.492188 -11.40625 4.515625 -11.40625 L 12.6875 -11.40625 C 13.726562 -11.40625 14.5625 -11.097656 15.1875 -10.484375 C 15.84375 -9.859375 16.171875 -9.0625 16.171875 -8.09375 Z M 16.171875 -8.09375 "/></g></g></g><g fill="#000000" fill-opacity="1"><g transform="translate(469.136585, 442.828963)"><g><path d="M 12.96875 -3.78125 L 12.96875 -7.625 C 12.96875 -7.90625 12.875 -8.132812 12.6875 -8.3125 C 12.507812 -8.5 12.28125 -8.59375 12 -8.59375 L 5.1875 -8.59375 C 4.90625 -8.59375 4.671875 -8.5 4.484375 -8.3125 C 4.304688 -8.132812 4.21875 -7.90625 4.21875 -7.625 L 4.21875 -3.78125 C 4.21875 -3.5 4.304688 -3.265625 4.484375 -3.078125 C 4.671875 -2.898438 4.90625 -2.8125 5.1875 -2.8125 L 12 -2.8125 C 12.28125 -2.8125 12.507812 -2.898438 12.6875 -3.078125 C 12.875 -3.265625 12.96875 -3.5 12.96875 -3.78125 Z M 16.171875 -8.09375 L 16.171875 -3.3125 C 16.171875 -2.34375 15.84375 -1.546875 15.1875 -0.921875 C 14.5625 -0.304688 13.726562 0 12.6875 0 L 4.515625 0 C 3.492188 0 2.65625 -0.304688 2 -0.921875 C 1.351562 -1.546875 1.03125 -2.34375 1.03125 -3.3125 L 1.03125 -8.09375 C 1.03125 -9.0625 1.351562 -9.859375 2 -10.484375 C 2.65625 -11.097656 3.492188 -11.40625 4.515625 -11.40625 L 12.6875 -11.40625 C 13.726562 -11.40625 14.5625 -11.097656 15.1875 -10.484375 C 15.84375 -9.859375 16.171875 -9.0625 16.171875 -8.09375 Z M 16.171875 -8.09375 "/></g></g></g><g clip-path="url(#db26dd9721)"><g clip-path="url(#47ec54717d)"><g transform="matrix(1, 0, 0, 1, 154, 561)"><g clip-path="url(#b9dc8764f7)"><g clip-path="url(#1268bde6fc)"><g clip-path="url(#e06b3fce6f)"><path fill="#ffffff" d="M 0.988281 0.550781 L 501.136719 0.550781 L 501.136719 81.535156 L 0.988281 81.535156 Z M 0.988281 0.550781 " fill-opacity="1" fill-rule="nonzero"/></g></g></g></g></g></g><g fill="#000000" fill-opacity="1"><g transform="translate(341.235147, 598.064001)"><g><path d="M 1.546875 -14.421875 L 15.59375 -14.421875 C 16.945312 -14.421875 18.085938 -13.957031 19.015625 -13.03125 C 19.953125 -12.09375 20.421875 -10.960938 20.421875 -9.640625 L 20.421875 -9.21875 C 20.421875 -7.851562 19.992188 -6.722656 19.140625 -5.828125 C 18.304688 -4.960938 17.21875 -4.53125 15.875 -4.53125 L 5.578125 -4.53125 L 5.578125 0 L 1.546875 0 Z M 14.984375 -10.859375 L 5.578125 -10.859375 L 5.578125 -7.96875 L 15 -7.96875 C 15.414062 -7.96875 15.75 -8.082031 16 -8.3125 C 16.257812 -8.539062 16.390625 -8.832031 16.390625 -9.1875 L 16.390625 -9.625 C 16.390625 -9.976562 16.253906 -10.269531 15.984375 -10.5 C 15.722656 -10.738281 15.390625 -10.859375 14.984375 -10.859375 Z M 14.984375 -10.859375 "/></g></g></g><g fill="#000000" fill-opacity="1"><g transform="translate(362.220972, 598.064001)"><g><path d="M 1.546875 -14.421875 L 5.578125 -14.421875 L 5.578125 0 L 1.546875 0 Z M 1.546875 -14.421875 "/></g></g></g><g fill="#000000" fill-opacity="1"><g transform="translate(369.353675, 598.064001)"><g><path d="M 1.546875 -14.421875 L 5.578125 -14.421875 L 5.578125 -3.5625 L 18.546875 -3.5625 L 18.546875 0 L 1.546875 0 Z M 1.546875 -14.421875 "/></g></g></g><g fill="#000000" fill-opacity="1"><g transform="translate(388.29863, 598.064001)"><g><path d="M 9 -14.421875 L 13.1875 -14.421875 L 22.265625 0 L 17.515625 0 L 15.890625 -2.671875 L 6.28125 -2.671875 L 4.671875 0 L -0.0625 0 Z M 14 -5.828125 L 11.09375 -10.65625 L 8.1875 -5.828125 Z M 14 -5.828125 "/></g></g></g><g fill="#000000" fill-opacity="1"><g transform="translate(406.604519, 598.064001)"><g><path d="M 19.90625 -14.421875 L 19.90625 -10.859375 L 12.15625 -10.859375 L 12.15625 0 L 8.125 0 L 8.125 -10.859375 L 0.375 -10.859375 L 0.375 -14.421875 Z M 19.90625 -14.421875 "/></g></g></g><g fill="#000000" fill-opacity="1"><g transform="translate(426.889441, 598.064001)"><g><path d="M 18.9375 -8.9375 L 18.9375 -5.5 L 5.578125 -5.5 L 5.578125 -3.5625 L 19.46875 -3.5625 L 19.46875 0 L 1.546875 0 L 1.546875 -14.421875 L 19.4375 -14.421875 L 19.4375 -10.859375 L 5.578125 -10.859375 L 5.578125 -8.9375 Z M 18.9375 -8.9375 "/></g></g></g><g fill="#000000" fill-opacity="1"><g transform="translate(447.524814, 598.064001)"><g><path d="M 16.0625 0 L 1.546875 0 L 1.546875 -3.5625 L 15.90625 -3.5625 C 16.039062 -3.5625 16.15625 -3.601562 16.25 -3.6875 C 16.34375 -3.769531 16.390625 -3.878906 16.390625 -4.015625 L 16.390625 -5.046875 C 16.390625 -5.179688 16.34375 -5.289062 16.25 -5.375 C 16.15625 -5.457031 16.039062 -5.5 15.90625 -5.5 L 5.28125 -5.5 C 3.882812 -5.5 2.804688 -5.828125 2.046875 -6.484375 C 1.285156 -7.148438 0.90625 -8.082031 0.90625 -9.28125 L 0.90625 -10.640625 C 0.90625 -11.828125 1.289062 -12.753906 2.0625 -13.421875 C 2.832031 -14.085938 3.90625 -14.421875 5.28125 -14.421875 L 19.265625 -14.421875 L 19.265625 -10.859375 L 5.421875 -10.859375 C 5.285156 -10.859375 5.171875 -10.816406 5.078125 -10.734375 C 4.992188 -10.648438 4.953125 -10.539062 4.953125 -10.40625 L 4.953125 -9.390625 C 4.953125 -9.253906 4.992188 -9.144531 5.078125 -9.0625 C 5.171875 -8.976562 5.285156 -8.9375 5.421875 -8.9375 L 16.0625 -8.9375 C 17.425781 -8.9375 18.492188 -8.601562 19.265625 -7.9375 C 20.035156 -7.28125 20.421875 -6.359375 20.421875 -5.171875 L 20.421875 -3.75 C 20.421875 -2.570312 20.035156 -1.648438 19.265625 -0.984375 C 18.492188 -0.328125 17.425781 0 16.0625 0 Z M 16.0625 0 "/></g></g></g><g fill="#000000" fill-opacity="1"><g transform="translate(318.945371, 621.302524)"><g><path d="M 3.46875 -11.390625 L 5.4375 -11.390625 L 5.4375 0 L 2.25 0 L 2.25 -8.21875 L 0.484375 -7.75 L 0.484375 -10.578125 Z M 3.46875 -11.390625 "/></g></g></g><g fill="#000000" fill-opacity="1"><g transform="translate(325.62724, 621.302524)"><g><path d="M 12 0 L 3.890625 0 C 2.972656 0 2.234375 -0.25 1.671875 -0.75 C 1.109375 -1.25 0.828125 -1.894531 0.828125 -2.6875 L 0.828125 -3.796875 C 0.828125 -4.703125 1.3125 -5.378906 2.28125 -5.828125 C 1.5625 -6.234375 1.203125 -6.789062 1.203125 -7.5 L 1.203125 -8.859375 C 1.203125 -9.566406 1.488281 -10.164062 2.0625 -10.65625 C 2.644531 -11.144531 3.359375 -11.390625 4.203125 -11.390625 L 11.6875 -11.390625 C 12.539062 -11.390625 13.25 -11.144531 13.8125 -10.65625 C 14.394531 -10.164062 14.6875 -9.566406 14.6875 -8.859375 L 14.6875 -7.5 C 14.6875 -6.78125 14.320312 -6.222656 13.59375 -5.828125 C 14.570312 -5.359375 15.0625 -4.679688 15.0625 -3.796875 L 15.0625 -2.6875 C 15.0625 -1.90625 14.773438 -1.257812 14.203125 -0.75 C 13.640625 -0.25 12.90625 0 12 0 Z M 11.5 -4.625 L 4.390625 -4.625 C 4.285156 -4.625 4.195312 -4.585938 4.125 -4.515625 C 4.050781 -4.453125 4.015625 -4.367188 4.015625 -4.265625 L 4.015625 -3.171875 C 4.015625 -3.066406 4.050781 -2.976562 4.125 -2.90625 C 4.195312 -2.84375 4.285156 -2.8125 4.390625 -2.8125 L 11.5 -2.8125 C 11.601562 -2.8125 11.691406 -2.84375 11.765625 -2.90625 C 11.835938 -2.976562 11.875 -3.066406 11.875 -3.171875 L 11.875 -4.265625 C 11.875 -4.367188 11.835938 -4.453125 11.765625 -4.515625 C 11.691406 -4.585938 11.601562 -4.625 11.5 -4.625 Z M 11.125 -8.578125 L 4.765625 -8.578125 C 4.660156 -8.578125 4.570312 -8.539062 4.5 -8.46875 C 4.425781 -8.40625 4.390625 -8.320312 4.390625 -8.21875 L 4.390625 -7.1875 C 4.390625 -7.082031 4.425781 -6.992188 4.5 -6.921875 C 4.570312 -6.859375 4.660156 -6.828125 4.765625 -6.828125 L 11.125 -6.828125 C 11.226562 -6.828125 11.316406 -6.859375 11.390625 -6.921875 C 11.460938 -6.992188 11.5 -7.082031 11.5 -7.1875 L 11.5 -8.21875 C 11.5 -8.320312 11.460938 -8.40625 11.390625 -8.46875 C 11.316406 -8.539062 11.226562 -8.578125 11.125 -8.578125 Z M 11.125 -8.578125 "/></g></g></g><g fill="#000000" fill-opacity="1"><g transform="translate(341.510913, 621.302524)"><g><path d="M 1.21875 -11.390625 L 4.40625 -11.390625 L 4.40625 -6.96875 L 12.875 -6.96875 L 12.875 -11.390625 L 16.078125 -11.390625 L 16.078125 0 L 12.875 0 L 12.875 -4.140625 L 4.40625 -4.140625 L 4.40625 0 L 1.21875 0 Z M 1.21875 -11.390625 "/></g></g></g><g fill="#000000" fill-opacity="1"><g transform="translate(358.792741, 621.302524)"><g><path d="M 12.953125 -3.78125 L 12.953125 -7.609375 C 12.953125 -7.890625 12.859375 -8.117188 12.671875 -8.296875 C 12.484375 -8.484375 12.25 -8.578125 11.96875 -8.578125 L 5.171875 -8.578125 C 4.890625 -8.578125 4.660156 -8.484375 4.484375 -8.296875 C 4.304688 -8.117188 4.21875 -7.890625 4.21875 -7.609375 L 4.21875 -3.78125 C 4.21875 -3.488281 4.304688 -3.253906 4.484375 -3.078125 C 4.660156 -2.898438 4.890625 -2.8125 5.171875 -2.8125 L 11.96875 -2.8125 C 12.25 -2.8125 12.484375 -2.898438 12.671875 -3.078125 C 12.859375 -3.253906 12.953125 -3.488281 12.953125 -3.78125 Z M 16.140625 -8.078125 L 16.140625 -3.296875 C 16.140625 -2.335938 15.8125 -1.546875 15.15625 -0.921875 C 14.53125 -0.304688 13.703125 0 12.671875 0 L 4.5 0 C 3.488281 0 2.65625 -0.304688 2 -0.921875 C 1.351562 -1.546875 1.03125 -2.335938 1.03125 -3.296875 L 1.03125 -8.078125 C 1.03125 -9.046875 1.351562 -9.835938 2 -10.453125 C 2.65625 -11.078125 3.488281 -11.390625 4.5 -11.390625 L 12.671875 -11.390625 C 13.703125 -11.390625 14.53125 -11.078125 15.15625 -10.453125 C 15.8125 -9.835938 16.140625 -9.046875 16.140625 -8.078125 Z M 16.140625 -8.078125 "/></g></g></g><g fill="#000000" fill-opacity="1"><g transform="translate(375.944513, 621.302524)"><g><path d="M 12.953125 -3.78125 L 12.953125 -7.609375 C 12.953125 -7.890625 12.859375 -8.117188 12.671875 -8.296875 C 12.484375 -8.484375 12.25 -8.578125 11.96875 -8.578125 L 5.171875 -8.578125 C 4.890625 -8.578125 4.660156 -8.484375 4.484375 -8.296875 C 4.304688 -8.117188 4.21875 -7.890625 4.21875 -7.609375 L 4.21875 -3.78125 C 4.21875 -3.488281 4.304688 -3.253906 4.484375 -3.078125 C 4.660156 -2.898438 4.890625 -2.8125 5.171875 -2.8125 L 11.96875 -2.8125 C 12.25 -2.8125 12.484375 -2.898438 12.671875 -3.078125 C 12.859375 -3.253906 12.953125 -3.488281 12.953125 -3.78125 Z M 16.140625 -8.078125 L 16.140625 -3.296875 C 16.140625 -2.335938 15.8125 -1.546875 15.15625 -0.921875 C 14.53125 -0.304688 13.703125 0 12.671875 0 L 4.5 0 C 3.488281 0 2.65625 -0.304688 2 -0.921875 C 1.351562 -1.546875 1.03125 -2.335938 1.03125 -3.296875 L 1.03125 -8.078125 C 1.03125 -9.046875 1.351562 -9.835938 2 -10.453125 C 2.65625 -11.078125 3.488281 -11.390625 4.5 -11.390625 L 12.671875 -11.390625 C 13.703125 -11.390625 14.53125 -11.078125 15.15625 -10.453125 C 15.8125 -9.835938 16.140625 -9.046875 16.140625 -8.078125 Z M 16.140625 -8.078125 "/></g></g></g><g fill="#000000" fill-opacity="1"><g transform="translate(393.096286, 621.302524)"><g/></g></g><g fill="#000000" fill-opacity="1"><g transform="translate(401.631526, 621.302524)"><g><path d="M 9.4375 -6.828125 L 9.4375 -4.90625 L 1.015625 -4.90625 L 1.015625 -6.828125 Z M 9.4375 -6.828125 "/></g></g></g><g fill="#000000" fill-opacity="1"><g transform="translate(412.06891, 621.302524)"><g/></g></g><g fill="#000000" fill-opacity="1"><g transform="translate(420.60415, 621.302524)"><g><path d="M 3.46875 -11.390625 L 5.4375 -11.390625 L 5.4375 0 L 2.25 0 L 2.25 -8.21875 L 0.484375 -7.75 L 0.484375 -10.578125 Z M 3.46875 -11.390625 "/></g></g></g><g fill="#000000" fill-opacity="1"><g transform="translate(427.286019, 621.302524)"><g><path d="M 12 0 L 3.890625 0 C 2.972656 0 2.234375 -0.25 1.671875 -0.75 C 1.109375 -1.25 0.828125 -1.894531 0.828125 -2.6875 L 0.828125 -3.796875 C 0.828125 -4.703125 1.3125 -5.378906 2.28125 -5.828125 C 1.5625 -6.234375 1.203125 -6.789062 1.203125 -7.5 L 1.203125 -8.859375 C 1.203125 -9.566406 1.488281 -10.164062 2.0625 -10.65625 C 2.644531 -11.144531 3.359375 -11.390625 4.203125 -11.390625 L 11.6875 -11.390625 C 12.539062 -11.390625 13.25 -11.144531 13.8125 -10.65625 C 14.394531 -10.164062 14.6875 -9.566406 14.6875 -8.859375 L 14.6875 -7.5 C 14.6875 -6.78125 14.320312 -6.222656 13.59375 -5.828125 C 14.570312 -5.359375 15.0625 -4.679688 15.0625 -3.796875 L 15.0625 -2.6875 C 15.0625 -1.90625 14.773438 -1.257812 14.203125 -0.75 C 13.640625 -0.25 12.90625 0 12 0 Z M 11.5 -4.625 L 4.390625 -4.625 C 4.285156 -4.625 4.195312 -4.585938 4.125 -4.515625 C 4.050781 -4.453125 4.015625 -4.367188 4.015625 -4.265625 L 4.015625 -3.171875 C 4.015625 -3.066406 4.050781 -2.976562 4.125 -2.90625 C 4.195312 -2.84375 4.285156 -2.8125 4.390625 -2.8125 L 11.5 -2.8125 C 11.601562 -2.8125 11.691406 -2.84375 11.765625 -2.90625 C 11.835938 -2.976562 11.875 -3.066406 11.875 -3.171875 L 11.875 -4.265625 C 11.875 -4.367188 11.835938 -4.453125 11.765625 -4.515625 C 11.691406 -4.585938 11.601562 -4.625 11.5 -4.625 Z M 11.125 -8.578125 L 4.765625 -8.578125 C 4.660156 -8.578125 4.570312 -8.539062 4.5 -8.46875 C 4.425781 -8.40625 4.390625 -8.320312 4.390625 -8.21875 L 4.390625 -7.1875 C 4.390625 -7.082031 4.425781 -6.992188 4.5 -6.921875 C 4.570312 -6.859375 4.660156 -6.828125 4.765625 -6.828125 L 11.125 -6.828125 C 11.226562 -6.828125 11.316406 -6.859375 11.390625 -6.921875 C 11.460938 -6.992188 11.5 -7.082031 11.5 -7.1875 L 11.5 -8.21875 C 11.5 -8.320312 11.460938 -8.40625 11.390625 -8.46875 C 11.316406 -8.539062 11.226562 -8.578125 11.125 -8.578125 Z M 11.125 -8.578125 "/></g></g></g><g fill="#000000" fill-opacity="1"><g transform="translate(443.169691, 621.302524)"><g><path d="M 1.21875 -11.390625 L 4.40625 -11.390625 L 4.40625 -6.96875 L 12.875 -6.96875 L 12.875 -11.390625 L 16.078125 -11.390625 L 16.078125 0 L 12.875 0 L 12.875 -4.140625 L 4.40625 -4.140625 L 4.40625 0 L 1.21875 0 Z M 1.21875 -11.390625 "/></g></g></g><g fill="#000000" fill-opacity="1"><g transform="translate(460.45152, 621.302524)"><g><path d="M 0.53125 -1.890625 L 0.53125 -5.796875 L 9.140625 -11.390625 L 13.375 -11.390625 L 13.375 -4.484375 L 14.8125 -4.484375 L 14.8125 -1.890625 L 13.375 -1.890625 L 13.375 0 L 10.1875 0 L 10.1875 -1.890625 Z M 3.546875 -4.59375 L 3.546875 -4.484375 L 10.1875 -4.484375 L 10.1875 -8.578125 L 10.046875 -8.578125 Z M 3.546875 -4.59375 "/></g></g></g><g fill="#000000" fill-opacity="1"><g transform="translate(475.798695, 621.302524)"><g><path d="M 11.09375 0 L 1.078125 0 L 1.078125 -2.8125 L 10.96875 -2.8125 C 11.070312 -2.8125 11.160156 -2.84375 11.234375 -2.90625 C 11.304688 -2.976562 11.34375 -3.066406 11.34375 -3.171875 L 11.34375 -4.09375 C 11.34375 -4.207031 11.304688 -4.296875 11.234375 -4.359375 C 11.160156 -4.421875 11.070312 -4.453125 10.96875 -4.453125 L 1.125 -4.453125 L 1.125 -11.390625 L 13.8125 -11.390625 L 13.8125 -8.578125 L 4.3125 -8.578125 L 4.3125 -7.140625 L 11.09375 -7.140625 C 12.175781 -7.140625 13.019531 -6.882812 13.625 -6.375 C 14.226562 -5.863281 14.53125 -5.144531 14.53125 -4.21875 L 14.53125 -2.84375 C 14.53125 -1.925781 14.234375 -1.222656 13.640625 -0.734375 C 13.054688 -0.242188 12.207031 0 11.09375 0 Z M 11.09375 0 "/></g></g></g><g clip-path="url(#4a88b9e7d9)"><g clip-path="url(#b3bb16649d)"><g transform="matrix(1, 0, 0, 1, 154, 689)"><g clip-path="url(#30718524f5)"><g clip-path="url(#f89519695b)"><g clip-path="url(#0f8ee8f456)"><path fill="#e1c340" d="M 0.988281 0.761719 L 501.066406 0.761719 L 501.066406 77.789062 L 0.988281 77.789062 Z M 0.988281 0.761719 " fill-opacity="1" fill-rule="nonzero"/></g></g></g></g></g></g><g fill="#000000" fill-opacity="1"><g transform="translate(298.307127, 724.028955)"><g><path d="M 6.453125 -3.5625 L 20.109375 -3.5625 L 20.109375 0 L 5.609375 0 C 4.316406 0 3.257812 -0.390625 2.4375 -1.171875 C 1.613281 -1.953125 1.203125 -2.957031 1.203125 -4.1875 L 1.203125 -10.25 C 1.203125 -11.46875 1.613281 -12.46875 2.4375 -13.25 C 3.257812 -14.03125 4.316406 -14.421875 5.609375 -14.421875 L 19.921875 -14.421875 L 19.921875 -10.859375 L 6.453125 -10.859375 C 6.109375 -10.859375 5.816406 -10.742188 5.578125 -10.515625 C 5.347656 -10.296875 5.234375 -10.003906 5.234375 -9.640625 L 5.234375 -4.78125 C 5.234375 -4.425781 5.347656 -4.132812 5.578125 -3.90625 C 5.816406 -3.675781 6.109375 -3.5625 6.453125 -3.5625 Z M 6.453125 -3.5625 "/></g></g></g><g fill="#000000" fill-opacity="1"><g transform="translate(319.231104, 724.028955)"><g><path d="M 9 -14.421875 L 13.1875 -14.421875 L 22.265625 0 L 17.515625 0 L 15.890625 -2.671875 L 6.28125 -2.671875 L 4.671875 0 L -0.0625 0 Z M 14 -5.828125 L 11.09375 -10.65625 L 8.1875 -5.828125 Z M 14 -5.828125 "/></g></g></g><g fill="#000000" fill-opacity="1"><g transform="translate(341.433189, 724.028955)"><g><path d="M 5.578125 0 L 1.546875 0 L 1.546875 -14.421875 L 15.546875 -14.421875 C 16.953125 -14.421875 18.117188 -13.976562 19.046875 -13.09375 C 19.960938 -12.207031 20.421875 -11.070312 20.421875 -9.6875 L 20.421875 -9.296875 C 20.421875 -8.222656 20.09375 -7.28125 19.4375 -6.46875 C 18.78125 -5.65625 17.90625 -5.09375 16.8125 -4.78125 L 20.671875 0 L 16.09375 0 L 12.546875 -4.546875 L 5.578125 -4.546875 Z M 15.03125 -10.859375 L 5.578125 -10.859375 L 5.578125 -8 L 15.046875 -8 C 15.453125 -8 15.773438 -8.109375 16.015625 -8.328125 C 16.265625 -8.554688 16.390625 -8.863281 16.390625 -9.25 L 16.390625 -9.609375 C 16.390625 -9.992188 16.265625 -10.296875 16.015625 -10.515625 C 15.765625 -10.742188 15.4375 -10.859375 15.03125 -10.859375 Z M 15.03125 -10.859375 "/></g></g></g><g fill="#000000" fill-opacity="1"><g transform="translate(362.645769, 724.028955)"><g><path d="M 17.046875 0 L 1.546875 0 L 1.546875 -14.421875 L 17.046875 -14.421875 C 18.347656 -14.421875 19.398438 -14.03125 20.203125 -13.25 C 21.023438 -12.46875 21.4375 -11.46875 21.4375 -10.25 L 21.4375 -4.1875 C 21.4375 -2.957031 21.023438 -1.953125 20.203125 -1.171875 C 19.398438 -0.390625 18.347656 0 17.046875 0 Z M 16.15625 -10.859375 L 5.578125 -10.859375 L 5.578125 -3.5625 L 16.15625 -3.5625 C 16.507812 -3.5625 16.800781 -3.675781 17.03125 -3.90625 C 17.269531 -4.132812 17.390625 -4.425781 17.390625 -4.78125 L 17.390625 -9.640625 C 17.390625 -10.003906 17.269531 -10.296875 17.03125 -10.515625 C 16.800781 -10.742188 16.507812 -10.859375 16.15625 -10.859375 Z M 16.15625 -10.859375 "/></g></g></g><g fill="#000000" fill-opacity="1"><g transform="translate(385.280765, 724.028955)"><g><path d="M 1.546875 -14.421875 L 5.578125 -14.421875 L 5.578125 0 L 1.546875 0 Z M 1.546875 -14.421875 "/></g></g></g><g fill="#000000" fill-opacity="1"><g transform="translate(392.413469, 724.028955)"><g><path d="M 17.453125 -4.78125 L 17.453125 -9.640625 C 17.453125 -10.003906 17.332031 -10.296875 17.09375 -10.515625 C 16.863281 -10.742188 16.570312 -10.859375 16.21875 -10.859375 L 6.453125 -10.859375 C 6.109375 -10.859375 5.816406 -10.742188 5.578125 -10.515625 C 5.347656 -10.296875 5.234375 -10.003906 5.234375 -9.640625 L 5.234375 -4.78125 C 5.234375 -4.425781 5.347656 -4.132812 5.578125 -3.90625 C 5.816406 -3.675781 6.109375 -3.5625 6.453125 -3.5625 L 16.21875 -3.5625 C 16.570312 -3.5625 16.863281 -3.675781 17.09375 -3.90625 C 17.332031 -4.132812 17.453125 -4.425781 17.453125 -4.78125 Z M 21.5 -10.25 L 21.5 -4.1875 C 21.5 -2.957031 21.085938 -1.953125 20.265625 -1.171875 C 19.460938 -0.390625 18.410156 0 17.109375 0 L 5.609375 0 C 4.316406 0 3.257812 -0.390625 2.4375 -1.171875 C 1.613281 -1.953125 1.203125 -2.957031 1.203125 -4.1875 L 1.203125 -10.25 C 1.203125 -11.46875 1.613281 -12.46875 2.4375 -13.25 C 3.257812 -14.03125 4.316406 -14.421875 5.609375 -14.421875 L 17.109375 -14.421875 C 18.410156 -14.421875 19.460938 -14.03125 20.265625 -13.25 C 21.085938 -12.46875 21.5 -11.46875 21.5 -10.25 Z M 21.5 -10.25 "/></g></g></g><g fill="#000000" fill-opacity="1"><g transform="translate(415.110313, 724.028955)"><g/></g></g><g fill="#000000" fill-opacity="1"><g transform="translate(425.933058, 724.028955)"><g><path d="M 1.546875 0 L 1.546875 -14.421875 L 15.75 -14.421875 C 17.125 -14.421875 18.226562 -14.070312 19.0625 -13.375 C 19.90625 -12.695312 20.328125 -11.785156 20.328125 -10.640625 L 20.328125 -10.265625 C 20.328125 -9.191406 19.789062 -8.3125 18.71875 -7.625 C 19.414062 -7.289062 19.960938 -6.835938 20.359375 -6.265625 C 20.753906 -5.703125 20.953125 -5.0625 20.953125 -4.34375 L 20.953125 -4 C 20.953125 -2.800781 20.519531 -1.832031 19.65625 -1.09375 C 18.8125 -0.363281 17.679688 0 16.265625 0 Z M 15.75 -5.75 L 5.578125 -5.75 L 5.578125 -3.5625 L 15.75 -3.5625 C 16.113281 -3.5625 16.398438 -3.644531 16.609375 -3.8125 C 16.816406 -3.976562 16.921875 -4.207031 16.921875 -4.5 L 16.921875 -4.84375 C 16.921875 -5.445312 16.53125 -5.75 15.75 -5.75 Z M 15.203125 -10.859375 L 5.578125 -10.859375 L 5.578125 -8.765625 L 15.203125 -8.765625 C 15.921875 -8.765625 16.28125 -9.050781 16.28125 -9.625 L 16.28125 -10.015625 C 16.28125 -10.578125 15.921875 -10.859375 15.203125 -10.859375 Z M 15.203125 -10.859375 "/></g></g></g><g fill="#000000" fill-opacity="1"><g transform="translate(447.702244, 724.028955)"><g><path d="M 17.453125 -4.78125 L 17.453125 -9.640625 C 17.453125 -10.003906 17.332031 -10.296875 17.09375 -10.515625 C 16.863281 -10.742188 16.570312 -10.859375 16.21875 -10.859375 L 6.453125 -10.859375 C 6.109375 -10.859375 5.816406 -10.742188 5.578125 -10.515625 C 5.347656 -10.296875 5.234375 -10.003906 5.234375 -9.640625 L 5.234375 -4.78125 C 5.234375 -4.425781 5.347656 -4.132812 5.578125 -3.90625 C 5.816406 -3.675781 6.109375 -3.5625 6.453125 -3.5625 L 16.21875 -3.5625 C 16.570312 -3.5625 16.863281 -3.675781 17.09375 -3.90625 C 17.332031 -4.132812 17.453125 -4.425781 17.453125 -4.78125 Z M 21.5 -10.25 L 21.5 -4.1875 C 21.5 -2.957031 21.085938 -1.953125 20.265625 -1.171875 C 19.460938 -0.390625 18.410156 0 17.109375 0 L 5.609375 0 C 4.316406 0 3.257812 -0.390625 2.4375 -1.171875 C 1.613281 -1.953125 1.203125 -2.957031 1.203125 -4.1875 L 1.203125 -10.25 C 1.203125 -11.46875 1.613281 -12.46875 2.4375 -13.25 C 3.257812 -14.03125 4.316406 -14.421875 5.609375 -14.421875 L 17.109375 -14.421875 C 18.410156 -14.421875 19.460938 -14.03125 20.265625 -13.25 C 21.085938 -12.46875 21.5 -11.46875 21.5 -10.25 Z M 21.5 -10.25 "/></g></g></g><g fill="#000000" fill-opacity="1"><g transform="translate(470.399088, 724.028955)"><g><path d="M 7.5625 -7.34375 L -0.109375 -14.421875 L 5.5 -14.421875 L 10.3125 -9.8125 L 15.140625 -14.421875 L 20.71875 -14.421875 L 13.0625 -7.34375 L 21 0 L 15.484375 0 L 10.328125 -4.734375 L 5.125 0 L -0.375 0 Z M 7.5625 -7.34375 "/></g></g></g><g fill="#000000" fill-opacity="1"><g transform="translate(491.03445, 724.028955)"><g><path d="M 18.9375 -8.9375 L 18.9375 -5.5 L 5.578125 -5.5 L 5.578125 -3.5625 L 19.46875 -3.5625 L 19.46875 0 L 1.546875 0 L 1.546875 -14.421875 L 19.4375 -14.421875 L 19.4375 -10.859375 L 5.578125 -10.859375 L 5.578125 -8.9375 Z M 18.9375 -8.9375 "/></g></g></g><g fill="#000000" fill-opacity="1"><g transform="translate(319.109353, 747.267478)"><g><path d="M 3.46875 -11.40625 L 5.4375 -11.40625 L 5.4375 0 L 2.25 0 L 2.25 -8.234375 L 0.484375 -7.75 L 0.484375 -10.59375 Z M 3.46875 -11.40625 "/></g></g></g><g fill="#000000" fill-opacity="1"><g transform="translate(325.800853, 747.267478)"><g><path d="M 3.890625 -11.40625 L 11.109375 -11.40625 C 12.128906 -11.40625 12.96875 -11.097656 13.625 -10.484375 C 14.28125 -9.859375 14.609375 -9.0625 14.609375 -8.09375 L 14.609375 -3.3125 C 14.609375 -2.34375 14.28125 -1.546875 13.625 -0.921875 C 12.96875 -0.304688 12.128906 0 11.109375 0 L 1.3125 0 L 1.3125 -2.8125 L 10.453125 -2.8125 C 10.722656 -2.8125 10.945312 -2.898438 11.125 -3.078125 C 11.3125 -3.265625 11.40625 -3.5 11.40625 -3.78125 L 11.40625 -4.4375 L 3.90625 -4.4375 C 2.863281 -4.4375 2.070312 -4.671875 1.53125 -5.140625 C 0.988281 -5.617188 0.71875 -6.320312 0.71875 -7.25 L 0.71875 -8.203125 C 0.71875 -9.191406 1 -9.972656 1.5625 -10.546875 C 2.132812 -11.117188 2.910156 -11.40625 3.890625 -11.40625 Z M 3.90625 -8.234375 L 3.90625 -7.234375 C 3.90625 -7.128906 3.941406 -7.039062 4.015625 -6.96875 C 4.085938 -6.90625 4.175781 -6.875 4.28125 -6.875 L 11.40625 -6.875 L 11.40625 -8.234375 C 11.40625 -8.335938 11.367188 -8.421875 11.296875 -8.484375 C 11.234375 -8.554688 11.144531 -8.59375 11.03125 -8.59375 L 4.28125 -8.59375 C 4.175781 -8.59375 4.085938 -8.554688 4.015625 -8.484375 C 3.941406 -8.421875 3.90625 -8.335938 3.90625 -8.234375 Z M 3.90625 -8.234375 "/></g></g></g><g fill="#000000" fill-opacity="1"><g transform="translate(341.41435, 747.267478)"><g><path d="M 1.21875 -11.40625 L 4.421875 -11.40625 L 4.421875 -6.96875 L 12.90625 -6.96875 L 12.90625 -11.40625 L 16.09375 -11.40625 L 16.09375 0 L 12.90625 0 L 12.90625 -4.15625 L 4.421875 -4.15625 L 4.421875 0 L 1.21875 0 Z M 1.21875 -11.40625 "/></g></g></g><g fill="#000000" fill-opacity="1"><g transform="translate(358.721068, 747.267478)"><g><path d="M 12.96875 -3.78125 L 12.96875 -7.625 C 12.96875 -7.90625 12.875 -8.132812 12.6875 -8.3125 C 12.507812 -8.5 12.28125 -8.59375 12 -8.59375 L 5.1875 -8.59375 C 4.90625 -8.59375 4.671875 -8.5 4.484375 -8.3125 C 4.304688 -8.132812 4.21875 -7.90625 4.21875 -7.625 L 4.21875 -3.78125 C 4.21875 -3.5 4.304688 -3.265625 4.484375 -3.078125 C 4.671875 -2.898438 4.90625 -2.8125 5.1875 -2.8125 L 12 -2.8125 C 12.28125 -2.8125 12.507812 -2.898438 12.6875 -3.078125 C 12.875 -3.265625 12.96875 -3.5 12.96875 -3.78125 Z M 16.171875 -8.09375 L 16.171875 -3.3125 C 16.171875 -2.34375 15.84375 -1.546875 15.1875 -0.921875 C 14.5625 -0.304688 13.726562 0 12.6875 0 L 4.515625 0 C 3.492188 0 2.65625 -0.304688 2 -0.921875 C 1.351562 -1.546875 1.03125 -2.34375 1.03125 -3.3125 L 1.03125 -8.09375 C 1.03125 -9.0625 1.351562 -9.859375 2 -10.484375 C 2.65625 -11.097656 3.492188 -11.40625 4.515625 -11.40625 L 12.6875 -11.40625 C 13.726562 -11.40625 14.5625 -11.097656 15.1875 -10.484375 C 15.84375 -9.859375 16.171875 -9.0625 16.171875 -8.09375 Z M 16.171875 -8.09375 "/></g></g></g><g fill="#000000" fill-opacity="1"><g transform="translate(375.897536, 747.267478)"><g><path d="M 12.96875 -3.78125 L 12.96875 -7.625 C 12.96875 -7.90625 12.875 -8.132812 12.6875 -8.3125 C 12.507812 -8.5 12.28125 -8.59375 12 -8.59375 L 5.1875 -8.59375 C 4.90625 -8.59375 4.671875 -8.5 4.484375 -8.3125 C 4.304688 -8.132812 4.21875 -7.90625 4.21875 -7.625 L 4.21875 -3.78125 C 4.21875 -3.5 4.304688 -3.265625 4.484375 -3.078125 C 4.671875 -2.898438 4.90625 -2.8125 5.1875 -2.8125 L 12 -2.8125 C 12.28125 -2.8125 12.507812 -2.898438 12.6875 -3.078125 C 12.875 -3.265625 12.96875 -3.5 12.96875 -3.78125 Z M 16.171875 -8.09375 L 16.171875 -3.3125 C 16.171875 -2.34375 15.84375 -1.546875 15.1875 -0.921875 C 14.5625 -0.304688 13.726562 0 12.6875 0 L 4.515625 0 C 3.492188 0 2.65625 -0.304688 2 -0.921875 C 1.351562 -1.546875 1.03125 -2.34375 1.03125 -3.3125 L 1.03125 -8.09375 C 1.03125 -9.0625 1.351562 -9.859375 2 -10.484375 C 2.65625 -11.097656 3.492188 -11.40625 4.515625 -11.40625 L 12.6875 -11.40625 C 13.726562 -11.40625 14.5625 -11.097656 15.1875 -10.484375 C 15.84375 -9.859375 16.171875 -9.0625 16.171875 -8.09375 Z M 16.171875 -8.09375 "/></g></g></g><g fill="#000000" fill-opacity="1"><g transform="translate(393.074004, 747.267478)"><g/></g></g><g fill="#000000" fill-opacity="1"><g transform="translate(401.621541, 747.267478)"><g><path d="M 9.453125 -6.84375 L 9.453125 -4.921875 L 1.015625 -4.921875 L 1.015625 -6.84375 Z M 9.453125 -6.84375 "/></g></g></g><g fill="#000000" fill-opacity="1"><g transform="translate(412.073955, 747.267478)"><g/></g></g><g fill="#000000" fill-opacity="1"><g transform="translate(420.621491, 747.267478)"><g><path d="M 3.46875 -11.40625 L 5.4375 -11.40625 L 5.4375 0 L 2.25 0 L 2.25 -8.234375 L 0.484375 -7.75 L 0.484375 -10.59375 Z M 3.46875 -11.40625 "/></g></g></g><g fill="#000000" fill-opacity="1"><g transform="translate(427.312992, 747.267478)"><g><path d="M 3.890625 -11.40625 L 11.109375 -11.40625 C 12.128906 -11.40625 12.96875 -11.097656 13.625 -10.484375 C 14.28125 -9.859375 14.609375 -9.0625 14.609375 -8.09375 L 14.609375 -3.3125 C 14.609375 -2.34375 14.28125 -1.546875 13.625 -0.921875 C 12.96875 -0.304688 12.128906 0 11.109375 0 L 1.3125 0 L 1.3125 -2.8125 L 10.453125 -2.8125 C 10.722656 -2.8125 10.945312 -2.898438 11.125 -3.078125 C 11.3125 -3.265625 11.40625 -3.5 11.40625 -3.78125 L 11.40625 -4.4375 L 3.90625 -4.4375 C 2.863281 -4.4375 2.070312 -4.671875 1.53125 -5.140625 C 0.988281 -5.617188 0.71875 -6.320312 0.71875 -7.25 L 0.71875 -8.203125 C 0.71875 -9.191406 1 -9.972656 1.5625 -10.546875 C 2.132812 -11.117188 2.910156 -11.40625 3.890625 -11.40625 Z M 3.90625 -8.234375 L 3.90625 -7.234375 C 3.90625 -7.128906 3.941406 -7.039062 4.015625 -6.96875 C 4.085938 -6.90625 4.175781 -6.875 4.28125 -6.875 L 11.40625 -6.875 L 11.40625 -8.234375 C 11.40625 -8.335938 11.367188 -8.421875 11.296875 -8.484375 C 11.234375 -8.554688 11.144531 -8.59375 11.03125 -8.59375 L 4.28125 -8.59375 C 4.175781 -8.59375 4.085938 -8.554688 4.015625 -8.484375 C 3.941406 -8.421875 3.90625 -8.335938 3.90625 -8.234375 Z M 3.90625 -8.234375 "/></g></g></g><g fill="#000000" fill-opacity="1"><g transform="translate(442.926489, 747.267478)"><g><path d="M 1.21875 -11.40625 L 4.421875 -11.40625 L 4.421875 -6.96875 L 12.90625 -6.96875 L 12.90625 -11.40625 L 16.09375 -11.40625 L 16.09375 0 L 12.90625 0 L 12.90625 -4.15625 L 4.421875 -4.15625 L 4.421875 0 L 1.21875 0 Z M 1.21875 -11.40625 "/></g></g></g><g fill="#000000" fill-opacity="1"><g transform="translate(460.233207, 747.267478)"><g><path d="M 0.53125 -1.890625 L 0.53125 -5.796875 L 9.15625 -11.40625 L 13.390625 -11.40625 L 13.390625 -4.5 L 14.84375 -4.5 L 14.84375 -1.890625 L 13.390625 -1.890625 L 13.390625 0 L 10.203125 0 L 10.203125 -1.890625 Z M 3.546875 -4.59375 L 3.546875 -4.5 L 10.203125 -4.5 L 10.203125 -8.59375 L 10.078125 -8.59375 Z M 3.546875 -4.59375 "/></g></g></g><g fill="#000000" fill-opacity="1"><g transform="translate(475.602481, 747.267478)"><g><path d="M 11.109375 0 L 1.078125 0 L 1.078125 -2.8125 L 10.984375 -2.8125 C 11.085938 -2.8125 11.175781 -2.84375 11.25 -2.90625 C 11.320312 -2.976562 11.359375 -3.066406 11.359375 -3.171875 L 11.359375 -4.109375 C 11.359375 -4.210938 11.320312 -4.296875 11.25 -4.359375 C 11.175781 -4.429688 11.085938 -4.46875 10.984375 -4.46875 L 1.125 -4.46875 L 1.125 -11.40625 L 13.84375 -11.40625 L 13.84375 -8.59375 L 4.3125 -8.59375 L 4.3125 -7.15625 L 11.109375 -7.15625 C 12.203125 -7.15625 13.046875 -6.898438 13.640625 -6.390625 C 14.242188 -5.878906 14.546875 -5.15625 14.546875 -4.21875 L 14.546875 -2.859375 C 14.546875 -1.929688 14.253906 -1.222656 13.671875 -0.734375 C 13.085938 -0.242188 12.234375 0 11.109375 0 Z M 11.109375 0 "/></g></g></g><g clip-path="url(#70d46358d7)"><path stroke-linecap="butt" transform="matrix(0.74963, 0, 0, 0.74963, 0.199913, 509.825478)" fill="none" stroke-linejoin="miter" d="M -0.000926494 2.999802 L 1080.000971 2.999802 " stroke="#ffffff" stroke-width="6" stroke-opacity="1" stroke-miterlimit="4"/></g><g fill="#ffffff" fill-opacity="1"><g transform="translate(269.832367, 72.472079)"><g><path d="M 29.796875 -24.546875 L 37.875 -24.546875 L 22.4375 0 L 15.328125 0 L -0.109375 -24.546875 L 7.953125 -24.546875 L 18.859375 -6.375 Z M 29.796875 -24.546875 "/></g></g></g><g fill="#ffffff" fill-opacity="1"><g transform="translate(307.588607, 72.472079)"><g><path d="M 32.21875 -15.21875 L 32.21875 -9.359375 L 9.5 -9.359375 L 9.5 -6.0625 L 33.140625 -6.0625 L 33.140625 0 L 2.625 0 L 2.625 -24.546875 L 33.0625 -24.546875 L 33.0625 -18.484375 L 9.5 -18.484375 L 9.5 -15.21875 Z M 32.21875 -15.21875 "/></g></g></g><g fill="#ffffff" fill-opacity="1"><g transform="translate(342.680524, 72.472079)"><g><path d="M 34.578125 0 L 27.34375 0 L 9.5 -16.4375 L 9.5 0 L 2.625 0 L 2.625 -24.546875 L 9.859375 -24.546875 L 27.703125 -8.09375 L 27.703125 -24.546875 L 34.578125 -24.546875 Z M 34.578125 0 "/></g></g></g><g fill="#ffffff" fill-opacity="1"><g transform="translate(379.875856, 72.472079)"><g><path d="M 29 0 L 2.625 0 L 2.625 -24.546875 L 29 -24.546875 C 31.21875 -24.546875 33.003906 -23.878906 34.359375 -22.546875 C 35.765625 -21.210938 36.46875 -19.503906 36.46875 -17.421875 L 36.46875 -7.125 C 36.46875 -5.039062 35.765625 -3.332031 34.359375 -2 C 33.003906 -0.664062 31.21875 0 29 0 Z M 27.484375 -18.484375 L 9.5 -18.484375 L 9.5 -6.0625 L 27.484375 -6.0625 C 28.097656 -6.0625 28.601562 -6.253906 29 -6.640625 C 29.394531 -7.023438 29.59375 -7.523438 29.59375 -8.140625 L 29.59375 -16.40625 C 29.59375 -17.019531 29.394531 -17.519531 29 -17.90625 C 28.601562 -18.289062 28.097656 -18.484375 27.484375 -18.484375 Z M 27.484375 -18.484375 "/></g></g></g><g fill="#ffffff" fill-opacity="1"><g transform="translate(418.368285, 72.472079)"><g><path d="M 9.5 0 L 2.625 0 L 2.625 -24.546875 L 26.4375 -24.546875 C 28.84375 -24.546875 30.828125 -23.785156 32.390625 -22.265625 C 33.960938 -20.765625 34.75 -18.835938 34.75 -16.484375 L 34.75 -15.8125 C 34.75 -13.988281 34.1875 -12.382812 33.0625 -11 C 31.9375 -9.625 30.453125 -8.671875 28.609375 -8.140625 L 35.171875 0 L 27.390625 0 L 21.359375 -7.75 L 9.5 -7.75 Z M 25.5625 -18.484375 L 9.5 -18.484375 L 9.5 -13.609375 L 25.59375 -13.609375 C 26.289062 -13.609375 26.84375 -13.800781 27.25 -14.1875 C 27.664062 -14.570312 27.875 -15.09375 27.875 -15.75 L 27.875 -16.34375 C 27.875 -17 27.660156 -17.519531 27.234375 -17.90625 C 26.816406 -18.289062 26.257812 -18.484375 25.5625 -18.484375 Z M 25.5625 -18.484375 "/></g></g></g><g fill="#ffffff" fill-opacity="1"><g transform="translate(454.441792, 72.472079)"><g><path d="M 32.21875 -15.21875 L 32.21875 -9.359375 L 9.5 -9.359375 L 9.5 -6.0625 L 33.140625 -6.0625 L 33.140625 0 L 2.625 0 L 2.625 -24.546875 L 33.0625 -24.546875 L 33.0625 -18.484375 L 9.5 -18.484375 L 9.5 -15.21875 Z M 32.21875 -15.21875 "/></g></g></g><g fill="#ffffff" fill-opacity="1"><g transform="translate(489.533709, 72.472079)"><g><path d="M 29 0 L 2.625 0 L 2.625 -24.546875 L 29 -24.546875 C 31.21875 -24.546875 33.003906 -23.878906 34.359375 -22.546875 C 35.765625 -21.210938 36.46875 -19.503906 36.46875 -17.421875 L 36.46875 -7.125 C 36.46875 -5.039062 35.765625 -3.332031 34.359375 -2 C 33.003906 -0.664062 31.21875 0 29 0 Z M 27.484375 -18.484375 L 9.5 -18.484375 L 9.5 -6.0625 L 27.484375 -6.0625 C 28.097656 -6.0625 28.601562 -6.253906 29 -6.640625 C 29.394531 -7.023438 29.59375 -7.523438 29.59375 -8.140625 L 29.59375 -16.40625 C 29.59375 -17.019531 29.394531 -17.519531 29 -17.90625 C 28.601562 -18.289062 28.097656 -18.484375 27.484375 -18.484375 Z M 27.484375 -18.484375 "/></g></g></g><g fill="#ffffff" fill-opacity="1"><g transform="translate(528.02615, 72.472079)"><g><path d="M 2.625 -24.546875 L 9.5 -24.546875 L 9.5 0 L 2.625 0 Z M 2.625 -24.546875 "/></g></g></g></svg>